<svg width="85" height="85" viewBox="0 0 85 85" fill="none" xmlns="http://www.w3.org/2000/svg">
<path d="M42.4995 6.62329C24.5612 6.62329 6.62335 15.5926 6.62335 29.0462C6.62335 38.0154 13.3502 42.4998 13.3502 51.469C13.3502 58.196 11.1079 58.196 11.1079 62.6806C11.1079 64.9226 18.2848 67.4645 24.5614 69.4073V78.3765H60.4376V69.4073C60.4376 69.4073 73.9761 65.228 73.8913 62.6803C73.7518 58.5026 71.649 58.1957 71.649 51.469C71.649 46.9844 78.4719 37.8029 78.3756 29.0462C78.3756 15.5923 60.4376 6.62329 42.4995 6.62329ZM29.0458 33.5306C33.9993 33.5306 38.015 37.5465 38.015 42.4999C38.015 47.4533 33.9993 51.4692 29.0458 51.4692C24.0927 51.469 20.0771 47.4532 20.0771 42.4998C20.0771 37.5463 24.0926 33.5305 29.046 33.5305L29.0458 33.5306ZM55.953 33.5306C60.9064 33.5306 64.9221 37.5465 64.9221 42.4999C64.9221 47.4533 60.9064 51.4692 55.953 51.4692C50.9996 51.4692 46.9838 47.4533 46.9838 42.4999C46.9838 37.5465 50.9996 33.5306 55.953 33.5306ZM42.4995 49.2269C44.7418 49.2269 49.2264 58.1961 49.2264 60.4384C49.2264 64.9228 49.2264 64.9228 46.9841 64.9228H38.015C35.7727 64.9228 35.7727 64.9228 35.7727 60.4381C35.7727 58.1958 40.2573 49.2269 42.4995 49.2269Z" fill="#C6684E"/>
</svg>
