<svg width="632" height="257" viewBox="0 0 632 257" fill="none" xmlns="http://www.w3.org/2000/svg">
<rect width="632" height="257" fill="#C6684E"/>
<rect x="111.5" y="58.5" width="408" height="141" stroke="#6B2D2B"/>
<rect x="9.5" y="10.5" width="611" height="237" stroke="#6B2D2B" stroke-width="3"/>
<rect x="16" y="17" width="50" height="223" fill="#6B2D2B"/>
<rect width="50" height="223" transform="matrix(-1 0 0 1 614 17)" fill="#6B2D2B"/>
<path d="M70.75 17H245.5V50.1092H102.819V208.838H178V240H70.75V17Z" fill="#6B2D2B"/>
<path d="M559.25 17H383V50.1092H527.181V208.838H451V240H559.25V17Z" fill="#6B2D2B"/>
<mask id="path-8-inside-1_23_1046" fill="white">
<rect x="396" y="26" width="23" height="13" rx="2"/>
</mask>
<rect x="396" y="26" width="23" height="13" rx="2" stroke="#C6684E" stroke-width="6" mask="url(#path-8-inside-1_23_1046)"/>
<mask id="path-9-inside-2_23_1046" fill="white">
<rect x="428" y="26" width="23" height="13" rx="2"/>
</mask>
<rect x="428" y="26" width="23" height="13" rx="2" stroke="#C6684E" stroke-width="6" mask="url(#path-9-inside-2_23_1046)"/>
<mask id="path-10-inside-3_23_1046" fill="white">
<rect x="460" y="26" width="23" height="13" rx="2"/>
</mask>
<rect x="460" y="26" width="23" height="13" rx="2" stroke="#C6684E" stroke-width="6" mask="url(#path-10-inside-3_23_1046)"/>
<mask id="path-11-inside-4_23_1046" fill="white">
<rect x="492" y="26" width="23" height="13" rx="2"/>
</mask>
<rect x="492" y="26" width="23" height="13" rx="2" stroke="#C6684E" stroke-width="6" mask="url(#path-11-inside-4_23_1046)"/>
<mask id="path-12-inside-5_23_1046" fill="white">
<rect x="524" y="26" width="23" height="13" rx="2"/>
</mask>
<rect x="524" y="26" width="23" height="13" rx="2" stroke="#C6684E" stroke-width="6" mask="url(#path-12-inside-5_23_1046)"/>
<rect x="412" y="31" width="23" height="4" fill="#C6684E" stroke="#6B2D2B"/>
<rect x="384" y="31" width="19" height="4" fill="#C6684E" stroke="#6B2D2B"/>
<rect x="444" y="31" width="23" height="4" fill="#C6684E" stroke="#6B2D2B"/>
<rect x="476" y="31" width="23" height="4" fill="#C6684E" stroke="#6B2D2B"/>
<rect x="508" y="31" width="23" height="4" fill="#C6684E" stroke="#6B2D2B"/>
<mask id="path-18-inside-6_23_1046" fill="white">
<rect x="460" y="219" width="23" height="13" rx="2"/>
</mask>
<rect x="460" y="219" width="23" height="13" rx="2" stroke="#C6684E" stroke-width="6" mask="url(#path-18-inside-6_23_1046)"/>
<mask id="path-19-inside-7_23_1046" fill="white">
<rect x="492" y="219" width="23" height="13" rx="2"/>
</mask>
<rect x="492" y="219" width="23" height="13" rx="2" stroke="#C6684E" stroke-width="6" mask="url(#path-19-inside-7_23_1046)"/>
<mask id="path-20-inside-8_23_1046" fill="white">
<rect x="524" y="219" width="23" height="13" rx="2"/>
</mask>
<rect x="524" y="219" width="23" height="13" rx="2" stroke="#C6684E" stroke-width="6" mask="url(#path-20-inside-8_23_1046)"/>
<rect x="476" y="224" width="23" height="4" fill="#C6684E" stroke="#6B2D2B"/>
<rect x="452" y="224" width="12" height="4" fill="#C6684E" stroke="#6B2D2B"/>
<rect x="508" y="224" width="23" height="4" fill="#C6684E" stroke="#6B2D2B"/>
<path d="M39 229L23 222L43 214L58 222L39 229Z" fill="#C6684E" stroke="#6B2D2B"/>
<path d="M39 224L23 217L43 209L58 217L39 224Z" fill="#C6684E" stroke="#6B2D2B"/>
<path d="M39 219L23 212L43 204L58 212L39 219Z" fill="#C6684E" stroke="#6B2D2B"/>
<path d="M587 229L571 222L591 214L606 222L587 229Z" fill="#C6684E" stroke="#6B2D2B"/>
<path d="M587 224L571 217L591 209L606 217L587 224Z" fill="#C6684E" stroke="#6B2D2B"/>
<path d="M587 219L571 212L591 204L606 212L587 219Z" fill="#C6684E" stroke="#6B2D2B"/>
<path d="M39 29L23 36L43 44L58 36L39 29Z" fill="#C6684E" stroke="#6B2D2B"/>
<path d="M39 34L23 41L43 49L58 41L39 34Z" fill="#C6684E" stroke="#6B2D2B"/>
<path d="M39 39L23 46L43 54L58 46L39 39Z" fill="#C6684E" stroke="#6B2D2B"/>
<path d="M587 29L571 36L591 44L606 36L587 29Z" fill="#C6684E" stroke="#6B2D2B"/>
<path d="M587 34L571 41L591 49L606 41L587 34Z" fill="#C6684E" stroke="#6B2D2B"/>
<path d="M587 39L571 46L591 54L606 46L587 39Z" fill="#C6684E" stroke="#6B2D2B"/>
<path d="M36 85.4338L44.7273 85.4338L44.7273 88.3826C44.7273 89.0645 44.6108 89.6241 44.3778 90.0616C44.1477 90.4991 43.831 90.823 43.4276 91.0332C43.0241 91.2434 42.5653 91.3485 42.0511 91.3485C41.5369 91.3485 41.081 91.2434 40.6832 91.0332C40.2855 90.823 39.973 90.5005 39.7457 90.0659C39.5213 89.6312 39.4091 89.0758 39.4091 88.3997L39.4091 86.0133L40.3636 86.0133L40.3636 88.3656C40.3636 88.8315 40.4318 89.2065 40.5682 89.4906C40.7045 89.7775 40.8977 89.9849 41.1477 90.1127C41.4006 90.2434 41.7017 90.3088 42.0511 90.3088C42.4006 90.3088 42.706 90.2434 42.9673 90.1127C43.2287 89.9821 43.4304 89.7733 43.5724 89.4863C43.7173 89.1994 43.7898 88.8201 43.7898 88.3485L43.7898 86.4906L36 86.4906L36 85.4338ZM39.9205 89.5417L36 91.6895L36 90.4622L39.9205 88.3485L39.9205 89.5417ZM36 93.7096L44.7273 93.7096L44.7273 98.9766L43.7898 98.9766L43.7898 94.7664L40.8409 94.7664L40.8409 98.7039L39.9034 98.7039L39.9034 94.7664L36.9375 94.7664L36.9375 99.0448L36 99.0448L36 93.7096ZM36 101.481L44.7273 101.481L44.7273 106.714L43.7898 106.714L43.7898 102.538L40.8409 102.538L40.8409 106.322L39.9034 106.322L39.9034 102.538L36 102.538L36 101.481ZM36 109.124L44.7273 109.124L44.7273 110.181L36.9375 110.181L36.9375 114.238L36 114.238L36 109.124ZM36 116.474L44.7273 116.474L44.7273 121.741L43.7898 121.741L43.7898 117.531L40.8409 117.531L40.8409 121.469L39.9034 121.469L39.9034 117.531L36.9375 117.531L36.9375 121.81L36 121.81L36 116.474ZM42 131.269L42 130.212C42.304 130.15 42.571 130.04 42.8011 129.884C43.0312 129.731 43.2244 129.543 43.3807 129.322C43.5398 129.103 43.6591 128.86 43.7386 128.593C43.8182 128.326 43.858 128.047 43.858 127.758C43.858 127.229 43.7244 126.751 43.4574 126.322C43.1903 125.895 42.7969 125.556 42.277 125.303C41.7571 125.053 41.1193 124.928 40.3636 124.928C39.608 124.928 38.9702 125.053 38.4503 125.303C37.9304 125.556 37.5369 125.895 37.2699 126.322C37.0028 126.751 36.8693 127.229 36.8693 127.758C36.8693 128.047 36.9091 128.326 36.9886 128.593C37.0682 128.86 37.1861 129.103 37.3423 129.322C37.5014 129.543 37.696 129.731 37.9261 129.884C38.1591 130.04 38.4261 130.15 38.7273 130.212L38.7273 131.269C38.2812 131.189 37.8821 131.045 37.5298 130.834C37.1776 130.624 36.8778 130.363 36.6307 130.05C36.3864 129.738 36.2003 129.387 36.0724 128.998C35.9446 128.611 35.8807 128.198 35.8807 127.758C35.8807 127.013 36.0625 126.351 36.4261 125.772C36.7898 125.192 37.3068 124.736 37.9773 124.404C38.6477 124.072 39.4432 123.905 40.3636 123.905C41.2841 123.905 42.0795 124.072 42.75 124.404C43.4205 124.736 43.9375 125.192 44.3011 125.772C44.6648 126.351 44.8466 127.013 44.8466 127.758C44.8466 128.198 44.7827 128.611 44.6548 128.998C44.527 129.387 44.3395 129.738 44.0923 130.05C43.848 130.363 43.5497 130.624 43.1974 130.834C42.848 131.045 42.4489 131.189 42 131.269ZM43.7898 133.099L44.7273 133.099L44.7273 139.645L43.7898 139.645L43.7898 136.901L36 136.901L36 135.844L43.7898 135.844L43.7898 133.099ZM44.7273 142.933L36 142.933L36 141.876L44.7273 141.876L44.7273 142.933ZM40.3636 153.015C39.4432 153.015 38.6477 152.849 37.9773 152.517C37.3068 152.184 36.7898 151.728 36.4261 151.149C36.0625 150.569 35.8807 149.907 35.8807 149.163C35.8807 148.419 36.0625 147.757 36.4261 147.177C36.7898 146.598 37.3068 146.142 37.9773 145.809C38.6477 145.477 39.4432 145.311 40.3636 145.311C41.2841 145.311 42.0795 145.477 42.75 145.809C43.4205 146.142 43.9375 146.598 44.3011 147.177C44.6648 147.757 44.8466 148.419 44.8466 149.163C44.8466 149.907 44.6648 150.569 44.3011 151.149C43.9375 151.728 43.4205 152.184 42.75 152.517C42.0795 152.849 41.2841 153.015 40.3636 153.015ZM40.3636 151.993C41.1193 151.993 41.7571 151.866 42.277 151.613C42.7969 151.363 43.1903 151.024 43.4574 150.595C43.7244 150.169 43.858 149.692 43.858 149.163C43.858 148.635 43.7244 148.156 43.4574 147.727C43.1903 147.301 42.7969 146.961 42.277 146.709C41.7571 146.459 41.1193 146.334 40.3636 146.334C39.608 146.334 38.9702 146.459 38.4503 146.709C37.9304 146.961 37.5369 147.301 37.2699 147.727C37.0028 148.156 36.8693 148.635 36.8693 149.163C36.8693 149.692 37.0028 150.169 37.2699 150.595C37.5369 151.024 37.9304 151.363 38.4503 151.613C38.9702 151.866 39.608 151.993 40.3636 151.993ZM44.7273 162.313L36 162.313L36 161.29L42.8523 156.534L42.8523 156.449L36 156.449L36 155.392L44.7273 155.392L44.7273 156.415L37.858 161.188L37.858 161.273L44.7273 161.273L44.7273 162.313ZM42.5455 169.8C42.9773 169.749 43.3125 169.542 43.5511 169.178C43.7898 168.814 43.9091 168.368 43.9091 167.84C43.9091 167.454 43.8466 167.116 43.7216 166.826C43.5966 166.539 43.4247 166.314 43.206 166.153C42.9872 165.993 42.7386 165.914 42.4602 165.914C42.2273 165.914 42.027 165.969 41.8594 166.08C41.6946 166.194 41.5568 166.339 41.446 166.515C41.3381 166.691 41.2486 166.876 41.1776 167.069C41.1094 167.262 41.054 167.439 41.0114 167.601L40.7727 168.488C40.7131 168.715 40.6307 168.968 40.5256 169.246C40.4205 169.528 40.277 169.796 40.0952 170.052C39.9162 170.31 39.6861 170.523 39.4048 170.691C39.1236 170.858 38.7784 170.942 38.3693 170.942C37.8977 170.942 37.4716 170.819 37.0909 170.572C36.7102 170.327 36.4077 169.969 36.1832 169.498C35.9588 169.029 35.8466 168.459 35.8466 167.789C35.8466 167.164 35.9474 166.623 36.1491 166.165C36.3508 165.711 36.6321 165.353 36.9929 165.091C37.3537 164.833 37.7727 164.687 38.25 164.653L38.25 165.743C37.9205 165.772 37.6477 165.883 37.4318 166.076C37.2187 166.272 37.0597 166.519 36.9545 166.817C36.8523 167.118 36.8011 167.442 36.8011 167.789C36.8011 168.192 36.8665 168.555 36.9972 168.876C37.1307 169.197 37.3153 169.451 37.5511 169.638C37.7898 169.826 38.0682 169.92 38.3864 169.92C38.6761 169.92 38.9119 169.839 39.0937 169.677C39.2756 169.515 39.4233 169.302 39.5369 169.037C39.6506 168.773 39.75 168.488 39.8352 168.181L40.142 167.107C40.3381 166.425 40.6179 165.885 40.9815 165.488C41.3452 165.09 41.821 164.891 42.4091 164.891C42.8977 164.891 43.3239 165.023 43.6875 165.287C44.054 165.555 44.3381 165.912 44.5398 166.361C44.7443 166.813 44.8466 167.317 44.8466 167.874C44.8466 168.437 44.7457 168.937 44.544 169.374C44.3452 169.812 44.0724 170.158 43.7258 170.414C43.3793 170.672 42.9858 170.809 42.5455 170.823L42.5455 169.8Z" fill="#C6684E"/>
<path d="M593 159.662L584.273 159.662L584.273 154.394L585.21 154.394L585.21 158.605L588.159 158.605L588.159 154.667L589.097 154.667L589.097 158.605L592.062 158.605L592.062 154.326L593 154.326L593 159.662ZM586.455 147.117C586.023 147.168 585.687 147.375 585.449 147.739C585.21 148.103 585.091 148.549 585.091 149.077C585.091 149.464 585.153 149.802 585.278 150.091C585.403 150.378 585.575 150.603 585.794 150.765C586.013 150.924 586.261 151.003 586.54 151.003C586.773 151.003 586.973 150.948 587.141 150.837C587.305 150.723 587.443 150.579 587.554 150.402C587.662 150.226 587.751 150.042 587.822 149.848C587.891 149.655 587.946 149.478 587.989 149.316L588.227 148.429C588.287 148.202 588.369 147.949 588.474 147.671C588.58 147.39 588.723 147.121 588.905 146.866C589.084 146.607 589.314 146.394 589.595 146.226C589.876 146.059 590.222 145.975 590.631 145.975C591.102 145.975 591.528 146.098 591.909 146.346C592.29 146.59 592.592 146.948 592.817 147.419C593.041 147.888 593.153 148.458 593.153 149.128C593.153 149.753 593.053 150.294 592.851 150.752C592.649 151.206 592.368 151.564 592.007 151.826C591.646 152.084 591.227 152.231 590.75 152.265L590.75 151.174C591.08 151.145 591.352 151.035 591.568 150.841C591.781 150.645 591.94 150.398 592.045 150.1C592.148 149.799 592.199 149.475 592.199 149.128C592.199 148.725 592.134 148.363 592.003 148.042C591.869 147.721 591.685 147.466 591.449 147.279C591.21 147.091 590.932 146.998 590.614 146.998C590.324 146.998 590.088 147.079 589.906 147.241C589.724 147.402 589.577 147.616 589.463 147.88C589.349 148.144 589.25 148.429 589.165 148.736L588.858 149.81C588.662 150.492 588.382 151.032 588.018 151.429C587.655 151.827 587.179 152.026 586.591 152.026C586.102 152.026 585.676 151.894 585.312 151.63C584.946 151.363 584.662 151.005 584.46 150.556C584.256 150.104 584.153 149.6 584.153 149.043C584.153 148.481 584.254 147.981 584.456 147.543C584.655 147.106 584.928 146.759 585.274 146.503C585.621 146.245 586.014 146.108 586.455 146.094L586.455 147.117ZM585.21 144.115L584.273 144.115L584.273 137.569L585.21 137.569L585.21 140.313L593 140.313L593 141.37L585.21 141.37L585.21 144.115ZM593.068 135.152C593.068 135.362 592.993 135.542 592.842 135.693C592.692 135.843 592.511 135.919 592.301 135.919C592.091 135.919 591.911 135.843 591.76 135.693C591.609 135.542 591.534 135.362 591.534 135.152C591.534 134.941 591.609 134.761 591.76 134.61C591.911 134.46 592.091 134.385 592.301 134.385C592.44 134.385 592.568 134.42 592.685 134.491C592.801 134.559 592.895 134.652 592.966 134.768C593.034 134.882 593.068 135.01 593.068 135.152ZM593 128.022L592.233 128.022L589.08 125.141C588.71 124.803 588.389 124.525 588.116 124.306C587.841 124.087 587.582 123.925 587.341 123.82C587.097 123.712 586.841 123.658 586.574 123.658C586.267 123.658 586.001 123.732 585.777 123.88C585.553 124.025 585.379 124.224 585.257 124.477C585.135 124.729 585.074 125.013 585.074 125.329C585.074 125.664 585.143 125.957 585.283 126.207C585.419 126.454 585.611 126.646 585.858 126.782C586.105 126.915 586.395 126.982 586.727 126.982L586.727 127.988C586.216 127.988 585.767 127.87 585.381 127.634C584.994 127.398 584.693 127.077 584.477 126.671C584.261 126.262 584.153 125.803 584.153 125.295C584.153 124.783 584.261 124.33 584.477 123.935C584.693 123.54 584.984 123.231 585.351 123.006C585.717 122.782 586.125 122.67 586.574 122.67C586.895 122.67 587.209 122.728 587.516 122.844C587.82 122.958 588.159 123.157 588.534 123.441C588.906 123.722 589.361 124.113 589.898 124.613L591.994 126.573L592.062 126.573L592.062 122.516L593 122.516L593 128.022ZM593.119 117.31C593.119 117.952 592.945 118.499 592.595 118.95C592.243 119.402 591.733 119.747 591.065 119.986C590.395 120.225 589.585 120.344 588.636 120.344C587.693 120.344 586.888 120.225 586.22 119.986C585.55 119.744 585.038 119.398 584.686 118.946C584.331 118.492 584.153 117.946 584.153 117.31C584.153 116.673 584.331 116.129 584.686 115.678C585.038 115.223 585.55 114.877 586.22 114.638C586.888 114.396 587.693 114.276 588.636 114.276C589.585 114.276 590.395 114.395 591.065 114.634C591.733 114.872 592.243 115.217 592.595 115.669C592.945 116.121 593.119 116.668 593.119 117.31ZM592.182 117.31C592.182 116.673 591.875 116.179 591.261 115.827C590.648 115.475 589.773 115.298 588.636 115.298C587.881 115.298 587.237 115.379 586.706 115.541C586.175 115.7 585.77 115.931 585.491 116.232C585.213 116.53 585.074 116.889 585.074 117.31C585.074 117.94 585.385 118.433 586.007 118.788C586.626 119.144 587.503 119.321 588.636 119.321C589.392 119.321 590.034 119.242 590.562 119.082C591.091 118.923 591.493 118.695 591.768 118.396C592.044 118.095 592.182 117.733 592.182 117.31ZM593.119 109.21C593.119 109.852 592.945 110.399 592.595 110.85C592.243 111.302 591.733 111.647 591.065 111.886C590.395 112.125 589.585 112.244 588.636 112.244C587.693 112.244 586.888 112.125 586.22 111.886C585.55 111.644 585.038 111.298 584.686 110.846C584.331 110.392 584.153 109.846 584.153 109.21C584.153 108.573 584.331 108.029 584.686 107.578C585.038 107.123 585.55 106.777 586.22 106.538C586.888 106.296 587.693 106.176 588.636 106.176C589.585 106.176 590.395 106.295 591.065 106.534C591.733 106.772 592.243 107.117 592.595 107.569C592.945 108.021 593.119 108.568 593.119 109.21ZM592.182 109.21C592.182 108.573 591.875 108.079 591.261 107.727C590.648 107.375 589.773 107.198 588.636 107.198C587.881 107.198 587.237 107.279 586.706 107.441C586.175 107.6 585.77 107.831 585.491 108.132C585.213 108.43 585.074 108.789 585.074 109.21C585.074 109.84 585.385 110.333 586.007 110.688C586.626 111.044 587.503 111.221 588.636 111.221C589.392 111.221 590.034 111.142 590.562 110.982C591.091 110.823 591.493 110.595 591.768 110.296C592.044 109.995 592.182 109.633 592.182 109.21ZM584.273 100.888L593 100.888L593 101.945L585.381 101.945L585.381 101.996L586.795 104.127L585.722 104.127L584.273 101.945L584.273 100.888Z" fill="#C6684E"/>
<path d="M252.101 40.9688C252.155 40.9766 252.214 40.9844 252.277 40.9922C252.347 40.9922 252.448 40.9922 252.581 40.9922C253.222 40.9922 253.655 40.7969 253.882 40.4062C254.116 40.0078 254.234 39.0898 254.234 37.6523V36.457C254.234 36.0898 254.23 35.8125 254.222 35.625C254.222 35.4297 254.218 35.2461 254.21 35.0742V32.0625C254.21 31.6172 254.214 30.9727 254.222 30.1289C254.23 29.2852 254.234 28.6562 254.234 28.2422C254.234 27.4766 254.109 26.9648 253.859 26.707C253.616 26.4414 253.155 26.3086 252.476 26.3086H252.265V25.2773C253.554 25.3242 254.757 25.3594 255.874 25.3828C256.991 25.4062 258.034 25.418 259.003 25.418C259.98 25.418 260.987 25.4062 262.027 25.3828C263.073 25.3594 264.155 25.3242 265.273 25.2773C265.273 25.8867 265.296 26.5273 265.343 27.1992C265.39 27.8633 265.464 28.582 265.566 29.3555L264.523 29.4961C264.429 28.4805 264.112 27.7969 263.573 27.4453C263.042 27.0859 261.945 26.9062 260.28 26.9062C259.945 26.9062 259.538 26.9141 259.062 26.9297C258.585 26.9375 258.05 26.9531 257.456 26.9766C257.441 28.1719 257.425 29.2578 257.409 30.2344C257.402 31.2031 257.39 32.0586 257.374 32.8008C257.796 32.8086 258.331 32.8164 258.98 32.8242C259.628 32.832 260.07 32.8359 260.304 32.8359C261.491 32.8359 262.273 32.7266 262.648 32.5078C263.023 32.2891 263.226 31.8789 263.257 31.2773L264.241 31.3477C264.171 31.9648 264.12 32.4883 264.089 32.918C264.058 33.3477 264.042 33.7266 264.042 34.0547C264.042 34.25 264.062 34.6797 264.101 35.3438C264.116 35.6797 264.128 35.9453 264.136 36.1406L263.163 36.1875V35.9766C263.163 35.3125 262.976 34.8633 262.601 34.6289C262.234 34.3945 261.413 34.2773 260.14 34.2773C259.945 34.2773 259.585 34.2812 259.062 34.2891C258.546 34.2969 258.12 34.3008 257.784 34.3008H257.374V37.3008V38.2852C257.374 39.4805 257.499 40.2266 257.749 40.5234C258.007 40.8203 258.515 40.9688 259.273 40.9688C259.32 40.9688 259.39 40.9648 259.484 40.957C259.585 40.9492 259.667 40.9453 259.73 40.9453V42C259.566 41.9922 259.331 41.9805 259.027 41.9648C257.495 41.8945 256.417 41.8594 255.792 41.8594C255.503 41.8594 254.839 41.8828 253.8 41.9297C253.089 41.9609 252.523 41.9844 252.101 42V40.9688ZM274.875 28.0078L272.32 34.4883C272.617 34.4961 272.93 34.5039 273.258 34.5117C273.594 34.5117 274.039 34.5117 274.594 34.5117C275.234 34.5117 275.734 34.5117 276.094 34.5117C276.453 34.5039 276.789 34.4961 277.102 34.4883L274.875 28.0078ZM274.23 25.1953H277.09C278.215 28.4922 279.285 31.5234 280.301 34.2891C281.324 37.0469 282.039 38.8828 282.445 39.7969C282.617 40.2109 282.832 40.5078 283.09 40.6875C283.355 40.8594 283.707 40.9453 284.145 40.9453H284.402V42C283.41 41.9531 282.648 41.9219 282.117 41.9062C281.586 41.8906 281.141 41.8828 280.781 41.8828C280.437 41.8828 279.992 41.8906 279.445 41.9062C278.898 41.9219 278.105 41.9531 277.066 42V40.9453H277.277C277.895 40.9453 278.312 40.875 278.531 40.7344C278.75 40.5938 278.859 40.3438 278.859 39.9844C278.859 39.875 278.844 39.7461 278.812 39.5977C278.789 39.4492 278.734 39.2422 278.648 38.9766L277.687 36.1406C277.242 36.1328 276.656 36.125 275.93 36.1172C275.203 36.1016 274.75 36.0938 274.57 36.0938C274.234 36.0938 273.559 36.1055 272.543 36.1289C272.176 36.1367 271.891 36.1406 271.687 36.1406L271.641 36.2578C270.875 38.125 270.492 39.3047 270.492 39.7969C270.492 40.2031 270.605 40.4961 270.832 40.6758C271.066 40.8555 271.449 40.9453 271.98 40.9453H272.191V42C271.301 41.9531 270.609 41.9219 270.117 41.9062C269.625 41.8906 269.219 41.8828 268.898 41.8828C268.633 41.8828 268.281 41.8906 267.844 41.9062C267.414 41.9219 266.785 41.9531 265.957 42V40.9453C266.52 40.9453 266.969 40.8477 267.305 40.6523C267.641 40.457 267.926 40.1289 268.16 39.668C268.496 39.0586 269.254 37.3555 270.434 34.5586C271.613 31.7617 272.879 28.6406 274.23 25.1953ZM298.341 25.7812V26.0391C298.341 26.6094 298.372 27.1953 298.434 27.7969C298.505 28.3906 298.606 29.0039 298.739 29.6367L297.52 29.8359C297.388 28.8203 297.009 28.0547 296.384 27.5391C295.766 27.0234 294.915 26.7656 293.829 26.7656C292.821 26.7656 292.032 26.9648 291.462 27.3633C290.891 27.7617 290.606 28.3125 290.606 29.0156C290.606 29.4844 290.723 29.8906 290.958 30.2344C291.192 30.5703 291.555 30.8672 292.048 31.125C292.43 31.3281 293.091 31.5859 294.028 31.8984C294.973 32.2109 295.673 32.457 296.126 32.6367C297.149 33.0586 297.915 33.6094 298.423 34.2891C298.938 34.9688 299.196 35.7773 299.196 36.7148C299.196 38.418 298.544 39.7773 297.239 40.793C295.934 41.8086 294.165 42.3164 291.93 42.3164C291.196 42.3164 290.454 42.2422 289.704 42.0938C288.954 41.9531 288.223 41.7461 287.513 41.4727C287.513 41.3867 287.516 41.2734 287.524 41.1328C287.532 40.9844 287.536 40.875 287.536 40.8047C287.536 40.2031 287.497 39.5898 287.419 38.9648C287.348 38.3398 287.235 37.6953 287.079 37.0312L288.356 36.7148C288.653 38.1523 289.13 39.1562 289.786 39.7266C290.45 40.2969 291.434 40.582 292.739 40.582C293.794 40.582 294.626 40.3477 295.235 39.8789C295.845 39.4102 296.149 38.7812 296.149 37.9922C296.149 36.8672 295.075 35.9258 292.927 35.168C292.45 35.0039 292.087 34.875 291.837 34.7812C290.352 34.2266 289.286 33.582 288.638 32.8477C287.997 32.1133 287.677 31.1953 287.677 30.0938C287.677 28.5781 288.263 27.3555 289.434 26.4258C290.606 25.4961 292.157 25.0312 294.087 25.0312C294.759 25.0312 295.438 25.0938 296.126 25.2188C296.821 25.3359 297.559 25.5234 298.341 25.7812ZM317.74 25.8516C317.74 25.9297 317.736 26.0547 317.728 26.2266C317.72 26.3906 317.716 26.5117 317.716 26.5898C317.716 27.1133 317.74 27.668 317.787 28.2539C317.834 28.8398 317.908 29.4844 318.009 30.1875L316.849 30.3867C316.724 29.2227 316.228 28.3203 315.361 27.6797C314.494 27.0312 313.349 26.707 311.927 26.707C310.115 26.707 308.709 27.2734 307.709 28.4062C306.716 29.5312 306.22 31.125 306.22 33.1875C306.22 35.4141 306.783 37.1875 307.908 38.5078C309.041 39.8281 310.552 40.4883 312.443 40.4883C313.63 40.4883 314.642 40.2188 315.478 39.6797C316.322 39.1406 317.005 38.3203 317.529 37.2188L318.56 37.6992C318.248 38.3164 317.974 38.9219 317.74 39.5156C317.505 40.1016 317.306 40.6836 317.142 41.2617C316.197 41.6445 315.271 41.9336 314.365 42.1289C313.466 42.332 312.599 42.4336 311.763 42.4336C309.045 42.4336 306.841 41.6289 305.154 40.0195C303.466 38.4102 302.623 36.3086 302.623 33.7148C302.623 31.1523 303.505 29.043 305.271 27.3867C307.045 25.7227 309.291 24.8906 312.009 24.8906C312.986 24.8906 313.943 24.9688 314.88 25.125C315.826 25.2812 316.779 25.5234 317.74 25.8516ZM321.237 25.2773C322.002 25.3242 322.702 25.3594 323.334 25.3828C323.975 25.4062 324.545 25.418 325.045 25.418C325.538 25.418 326.088 25.4062 326.698 25.3828C327.315 25.3594 327.998 25.3242 328.748 25.2773V26.332H328.502C327.963 26.332 327.577 26.3867 327.342 26.4961C327.116 26.6055 326.952 26.8047 326.85 27.0938C326.764 27.3359 326.702 27.8125 326.663 28.5234C326.623 29.2344 326.604 30.5117 326.604 32.3555V37.1719C326.604 38.2734 326.623 39.0391 326.663 39.4688C326.709 39.8906 326.788 40.1992 326.897 40.3945C327.006 40.5898 327.19 40.7305 327.448 40.8164C327.705 40.9023 328.088 40.9453 328.596 40.9453H328.889V42C328.03 41.9531 327.276 41.918 326.627 41.8945C325.979 41.8711 325.428 41.8594 324.975 41.8594C324.561 41.8594 324.026 41.8711 323.37 41.8945C322.713 41.918 321.952 41.9531 321.084 42V40.9453H321.377C321.901 40.9453 322.291 40.9023 322.549 40.8164C322.807 40.7305 322.983 40.5898 323.077 40.3945C323.194 40.1758 323.276 39.8203 323.323 39.3281C323.37 38.8281 323.393 37.9258 323.393 36.6211V34.8516V29.7656C323.393 28.7969 323.37 28.1211 323.323 27.7383C323.284 27.3477 323.209 27.0586 323.1 26.8711C322.998 26.6836 322.819 26.5469 322.561 26.4609C322.311 26.375 321.948 26.332 321.471 26.332H321.237V25.2773ZM343.12 25.7812V26.0391C343.12 26.6094 343.152 27.1953 343.214 27.7969C343.284 28.3906 343.386 29.0039 343.519 29.6367L342.3 29.8359C342.167 28.8203 341.788 28.0547 341.163 27.5391C340.546 27.0234 339.695 26.7656 338.609 26.7656C337.601 26.7656 336.812 26.9648 336.241 27.3633C335.671 27.7617 335.386 28.3125 335.386 29.0156C335.386 29.4844 335.503 29.8906 335.738 30.2344C335.972 30.5703 336.335 30.8672 336.827 31.125C337.21 31.3281 337.87 31.5859 338.808 31.8984C339.753 32.2109 340.452 32.457 340.905 32.6367C341.929 33.0586 342.695 33.6094 343.202 34.2891C343.718 34.9688 343.976 35.7773 343.976 36.7148C343.976 38.418 343.323 39.7773 342.019 40.793C340.714 41.8086 338.945 42.3164 336.71 42.3164C335.976 42.3164 335.234 42.2422 334.484 42.0938C333.734 41.9531 333.003 41.7461 332.292 41.4727C332.292 41.3867 332.296 41.2734 332.304 41.1328C332.312 40.9844 332.316 40.875 332.316 40.8047C332.316 40.2031 332.277 39.5898 332.198 38.9648C332.128 38.3398 332.015 37.6953 331.859 37.0312L333.136 36.7148C333.433 38.1523 333.909 39.1562 334.566 39.7266C335.23 40.2969 336.214 40.582 337.519 40.582C338.573 40.582 339.405 40.3477 340.015 39.8789C340.624 39.4102 340.929 38.7812 340.929 37.9922C340.929 36.8672 339.855 35.9258 337.706 35.168C337.23 35.0039 336.866 34.875 336.616 34.7812C335.132 34.2266 334.066 33.582 333.417 32.8477C332.777 32.1133 332.456 31.1953 332.456 30.0938C332.456 28.5781 333.042 27.3555 334.214 26.4258C335.386 25.4961 336.937 25.0312 338.866 25.0312C339.538 25.0312 340.218 25.0938 340.905 25.2188C341.601 25.3359 342.339 25.5234 343.12 25.7812ZM350.66 40.9453H351.094C351.617 40.9453 352 40.8906 352.242 40.7812C352.484 40.6641 352.664 40.4609 352.781 40.1719C352.859 39.9531 352.914 39.4219 352.945 38.5781C352.977 37.7344 352.992 36.1719 352.992 33.8906V27.1875H350.977C349.75 27.1875 348.91 27.3594 348.457 27.7031C348.004 28.0469 347.691 28.707 347.52 29.6836L346.418 29.4492C346.598 28.6758 346.734 27.9375 346.828 27.2344C346.93 26.5234 346.992 25.8242 347.016 25.1367C347.312 25.2383 347.73 25.3125 348.27 25.3594C348.809 25.3984 349.719 25.418 351 25.418H353.59H355.055H358.031C359.469 25.418 360.469 25.3984 361.031 25.3594C361.602 25.3125 362.02 25.2344 362.285 25.125V25.4883C362.285 26.0977 362.309 26.7305 362.355 27.3867C362.41 28.0352 362.488 28.7227 362.59 29.4492L361.535 29.6133C361.402 28.6602 361.133 28.0195 360.727 27.6914C360.32 27.3555 359.52 27.1875 358.324 27.1875H358.031H356.262C356.238 28.4375 356.223 29.668 356.215 30.8789C356.207 32.0898 356.203 33.5 356.203 35.1094V37.3008C356.203 38.332 356.227 39.0547 356.273 39.4688C356.32 39.8828 356.395 40.1914 356.496 40.3945C356.613 40.5898 356.797 40.7305 357.047 40.8164C357.297 40.9023 357.648 40.9453 358.102 40.9453H358.512V42C358.316 41.9922 358.027 41.9805 357.645 41.9648C356.113 41.8945 355.066 41.8594 354.504 41.8594C354.098 41.8594 353.574 41.8711 352.934 41.8945C352.301 41.918 351.543 41.9531 350.66 42V40.9453ZM376.552 25.7812V26.0391C376.552 26.6094 376.583 27.1953 376.645 27.7969C376.716 28.3906 376.817 29.0039 376.95 29.6367L375.731 29.8359C375.598 28.8203 375.22 28.0547 374.595 27.5391C373.977 27.0234 373.126 26.7656 372.04 26.7656C371.032 26.7656 370.243 26.9648 369.673 27.3633C369.102 27.7617 368.817 28.3125 368.817 29.0156C368.817 29.4844 368.934 29.8906 369.169 30.2344C369.403 30.5703 369.766 30.8672 370.259 31.125C370.641 31.3281 371.302 31.5859 372.239 31.8984C373.184 32.2109 373.884 32.457 374.337 32.6367C375.36 33.0586 376.126 33.6094 376.634 34.2891C377.149 34.9688 377.407 35.7773 377.407 36.7148C377.407 38.418 376.755 39.7773 375.45 40.793C374.145 41.8086 372.376 42.3164 370.141 42.3164C369.407 42.3164 368.665 42.2422 367.915 42.0938C367.165 41.9531 366.434 41.7461 365.723 41.4727C365.723 41.3867 365.727 41.2734 365.735 41.1328C365.743 40.9844 365.747 40.875 365.747 40.8047C365.747 40.2031 365.708 39.5898 365.63 38.9648C365.559 38.3398 365.446 37.6953 365.29 37.0312L366.567 36.7148C366.864 38.1523 367.341 39.1562 367.997 39.7266C368.661 40.2969 369.645 40.582 370.95 40.582C372.005 40.582 372.837 40.3477 373.446 39.8789C374.055 39.4102 374.36 38.7812 374.36 37.9922C374.36 36.8672 373.286 35.9258 371.137 35.168C370.661 35.0039 370.298 34.875 370.048 34.7812C368.563 34.2266 367.497 33.582 366.848 32.8477C366.208 32.1133 365.887 31.1953 365.887 30.0938C365.887 28.5781 366.473 27.3555 367.645 26.4258C368.817 25.4961 370.368 25.0312 372.298 25.0312C372.97 25.0312 373.649 25.0938 374.337 25.2188C375.032 25.3359 375.77 25.5234 376.552 25.7812Z" fill="#6B2D2B"/>
<path d="M275.567 228V218.545H281.273V219.561H276.712V222.756H280.977V223.771H276.712V226.984H281.346V228H275.567ZM291.107 220.909C291.051 220.441 290.827 220.078 290.433 219.82C290.039 219.561 289.556 219.432 288.983 219.432C288.565 219.432 288.198 219.5 287.884 219.635C287.574 219.77 287.33 219.957 287.155 220.194C286.983 220.431 286.896 220.7 286.896 221.001C286.896 221.254 286.956 221.471 287.076 221.652C287.2 221.831 287.357 221.98 287.547 222.1C287.738 222.217 287.938 222.314 288.147 222.391C288.357 222.465 288.549 222.525 288.725 222.571L289.685 222.83C289.931 222.894 290.205 222.983 290.507 223.097C290.811 223.211 291.102 223.367 291.379 223.564C291.659 223.757 291.89 224.007 292.071 224.311C292.253 224.616 292.344 224.99 292.344 225.433C292.344 225.944 292.21 226.406 291.942 226.818C291.678 227.231 291.29 227.558 290.779 227.801C290.271 228.045 289.654 228.166 288.928 228.166C288.251 228.166 287.664 228.057 287.169 227.838C286.676 227.62 286.289 227.315 286.005 226.924C285.725 226.533 285.567 226.08 285.53 225.562H286.712C286.743 225.92 286.863 226.215 287.072 226.449C287.284 226.68 287.552 226.852 287.875 226.966C288.201 227.077 288.552 227.132 288.928 227.132C289.365 227.132 289.757 227.061 290.105 226.92C290.453 226.775 290.728 226.575 290.931 226.32C291.134 226.061 291.236 225.759 291.236 225.415C291.236 225.101 291.148 224.845 290.973 224.648C290.797 224.451 290.567 224.291 290.28 224.168C289.994 224.045 289.685 223.937 289.352 223.845L288.189 223.513C287.45 223.3 286.866 222.997 286.435 222.603C286.004 222.209 285.788 221.694 285.788 221.057C285.788 220.527 285.932 220.066 286.218 219.672C286.507 219.275 286.895 218.967 287.381 218.749C287.87 218.527 288.417 218.416 289.02 218.416C289.629 218.416 290.171 218.525 290.645 218.744C291.119 218.959 291.494 219.255 291.771 219.63C292.051 220.006 292.199 220.432 292.215 220.909H291.107ZM296.309 219.561V218.545H303.4V219.561H300.427V228H299.282V219.561H296.309ZM307.969 228.074C307.741 228.074 307.546 227.992 307.383 227.829C307.22 227.666 307.138 227.471 307.138 227.243C307.138 227.015 307.22 226.82 307.383 226.657C307.546 226.493 307.741 226.412 307.969 226.412C308.197 226.412 308.392 226.493 308.555 226.657C308.718 226.82 308.8 227.015 308.8 227.243C308.8 227.394 308.762 227.532 308.685 227.658C308.611 227.785 308.511 227.886 308.385 227.963C308.261 228.037 308.123 228.074 307.969 228.074ZM319.593 228V227.169L322.714 223.753C323.08 223.353 323.381 223.005 323.618 222.71C323.855 222.411 324.031 222.131 324.145 221.869C324.262 221.605 324.32 221.328 324.32 221.038C324.32 220.706 324.24 220.418 324.08 220.175C323.923 219.932 323.708 219.744 323.434 219.612C323.16 219.48 322.852 219.413 322.51 219.413C322.147 219.413 321.83 219.489 321.559 219.64C321.292 219.787 321.084 219.995 320.936 220.263C320.792 220.531 320.719 220.844 320.719 221.205H319.63C319.63 220.651 319.758 220.164 320.013 219.746C320.268 219.327 320.616 219.001 321.056 218.767C321.499 218.533 321.996 218.416 322.547 218.416C323.101 218.416 323.592 218.533 324.02 218.767C324.448 219.001 324.783 219.316 325.026 219.713C325.27 220.11 325.391 220.552 325.391 221.038C325.391 221.386 325.328 221.726 325.202 222.059C325.079 222.388 324.863 222.756 324.556 223.162C324.251 223.565 323.828 224.058 323.286 224.639L321.162 226.911V226.984H325.557V228H319.593ZM333.148 228.129C332.452 228.129 331.86 227.94 331.37 227.561C330.881 227.18 330.507 226.627 330.249 225.904C329.99 225.178 329.861 224.301 329.861 223.273C329.861 222.251 329.99 221.378 330.249 220.655C330.51 219.929 330.886 219.375 331.375 218.993C331.867 218.609 332.458 218.416 333.148 218.416C333.837 218.416 334.427 218.609 334.916 218.993C335.408 219.375 335.784 219.929 336.042 220.655C336.304 221.378 336.435 222.251 336.435 223.273C336.435 224.301 336.305 225.178 336.047 225.904C335.788 226.627 335.414 227.18 334.925 227.561C334.436 227.94 333.843 228.129 333.148 228.129ZM333.148 227.114C333.837 227.114 334.373 226.781 334.754 226.116C335.136 225.452 335.327 224.504 335.327 223.273C335.327 222.454 335.239 221.757 335.064 221.181C334.891 220.606 334.642 220.167 334.316 219.866C333.993 219.564 333.603 219.413 333.148 219.413C332.465 219.413 331.931 219.75 331.546 220.424C331.161 221.095 330.969 222.045 330.969 223.273C330.969 224.091 331.055 224.787 331.227 225.359C331.4 225.932 331.647 226.367 331.971 226.666C332.297 226.964 332.689 227.114 333.148 227.114ZM343.873 228.129C343.177 228.129 342.585 227.94 342.095 227.561C341.606 227.18 341.232 226.627 340.974 225.904C340.715 225.178 340.586 224.301 340.586 223.273C340.586 222.251 340.715 221.378 340.974 220.655C341.235 219.929 341.611 219.375 342.1 218.993C342.592 218.609 343.183 218.416 343.873 218.416C344.562 218.416 345.152 218.609 345.641 218.993C346.133 219.375 346.509 219.929 346.767 220.655C347.029 221.378 347.16 222.251 347.16 223.273C347.16 224.301 347.03 225.178 346.772 225.904C346.513 226.627 346.139 227.18 345.65 227.561C345.161 227.94 344.568 228.129 343.873 228.129ZM343.873 227.114C344.562 227.114 345.098 226.781 345.479 226.116C345.861 225.452 346.052 224.504 346.052 223.273C346.052 222.454 345.964 221.757 345.789 221.181C345.616 220.606 345.367 220.167 345.041 219.866C344.718 219.564 344.328 219.413 343.873 219.413C343.19 219.413 342.656 219.75 342.271 220.424C341.886 221.095 341.694 222.045 341.694 223.273C341.694 224.091 341.78 224.787 341.952 225.359C342.125 225.932 342.372 226.367 342.696 226.666C343.022 226.964 343.414 227.114 343.873 227.114ZM354.838 218.545V228H353.693V219.746H353.638L351.329 221.278V220.115L353.693 218.545H354.838Z" fill="#6B2D2B"/>
<path d="M215.5 62V195.5" stroke="#6B2D2B"/>
<path d="M315 62V195.5" stroke="#6B2D2B"/>
<path d="M414.5 62V195.5" stroke="#6B2D2B"/>
<g clip-path="url(#clip0_23_1046)">
<path d="M97.0322 78.96C97.5316 79.7686 98.2405 81.9835 98.8688 84.7139C99.4649 87.3272 99.2233 88.3819 98.1841 87.6436C97.9988 87.5147 97.3302 86.7999 96.6858 86.0381C95.2116 84.3155 93.6488 82.8155 92.2552 81.796C91.1999 81.0108 89.7822 80.1436 89.5808 80.1436C89.5002 80.1436 89.4761 80.5303 89.4922 81.7491L89.4923 81.7666C89.5008 82.7068 89.5487 87.9989 89.5778 110.527C89.6986 124.988 89.7792 128.258 90.1417 133.555C90.6089 140.398 90.7861 144.934 90.7861 149.844C90.7861 155.445 90.5525 159.758 89.6584 171.055C89.1589 177.336 88.16 187.719 87.7975 190.309C87.5156 192.359 86.267 198.992 86.1945 198.863C86.13 198.758 85.1553 193.59 84.8572 191.797C84.4947 189.605 83.9872 184.59 83.222 175.684C82.5292 167.656 82.2472 163.66 81.8364 156.172C81.6995 153.828 81.6995 145.977 81.8364 143.164C81.9895 139.66 82.1586 136.637 82.3681 133.379C82.7064 128.07 82.8272 122.715 82.932 107.949C82.9752 87.3389 83.0155 83.5538 83.0397 82.3467C83.088 80.4249 83.0719 80.1436 82.9672 80.1436C82.7416 80.1436 81.0258 81.21 80.0269 81.96C78.7138 82.9561 77.2558 84.3858 75.8219 86.0616C74.2913 87.8663 73.7919 88.1944 73.4455 87.6436C73.1394 87.1514 73.4213 85.335 74.2913 82.1944C74.7263 80.6007 75.1936 79.4171 75.6205 78.796C75.9991 78.2335 76.1441 78.128 78.2788 76.8975C80.6713 75.503 81.5333 75.046 82.508 74.6358C82.8383 74.5069 83.1524 74.3663 83.2088 74.3428C83.2733 74.3077 83.2572 74.0616 83.1524 73.4405L82.6259 68.8086C82.2875 63.3828 81.9653 60.6289 81.5061 59.3398C81.4175 59.0703 81.192 58.6132 81.0147 58.3203C80.5797 57.6054 80.475 57.1836 80.475 56.1875C80.475 54.7343 81.0147 53.4921 81.9411 52.8007C83.802 51.4179 87.0967 51.1836 89.61 52.25C90.8425 52.7656 91.632 53.7617 91.922 55.1796C92.1878 56.4336 92.0347 57.4062 91.4467 58.3437C91.2695 58.625 91.0761 59.0117 91.0036 59.1992C90.6653 60.1718 90.335 62.4218 90.1014 65.2929L89.323 73.7335C89.2344 74.1553 89.2344 74.3077 89.2988 74.3428C89.3552 74.3663 89.7419 74.5303 90.1608 74.7061C91.0308 75.0694 91.7961 75.4796 94.3094 76.921C96.3233 78.0811 96.6213 78.3038 97.0322 78.96Z" fill="#C6684E"/>
</g>
<g clip-path="url(#clip1_23_1046)">
<path d="M553.032 78.96C553.532 79.7686 554.24 81.9835 554.869 84.7139C555.465 87.3272 555.223 88.3819 554.184 87.6436C553.999 87.5147 553.33 86.7999 552.686 86.0381C551.212 84.3155 549.649 82.8155 548.255 81.796C547.2 81.0108 545.782 80.1436 545.581 80.1436C545.5 80.1436 545.476 80.5303 545.492 81.7491L545.492 81.7666C545.501 82.7068 545.549 87.9989 545.578 110.527C545.699 124.988 545.779 128.258 546.142 133.555C546.609 140.398 546.786 144.934 546.786 149.844C546.786 155.445 546.553 159.758 545.658 171.055C545.159 177.336 544.16 187.719 543.798 190.309C543.516 192.359 542.267 198.992 542.194 198.863C542.13 198.758 541.155 193.59 540.857 191.797C540.495 189.605 539.987 184.59 539.222 175.684C538.529 167.656 538.247 163.66 537.836 156.172C537.699 153.828 537.699 145.977 537.836 143.164C537.989 139.66 538.159 136.637 538.368 133.379C538.706 128.07 538.827 122.715 538.932 107.949C538.975 87.3389 539.015 83.5538 539.04 82.3467C539.088 80.4249 539.072 80.1436 538.967 80.1436C538.742 80.1436 537.026 81.21 536.027 81.96C534.714 82.9561 533.256 84.3858 531.822 86.0616C530.291 87.8663 529.792 88.1944 529.445 87.6436C529.139 87.1514 529.421 85.335 530.291 82.1944C530.726 80.6007 531.194 79.4171 531.62 78.796C531.999 78.2335 532.144 78.128 534.279 76.8975C536.671 75.503 537.533 75.046 538.508 74.6358C538.838 74.5069 539.152 74.3663 539.209 74.3428C539.273 74.3077 539.257 74.0616 539.152 73.4405L538.626 68.8086C538.288 63.3828 537.965 60.6289 537.506 59.3398C537.418 59.0703 537.192 58.6132 537.015 58.3203C536.58 57.6054 536.475 57.1836 536.475 56.1875C536.475 54.7343 537.015 53.4921 537.941 52.8007C539.802 51.4179 543.097 51.1836 545.61 52.25C546.843 52.7656 547.632 53.7617 547.922 55.1796C548.188 56.4336 548.035 57.4062 547.447 58.3437C547.269 58.625 547.076 59.0117 547.004 59.1992C546.665 60.1718 546.335 62.4218 546.101 65.2929L545.323 73.7335C545.234 74.1553 545.234 74.3077 545.299 74.3428C545.355 74.3663 545.742 74.5303 546.161 74.7061C547.031 75.0694 547.796 75.4796 550.309 76.921C552.323 78.0811 552.621 78.3038 553.032 78.96Z" fill="#C6684E"/>
</g>
<mask id="path-45-inside-9_23_1046" fill="white">
<rect x="82" y="26" width="23" height="13" rx="2"/>
</mask>
<rect x="82" y="26" width="23" height="13" rx="2" stroke="#C6684E" stroke-width="6" mask="url(#path-45-inside-9_23_1046)"/>
<mask id="path-46-inside-10_23_1046" fill="white">
<rect x="114" y="26" width="23" height="13" rx="2"/>
</mask>
<rect x="114" y="26" width="23" height="13" rx="2" stroke="#C6684E" stroke-width="6" mask="url(#path-46-inside-10_23_1046)"/>
<mask id="path-47-inside-11_23_1046" fill="white">
<rect x="146" y="26" width="23" height="13" rx="2"/>
</mask>
<rect x="146" y="26" width="23" height="13" rx="2" stroke="#C6684E" stroke-width="6" mask="url(#path-47-inside-11_23_1046)"/>
<mask id="path-48-inside-12_23_1046" fill="white">
<rect x="178" y="26" width="23" height="13" rx="2"/>
</mask>
<rect x="178" y="26" width="23" height="13" rx="2" stroke="#C6684E" stroke-width="6" mask="url(#path-48-inside-12_23_1046)"/>
<mask id="path-49-inside-13_23_1046" fill="white">
<rect x="210" y="26" width="23" height="13" rx="2"/>
</mask>
<rect x="210" y="26" width="23" height="13" rx="2" stroke="#C6684E" stroke-width="6" mask="url(#path-49-inside-13_23_1046)"/>
<rect x="98" y="31" width="23" height="4" fill="#C6684E" stroke="#6B2D2B"/>
<rect x="130" y="31" width="23" height="4" fill="#C6684E" stroke="#6B2D2B"/>
<rect x="162" y="31" width="23" height="4" fill="#C6684E" stroke="#6B2D2B"/>
<rect x="194" y="31" width="23" height="4" fill="#C6684E" stroke="#6B2D2B"/>
<rect x="226" y="31" width="18" height="4" fill="#C6684E" stroke="#6B2D2B"/>
<mask id="path-55-inside-14_23_1046" fill="white">
<rect x="82" y="219" width="23" height="13" rx="2"/>
</mask>
<rect x="82" y="219" width="23" height="13" rx="2" stroke="#C6684E" stroke-width="6" mask="url(#path-55-inside-14_23_1046)"/>
<mask id="path-56-inside-15_23_1046" fill="white">
<rect x="114" y="219" width="23" height="13" rx="2"/>
</mask>
<rect x="114" y="219" width="23" height="13" rx="2" stroke="#C6684E" stroke-width="6" mask="url(#path-56-inside-15_23_1046)"/>
<mask id="path-57-inside-16_23_1046" fill="white">
<rect x="146" y="219" width="23" height="13" rx="2"/>
</mask>
<rect x="146" y="219" width="23" height="13" rx="2" stroke="#C6684E" stroke-width="6" mask="url(#path-57-inside-16_23_1046)"/>
<rect x="98" y="224" width="23" height="4" fill="#C6684E" stroke="#6B2D2B"/>
<rect x="130" y="224" width="23" height="4" fill="#C6684E" stroke="#6B2D2B"/>
<rect x="164" y="224" width="13" height="4" fill="#C6684E" stroke="#6B2D2B"/>
<defs>
<clipPath id="clip0_23_1046">
<rect width="150" height="58" fill="white" transform="translate(116 50) rotate(90)"/>
</clipPath>
<clipPath id="clip1_23_1046">
<rect width="150" height="58" fill="white" transform="translate(572 50) rotate(90)"/>
</clipPath>
</defs>
</svg>
