<svg width="632" height="257" viewBox="0 0 632 257" fill="none" xmlns="http://www.w3.org/2000/svg">
<rect width="632" height="257" fill="#C6684E"/>
<rect x="55.5" y="58.5" width="520" height="141" stroke="#6B2D2B"/>
<rect x="9.5" y="10.5" width="611" height="237" stroke="#6B2D2B" stroke-width="3"/>
<path d="M15.75 17H190.5V50.1092H47.8191V208.838H123V240H15.75V17Z" fill="#6B2D2B"/>
<path d="M613.25 17H437V50.1092H581.181V208.838H505V240H613.25V17Z" fill="#6B2D2B"/>
<mask id="path-6-inside-1_33_1126" fill="white">
<rect x="450" y="26" width="23" height="13" rx="2"/>
</mask>
<rect x="450" y="26" width="23" height="13" rx="2" stroke="#C6684E" stroke-width="6" mask="url(#path-6-inside-1_33_1126)"/>
<mask id="path-7-inside-2_33_1126" fill="white">
<rect x="482" y="26" width="23" height="13" rx="2"/>
</mask>
<rect x="482" y="26" width="23" height="13" rx="2" stroke="#C6684E" stroke-width="6" mask="url(#path-7-inside-2_33_1126)"/>
<mask id="path-8-inside-3_33_1126" fill="white">
<rect x="514" y="26" width="23" height="13" rx="2"/>
</mask>
<rect x="514" y="26" width="23" height="13" rx="2" stroke="#C6684E" stroke-width="6" mask="url(#path-8-inside-3_33_1126)"/>
<mask id="path-9-inside-4_33_1126" fill="white">
<rect x="546" y="26" width="23" height="13" rx="2"/>
</mask>
<rect x="546" y="26" width="23" height="13" rx="2" stroke="#C6684E" stroke-width="6" mask="url(#path-9-inside-4_33_1126)"/>
<mask id="path-10-inside-5_33_1126" fill="white">
<rect x="578" y="26" width="23" height="13" rx="2"/>
</mask>
<rect x="578" y="26" width="23" height="13" rx="2" stroke="#C6684E" stroke-width="6" mask="url(#path-10-inside-5_33_1126)"/>
<rect x="466" y="31" width="23" height="4" fill="#C6684E" stroke="#6B2D2B"/>
<rect x="438" y="31" width="19" height="4" fill="#C6684E" stroke="#6B2D2B"/>
<rect x="498" y="31" width="23" height="4" fill="#C6684E" stroke="#6B2D2B"/>
<rect x="530" y="31" width="23" height="4" fill="#C6684E" stroke="#6B2D2B"/>
<rect x="562" y="31" width="23" height="4" fill="#C6684E" stroke="#6B2D2B"/>
<mask id="path-16-inside-6_33_1126" fill="white">
<rect x="514" y="219" width="23" height="13" rx="2"/>
</mask>
<rect x="514" y="219" width="23" height="13" rx="2" stroke="#C6684E" stroke-width="6" mask="url(#path-16-inside-6_33_1126)"/>
<mask id="path-17-inside-7_33_1126" fill="white">
<rect x="546" y="219" width="23" height="13" rx="2"/>
</mask>
<rect x="546" y="219" width="23" height="13" rx="2" stroke="#C6684E" stroke-width="6" mask="url(#path-17-inside-7_33_1126)"/>
<mask id="path-18-inside-8_33_1126" fill="white">
<rect x="578" y="219" width="23" height="13" rx="2"/>
</mask>
<rect x="578" y="219" width="23" height="13" rx="2" stroke="#C6684E" stroke-width="6" mask="url(#path-18-inside-8_33_1126)"/>
<rect x="530" y="224" width="23" height="4" fill="#C6684E" stroke="#6B2D2B"/>
<rect x="506" y="224" width="12" height="4" fill="#C6684E" stroke="#6B2D2B"/>
<rect x="562" y="224" width="23" height="4" fill="#C6684E" stroke="#6B2D2B"/>
<path d="M223.516 26.543C223.516 26.6081 223.512 26.7122 223.506 26.8555C223.499 26.9922 223.496 27.0931 223.496 27.1582C223.496 27.5944 223.516 28.0566 223.555 28.5449C223.594 29.0332 223.656 29.5703 223.74 30.1562L222.773 30.3223C222.669 29.3522 222.256 28.6003 221.533 28.0664C220.811 27.526 219.857 27.2559 218.672 27.2559C217.161 27.2559 215.99 27.7279 215.156 28.6719C214.329 29.6094 213.916 30.9375 213.916 32.6562C213.916 34.5117 214.385 35.9896 215.322 37.0898C216.266 38.1901 217.526 38.7402 219.102 38.7402C220.091 38.7402 220.934 38.5156 221.631 38.0664C222.334 37.6172 222.904 36.9336 223.34 36.0156L224.199 36.416C223.939 36.9303 223.711 37.4349 223.516 37.9297C223.32 38.418 223.154 38.903 223.018 39.3848C222.23 39.7038 221.458 39.9447 220.703 40.1074C219.954 40.2767 219.232 40.3613 218.535 40.3613C216.27 40.3613 214.434 39.6908 213.027 38.3496C211.621 37.0085 210.918 35.2572 210.918 33.0957C210.918 30.9603 211.654 29.2025 213.125 27.8223C214.603 26.4355 216.475 25.7422 218.74 25.7422C219.554 25.7422 220.352 25.8073 221.133 25.9375C221.921 26.0677 222.715 26.2695 223.516 26.543ZM226.605 26.0645C227.159 26.097 227.68 26.123 228.168 26.1426C228.663 26.1556 229.102 26.1621 229.486 26.1621C229.883 26.1621 230.326 26.1556 230.814 26.1426C231.309 26.123 231.879 26.097 232.523 26.0645V26.9434C232.484 26.9434 232.429 26.9401 232.357 26.9336C232.286 26.9271 232.237 26.9238 232.211 26.9238C231.664 26.9238 231.293 27.0866 231.098 27.4121C230.902 27.7376 230.805 28.4733 230.805 29.6191C230.805 29.7884 230.808 30.0944 230.814 30.5371C230.821 30.9798 230.824 31.3411 230.824 31.6211L230.844 38.4766L230.902 38.4863C231.742 38.5384 232.377 38.5645 232.807 38.5645C234.441 38.5645 235.512 38.3952 236.02 38.0566C236.527 37.7181 236.944 37.0736 237.27 36.123L238.168 36.3965C237.966 36.9889 237.784 37.5846 237.621 38.1836C237.465 38.7826 237.328 39.388 237.211 40C236.059 39.9609 234.988 39.9316 233.998 39.9121C233.008 39.8926 232.104 39.8828 231.283 39.8828C230.469 39.8828 229.649 39.8926 228.822 39.9121C228.002 39.9316 227.185 39.9609 226.371 40V39.1406H226.645C226.996 39.1406 227.266 39.1048 227.455 39.0332C227.644 38.9616 227.781 38.8444 227.865 38.6816C228.048 38.3236 228.145 36.9857 228.158 34.668C228.165 34.3685 228.168 34.1406 228.168 33.9844L228.188 31.8555C228.188 31.569 228.191 31.1947 228.197 30.7324C228.204 30.2637 228.207 29.9382 228.207 29.7559C228.207 28.584 228.109 27.819 227.914 27.4609C227.725 27.1029 227.364 26.9238 226.83 26.9238H226.605V26.0645ZM246.443 28.3398L244.314 33.7402C244.562 33.7467 244.822 33.7533 245.096 33.7598C245.376 33.7598 245.747 33.7598 246.209 33.7598C246.743 33.7598 247.16 33.7598 247.459 33.7598C247.758 33.7533 248.038 33.7467 248.299 33.7402L246.443 28.3398ZM245.906 25.9961H248.289C249.227 28.7435 250.118 31.2695 250.965 33.5742C251.818 35.8724 252.413 37.4023 252.752 38.1641C252.895 38.5091 253.074 38.7565 253.289 38.9062C253.51 39.0495 253.803 39.1211 254.168 39.1211H254.383V40C253.556 39.9609 252.921 39.9349 252.479 39.9219C252.036 39.9089 251.665 39.9023 251.365 39.9023C251.079 39.9023 250.708 39.9089 250.252 39.9219C249.796 39.9349 249.135 39.9609 248.27 40V39.1211H248.445C248.96 39.1211 249.308 39.0625 249.49 38.9453C249.673 38.8281 249.764 38.6198 249.764 38.3203C249.764 38.2292 249.751 38.1217 249.725 37.998C249.705 37.8743 249.66 37.7018 249.588 37.4805L248.787 35.1172C248.416 35.1107 247.928 35.1042 247.322 35.0977C246.717 35.0846 246.339 35.0781 246.189 35.0781C245.91 35.0781 245.346 35.0879 244.5 35.1074C244.194 35.1139 243.956 35.1172 243.787 35.1172L243.748 35.2148C243.11 36.7708 242.791 37.7539 242.791 38.1641C242.791 38.5026 242.885 38.7467 243.074 38.8965C243.27 39.0462 243.589 39.1211 244.031 39.1211H244.207V40C243.465 39.9609 242.889 39.9349 242.479 39.9219C242.068 39.9089 241.73 39.9023 241.463 39.9023C241.242 39.9023 240.949 39.9089 240.584 39.9219C240.226 39.9349 239.702 39.9609 239.012 40V39.1211C239.48 39.1211 239.855 39.0397 240.135 38.877C240.415 38.7142 240.652 38.4408 240.848 38.0566C241.128 37.5488 241.759 36.1296 242.742 33.7988C243.725 31.4681 244.78 28.8672 245.906 25.9961ZM265.998 26.4844V26.6992C265.998 27.1745 266.024 27.6628 266.076 28.1641C266.135 28.6589 266.219 29.1699 266.33 29.6973L265.314 29.8633C265.204 29.0169 264.888 28.3789 264.367 27.9492C263.853 27.5195 263.143 27.3047 262.238 27.3047C261.398 27.3047 260.741 27.4707 260.266 27.8027C259.79 28.1348 259.553 28.5938 259.553 29.1797C259.553 29.5703 259.65 29.9089 259.846 30.1953C260.041 30.4753 260.344 30.7227 260.754 30.9375C261.073 31.1068 261.623 31.3216 262.404 31.582C263.192 31.8424 263.775 32.0475 264.152 32.1973C265.005 32.5488 265.643 33.0078 266.066 33.5742C266.496 34.1406 266.711 34.8145 266.711 35.5957C266.711 37.015 266.167 38.1478 265.08 38.9941C263.993 39.8405 262.518 40.2637 260.656 40.2637C260.044 40.2637 259.426 40.2018 258.801 40.0781C258.176 39.9609 257.567 39.7884 256.975 39.5605C256.975 39.4889 256.978 39.3945 256.984 39.2773C256.991 39.1536 256.994 39.0625 256.994 39.0039C256.994 38.5026 256.962 37.9915 256.896 37.4707C256.838 36.9499 256.743 36.4128 256.613 35.8594L257.678 35.5957C257.925 36.7936 258.322 37.6302 258.869 38.1055C259.423 38.5807 260.243 38.8184 261.33 38.8184C262.209 38.8184 262.902 38.623 263.41 38.2324C263.918 37.8418 264.172 37.3177 264.172 36.6602C264.172 35.7227 263.277 34.9382 261.486 34.3066C261.089 34.1699 260.786 34.0625 260.578 33.9844C259.341 33.5221 258.452 32.985 257.912 32.373C257.378 31.7611 257.111 30.9961 257.111 30.0781C257.111 28.8151 257.6 27.7962 258.576 27.0215C259.553 26.2467 260.845 25.8594 262.453 25.8594C263.013 25.8594 263.579 25.9115 264.152 26.0156C264.732 26.1133 265.347 26.2695 265.998 26.4844ZM279.068 26.4844V26.6992C279.068 27.1745 279.094 27.6628 279.146 28.1641C279.205 28.6589 279.29 29.1699 279.4 29.6973L278.385 29.8633C278.274 29.0169 277.958 28.3789 277.438 27.9492C276.923 27.5195 276.214 27.3047 275.309 27.3047C274.469 27.3047 273.811 27.4707 273.336 27.8027C272.861 28.1348 272.623 28.5938 272.623 29.1797C272.623 29.5703 272.721 29.9089 272.916 30.1953C273.111 30.4753 273.414 30.7227 273.824 30.9375C274.143 31.1068 274.693 31.3216 275.475 31.582C276.262 31.8424 276.845 32.0475 277.223 32.1973C278.076 32.5488 278.714 33.0078 279.137 33.5742C279.566 34.1406 279.781 34.8145 279.781 35.5957C279.781 37.015 279.238 38.1478 278.15 38.9941C277.063 39.8405 275.589 40.2637 273.727 40.2637C273.115 40.2637 272.496 40.2018 271.871 40.0781C271.246 39.9609 270.637 39.7884 270.045 39.5605C270.045 39.4889 270.048 39.3945 270.055 39.2773C270.061 39.1536 270.064 39.0625 270.064 39.0039C270.064 38.5026 270.032 37.9915 269.967 37.4707C269.908 36.9499 269.814 36.4128 269.684 35.8594L270.748 35.5957C270.995 36.7936 271.393 37.6302 271.939 38.1055C272.493 38.5807 273.313 38.8184 274.4 38.8184C275.279 38.8184 275.973 38.623 276.48 38.2324C276.988 37.8418 277.242 37.3177 277.242 36.6602C277.242 35.7227 276.347 34.9382 274.557 34.3066C274.16 34.1699 273.857 34.0625 273.648 33.9844C272.411 33.5221 271.523 32.985 270.982 32.373C270.449 31.7611 270.182 30.9961 270.182 30.0781C270.182 28.8151 270.67 27.7962 271.646 27.0215C272.623 26.2467 273.915 25.8594 275.523 25.8594C276.083 25.8594 276.65 25.9115 277.223 26.0156C277.802 26.1133 278.417 26.2695 279.068 26.4844ZM282.559 26.0645C283.197 26.1035 283.779 26.1328 284.307 26.1523C284.84 26.1719 285.316 26.1816 285.732 26.1816C286.143 26.1816 286.602 26.1719 287.109 26.1523C287.624 26.1328 288.193 26.1035 288.818 26.0645V26.9434H288.613C288.164 26.9434 287.842 26.9889 287.646 27.0801C287.458 27.1712 287.321 27.3372 287.236 27.5781C287.165 27.7799 287.113 28.1771 287.08 28.7695C287.048 29.362 287.031 30.4264 287.031 31.9629V35.9766C287.031 36.8945 287.048 37.5326 287.08 37.8906C287.119 38.2422 287.184 38.4993 287.275 38.6621C287.367 38.8249 287.52 38.9421 287.734 39.0137C287.949 39.0853 288.268 39.1211 288.691 39.1211H288.936V40C288.219 39.9609 287.591 39.9316 287.051 39.9121C286.51 39.8926 286.051 39.8828 285.674 39.8828C285.329 39.8828 284.883 39.8926 284.336 39.9121C283.789 39.9316 283.154 39.9609 282.432 40V39.1211H282.676C283.112 39.1211 283.438 39.0853 283.652 39.0137C283.867 38.9421 284.014 38.8249 284.092 38.6621C284.189 38.4798 284.258 38.1836 284.297 37.7734C284.336 37.3568 284.355 36.6048 284.355 35.5176V34.043V29.8047C284.355 28.9974 284.336 28.4342 284.297 28.1152C284.264 27.7897 284.202 27.5488 284.111 27.3926C284.027 27.2363 283.877 27.1224 283.662 27.0508C283.454 26.9792 283.151 26.9434 282.754 26.9434H282.559V26.0645ZM291.176 39.1406C291.221 39.1471 291.27 39.1536 291.322 39.1602C291.381 39.1602 291.465 39.1602 291.576 39.1602C292.11 39.1602 292.471 38.9974 292.66 38.6719C292.855 38.3398 292.953 37.5749 292.953 36.377V35.3809C292.953 35.0749 292.95 34.8438 292.943 34.6875C292.943 34.5247 292.94 34.3717 292.934 34.2285V31.7188C292.934 31.3477 292.937 30.8105 292.943 30.1074C292.95 29.4043 292.953 28.8802 292.953 28.5352C292.953 27.8971 292.849 27.4707 292.641 27.2559C292.439 27.0345 292.055 26.9238 291.488 26.9238H291.312V26.0645C292.387 26.1035 293.389 26.1328 294.32 26.1523C295.251 26.1719 296.12 26.1816 296.928 26.1816C297.742 26.1816 298.581 26.1719 299.447 26.1523C300.32 26.1328 301.221 26.1035 302.152 26.0645C302.152 26.5723 302.172 27.1061 302.211 27.666C302.25 28.2194 302.312 28.8184 302.396 29.4629L301.527 29.5801C301.449 28.7337 301.186 28.1641 300.736 27.8711C300.294 27.5716 299.379 27.4219 297.992 27.4219C297.712 27.4219 297.374 27.4284 296.977 27.4414C296.579 27.4479 296.133 27.4609 295.639 27.4805C295.626 28.4766 295.613 29.3815 295.6 30.1953C295.593 31.0026 295.583 31.7155 295.57 32.334C295.922 32.3405 296.368 32.347 296.908 32.3535C297.449 32.36 297.816 32.3633 298.012 32.3633C299.001 32.3633 299.652 32.2721 299.965 32.0898C300.277 31.9076 300.447 31.5658 300.473 31.0645L301.293 31.123C301.234 31.6374 301.192 32.0736 301.166 32.4316C301.14 32.7897 301.127 33.1055 301.127 33.3789C301.127 33.5417 301.143 33.8997 301.176 34.4531C301.189 34.7331 301.199 34.9544 301.205 35.1172L300.395 35.1562V34.9805C300.395 34.4271 300.238 34.0527 299.926 33.8574C299.62 33.6621 298.936 33.5645 297.875 33.5645C297.712 33.5645 297.413 33.5677 296.977 33.5742C296.547 33.5807 296.192 33.584 295.912 33.584H295.57V36.084V36.9043C295.57 37.9004 295.674 38.5221 295.883 38.7695C296.098 39.0169 296.521 39.1406 297.152 39.1406C297.191 39.1406 297.25 39.1374 297.328 39.1309C297.413 39.1243 297.481 39.1211 297.533 39.1211V40C297.396 39.9935 297.201 39.9837 296.947 39.9707C295.671 39.9121 294.773 39.8828 294.252 39.8828C294.011 39.8828 293.458 39.9023 292.592 39.9414C291.999 39.9674 291.527 39.987 291.176 40V39.1406ZM304.695 26.0645C305.333 26.1035 305.916 26.1328 306.443 26.1523C306.977 26.1719 307.452 26.1816 307.869 26.1816C308.279 26.1816 308.738 26.1719 309.246 26.1523C309.76 26.1328 310.33 26.1035 310.955 26.0645V26.9434H310.75C310.301 26.9434 309.979 26.9889 309.783 27.0801C309.594 27.1712 309.458 27.3372 309.373 27.5781C309.301 27.7799 309.249 28.1771 309.217 28.7695C309.184 29.362 309.168 30.4264 309.168 31.9629V35.9766C309.168 36.8945 309.184 37.5326 309.217 37.8906C309.256 38.2422 309.321 38.4993 309.412 38.6621C309.503 38.8249 309.656 38.9421 309.871 39.0137C310.086 39.0853 310.405 39.1211 310.828 39.1211H311.072V40C310.356 39.9609 309.728 39.9316 309.188 39.9121C308.647 39.8926 308.188 39.8828 307.811 39.8828C307.465 39.8828 307.02 39.8926 306.473 39.9121C305.926 39.9316 305.291 39.9609 304.568 40V39.1211H304.812C305.249 39.1211 305.574 39.0853 305.789 39.0137C306.004 38.9421 306.15 38.8249 306.229 38.6621C306.326 38.4798 306.395 38.1836 306.434 37.7734C306.473 37.3568 306.492 36.6048 306.492 35.5176V34.043V29.8047C306.492 28.9974 306.473 28.4342 306.434 28.1152C306.401 27.7897 306.339 27.5488 306.248 27.3926C306.163 27.2363 306.014 27.1224 305.799 27.0508C305.59 26.9792 305.288 26.9434 304.891 26.9434H304.695V26.0645ZM313.488 26.0449C314.595 26.0905 315.617 26.1263 316.555 26.1523C317.492 26.1719 318.316 26.1816 319.025 26.1816C320.217 26.1816 321.223 26.1719 322.043 26.1523C322.87 26.1263 323.638 26.0905 324.348 26.0449C324.361 26.6113 324.387 27.1712 324.426 27.7246C324.465 28.2715 324.52 28.8249 324.592 29.3848L323.713 29.502C323.622 28.6882 323.352 28.138 322.902 27.8516C322.46 27.5651 321.568 27.4219 320.227 27.4219C319.986 27.4219 319.663 27.4284 319.26 27.4414C318.863 27.4479 318.374 27.4609 317.795 27.4805C317.782 28.3398 317.769 29.1634 317.756 29.9512C317.749 30.7389 317.74 31.4941 317.727 32.2168H318.01C318.387 32.2168 318.856 32.2201 319.416 32.2266C319.982 32.2331 320.36 32.2363 320.549 32.2363C321.447 32.2363 322.036 32.1484 322.316 31.9727C322.596 31.7969 322.746 31.4616 322.766 30.9668L323.488 31.0352C323.488 31.3607 323.479 31.7708 323.459 32.2656C323.439 32.7539 323.43 33.0859 323.43 33.2617C323.43 33.4375 323.433 33.6621 323.439 33.9355C323.452 34.209 323.469 34.5378 323.488 34.9219L322.668 34.9805V34.8633C322.668 34.3034 322.505 33.9258 322.18 33.7305C321.861 33.5352 321.102 33.4375 319.904 33.4375H318.449H317.707V34.5605C317.707 35.14 317.71 35.7357 317.717 36.3477C317.723 36.9531 317.733 37.6758 317.746 38.5156C318.039 38.5547 318.404 38.5872 318.84 38.6133C319.283 38.6328 319.764 38.6426 320.285 38.6426C321.841 38.6426 322.876 38.4798 323.391 38.1543C323.911 37.8288 324.331 37.2038 324.65 36.2793L325.549 36.5625C325.334 37.1875 325.148 37.7832 324.992 38.3496C324.842 38.916 324.715 39.4661 324.611 40C323.075 39.9479 321.851 39.9121 320.939 39.8926C320.028 39.873 319.217 39.8633 318.508 39.8633C317.707 39.8633 316.428 39.8926 314.67 39.9512C314.064 39.9707 313.605 39.987 313.293 40V39.1406C313.332 39.1471 313.374 39.1536 313.42 39.1602C313.472 39.1602 313.547 39.1602 313.645 39.1602C314.191 39.1602 314.562 38.9941 314.758 38.6621C314.953 38.3236 315.051 37.4414 315.051 36.0156V35.0391V34.1406L315.07 31.9629C315.07 31.8652 315.074 31.7188 315.08 31.5234C315.1 30.7227 315.109 30.1758 315.109 29.8828C315.109 29.5898 315.106 29.2839 315.1 28.9648C315.093 28.6458 315.09 28.4701 315.09 28.4375C315.09 27.8711 314.986 27.4772 314.777 27.2559C314.576 27.0345 314.221 26.9238 313.713 26.9238H313.488V26.0449ZM332.242 38.4375C332.646 38.5286 333.043 38.597 333.434 38.6426C333.831 38.6816 334.234 38.7012 334.645 38.7012C336.331 38.7012 337.63 38.2357 338.541 37.3047C339.452 36.3737 339.908 35.0456 339.908 33.3203C339.908 31.4258 339.42 29.9577 338.443 28.916C337.467 27.8678 336.1 27.3438 334.342 27.3438C334.088 27.3438 333.798 27.3568 333.473 27.3828C333.154 27.4023 332.77 27.4414 332.32 27.5C332.294 29.0885 332.275 30.5957 332.262 32.0215C332.249 33.4408 332.242 34.7331 332.242 35.8984V38.4375ZM327.828 40V39.1211C327.874 39.1276 327.923 39.1341 327.975 39.1406C328.027 39.1406 328.105 39.1406 328.209 39.1406C328.749 39.1406 329.114 38.9616 329.303 38.6035C329.492 38.2389 329.586 37.3112 329.586 35.8203V35.1172V34.082L329.605 31.7578C329.605 31.6471 329.609 31.4876 329.615 31.2793C329.635 30.3223 329.645 29.6615 329.645 29.2969C329.645 28.3268 329.55 27.6888 329.361 27.3828C329.179 27.0768 328.834 26.9238 328.326 26.9238C328.229 26.9238 328.154 26.9271 328.102 26.9336C328.049 26.9336 328.004 26.9336 327.965 26.9336V26.0645C328.525 26.097 329.013 26.123 329.43 26.1426C329.846 26.1556 330.224 26.1621 330.562 26.1621C331.168 26.1621 331.943 26.1361 332.887 26.084C333.837 26.0254 334.482 25.9961 334.82 25.9961C337.333 25.9961 339.303 26.6211 340.729 27.8711C342.154 29.1146 342.867 30.8236 342.867 32.998C342.867 35.1074 342.115 36.8132 340.611 38.1152C339.107 39.4108 337.112 40.0586 334.625 40.0586C334.423 40.0586 333.827 40.0326 332.838 39.9805C331.848 39.9284 330.956 39.9023 330.162 39.9023C329.973 39.9023 329.335 39.9284 328.248 39.9805L327.828 40ZM352.309 26.0645C352.947 26.1035 353.529 26.1328 354.057 26.1523C354.59 26.1719 355.066 26.1816 355.482 26.1816C355.893 26.1816 356.352 26.1719 356.859 26.1523C357.374 26.1328 357.943 26.1035 358.568 26.0645V26.9434H358.363C357.914 26.9434 357.592 26.9889 357.396 27.0801C357.208 27.1712 357.071 27.3372 356.986 27.5781C356.915 27.7799 356.863 28.1771 356.83 28.7695C356.798 29.362 356.781 30.4264 356.781 31.9629V35.9766C356.781 36.8945 356.798 37.5326 356.83 37.8906C356.869 38.2422 356.934 38.4993 357.025 38.6621C357.117 38.8249 357.27 38.9421 357.484 39.0137C357.699 39.0853 358.018 39.1211 358.441 39.1211H358.686V40C357.969 39.9609 357.341 39.9316 356.801 39.9121C356.26 39.8926 355.801 39.8828 355.424 39.8828C355.079 39.8828 354.633 39.8926 354.086 39.9121C353.539 39.9316 352.904 39.9609 352.182 40V39.1211H352.426C352.862 39.1211 353.188 39.0853 353.402 39.0137C353.617 38.9421 353.764 38.8249 353.842 38.6621C353.939 38.4798 354.008 38.1836 354.047 37.7734C354.086 37.3568 354.105 36.6048 354.105 35.5176V34.043V29.8047C354.105 28.9974 354.086 28.4342 354.047 28.1152C354.014 27.7897 353.952 27.5488 353.861 27.3926C353.777 27.2363 353.627 27.1224 353.412 27.0508C353.204 26.9792 352.901 26.9434 352.504 26.9434H352.309V26.0645ZM360.721 26.084C360.968 26.0905 361.355 26.11 361.883 26.1426C362.417 26.1686 362.798 26.1816 363.025 26.1816C363.227 26.1816 363.579 26.1686 364.08 26.1426C364.588 26.11 364.962 26.0905 365.203 26.084C365.294 26.3249 365.428 26.582 365.604 26.8555C365.779 27.1224 366.01 27.4251 366.297 27.7637L373.475 36.2305C373.468 35.3841 373.458 34.2546 373.445 32.8418C373.419 29.7363 373.37 28.0404 373.299 27.7539C373.208 27.4414 373.064 27.2298 372.869 27.1191C372.674 27.002 372.352 26.9434 371.902 26.9434H371.58V26.084C372.29 26.1165 372.83 26.1426 373.201 26.1621C373.572 26.1751 373.878 26.1816 374.119 26.1816C374.406 26.1816 374.751 26.1751 375.154 26.1621C375.558 26.1426 376.066 26.1165 376.678 26.084V26.9434H376.502C376.085 26.9434 375.779 26.9922 375.584 27.0898C375.389 27.181 375.249 27.3438 375.164 27.5781C375.06 27.8906 374.985 29.3587 374.939 31.9824V32.1387L374.9 34.2578C374.887 35.0716 374.878 35.8366 374.871 36.5527C374.865 37.2624 374.861 37.8581 374.861 38.3398C374.861 38.6589 374.871 38.9681 374.891 39.2676C374.917 39.5671 374.952 39.8568 374.998 40.1367H373.084C373.006 39.974 372.892 39.7884 372.742 39.5801C372.592 39.3717 372.306 39.0169 371.883 38.5156L364.002 29.2969C364.002 32.3763 364.018 34.5866 364.051 35.9277C364.083 37.2624 364.132 38.0501 364.197 38.291C364.288 38.6035 364.432 38.8216 364.627 38.9453C364.829 39.0625 365.154 39.1211 365.604 39.1211H365.906V40C365.164 39.9609 364.601 39.9349 364.217 39.9219C363.839 39.9089 363.527 39.9023 363.279 39.9023C363.071 39.9023 362.785 39.9089 362.42 39.9219C362.062 39.9349 361.489 39.9609 360.701 40V39.1211C360.753 39.1276 360.805 39.1341 360.857 39.1406C360.916 39.1406 360.997 39.1406 361.102 39.1406C362.033 39.1406 362.508 37.8613 362.527 35.3027C362.534 34.7363 362.537 34.2969 362.537 33.9844L362.566 31.9043C362.566 31.4811 362.573 30.8757 362.586 30.0879C362.599 29.2936 362.605 28.7858 362.605 28.5645C362.605 27.9329 362.495 27.5033 362.273 27.2754C362.052 27.041 361.655 26.9238 361.082 26.9238C361.043 26.9238 360.981 26.9271 360.896 26.9336C360.818 26.9401 360.76 26.9434 360.721 26.9434V26.084ZM381.613 39.1211H381.975C382.411 39.1211 382.73 39.0755 382.932 38.9844C383.133 38.8867 383.283 38.7174 383.381 38.4766C383.446 38.2943 383.492 37.8516 383.518 37.1484C383.544 36.4453 383.557 35.1432 383.557 33.2422V27.6562H381.877C380.855 27.6562 380.155 27.7995 379.777 28.0859C379.4 28.3724 379.139 28.9225 378.996 29.7363L378.078 29.541C378.228 28.8965 378.342 28.2812 378.42 27.6953C378.505 27.1029 378.557 26.5202 378.576 25.9473C378.824 26.0319 379.172 26.0938 379.621 26.1328C380.07 26.1654 380.829 26.1816 381.896 26.1816H384.055H385.275H387.756C388.954 26.1816 389.787 26.1654 390.256 26.1328C390.731 26.0938 391.079 26.0286 391.301 25.9375V26.2402C391.301 26.748 391.32 27.2754 391.359 27.8223C391.405 28.3626 391.47 28.9355 391.555 29.541L390.676 29.6777C390.565 28.8835 390.34 28.3496 390.002 28.0762C389.663 27.7962 388.996 27.6562 388 27.6562H387.756H386.281C386.262 28.6979 386.249 29.7233 386.242 30.7324C386.236 31.7415 386.232 32.9167 386.232 34.2578V36.084C386.232 36.9434 386.252 37.5456 386.291 37.8906C386.33 38.2357 386.392 38.4928 386.477 38.6621C386.574 38.8249 386.727 38.9421 386.936 39.0137C387.144 39.0853 387.437 39.1211 387.814 39.1211H388.156V40C387.993 39.9935 387.753 39.9837 387.434 39.9707C386.158 39.9121 385.285 39.8828 384.816 39.8828C384.478 39.8828 384.042 39.8926 383.508 39.9121C382.98 39.9316 382.349 39.9609 381.613 40V39.1211ZM393.746 26.0449C394.853 26.0905 395.875 26.1263 396.812 26.1523C397.75 26.1719 398.574 26.1816 399.283 26.1816C400.475 26.1816 401.48 26.1719 402.301 26.1523C403.128 26.1263 403.896 26.0905 404.605 26.0449C404.618 26.6113 404.645 27.1712 404.684 27.7246C404.723 28.2715 404.778 28.8249 404.85 29.3848L403.971 29.502C403.88 28.6882 403.609 28.138 403.16 27.8516C402.717 27.5651 401.826 27.4219 400.484 27.4219C400.243 27.4219 399.921 27.4284 399.518 27.4414C399.12 27.4479 398.632 27.4609 398.053 27.4805C398.04 28.3398 398.027 29.1634 398.014 29.9512C398.007 30.7389 397.997 31.4941 397.984 32.2168H398.268C398.645 32.2168 399.114 32.2201 399.674 32.2266C400.24 32.2331 400.618 32.2363 400.807 32.2363C401.705 32.2363 402.294 32.1484 402.574 31.9727C402.854 31.7969 403.004 31.4616 403.023 30.9668L403.746 31.0352C403.746 31.3607 403.736 31.7708 403.717 32.2656C403.697 32.7539 403.688 33.0859 403.688 33.2617C403.688 33.4375 403.691 33.6621 403.697 33.9355C403.71 34.209 403.727 34.5378 403.746 34.9219L402.926 34.9805V34.8633C402.926 34.3034 402.763 33.9258 402.438 33.7305C402.118 33.5352 401.36 33.4375 400.162 33.4375H398.707H397.965V34.5605C397.965 35.14 397.968 35.7357 397.975 36.3477C397.981 36.9531 397.991 37.6758 398.004 38.5156C398.297 38.5547 398.661 38.5872 399.098 38.6133C399.54 38.6328 400.022 38.6426 400.543 38.6426C402.099 38.6426 403.134 38.4798 403.648 38.1543C404.169 37.8288 404.589 37.2038 404.908 36.2793L405.807 36.5625C405.592 37.1875 405.406 37.7832 405.25 38.3496C405.1 38.916 404.973 39.4661 404.869 40C403.333 39.9479 402.109 39.9121 401.197 39.8926C400.286 39.873 399.475 39.8633 398.766 39.8633C397.965 39.8633 396.686 39.8926 394.928 39.9512C394.322 39.9707 393.863 39.987 393.551 40V39.1406C393.59 39.1471 393.632 39.1536 393.678 39.1602C393.73 39.1602 393.805 39.1602 393.902 39.1602C394.449 39.1602 394.82 38.9941 395.016 38.6621C395.211 38.3236 395.309 37.4414 395.309 36.0156V35.0391V34.1406L395.328 31.9629C395.328 31.8652 395.331 31.7188 395.338 31.5234C395.357 30.7227 395.367 30.1758 395.367 29.8828C395.367 29.5898 395.364 29.2839 395.357 28.9648C395.351 28.6458 395.348 28.4701 395.348 28.4375C395.348 27.8711 395.243 27.4772 395.035 27.2559C394.833 27.0345 394.479 26.9238 393.971 26.9238H393.746V26.0449ZM408.281 26.0645C408.835 26.097 409.355 26.123 409.844 26.1426C410.339 26.1556 410.778 26.1621 411.162 26.1621C411.559 26.1621 412.002 26.1556 412.49 26.1426C412.985 26.123 413.555 26.097 414.199 26.0645V26.9434C414.16 26.9434 414.105 26.9401 414.033 26.9336C413.962 26.9271 413.913 26.9238 413.887 26.9238C413.34 26.9238 412.969 27.0866 412.773 27.4121C412.578 27.7376 412.48 28.4733 412.48 29.6191C412.48 29.7884 412.484 30.0944 412.49 30.5371C412.497 30.9798 412.5 31.3411 412.5 31.6211L412.52 38.4766L412.578 38.4863C413.418 38.5384 414.053 38.5645 414.482 38.5645C416.117 38.5645 417.188 38.3952 417.695 38.0566C418.203 37.7181 418.62 37.0736 418.945 36.123L419.844 36.3965C419.642 36.9889 419.46 37.5846 419.297 38.1836C419.141 38.7826 419.004 39.388 418.887 40C417.734 39.9609 416.663 39.9316 415.674 39.9121C414.684 39.8926 413.779 39.8828 412.959 39.8828C412.145 39.8828 411.325 39.8926 410.498 39.9121C409.678 39.9316 408.861 39.9609 408.047 40V39.1406H408.32C408.672 39.1406 408.942 39.1048 409.131 39.0332C409.32 38.9616 409.456 38.8444 409.541 38.6816C409.723 38.3236 409.821 36.9857 409.834 34.668C409.84 34.3685 409.844 34.1406 409.844 33.9844L409.863 31.8555C409.863 31.569 409.867 31.1947 409.873 30.7324C409.88 30.2637 409.883 29.9382 409.883 29.7559C409.883 28.584 409.785 27.819 409.59 27.4609C409.401 27.1029 409.04 26.9238 408.506 26.9238H408.281V26.0645Z" fill="#6B2D2B"/>
<path d="M218.812 218.545H220.123L222.746 222.959H222.856L225.478 218.545H226.79L223.373 224.104V228H222.228V224.104L218.812 218.545ZM238.403 223.273C238.403 224.27 238.223 225.132 237.863 225.858C237.503 226.584 237.009 227.144 236.381 227.538C235.753 227.932 235.036 228.129 234.23 228.129C233.424 228.129 232.706 227.932 232.079 227.538C231.451 227.144 230.957 226.584 230.597 225.858C230.237 225.132 230.057 224.27 230.057 223.273C230.057 222.276 230.237 221.414 230.597 220.688C230.957 219.961 231.451 219.401 232.079 219.007C232.706 218.613 233.424 218.416 234.23 218.416C235.036 218.416 235.753 218.613 236.381 219.007C237.009 219.401 237.503 219.961 237.863 220.688C238.223 221.414 238.403 222.276 238.403 223.273ZM237.295 223.273C237.295 222.454 237.158 221.763 236.884 221.2C236.614 220.637 236.246 220.21 235.781 219.921C235.319 219.632 234.802 219.487 234.23 219.487C233.657 219.487 233.139 219.632 232.674 219.921C232.213 220.21 231.845 220.637 231.571 221.2C231.3 221.763 231.165 222.454 231.165 223.273C231.165 224.091 231.3 224.782 231.571 225.346C231.845 225.909 232.213 226.335 232.674 226.624C233.139 226.914 233.657 227.058 234.23 227.058C234.802 227.058 235.319 226.914 235.781 226.624C236.246 226.335 236.614 225.909 236.884 225.346C237.158 224.782 237.295 224.091 237.295 223.273ZM249.133 218.545H250.278V224.805C250.278 225.452 250.125 226.029 249.821 226.537C249.519 227.041 249.093 227.44 248.542 227.732C247.991 228.022 247.345 228.166 246.603 228.166C245.861 228.166 245.215 228.022 244.664 227.732C244.113 227.44 243.685 227.041 243.381 226.537C243.079 226.029 242.928 225.452 242.928 224.805V218.545H244.073V224.713C244.073 225.175 244.175 225.586 244.378 225.946C244.581 226.303 244.87 226.584 245.246 226.79C245.624 226.994 246.077 227.095 246.603 227.095C247.129 227.095 247.582 226.994 247.96 226.79C248.339 226.584 248.628 226.303 248.828 225.946C249.031 225.586 249.133 225.175 249.133 224.713V218.545ZM255.164 228V218.545H258.359C259.097 218.545 259.704 218.672 260.178 218.924C260.651 219.173 261.002 219.516 261.23 219.953C261.458 220.391 261.572 220.888 261.572 221.445C261.572 222.002 261.458 222.496 261.23 222.926C261.002 223.357 260.653 223.696 260.182 223.942C259.711 224.185 259.11 224.307 258.377 224.307H255.792V223.273H258.34C258.845 223.273 259.251 223.199 259.559 223.051C259.87 222.903 260.094 222.694 260.233 222.423C260.374 222.149 260.445 221.823 260.445 221.445C260.445 221.066 260.374 220.735 260.233 220.452C260.091 220.169 259.865 219.95 259.554 219.797C259.243 219.64 258.833 219.561 258.322 219.561H256.309V228H255.164ZM259.614 223.753L261.941 228H260.611L258.322 223.753H259.614ZM271.819 219.561V218.545H278.91V219.561H275.937V228H274.792V219.561H271.819ZM284.421 218.545V228H283.277V218.545H284.421ZM289.317 218.545H290.683L293.896 226.393H294.007L297.22 218.545H298.587V228H297.516V220.817H297.423L294.469 228H293.435L290.48 220.817H290.388V228H289.317V218.545ZM303.482 228V218.545H309.188V219.561H304.627V222.756H308.893V223.771H304.627V226.984H309.262V228H303.482ZM321.825 228L319.24 218.545H320.404L322.379 226.246H322.472L324.485 218.545H325.777L327.79 226.246H327.882L329.858 218.545H331.022L328.436 228H327.254L325.168 220.466H325.094L323.007 228H321.825ZM336.193 218.545V228H335.048V218.545H336.193ZM341.088 228V218.545H342.233V226.984H346.628V228H341.088ZM351.001 228V218.545H352.146V226.984H356.541V228H351.001ZM374.778 221.5H373.633C373.565 221.171 373.447 220.881 373.277 220.632C373.111 220.383 372.908 220.174 372.668 220.004C372.431 219.832 372.168 219.703 371.879 219.616C371.589 219.53 371.288 219.487 370.974 219.487C370.401 219.487 369.883 219.632 369.418 219.921C368.956 220.21 368.588 220.637 368.315 221.2C368.044 221.763 367.908 222.454 367.908 223.273C367.908 224.091 368.044 224.782 368.315 225.346C368.588 225.909 368.956 226.335 369.418 226.624C369.883 226.914 370.401 227.058 370.974 227.058C371.288 227.058 371.589 227.015 371.879 226.929C372.168 226.843 372.431 226.715 372.668 226.546C372.908 226.373 373.111 226.163 373.277 225.913C373.447 225.661 373.565 225.372 373.633 225.045H374.778C374.691 225.529 374.535 225.961 374.307 226.343C374.079 226.724 373.796 227.049 373.457 227.317C373.119 227.581 372.739 227.783 372.317 227.922C371.899 228.06 371.451 228.129 370.974 228.129C370.167 228.129 369.45 227.932 368.822 227.538C368.195 227.144 367.701 226.584 367.341 225.858C366.98 225.132 366.8 224.27 366.8 223.273C366.8 222.276 366.98 221.414 367.341 220.688C367.701 219.961 368.195 219.401 368.822 219.007C369.45 218.613 370.167 218.416 370.974 218.416C371.451 218.416 371.899 218.485 372.317 218.624C372.739 218.762 373.119 218.966 373.457 219.233C373.796 219.498 374.079 219.821 374.307 220.203C374.535 220.581 374.691 221.014 374.778 221.5ZM387.205 223.273C387.205 224.27 387.025 225.132 386.665 225.858C386.305 226.584 385.811 227.144 385.183 227.538C384.555 227.932 383.838 228.129 383.032 228.129C382.225 228.129 381.508 227.932 380.88 227.538C380.253 227.144 379.759 226.584 379.399 225.858C379.038 225.132 378.858 224.27 378.858 223.273C378.858 222.276 379.038 221.414 379.399 220.688C379.759 219.961 380.253 219.401 380.88 219.007C381.508 218.613 382.225 218.416 383.032 218.416C383.838 218.416 384.555 218.613 385.183 219.007C385.811 219.401 386.305 219.961 386.665 220.688C387.025 221.414 387.205 222.276 387.205 223.273ZM386.097 223.273C386.097 222.454 385.96 221.763 385.686 221.2C385.415 220.637 385.048 220.21 384.583 219.921C384.121 219.632 383.604 219.487 383.032 219.487C382.459 219.487 381.941 219.632 381.476 219.921C381.014 220.21 380.647 220.637 380.373 221.2C380.102 221.763 379.966 222.454 379.966 223.273C379.966 224.091 380.102 224.782 380.373 225.346C380.647 225.909 381.014 226.335 381.476 226.624C381.941 226.914 382.459 227.058 383.032 227.058C383.604 227.058 384.121 226.914 384.583 226.624C385.048 226.335 385.415 225.909 385.686 225.346C385.96 224.782 386.097 224.091 386.097 223.273ZM391.73 218.545H393.097L396.31 226.393H396.42L399.633 218.545H401V228H399.929V220.817H399.837L396.882 228H395.848L392.893 220.817H392.801V228H391.73V218.545ZM405.895 228V218.545H411.601V219.561H407.04V222.756H411.306V223.771H407.04V226.984H411.675V228H405.895Z" fill="#6B2D2B"/>
<g clip-path="url(#clip0_33_1126)">
<path d="M42.0322 78.96C42.5316 79.7686 43.2405 81.9835 43.8688 84.7139C44.4649 87.3272 44.2233 88.3819 43.1841 87.6436C42.9988 87.5147 42.3302 86.7999 41.6858 86.0381C40.2116 84.3155 38.6488 82.8155 37.2552 81.796C36.1999 81.0108 34.7822 80.1436 34.5808 80.1436C34.5002 80.1436 34.4761 80.5303 34.4922 81.7491L34.4923 81.7666C34.5008 82.7068 34.5487 87.9989 34.5778 110.527C34.6986 124.988 34.7792 128.258 35.1417 133.555C35.6089 140.398 35.7861 144.934 35.7861 149.844C35.7861 155.445 35.5525 159.758 34.6583 171.055C34.1589 177.336 33.16 187.719 32.7975 190.309C32.5156 192.359 31.267 198.992 31.1945 198.863C31.13 198.758 30.1553 193.59 29.8572 191.797C29.4947 189.605 28.9872 184.59 28.222 175.684C27.5292 167.656 27.2472 163.66 26.8364 156.172C26.6995 153.828 26.6995 145.977 26.8364 143.164C26.9895 139.66 27.1586 136.637 27.3681 133.379C27.7064 128.07 27.8272 122.715 27.932 107.949C27.9752 87.3389 28.0155 83.5538 28.0397 82.3467C28.088 80.4249 28.0719 80.1436 27.9672 80.1436C27.7416 80.1436 26.0258 81.21 25.0269 81.96C23.7138 82.9561 22.2558 84.3858 20.8219 86.0616C19.2913 87.8663 18.7919 88.1944 18.4455 87.6436C18.1394 87.1514 18.4213 85.335 19.2913 82.1944C19.7263 80.6007 20.1936 79.4171 20.6205 78.796C20.9991 78.2335 21.1441 78.128 23.2788 76.8975C25.6713 75.503 26.5333 75.046 27.508 74.6358C27.8383 74.5069 28.1524 74.3663 28.2088 74.3428C28.2733 74.3077 28.2572 74.0616 28.1524 73.4405L27.6259 68.8086C27.2875 63.3828 26.9653 60.6289 26.5061 59.3398C26.4175 59.0703 26.192 58.6132 26.0147 58.3203C25.5797 57.6054 25.475 57.1836 25.475 56.1875C25.475 54.7343 26.0147 53.4921 26.9411 52.8007C28.802 51.4179 32.0967 51.1836 34.61 52.25C35.8425 52.7656 36.632 53.7617 36.922 55.1796C37.1878 56.4336 37.0347 57.4062 36.4467 58.3437C36.2695 58.625 36.0761 59.0117 36.0036 59.1992C35.6653 60.1718 35.335 62.4218 35.1014 65.2929L34.323 73.7335C34.2344 74.1553 34.2344 74.3077 34.2988 74.3428C34.3552 74.3663 34.7419 74.5303 35.1608 74.7061C36.0308 75.0694 36.7961 75.4796 39.3094 76.921C41.3233 78.0811 41.6213 78.3038 42.0322 78.96Z" fill="#C6684E"/>
</g>
<g clip-path="url(#clip1_33_1126)">
<path d="M607.032 78.96C607.532 79.7686 608.24 81.9835 608.869 84.7139C609.465 87.3272 609.223 88.3819 608.184 87.6436C607.999 87.5147 607.33 86.7999 606.686 86.0381C605.212 84.3155 603.649 82.8155 602.255 81.796C601.2 81.0108 599.782 80.1436 599.581 80.1436C599.5 80.1436 599.476 80.5303 599.492 81.7491L599.492 81.7666C599.501 82.7068 599.549 87.9989 599.578 110.527C599.699 124.988 599.779 128.258 600.142 133.555C600.609 140.398 600.786 144.934 600.786 149.844C600.786 155.445 600.553 159.758 599.658 171.055C599.159 177.336 598.16 187.719 597.798 190.309C597.516 192.359 596.267 198.992 596.194 198.863C596.13 198.758 595.155 193.59 594.857 191.797C594.495 189.605 593.987 184.59 593.222 175.684C592.529 167.656 592.247 163.66 591.836 156.172C591.699 153.828 591.699 145.977 591.836 143.164C591.989 139.66 592.159 136.637 592.368 133.379C592.706 128.07 592.827 122.715 592.932 107.949C592.975 87.3389 593.015 83.5538 593.04 82.3467C593.088 80.4249 593.072 80.1436 592.967 80.1436C592.742 80.1436 591.026 81.21 590.027 81.96C588.714 82.9561 587.256 84.3858 585.822 86.0616C584.291 87.8663 583.792 88.1944 583.445 87.6436C583.139 87.1514 583.421 85.335 584.291 82.1944C584.726 80.6007 585.194 79.4171 585.62 78.796C585.999 78.2335 586.144 78.128 588.279 76.8975C590.671 75.503 591.533 75.046 592.508 74.6358C592.838 74.5069 593.152 74.3663 593.209 74.3428C593.273 74.3077 593.257 74.0616 593.152 73.4405L592.626 68.8086C592.288 63.3828 591.965 60.6289 591.506 59.3398C591.418 59.0703 591.192 58.6132 591.015 58.3203C590.58 57.6054 590.475 57.1836 590.475 56.1875C590.475 54.7343 591.015 53.4921 591.941 52.8007C593.802 51.4179 597.097 51.1836 599.61 52.25C600.843 52.7656 601.632 53.7617 601.922 55.1796C602.188 56.4336 602.035 57.4062 601.447 58.3437C601.269 58.625 601.076 59.0117 601.004 59.1992C600.665 60.1718 600.335 62.4218 600.101 65.2929L599.323 73.7335C599.234 74.1553 599.234 74.3077 599.299 74.3428C599.355 74.3663 599.742 74.5303 600.161 74.7061C601.031 75.0694 601.796 75.4796 604.309 76.921C606.323 78.0811 606.621 78.3038 607.032 78.96Z" fill="#C6684E"/>
</g>
<mask id="path-26-inside-9_33_1126" fill="white">
<rect x="27" y="26" width="23" height="13" rx="2"/>
</mask>
<rect x="27" y="26" width="23" height="13" rx="2" stroke="#C6684E" stroke-width="6" mask="url(#path-26-inside-9_33_1126)"/>
<mask id="path-27-inside-10_33_1126" fill="white">
<rect x="59" y="26" width="23" height="13" rx="2"/>
</mask>
<rect x="59" y="26" width="23" height="13" rx="2" stroke="#C6684E" stroke-width="6" mask="url(#path-27-inside-10_33_1126)"/>
<mask id="path-28-inside-11_33_1126" fill="white">
<rect x="91" y="26" width="23" height="13" rx="2"/>
</mask>
<rect x="91" y="26" width="23" height="13" rx="2" stroke="#C6684E" stroke-width="6" mask="url(#path-28-inside-11_33_1126)"/>
<mask id="path-29-inside-12_33_1126" fill="white">
<rect x="123" y="26" width="23" height="13" rx="2"/>
</mask>
<rect x="123" y="26" width="23" height="13" rx="2" stroke="#C6684E" stroke-width="6" mask="url(#path-29-inside-12_33_1126)"/>
<mask id="path-30-inside-13_33_1126" fill="white">
<rect x="155" y="26" width="23" height="13" rx="2"/>
</mask>
<rect x="155" y="26" width="23" height="13" rx="2" stroke="#C6684E" stroke-width="6" mask="url(#path-30-inside-13_33_1126)"/>
<rect x="43" y="31" width="23" height="4" fill="#C6684E" stroke="#6B2D2B"/>
<rect x="75" y="31" width="23" height="4" fill="#C6684E" stroke="#6B2D2B"/>
<rect x="107" y="31" width="23" height="4" fill="#C6684E" stroke="#6B2D2B"/>
<rect x="139" y="31" width="23" height="4" fill="#C6684E" stroke="#6B2D2B"/>
<rect x="171" y="31" width="18" height="4" fill="#C6684E" stroke="#6B2D2B"/>
<mask id="path-36-inside-14_33_1126" fill="white">
<rect x="27" y="219" width="23" height="13" rx="2"/>
</mask>
<rect x="27" y="219" width="23" height="13" rx="2" stroke="#C6684E" stroke-width="6" mask="url(#path-36-inside-14_33_1126)"/>
<mask id="path-37-inside-15_33_1126" fill="white">
<rect x="59" y="219" width="23" height="13" rx="2"/>
</mask>
<rect x="59" y="219" width="23" height="13" rx="2" stroke="#C6684E" stroke-width="6" mask="url(#path-37-inside-15_33_1126)"/>
<mask id="path-38-inside-16_33_1126" fill="white">
<rect x="91" y="219" width="23" height="13" rx="2"/>
</mask>
<rect x="91" y="219" width="23" height="13" rx="2" stroke="#C6684E" stroke-width="6" mask="url(#path-38-inside-16_33_1126)"/>
<rect x="43" y="224" width="23" height="4" fill="#C6684E" stroke="#6B2D2B"/>
<rect x="75" y="224" width="23" height="4" fill="#C6684E" stroke="#6B2D2B"/>
<rect x="109" y="224" width="13" height="4" fill="#C6684E" stroke="#6B2D2B"/>
<defs>
<clipPath id="clip0_33_1126">
<rect width="150" height="58" fill="white" transform="translate(61 50) rotate(90)"/>
</clipPath>
<clipPath id="clip1_33_1126">
<rect width="150" height="58" fill="white" transform="translate(626 50) rotate(90)"/>
</clipPath>
</defs>
</svg>
