<svg width="747" height="428" viewBox="0 0 747 428" fill="none" xmlns="http://www.w3.org/2000/svg">
<rect width="747" height="428" fill="#C6684E"/>
<path d="M262.892 39.65L270.182 40.25L268.862 44.45L259.742 43.64C258.922 41.26 258.512 38.36 258.512 34.94C258.512 33.5 258.712 31.78 259.112 29.78C259.692 28.68 260.542 27.49 261.662 26.21C262.802 24.91 263.852 23.94 264.812 23.3L270.302 24.02L268.562 28.34L264.302 27.68C263.602 28.1 263.252 29.27 263.252 31.19C263.252 33.13 263.612 35.31 264.332 37.73L262.892 39.65ZM279.968 37.52L279.548 39.68L285.098 40.04L283.958 44.21L277.178 43.82L274.868 40.55V27.68L272.678 27.2L274.568 23.3L279.968 24.47V37.52ZM289.436 35.09V29.66L294.266 23.3L300.416 24.17L303.266 29.09V39.98L305.156 40.49L303.266 44.39L298.166 43.19V37.52H294.536V44H289.436V37.52H287.636V35.09H289.436ZM294.536 35.09H298.166V28.34L293.246 27.41L294.536 29.39V35.09ZM314.749 44.45L308.269 43.7L309.349 39.2L315.349 39.98C315.529 39.08 315.539 38.07 315.379 36.95L308.659 33.86C308.519 31.54 308.679 29.55 309.139 27.89C309.619 27.19 310.269 26.39 311.089 25.49C311.929 24.59 312.759 23.86 313.579 23.3L319.489 24.05L317.749 28.43L312.979 27.65C312.759 28.35 312.719 29.21 312.859 30.23L319.309 33.08C319.649 35.22 319.579 37.47 319.099 39.83C317.839 41.75 316.389 43.29 314.749 44.45ZM329.579 44.45L323.099 43.7L324.179 39.2L330.179 39.98C330.359 39.08 330.369 38.07 330.209 36.95L323.489 33.86C323.349 31.54 323.509 29.55 323.969 27.89C324.449 27.19 325.099 26.39 325.919 25.49C326.759 24.59 327.589 23.86 328.409 23.3L334.319 24.05L332.579 28.43L327.809 27.65C327.589 28.35 327.549 29.21 327.689 30.23L334.139 33.08C334.479 35.22 334.409 37.47 333.929 39.83C332.669 41.75 331.219 43.29 329.579 44.45ZM339.279 23.3L344.679 24.47V44H339.579V27.68L337.389 27.2L339.279 23.3ZM355.18 44H350.08V29.21L354.19 23.3L361.39 24.29L359.95 28.46L353.95 27.47L355.18 29.33V32.09H359.65V35.51H355.18V44ZM365.335 23.3L370.735 24.47V44H365.635V27.68L363.445 27.2L365.335 23.3ZM378.476 43.79L376.136 40.52V29.24L380.186 23.3L387.716 24.26L386.096 28.25L379.946 27.44L381.236 29.33V32H385.346V35.42H381.236V39.8L387.656 40.19L386.396 44.21L378.476 43.79ZM390.871 39.26L392.761 39.47V27.59L389.971 27.17L392.011 23.3L397.711 24.26H403.501C405.661 26.28 406.741 29.07 406.741 32.63C406.741 34.87 406.231 37 405.211 39.02C404.191 41.02 402.831 42.83 401.131 44.45L389.671 43.19L390.871 39.26ZM397.861 29.99V40.07L401.161 40.46C401.881 38.98 402.241 37.04 402.241 34.64C402.241 31.8 401.511 29.59 400.051 28.01H395.911L397.861 29.99ZM418.591 23.3L423.991 24.47V44H418.891V27.68L416.701 27.2L418.591 23.3ZM444.302 24.17V40.04L446.492 40.55L444.602 44.45L439.202 43.25V29.93L439.892 27.5L437.312 27.08L435.452 30.05V44H430.352V27.68L428.162 27.2L430.052 23.3L435.452 24.47V26.81L434.552 28.97L434.762 29.06L438.452 23.3L444.302 24.17ZM452.279 44V27.77H448.259L449.279 23.9H461.669L460.649 27.77H456.209L457.379 29.81V44H452.279ZM466.724 43.79L464.384 40.52V29.24L468.434 23.3L475.964 24.26L474.344 28.25L468.194 27.44L469.484 29.33V32H473.594V35.42H469.484V39.8L475.904 40.19L474.644 44.21L466.724 43.79ZM485.48 37.52L485.06 39.68L490.61 40.04L489.47 44.21L482.69 43.82L480.38 40.55V27.68L478.19 27.2L480.08 23.3L485.48 24.47V37.52Z" fill="#6B2D2B"/>
<path d="M305.542 389.727H306.423V394.543C306.423 395.04 306.306 395.484 306.071 395.874C305.839 396.263 305.511 396.569 305.088 396.794C304.664 397.017 304.167 397.128 303.596 397.128C303.026 397.128 302.528 397.017 302.105 396.794C301.681 396.569 301.352 396.263 301.117 395.874C300.885 395.484 300.769 395.04 300.769 394.543V389.727H301.65V394.472C301.65 394.827 301.728 395.143 301.884 395.42C302.041 395.694 302.263 395.911 302.552 396.07C302.843 396.226 303.191 396.304 303.596 396.304C304.001 396.304 304.349 396.226 304.64 396.07C304.931 395.911 305.154 395.694 305.308 395.42C305.464 395.143 305.542 394.827 305.542 394.472V389.727ZM310.181 397V389.727H312.639C313.209 389.727 313.676 389.83 314.038 390.036C314.403 390.24 314.672 390.516 314.848 390.864C315.023 391.212 315.11 391.6 315.11 392.028C315.11 392.457 315.023 392.846 314.848 393.197C314.675 393.547 314.407 393.826 314.045 394.035C313.683 394.241 313.219 394.344 312.653 394.344H310.892V393.562H312.625C313.015 393.562 313.329 393.495 313.566 393.36C313.802 393.225 313.974 393.043 314.081 392.813C314.19 392.581 314.244 392.32 314.244 392.028C314.244 391.737 314.19 391.477 314.081 391.247C313.974 391.018 313.801 390.838 313.562 390.707C313.323 390.575 313.006 390.509 312.61 390.509H311.062V397H310.181ZM324.381 392H323.501C323.449 391.747 323.357 391.524 323.227 391.332C323.099 391.141 322.943 390.98 322.759 390.849C322.576 390.717 322.374 390.617 322.151 390.551C321.929 390.485 321.697 390.452 321.455 390.452C321.015 390.452 320.616 390.563 320.259 390.786C319.903 391.008 319.621 391.336 319.41 391.769C319.201 392.202 319.097 392.734 319.097 393.364C319.097 393.993 319.201 394.525 319.41 394.958C319.621 395.391 319.903 395.719 320.259 395.942C320.616 396.164 321.015 396.276 321.455 396.276C321.697 396.276 321.929 396.242 322.151 396.176C322.374 396.11 322.576 396.012 322.759 395.881C322.943 395.749 323.099 395.587 323.227 395.395C323.357 395.201 323.449 394.978 323.501 394.727H324.381C324.315 395.099 324.194 395.432 324.019 395.725C323.844 396.019 323.626 396.268 323.366 396.474C323.105 396.678 322.813 396.833 322.489 396.94C322.167 397.046 321.822 397.099 321.455 397.099C320.835 397.099 320.283 396.948 319.8 396.645C319.317 396.342 318.938 395.911 318.661 395.352C318.384 394.794 318.245 394.131 318.245 393.364C318.245 392.597 318.384 391.934 318.661 391.375C318.938 390.816 319.317 390.385 319.8 390.082C320.283 389.779 320.835 389.628 321.455 389.628C321.822 389.628 322.167 389.681 322.489 389.788C322.813 389.894 323.105 390.05 323.366 390.256C323.626 390.46 323.844 390.709 324.019 391.002C324.194 391.293 324.315 391.626 324.381 392ZM333.941 393.364C333.941 394.131 333.802 394.794 333.525 395.352C333.248 395.911 332.868 396.342 332.385 396.645C331.903 396.948 331.351 397.099 330.731 397.099C330.11 397.099 329.559 396.948 329.076 396.645C328.593 396.342 328.213 395.911 327.936 395.352C327.659 394.794 327.52 394.131 327.52 393.364C327.52 392.597 327.659 391.934 327.936 391.375C328.213 390.816 328.593 390.385 329.076 390.082C329.559 389.779 330.11 389.628 330.731 389.628C331.351 389.628 331.903 389.779 332.385 390.082C332.868 390.385 333.248 390.816 333.525 391.375C333.802 391.934 333.941 392.597 333.941 393.364ZM333.089 393.364C333.089 392.734 332.983 392.202 332.773 391.769C332.564 391.336 332.281 391.008 331.924 390.786C331.569 390.563 331.171 390.452 330.731 390.452C330.29 390.452 329.891 390.563 329.534 390.786C329.179 391.008 328.896 391.336 328.685 391.769C328.477 392.202 328.373 392.734 328.373 393.364C328.373 393.993 328.477 394.525 328.685 394.958C328.896 395.391 329.179 395.719 329.534 395.942C329.891 396.164 330.29 396.276 330.731 396.276C331.171 396.276 331.569 396.164 331.924 395.942C332.281 395.719 332.564 395.391 332.773 394.958C332.983 394.525 333.089 393.993 333.089 393.364ZM337.422 389.727H338.473L340.944 395.764H341.03L343.501 389.727H344.552V397H343.729V391.474H343.657L341.385 397H340.589L338.317 391.474H338.246V397H337.422V389.727ZM349.199 389.727V397H348.318V389.727H349.199ZM358.732 389.727V397H357.879L353.916 391.29H353.845V397H352.965V389.727H353.817L357.794 395.452H357.865V389.727H358.732ZM367.466 392C367.387 391.761 367.284 391.547 367.157 391.357C367.031 391.165 366.881 391.002 366.706 390.867C366.533 390.732 366.336 390.629 366.116 390.558C365.896 390.487 365.654 390.452 365.392 390.452C364.961 390.452 364.569 390.563 364.216 390.786C363.864 391.008 363.583 391.336 363.375 391.769C363.166 392.202 363.062 392.734 363.062 393.364C363.062 393.993 363.167 394.525 363.378 394.958C363.589 395.391 363.874 395.719 364.234 395.942C364.594 396.164 364.999 396.276 365.449 396.276C365.865 396.276 366.232 396.187 366.549 396.009C366.869 395.829 367.118 395.576 367.295 395.249C367.475 394.92 367.565 394.533 367.565 394.088L367.835 394.145H365.647V393.364H368.417V394.145C368.417 394.744 368.289 395.265 368.034 395.707C367.78 396.15 367.43 396.493 366.983 396.737C366.538 396.979 366.026 397.099 365.449 397.099C364.805 397.099 364.239 396.948 363.751 396.645C363.266 396.342 362.887 395.911 362.615 395.352C362.345 394.794 362.21 394.131 362.21 393.364C362.21 392.788 362.287 392.271 362.441 391.812C362.597 391.35 362.817 390.957 363.101 390.633C363.385 390.308 363.721 390.06 364.11 389.887C364.498 389.714 364.925 389.628 365.392 389.628C365.775 389.628 366.133 389.686 366.464 389.802C366.798 389.915 367.095 390.078 367.355 390.288C367.618 390.497 367.837 390.746 368.012 391.038C368.188 391.326 368.308 391.647 368.375 392H367.466ZM376.738 397V389.727H379.281C379.787 389.727 380.205 389.815 380.534 389.99C380.863 390.163 381.108 390.396 381.269 390.69C381.43 390.981 381.511 391.304 381.511 391.659C381.511 391.972 381.455 392.23 381.344 392.433C381.235 392.637 381.091 392.798 380.911 392.916C380.733 393.035 380.54 393.122 380.332 393.179V393.25C380.554 393.264 380.778 393.342 381.003 393.484C381.228 393.626 381.416 393.83 381.568 394.095C381.719 394.36 381.795 394.685 381.795 395.068C381.795 395.433 381.712 395.761 381.546 396.052C381.381 396.343 381.119 396.574 380.762 396.744C380.404 396.915 379.939 397 379.366 397H376.738ZM377.619 396.219H379.366C379.941 396.219 380.35 396.107 380.591 395.885C380.835 395.66 380.957 395.388 380.957 395.068C380.957 394.822 380.894 394.595 380.769 394.386C380.643 394.176 380.464 394.008 380.232 393.882C380 393.754 379.726 393.69 379.409 393.69H377.619V396.219ZM377.619 392.923H379.252C379.517 392.923 379.757 392.871 379.97 392.767C380.185 392.663 380.356 392.516 380.481 392.327C380.609 392.137 380.673 391.915 380.673 391.659C380.673 391.339 380.561 391.068 380.339 390.846C380.116 390.621 379.764 390.509 379.281 390.509H377.619V392.923ZM386.123 389.727V397H385.242V389.727H386.123ZM389.888 397V389.727H392.346C392.914 389.727 393.38 389.824 393.745 390.018C394.11 390.21 394.379 390.474 394.555 390.81C394.73 391.147 394.817 391.529 394.817 391.957C394.817 392.386 394.73 392.766 394.555 393.097C394.379 393.429 394.111 393.689 393.749 393.879C393.386 394.066 392.924 394.159 392.36 394.159H390.371V393.364H392.332C392.72 393.364 393.032 393.307 393.269 393.193C393.508 393.08 393.681 392.919 393.788 392.71C393.897 392.5 393.951 392.249 393.951 391.957C393.951 391.666 393.897 391.412 393.788 391.194C393.679 390.976 393.505 390.808 393.266 390.69C393.027 390.569 392.71 390.509 392.317 390.509H390.769V397H389.888ZM393.312 393.733L395.102 397H394.079L392.317 393.733H393.312ZM397.887 390.509V389.727H403.342V390.509H401.055V397H400.174V390.509H397.887ZM406.701 397V389.727H407.582V392.966H411.46V389.727H412.34V397H411.46V393.747H407.582V397H406.701ZM418.348 397H416.103V389.727H418.447C419.153 389.727 419.756 389.873 420.258 390.164C420.76 390.453 421.145 390.868 421.412 391.411C421.68 391.95 421.814 392.597 421.814 393.349C421.814 394.107 421.679 394.759 421.409 395.306C421.139 395.851 420.746 396.27 420.23 396.563C419.714 396.854 419.086 397 418.348 397ZM416.984 396.219H418.291C418.892 396.219 419.391 396.103 419.786 395.871C420.181 395.639 420.476 395.308 420.67 394.88C420.864 394.451 420.961 393.941 420.961 393.349C420.961 392.762 420.865 392.257 420.674 391.833C420.482 391.407 420.195 391.08 419.814 390.853C419.433 390.623 418.958 390.509 418.39 390.509H416.984V396.219ZM425.247 397H424.324L426.994 389.727H427.904L430.574 397H429.651L427.477 390.878H427.421L425.247 397ZM425.588 394.159H429.31V394.94H425.588V394.159ZM432.34 389.727H433.348L435.365 393.122H435.45L437.468 389.727H438.476L435.848 394.003V397H434.968V394.003L432.34 389.727ZM445.592 391.545C445.55 391.186 445.377 390.906 445.074 390.707C444.771 390.509 444.399 390.409 443.959 390.409C443.637 390.409 443.355 390.461 443.114 390.565C442.875 390.67 442.688 390.813 442.553 390.995C442.42 391.177 442.354 391.384 442.354 391.616C442.354 391.811 442.4 391.978 442.492 392.117C442.587 392.254 442.708 392.369 442.854 392.462C443.001 392.552 443.155 392.626 443.316 392.685C443.477 392.742 443.625 392.788 443.76 392.824L444.499 393.023C444.688 393.072 444.899 393.141 445.131 393.229C445.365 393.316 445.589 393.436 445.802 393.587C446.017 393.737 446.195 393.928 446.335 394.163C446.474 394.397 446.544 394.685 446.544 395.026C446.544 395.419 446.441 395.774 446.235 396.091C446.031 396.408 445.733 396.66 445.34 396.847C444.95 397.034 444.475 397.128 443.916 397.128C443.395 397.128 442.944 397.044 442.563 396.876C442.184 396.708 441.886 396.473 441.668 396.173C441.453 395.872 441.331 395.523 441.303 395.125H442.212C442.235 395.4 442.328 395.627 442.489 395.807C442.652 395.984 442.858 396.117 443.107 396.205C443.357 396.29 443.627 396.332 443.916 396.332C444.252 396.332 444.554 396.278 444.822 396.169C445.089 396.058 445.301 395.904 445.457 395.707C445.614 395.509 445.692 395.277 445.692 395.011C445.692 394.77 445.624 394.573 445.489 394.422C445.354 394.27 445.177 394.147 444.957 394.053C444.737 393.958 444.499 393.875 444.243 393.804L443.348 393.548C442.78 393.385 442.33 393.152 441.999 392.849C441.667 392.546 441.501 392.149 441.501 391.659C441.501 391.252 441.612 390.897 441.832 390.594C442.054 390.288 442.353 390.052 442.727 389.884C443.103 389.713 443.523 389.628 443.987 389.628C444.456 389.628 444.873 389.712 445.237 389.88C445.602 390.046 445.891 390.273 446.104 390.562C446.319 390.851 446.433 391.179 446.445 391.545H445.592Z" fill="#6B2D2B"/>
<path d="M185.5 17V50.1094H48.8193V380.5H159V410H16.75V17H185.5Z" fill="#6B2D2B"/>
<mask id="path-5-inside-1_66_1511" fill="white">
<rect x="25" y="388" width="23" height="13" rx="2"/>
</mask>
<rect x="25" y="388" width="23" height="13" rx="2" stroke="#C6684E" stroke-width="6" mask="url(#path-5-inside-1_66_1511)"/>
<mask id="path-6-inside-2_66_1511" fill="white">
<rect x="57" y="388" width="23" height="13" rx="2"/>
</mask>
<rect x="57" y="388" width="23" height="13" rx="2" stroke="#C6684E" stroke-width="6" mask="url(#path-6-inside-2_66_1511)"/>
<mask id="path-7-inside-3_66_1511" fill="white">
<rect x="89" y="388" width="23" height="13" rx="2"/>
</mask>
<rect x="89" y="388" width="23" height="13" rx="2" stroke="#C6684E" stroke-width="6" mask="url(#path-7-inside-3_66_1511)"/>
<mask id="path-8-inside-4_66_1511" fill="white">
<rect x="117" y="388" width="23" height="13" rx="2"/>
</mask>
<rect x="117" y="388" width="23" height="13" rx="2" stroke="#C6684E" stroke-width="6" mask="url(#path-8-inside-4_66_1511)"/>
<rect x="41" y="393" width="23" height="4" fill="#C6684E" stroke="#6B2D2B"/>
<rect x="73" y="393" width="23" height="4" fill="#C6684E" stroke="#6B2D2B"/>
<rect x="107" y="393" width="13" height="4" fill="#C6684E" stroke="#6B2D2B"/>
<rect x="136" y="393" width="13" height="4" fill="#C6684E" stroke="#6B2D2B"/>
<mask id="path-13-inside-5_66_1511" fill="white">
<rect x="23" y="26" width="23" height="13" rx="2"/>
</mask>
<rect x="23" y="26" width="23" height="13" rx="2" stroke="#C6684E" stroke-width="6" mask="url(#path-13-inside-5_66_1511)"/>
<mask id="path-14-inside-6_66_1511" fill="white">
<rect x="55" y="26" width="23" height="13" rx="2"/>
</mask>
<rect x="55" y="26" width="23" height="13" rx="2" stroke="#C6684E" stroke-width="6" mask="url(#path-14-inside-6_66_1511)"/>
<mask id="path-15-inside-7_66_1511" fill="white">
<rect x="87" y="26" width="23" height="13" rx="2"/>
</mask>
<rect x="87" y="26" width="23" height="13" rx="2" stroke="#C6684E" stroke-width="6" mask="url(#path-15-inside-7_66_1511)"/>
<mask id="path-16-inside-8_66_1511" fill="white">
<rect x="119" y="26" width="23" height="13" rx="2"/>
</mask>
<rect x="119" y="26" width="23" height="13" rx="2" stroke="#C6684E" stroke-width="6" mask="url(#path-16-inside-8_66_1511)"/>
<mask id="path-17-inside-9_66_1511" fill="white">
<rect x="151" y="26" width="23" height="13" rx="2"/>
</mask>
<rect x="151" y="26" width="23" height="13" rx="2" stroke="#C6684E" stroke-width="6" mask="url(#path-17-inside-9_66_1511)"/>
<rect x="39" y="31" width="23" height="4" fill="#C6684E" stroke="#6B2D2B"/>
<rect x="71" y="31" width="23" height="4" fill="#C6684E" stroke="#6B2D2B"/>
<rect x="103" y="31" width="23" height="4" fill="#C6684E" stroke="#6B2D2B"/>
<rect x="135" y="31" width="23" height="4" fill="#C6684E" stroke="#6B2D2B"/>
<rect x="167" y="31" width="18" height="4" fill="#C6684E" stroke="#6B2D2B"/>
<g clip-path="url(#clip0_66_1511)">
<path d="M43.3274 113.409C43.8269 114.218 44.5357 116.433 45.1641 119.163C45.7602 121.777 45.5185 122.831 44.4793 122.093C44.2941 121.964 43.6255 121.249 42.981 120.488C41.5068 118.765 39.9441 117.265 38.5505 116.245C37.4952 115.46 36.0774 114.593 35.876 114.593C35.7955 114.593 35.7713 114.98 35.7874 116.198L35.7876 116.216C35.7961 117.156 35.844 122.448 35.873 144.977C35.9939 159.438 35.7006 274.306 36.0631 279.603C36.5303 286.447 36.7075 290.982 36.7075 295.892C36.7075 301.494 36.4739 305.806 35.5797 317.103C35.0803 323.385 34.0814 333.767 33.7189 336.357C33.4369 338.408 32.1883 345.041 32.1158 344.912C32.0514 344.806 31.0767 339.638 30.7786 337.846C30.4161 335.654 29.9086 330.638 29.1433 321.732C28.4506 313.705 28.1686 309.709 27.7578 302.221C27.6208 299.877 27.6208 292.025 27.7578 289.213C27.9108 285.709 28.08 282.685 28.2894 279.428C28.6278 274.119 29.1225 157.164 29.2272 142.399C29.2705 121.788 29.3107 118.003 29.3349 116.796C29.3832 114.874 29.3671 114.593 29.2624 114.593C29.0369 114.593 27.321 115.659 26.3221 116.409C25.0091 117.405 23.551 118.835 22.1171 120.511C20.5866 122.316 20.0871 122.644 19.7407 122.093C19.4346 121.601 19.7166 119.784 20.5866 116.644C21.0216 115.05 21.4888 113.866 21.9157 113.245C22.2944 112.683 22.4394 112.577 24.5741 111.347C26.9666 109.952 27.8285 109.495 28.8032 109.085C29.1335 108.956 29.4477 108.816 29.5041 108.792C29.5685 108.757 29.5524 108.511 29.4477 107.89L28.9211 103.258C28.5828 97.8321 28.2605 95.0782 27.8014 93.7892C27.7128 93.5196 27.4872 93.0626 27.31 92.7696C26.875 92.0548 26.7703 91.6329 26.7703 90.6368C26.7703 89.1837 27.31 87.9415 28.2364 87.2501C30.0972 85.8673 33.3919 85.6329 35.9053 86.6993C37.1378 87.2149 37.9272 88.211 38.2172 89.629C38.483 90.8829 38.33 91.8556 37.7419 92.7931C37.5647 93.0743 37.3714 93.461 37.2989 93.6485C36.9605 94.6212 36.6303 96.8712 36.3967 99.7423L35.6182 108.183C35.5296 108.605 35.5296 108.757 35.5941 108.792C35.6505 108.816 36.0371 108.98 36.456 109.155C37.326 109.519 38.0913 109.929 40.6046 111.37C42.6185 112.53 42.9166 112.753 43.3274 113.409Z" fill="#C6684E"/>
</g>
<path d="M561 17V50.1094H697.681V380.5H587.5V410H729.75V17H561Z" fill="#6B2D2B"/>
<mask id="path-25-inside-10_66_1511" fill="white">
<rect width="23" height="13" rx="2" transform="matrix(-1 0 0 1 721.5 388)"/>
</mask>
<rect width="23" height="13" rx="2" transform="matrix(-1 0 0 1 721.5 388)" stroke="#C6684E" stroke-width="6" mask="url(#path-25-inside-10_66_1511)"/>
<mask id="path-26-inside-11_66_1511" fill="white">
<rect width="23" height="13" rx="2" transform="matrix(-1 0 0 1 689.5 388)"/>
</mask>
<rect width="23" height="13" rx="2" transform="matrix(-1 0 0 1 689.5 388)" stroke="#C6684E" stroke-width="6" mask="url(#path-26-inside-11_66_1511)"/>
<mask id="path-27-inside-12_66_1511" fill="white">
<rect width="23" height="13" rx="2" transform="matrix(-1 0 0 1 657.5 388)"/>
</mask>
<rect width="23" height="13" rx="2" transform="matrix(-1 0 0 1 657.5 388)" stroke="#C6684E" stroke-width="6" mask="url(#path-27-inside-12_66_1511)"/>
<mask id="path-28-inside-13_66_1511" fill="white">
<rect width="23" height="13" rx="2" transform="matrix(-1 0 0 1 629.5 388)"/>
</mask>
<rect width="23" height="13" rx="2" transform="matrix(-1 0 0 1 629.5 388)" stroke="#C6684E" stroke-width="6" mask="url(#path-28-inside-13_66_1511)"/>
<rect width="23" height="4" transform="matrix(-1 0 0 1 705.5 393)" fill="#C6684E" stroke="#6B2D2B"/>
<rect width="23" height="4" transform="matrix(-1 0 0 1 673.5 393)" fill="#C6684E" stroke="#6B2D2B"/>
<rect width="13" height="4" transform="matrix(-1 0 0 1 639.5 393)" fill="#C6684E" stroke="#6B2D2B"/>
<rect width="13" height="4" transform="matrix(-1 0 0 1 610.5 393)" fill="#C6684E" stroke="#6B2D2B"/>
<mask id="path-33-inside-14_66_1511" fill="white">
<rect width="23" height="13" rx="2" transform="matrix(-1 0 0 1 723.5 26)"/>
</mask>
<rect width="23" height="13" rx="2" transform="matrix(-1 0 0 1 723.5 26)" stroke="#C6684E" stroke-width="6" mask="url(#path-33-inside-14_66_1511)"/>
<mask id="path-34-inside-15_66_1511" fill="white">
<rect width="23" height="13" rx="2" transform="matrix(-1 0 0 1 691.5 26)"/>
</mask>
<rect width="23" height="13" rx="2" transform="matrix(-1 0 0 1 691.5 26)" stroke="#C6684E" stroke-width="6" mask="url(#path-34-inside-15_66_1511)"/>
<mask id="path-35-inside-16_66_1511" fill="white">
<rect width="23" height="13" rx="2" transform="matrix(-1 0 0 1 659.5 26)"/>
</mask>
<rect width="23" height="13" rx="2" transform="matrix(-1 0 0 1 659.5 26)" stroke="#C6684E" stroke-width="6" mask="url(#path-35-inside-16_66_1511)"/>
<mask id="path-36-inside-17_66_1511" fill="white">
<rect width="23" height="13" rx="2" transform="matrix(-1 0 0 1 627.5 26)"/>
</mask>
<rect width="23" height="13" rx="2" transform="matrix(-1 0 0 1 627.5 26)" stroke="#C6684E" stroke-width="6" mask="url(#path-36-inside-17_66_1511)"/>
<mask id="path-37-inside-18_66_1511" fill="white">
<rect width="23" height="13" rx="2" transform="matrix(-1 0 0 1 595.5 26)"/>
</mask>
<rect width="23" height="13" rx="2" transform="matrix(-1 0 0 1 595.5 26)" stroke="#C6684E" stroke-width="6" mask="url(#path-37-inside-18_66_1511)"/>
<rect width="23" height="4" transform="matrix(-1 0 0 1 707.5 31)" fill="#C6684E" stroke="#6B2D2B"/>
<rect width="23" height="4" transform="matrix(-1 0 0 1 675.5 31)" fill="#C6684E" stroke="#6B2D2B"/>
<rect width="23" height="4" transform="matrix(-1 0 0 1 643.5 31)" fill="#C6684E" stroke="#6B2D2B"/>
<rect width="23" height="4" transform="matrix(-1 0 0 1 611.5 31)" fill="#C6684E" stroke="#6B2D2B"/>
<rect width="18" height="4" transform="matrix(-1 0 0 1 579.5 31)" fill="#C6684E" stroke="#6B2D2B"/>
<g clip-path="url(#clip1_66_1511)">
<path d="M703.173 113.409C702.673 114.218 701.964 116.433 701.336 119.163C700.74 121.777 700.981 122.831 702.021 122.093C702.206 121.964 702.875 121.249 703.519 120.488C704.993 118.765 706.556 117.265 707.95 116.245C709.005 115.46 710.423 114.593 710.624 114.593C710.705 114.593 710.729 114.98 710.713 116.198L710.712 116.216C710.704 117.156 710.656 122.448 710.627 144.977C710.506 159.438 710.799 274.306 710.437 279.603C709.97 286.447 709.792 290.982 709.792 295.892C709.792 301.494 710.026 305.806 710.92 317.103C711.42 323.385 712.419 333.767 712.781 336.357C713.063 338.408 714.312 345.041 714.384 344.912C714.449 344.806 715.423 339.638 715.721 337.846C716.084 335.654 716.591 330.638 717.357 321.732C718.049 313.705 718.331 309.709 718.742 302.221C718.879 299.877 718.879 292.025 718.742 289.213C718.589 285.709 718.42 282.685 718.211 279.428C717.872 274.119 717.378 157.164 717.273 142.399C717.23 121.788 717.189 118.003 717.165 116.796C717.117 114.874 717.133 114.593 717.238 114.593C717.463 114.593 719.179 115.659 720.178 116.409C721.491 117.405 722.949 118.835 724.383 120.511C725.913 122.316 726.413 122.644 726.759 122.093C727.065 121.601 726.783 119.784 725.913 116.644C725.478 115.05 725.011 113.866 724.584 113.245C724.206 112.683 724.061 112.577 721.926 111.347C719.533 109.952 718.671 109.495 717.697 109.085C717.366 108.956 717.052 108.816 716.996 108.792C716.931 108.757 716.948 108.511 717.052 107.89L717.579 103.258C717.917 97.8321 718.239 95.0782 718.699 93.7892C718.787 93.5196 719.013 93.0626 719.19 92.7696C719.625 92.0548 719.73 91.6329 719.73 90.6368C719.73 89.1837 719.19 87.9415 718.264 87.2501C716.403 85.8673 713.108 85.6329 710.595 86.6993C709.362 87.2149 708.573 88.211 708.283 89.629C708.017 90.8829 708.17 91.8556 708.758 92.7931C708.935 93.0743 709.129 93.461 709.201 93.6485C709.539 94.6212 709.87 96.8712 710.103 99.7423L710.882 108.183C710.97 108.605 710.97 108.757 710.906 108.792C710.85 108.816 710.463 108.98 710.044 109.155C709.174 109.519 708.409 109.929 705.895 111.37C703.881 112.53 703.583 112.753 703.173 113.409Z" fill="#C6684E"/>
</g>
<rect x="58.5" y="58.5" width="631" height="314" stroke="#6B2D2B"/>
<rect x="10.5" y="10.5" width="726" height="406" stroke="#6B2D2B" stroke-width="3"/>
<defs>
<clipPath id="clip0_66_1511">
<rect width="264" height="58" fill="white" transform="translate(62 81) rotate(90)"/>
</clipPath>
<clipPath id="clip1_66_1511">
<rect width="264" height="58" fill="white" transform="matrix(4.37114e-08 1 1 -4.37114e-08 684.5 81)"/>
</clipPath>
</defs>
</svg>
