<svg width="747" height="428" viewBox="0 0 747 428" fill="none" xmlns="http://www.w3.org/2000/svg">
<rect width="747" height="428" fill="#C6684E"/>
<path d="M282.516 27.543C282.516 27.6081 282.512 27.7122 282.506 27.8555C282.499 27.9922 282.496 28.0931 282.496 28.1582C282.496 28.5944 282.516 29.0566 282.555 29.5449C282.594 30.0332 282.656 30.5703 282.74 31.1562L281.773 31.3223C281.669 30.3522 281.256 29.6003 280.533 29.0664C279.811 28.526 278.857 28.2559 277.672 28.2559C276.161 28.2559 274.99 28.7279 274.156 29.6719C273.329 30.6094 272.916 31.9375 272.916 33.6562C272.916 35.5117 273.385 36.9896 274.322 38.0898C275.266 39.1901 276.526 39.7402 278.102 39.7402C279.091 39.7402 279.934 39.5156 280.631 39.0664C281.334 38.6172 281.904 37.9336 282.34 37.0156L283.199 37.416C282.939 37.9303 282.711 38.4349 282.516 38.9297C282.32 39.418 282.154 39.903 282.018 40.3848C281.23 40.7038 280.458 40.9447 279.703 41.1074C278.954 41.2767 278.232 41.3613 277.535 41.3613C275.27 41.3613 273.434 40.6908 272.027 39.3496C270.621 38.0085 269.918 36.2572 269.918 34.0957C269.918 31.9603 270.654 30.2025 272.125 28.8223C273.603 27.4355 275.475 26.7422 277.74 26.7422C278.554 26.7422 279.352 26.8073 280.133 26.9375C280.921 27.0677 281.715 27.2695 282.516 27.543ZM285.605 27.0645C286.159 27.097 286.68 27.123 287.168 27.1426C287.663 27.1556 288.102 27.1621 288.486 27.1621C288.883 27.1621 289.326 27.1556 289.814 27.1426C290.309 27.123 290.879 27.097 291.523 27.0645V27.9434C291.484 27.9434 291.429 27.9401 291.357 27.9336C291.286 27.9271 291.237 27.9238 291.211 27.9238C290.664 27.9238 290.293 28.0866 290.098 28.4121C289.902 28.7376 289.805 29.4733 289.805 30.6191C289.805 30.7884 289.808 31.0944 289.814 31.5371C289.821 31.9798 289.824 32.3411 289.824 32.6211L289.844 39.4766L289.902 39.4863C290.742 39.5384 291.377 39.5645 291.807 39.5645C293.441 39.5645 294.512 39.3952 295.02 39.0566C295.527 38.7181 295.944 38.0736 296.27 37.123L297.168 37.3965C296.966 37.9889 296.784 38.5846 296.621 39.1836C296.465 39.7826 296.328 40.388 296.211 41C295.059 40.9609 293.988 40.9316 292.998 40.9121C292.008 40.8926 291.104 40.8828 290.283 40.8828C289.469 40.8828 288.649 40.8926 287.822 40.9121C287.002 40.9316 286.185 40.9609 285.371 41V40.1406H285.645C285.996 40.1406 286.266 40.1048 286.455 40.0332C286.644 39.9616 286.781 39.8444 286.865 39.6816C287.048 39.3236 287.145 37.9857 287.158 35.668C287.165 35.3685 287.168 35.1406 287.168 34.9844L287.188 32.8555C287.188 32.569 287.191 32.1947 287.197 31.7324C287.204 31.2637 287.207 30.9382 287.207 30.7559C287.207 29.584 287.109 28.819 286.914 28.4609C286.725 28.1029 286.364 27.9238 285.83 27.9238H285.605V27.0645ZM305.443 29.3398L303.314 34.7402C303.562 34.7467 303.822 34.7533 304.096 34.7598C304.376 34.7598 304.747 34.7598 305.209 34.7598C305.743 34.7598 306.16 34.7598 306.459 34.7598C306.758 34.7533 307.038 34.7467 307.299 34.7402L305.443 29.3398ZM304.906 26.9961H307.289C308.227 29.7435 309.118 32.2695 309.965 34.5742C310.818 36.8724 311.413 38.4023 311.752 39.1641C311.895 39.5091 312.074 39.7565 312.289 39.9062C312.51 40.0495 312.803 40.1211 313.168 40.1211H313.383V41C312.556 40.9609 311.921 40.9349 311.479 40.9219C311.036 40.9089 310.665 40.9023 310.365 40.9023C310.079 40.9023 309.708 40.9089 309.252 40.9219C308.796 40.9349 308.135 40.9609 307.27 41V40.1211H307.445C307.96 40.1211 308.308 40.0625 308.49 39.9453C308.673 39.8281 308.764 39.6198 308.764 39.3203C308.764 39.2292 308.751 39.1217 308.725 38.998C308.705 38.8743 308.66 38.7018 308.588 38.4805L307.787 36.1172C307.416 36.1107 306.928 36.1042 306.322 36.0977C305.717 36.0846 305.339 36.0781 305.189 36.0781C304.91 36.0781 304.346 36.0879 303.5 36.1074C303.194 36.1139 302.956 36.1172 302.787 36.1172L302.748 36.2148C302.11 37.7708 301.791 38.7539 301.791 39.1641C301.791 39.5026 301.885 39.7467 302.074 39.8965C302.27 40.0462 302.589 40.1211 303.031 40.1211H303.207V41C302.465 40.9609 301.889 40.9349 301.479 40.9219C301.068 40.9089 300.73 40.9023 300.463 40.9023C300.242 40.9023 299.949 40.9089 299.584 40.9219C299.226 40.9349 298.702 40.9609 298.012 41V40.1211C298.48 40.1211 298.855 40.0397 299.135 39.877C299.415 39.7142 299.652 39.4408 299.848 39.0566C300.128 38.5488 300.759 37.1296 301.742 34.7988C302.725 32.4681 303.78 29.8672 304.906 26.9961ZM324.998 27.4844V27.6992C324.998 28.1745 325.024 28.6628 325.076 29.1641C325.135 29.6589 325.219 30.1699 325.33 30.6973L324.314 30.8633C324.204 30.0169 323.888 29.3789 323.367 28.9492C322.853 28.5195 322.143 28.3047 321.238 28.3047C320.398 28.3047 319.741 28.4707 319.266 28.8027C318.79 29.1348 318.553 29.5938 318.553 30.1797C318.553 30.5703 318.65 30.9089 318.846 31.1953C319.041 31.4753 319.344 31.7227 319.754 31.9375C320.073 32.1068 320.623 32.3216 321.404 32.582C322.192 32.8424 322.775 33.0475 323.152 33.1973C324.005 33.5488 324.643 34.0078 325.066 34.5742C325.496 35.1406 325.711 35.8145 325.711 36.5957C325.711 38.015 325.167 39.1478 324.08 39.9941C322.993 40.8405 321.518 41.2637 319.656 41.2637C319.044 41.2637 318.426 41.2018 317.801 41.0781C317.176 40.9609 316.567 40.7884 315.975 40.5605C315.975 40.4889 315.978 40.3945 315.984 40.2773C315.991 40.1536 315.994 40.0625 315.994 40.0039C315.994 39.5026 315.962 38.9915 315.896 38.4707C315.838 37.9499 315.743 37.4128 315.613 36.8594L316.678 36.5957C316.925 37.7936 317.322 38.6302 317.869 39.1055C318.423 39.5807 319.243 39.8184 320.33 39.8184C321.209 39.8184 321.902 39.623 322.41 39.2324C322.918 38.8418 323.172 38.3177 323.172 37.6602C323.172 36.7227 322.277 35.9382 320.486 35.3066C320.089 35.1699 319.786 35.0625 319.578 34.9844C318.341 34.5221 317.452 33.985 316.912 33.373C316.378 32.7611 316.111 31.9961 316.111 31.0781C316.111 29.8151 316.6 28.7962 317.576 28.0215C318.553 27.2467 319.845 26.8594 321.453 26.8594C322.013 26.8594 322.579 26.9115 323.152 27.0156C323.732 27.1133 324.347 27.2695 324.998 27.4844ZM338.068 27.4844V27.6992C338.068 28.1745 338.094 28.6628 338.146 29.1641C338.205 29.6589 338.29 30.1699 338.4 30.6973L337.385 30.8633C337.274 30.0169 336.958 29.3789 336.438 28.9492C335.923 28.5195 335.214 28.3047 334.309 28.3047C333.469 28.3047 332.811 28.4707 332.336 28.8027C331.861 29.1348 331.623 29.5938 331.623 30.1797C331.623 30.5703 331.721 30.9089 331.916 31.1953C332.111 31.4753 332.414 31.7227 332.824 31.9375C333.143 32.1068 333.693 32.3216 334.475 32.582C335.262 32.8424 335.845 33.0475 336.223 33.1973C337.076 33.5488 337.714 34.0078 338.137 34.5742C338.566 35.1406 338.781 35.8145 338.781 36.5957C338.781 38.015 338.238 39.1478 337.15 39.9941C336.063 40.8405 334.589 41.2637 332.727 41.2637C332.115 41.2637 331.496 41.2018 330.871 41.0781C330.246 40.9609 329.637 40.7884 329.045 40.5605C329.045 40.4889 329.048 40.3945 329.055 40.2773C329.061 40.1536 329.064 40.0625 329.064 40.0039C329.064 39.5026 329.032 38.9915 328.967 38.4707C328.908 37.9499 328.814 37.4128 328.684 36.8594L329.748 36.5957C329.995 37.7936 330.393 38.6302 330.939 39.1055C331.493 39.5807 332.313 39.8184 333.4 39.8184C334.279 39.8184 334.973 39.623 335.48 39.2324C335.988 38.8418 336.242 38.3177 336.242 37.6602C336.242 36.7227 335.347 35.9382 333.557 35.3066C333.16 35.1699 332.857 35.0625 332.648 34.9844C331.411 34.5221 330.523 33.985 329.982 33.373C329.449 32.7611 329.182 31.9961 329.182 31.0781C329.182 29.8151 329.67 28.7962 330.646 28.0215C331.623 27.2467 332.915 26.8594 334.523 26.8594C335.083 26.8594 335.65 26.9115 336.223 27.0156C336.802 27.1133 337.417 27.2695 338.068 27.4844ZM341.559 27.0645C342.197 27.1035 342.779 27.1328 343.307 27.1523C343.84 27.1719 344.316 27.1816 344.732 27.1816C345.143 27.1816 345.602 27.1719 346.109 27.1523C346.624 27.1328 347.193 27.1035 347.818 27.0645V27.9434H347.613C347.164 27.9434 346.842 27.9889 346.646 28.0801C346.458 28.1712 346.321 28.3372 346.236 28.5781C346.165 28.7799 346.113 29.1771 346.08 29.7695C346.048 30.362 346.031 31.4264 346.031 32.9629V36.9766C346.031 37.8945 346.048 38.5326 346.08 38.8906C346.119 39.2422 346.184 39.4993 346.275 39.6621C346.367 39.8249 346.52 39.9421 346.734 40.0137C346.949 40.0853 347.268 40.1211 347.691 40.1211H347.936V41C347.219 40.9609 346.591 40.9316 346.051 40.9121C345.51 40.8926 345.051 40.8828 344.674 40.8828C344.329 40.8828 343.883 40.8926 343.336 40.9121C342.789 40.9316 342.154 40.9609 341.432 41V40.1211H341.676C342.112 40.1211 342.438 40.0853 342.652 40.0137C342.867 39.9421 343.014 39.8249 343.092 39.6621C343.189 39.4798 343.258 39.1836 343.297 38.7734C343.336 38.3568 343.355 37.6048 343.355 36.5176V35.043V30.8047C343.355 29.9974 343.336 29.4342 343.297 29.1152C343.264 28.7897 343.202 28.5488 343.111 28.3926C343.027 28.2363 342.877 28.1224 342.662 28.0508C342.454 27.9792 342.151 27.9434 341.754 27.9434H341.559V27.0645ZM350.176 40.1406C350.221 40.1471 350.27 40.1536 350.322 40.1602C350.381 40.1602 350.465 40.1602 350.576 40.1602C351.11 40.1602 351.471 39.9974 351.66 39.6719C351.855 39.3398 351.953 38.5749 351.953 37.377V36.3809C351.953 36.0749 351.95 35.8438 351.943 35.6875C351.943 35.5247 351.94 35.3717 351.934 35.2285V32.7188C351.934 32.3477 351.937 31.8105 351.943 31.1074C351.95 30.4043 351.953 29.8802 351.953 29.5352C351.953 28.8971 351.849 28.4707 351.641 28.2559C351.439 28.0345 351.055 27.9238 350.488 27.9238H350.312V27.0645C351.387 27.1035 352.389 27.1328 353.32 27.1523C354.251 27.1719 355.12 27.1816 355.928 27.1816C356.742 27.1816 357.581 27.1719 358.447 27.1523C359.32 27.1328 360.221 27.1035 361.152 27.0645C361.152 27.5723 361.172 28.1061 361.211 28.666C361.25 29.2194 361.312 29.8184 361.396 30.4629L360.527 30.5801C360.449 29.7337 360.186 29.1641 359.736 28.8711C359.294 28.5716 358.379 28.4219 356.992 28.4219C356.712 28.4219 356.374 28.4284 355.977 28.4414C355.579 28.4479 355.133 28.4609 354.639 28.4805C354.626 29.4766 354.613 30.3815 354.6 31.1953C354.593 32.0026 354.583 32.7155 354.57 33.334C354.922 33.3405 355.368 33.347 355.908 33.3535C356.449 33.36 356.816 33.3633 357.012 33.3633C358.001 33.3633 358.652 33.2721 358.965 33.0898C359.277 32.9076 359.447 32.5658 359.473 32.0645L360.293 32.123C360.234 32.6374 360.192 33.0736 360.166 33.4316C360.14 33.7897 360.127 34.1055 360.127 34.3789C360.127 34.5417 360.143 34.8997 360.176 35.4531C360.189 35.7331 360.199 35.9544 360.205 36.1172L359.395 36.1562V35.9805C359.395 35.4271 359.238 35.0527 358.926 34.8574C358.62 34.6621 357.936 34.5645 356.875 34.5645C356.712 34.5645 356.413 34.5677 355.977 34.5742C355.547 34.5807 355.192 34.584 354.912 34.584H354.57V37.084V37.9043C354.57 38.9004 354.674 39.5221 354.883 39.7695C355.098 40.0169 355.521 40.1406 356.152 40.1406C356.191 40.1406 356.25 40.1374 356.328 40.1309C356.413 40.1243 356.481 40.1211 356.533 40.1211V41C356.396 40.9935 356.201 40.9837 355.947 40.9707C354.671 40.9121 353.773 40.8828 353.252 40.8828C353.011 40.8828 352.458 40.9023 351.592 40.9414C350.999 40.9674 350.527 40.987 350.176 41V40.1406ZM363.695 27.0645C364.333 27.1035 364.916 27.1328 365.443 27.1523C365.977 27.1719 366.452 27.1816 366.869 27.1816C367.279 27.1816 367.738 27.1719 368.246 27.1523C368.76 27.1328 369.33 27.1035 369.955 27.0645V27.9434H369.75C369.301 27.9434 368.979 27.9889 368.783 28.0801C368.594 28.1712 368.458 28.3372 368.373 28.5781C368.301 28.7799 368.249 29.1771 368.217 29.7695C368.184 30.362 368.168 31.4264 368.168 32.9629V36.9766C368.168 37.8945 368.184 38.5326 368.217 38.8906C368.256 39.2422 368.321 39.4993 368.412 39.6621C368.503 39.8249 368.656 39.9421 368.871 40.0137C369.086 40.0853 369.405 40.1211 369.828 40.1211H370.072V41C369.356 40.9609 368.728 40.9316 368.188 40.9121C367.647 40.8926 367.188 40.8828 366.811 40.8828C366.465 40.8828 366.02 40.8926 365.473 40.9121C364.926 40.9316 364.291 40.9609 363.568 41V40.1211H363.812C364.249 40.1211 364.574 40.0853 364.789 40.0137C365.004 39.9421 365.15 39.8249 365.229 39.6621C365.326 39.4798 365.395 39.1836 365.434 38.7734C365.473 38.3568 365.492 37.6048 365.492 36.5176V35.043V30.8047C365.492 29.9974 365.473 29.4342 365.434 29.1152C365.401 28.7897 365.339 28.5488 365.248 28.3926C365.163 28.2363 365.014 28.1224 364.799 28.0508C364.59 27.9792 364.288 27.9434 363.891 27.9434H363.695V27.0645ZM372.488 27.0449C373.595 27.0905 374.617 27.1263 375.555 27.1523C376.492 27.1719 377.316 27.1816 378.025 27.1816C379.217 27.1816 380.223 27.1719 381.043 27.1523C381.87 27.1263 382.638 27.0905 383.348 27.0449C383.361 27.6113 383.387 28.1712 383.426 28.7246C383.465 29.2715 383.52 29.8249 383.592 30.3848L382.713 30.502C382.622 29.6882 382.352 29.138 381.902 28.8516C381.46 28.5651 380.568 28.4219 379.227 28.4219C378.986 28.4219 378.663 28.4284 378.26 28.4414C377.863 28.4479 377.374 28.4609 376.795 28.4805C376.782 29.3398 376.769 30.1634 376.756 30.9512C376.749 31.7389 376.74 32.4941 376.727 33.2168H377.01C377.387 33.2168 377.856 33.2201 378.416 33.2266C378.982 33.2331 379.36 33.2363 379.549 33.2363C380.447 33.2363 381.036 33.1484 381.316 32.9727C381.596 32.7969 381.746 32.4616 381.766 31.9668L382.488 32.0352C382.488 32.3607 382.479 32.7708 382.459 33.2656C382.439 33.7539 382.43 34.0859 382.43 34.2617C382.43 34.4375 382.433 34.6621 382.439 34.9355C382.452 35.209 382.469 35.5378 382.488 35.9219L381.668 35.9805V35.8633C381.668 35.3034 381.505 34.9258 381.18 34.7305C380.861 34.5352 380.102 34.4375 378.904 34.4375H377.449H376.707V35.5605C376.707 36.14 376.71 36.7357 376.717 37.3477C376.723 37.9531 376.733 38.6758 376.746 39.5156C377.039 39.5547 377.404 39.5872 377.84 39.6133C378.283 39.6328 378.764 39.6426 379.285 39.6426C380.841 39.6426 381.876 39.4798 382.391 39.1543C382.911 38.8288 383.331 38.2038 383.65 37.2793L384.549 37.5625C384.334 38.1875 384.148 38.7832 383.992 39.3496C383.842 39.916 383.715 40.4661 383.611 41C382.075 40.9479 380.851 40.9121 379.939 40.8926C379.028 40.873 378.217 40.8633 377.508 40.8633C376.707 40.8633 375.428 40.8926 373.67 40.9512C373.064 40.9707 372.605 40.987 372.293 41V40.1406C372.332 40.1471 372.374 40.1536 372.42 40.1602C372.472 40.1602 372.547 40.1602 372.645 40.1602C373.191 40.1602 373.562 39.9941 373.758 39.6621C373.953 39.3236 374.051 38.4414 374.051 37.0156V36.0391V35.1406L374.07 32.9629C374.07 32.8652 374.074 32.7188 374.08 32.5234C374.1 31.7227 374.109 31.1758 374.109 30.8828C374.109 30.5898 374.106 30.2839 374.1 29.9648C374.093 29.6458 374.09 29.4701 374.09 29.4375C374.09 28.8711 373.986 28.4772 373.777 28.2559C373.576 28.0345 373.221 27.9238 372.713 27.9238H372.488V27.0449ZM391.242 39.4375C391.646 39.5286 392.043 39.597 392.434 39.6426C392.831 39.6816 393.234 39.7012 393.645 39.7012C395.331 39.7012 396.63 39.2357 397.541 38.3047C398.452 37.3737 398.908 36.0456 398.908 34.3203C398.908 32.4258 398.42 30.9577 397.443 29.916C396.467 28.8678 395.1 28.3438 393.342 28.3438C393.088 28.3438 392.798 28.3568 392.473 28.3828C392.154 28.4023 391.77 28.4414 391.32 28.5C391.294 30.0885 391.275 31.5957 391.262 33.0215C391.249 34.4408 391.242 35.7331 391.242 36.8984V39.4375ZM386.828 41V40.1211C386.874 40.1276 386.923 40.1341 386.975 40.1406C387.027 40.1406 387.105 40.1406 387.209 40.1406C387.749 40.1406 388.114 39.9616 388.303 39.6035C388.492 39.2389 388.586 38.3112 388.586 36.8203V36.1172V35.082L388.605 32.7578C388.605 32.6471 388.609 32.4876 388.615 32.2793C388.635 31.3223 388.645 30.6615 388.645 30.2969C388.645 29.3268 388.55 28.6888 388.361 28.3828C388.179 28.0768 387.834 27.9238 387.326 27.9238C387.229 27.9238 387.154 27.9271 387.102 27.9336C387.049 27.9336 387.004 27.9336 386.965 27.9336V27.0645C387.525 27.097 388.013 27.123 388.43 27.1426C388.846 27.1556 389.224 27.1621 389.562 27.1621C390.168 27.1621 390.943 27.1361 391.887 27.084C392.837 27.0254 393.482 26.9961 393.82 26.9961C396.333 26.9961 398.303 27.6211 399.729 28.8711C401.154 30.1146 401.867 31.8236 401.867 33.998C401.867 36.1074 401.115 37.8132 399.611 39.1152C398.107 40.4108 396.112 41.0586 393.625 41.0586C393.423 41.0586 392.827 41.0326 391.838 40.9805C390.848 40.9284 389.956 40.9023 389.162 40.9023C388.973 40.9023 388.335 40.9284 387.248 40.9805L386.828 41ZM411.309 27.0645C411.947 27.1035 412.529 27.1328 413.057 27.1523C413.59 27.1719 414.066 27.1816 414.482 27.1816C414.893 27.1816 415.352 27.1719 415.859 27.1523C416.374 27.1328 416.943 27.1035 417.568 27.0645V27.9434H417.363C416.914 27.9434 416.592 27.9889 416.396 28.0801C416.208 28.1712 416.071 28.3372 415.986 28.5781C415.915 28.7799 415.863 29.1771 415.83 29.7695C415.798 30.362 415.781 31.4264 415.781 32.9629V36.9766C415.781 37.8945 415.798 38.5326 415.83 38.8906C415.869 39.2422 415.934 39.4993 416.025 39.6621C416.117 39.8249 416.27 39.9421 416.484 40.0137C416.699 40.0853 417.018 40.1211 417.441 40.1211H417.686V41C416.969 40.9609 416.341 40.9316 415.801 40.9121C415.26 40.8926 414.801 40.8828 414.424 40.8828C414.079 40.8828 413.633 40.8926 413.086 40.9121C412.539 40.9316 411.904 40.9609 411.182 41V40.1211H411.426C411.862 40.1211 412.188 40.0853 412.402 40.0137C412.617 39.9421 412.764 39.8249 412.842 39.6621C412.939 39.4798 413.008 39.1836 413.047 38.7734C413.086 38.3568 413.105 37.6048 413.105 36.5176V35.043V30.8047C413.105 29.9974 413.086 29.4342 413.047 29.1152C413.014 28.7897 412.952 28.5488 412.861 28.3926C412.777 28.2363 412.627 28.1224 412.412 28.0508C412.204 27.9792 411.901 27.9434 411.504 27.9434H411.309V27.0645ZM419.721 27.084C419.968 27.0905 420.355 27.11 420.883 27.1426C421.417 27.1686 421.798 27.1816 422.025 27.1816C422.227 27.1816 422.579 27.1686 423.08 27.1426C423.588 27.11 423.962 27.0905 424.203 27.084C424.294 27.3249 424.428 27.582 424.604 27.8555C424.779 28.1224 425.01 28.4251 425.297 28.7637L432.475 37.2305C432.468 36.3841 432.458 35.2546 432.445 33.8418C432.419 30.7363 432.37 29.0404 432.299 28.7539C432.208 28.4414 432.064 28.2298 431.869 28.1191C431.674 28.002 431.352 27.9434 430.902 27.9434H430.58V27.084C431.29 27.1165 431.83 27.1426 432.201 27.1621C432.572 27.1751 432.878 27.1816 433.119 27.1816C433.406 27.1816 433.751 27.1751 434.154 27.1621C434.558 27.1426 435.066 27.1165 435.678 27.084V27.9434H435.502C435.085 27.9434 434.779 27.9922 434.584 28.0898C434.389 28.181 434.249 28.3438 434.164 28.5781C434.06 28.8906 433.985 30.3587 433.939 32.9824V33.1387L433.9 35.2578C433.887 36.0716 433.878 36.8366 433.871 37.5527C433.865 38.2624 433.861 38.8581 433.861 39.3398C433.861 39.6589 433.871 39.9681 433.891 40.2676C433.917 40.5671 433.952 40.8568 433.998 41.1367H432.084C432.006 40.974 431.892 40.7884 431.742 40.5801C431.592 40.3717 431.306 40.0169 430.883 39.5156L423.002 30.2969C423.002 33.3763 423.018 35.5866 423.051 36.9277C423.083 38.2624 423.132 39.0501 423.197 39.291C423.288 39.6035 423.432 39.8216 423.627 39.9453C423.829 40.0625 424.154 40.1211 424.604 40.1211H424.906V41C424.164 40.9609 423.601 40.9349 423.217 40.9219C422.839 40.9089 422.527 40.9023 422.279 40.9023C422.071 40.9023 421.785 40.9089 421.42 40.9219C421.062 40.9349 420.489 40.9609 419.701 41V40.1211C419.753 40.1276 419.805 40.1341 419.857 40.1406C419.916 40.1406 419.997 40.1406 420.102 40.1406C421.033 40.1406 421.508 38.8613 421.527 36.3027C421.534 35.7363 421.537 35.2969 421.537 34.9844L421.566 32.9043C421.566 32.4811 421.573 31.8757 421.586 31.0879C421.599 30.2936 421.605 29.7858 421.605 29.5645C421.605 28.9329 421.495 28.5033 421.273 28.2754C421.052 28.041 420.655 27.9238 420.082 27.9238C420.043 27.9238 419.981 27.9271 419.896 27.9336C419.818 27.9401 419.76 27.9434 419.721 27.9434V27.084ZM440.613 40.1211H440.975C441.411 40.1211 441.73 40.0755 441.932 39.9844C442.133 39.8867 442.283 39.7174 442.381 39.4766C442.446 39.2943 442.492 38.8516 442.518 38.1484C442.544 37.4453 442.557 36.1432 442.557 34.2422V28.6562H440.877C439.855 28.6562 439.155 28.7995 438.777 29.0859C438.4 29.3724 438.139 29.9225 437.996 30.7363L437.078 30.541C437.228 29.8965 437.342 29.2812 437.42 28.6953C437.505 28.1029 437.557 27.5202 437.576 26.9473C437.824 27.0319 438.172 27.0938 438.621 27.1328C439.07 27.1654 439.829 27.1816 440.896 27.1816H443.055H444.275H446.756C447.954 27.1816 448.787 27.1654 449.256 27.1328C449.731 27.0938 450.079 27.0286 450.301 26.9375V27.2402C450.301 27.748 450.32 28.2754 450.359 28.8223C450.405 29.3626 450.47 29.9355 450.555 30.541L449.676 30.6777C449.565 29.8835 449.34 29.3496 449.002 29.0762C448.663 28.7962 447.996 28.6562 447 28.6562H446.756H445.281C445.262 29.6979 445.249 30.7233 445.242 31.7324C445.236 32.7415 445.232 33.9167 445.232 35.2578V37.084C445.232 37.9434 445.252 38.5456 445.291 38.8906C445.33 39.2357 445.392 39.4928 445.477 39.6621C445.574 39.8249 445.727 39.9421 445.936 40.0137C446.144 40.0853 446.437 40.1211 446.814 40.1211H447.156V41C446.993 40.9935 446.753 40.9837 446.434 40.9707C445.158 40.9121 444.285 40.8828 443.816 40.8828C443.478 40.8828 443.042 40.8926 442.508 40.9121C441.98 40.9316 441.349 40.9609 440.613 41V40.1211ZM452.746 27.0449C453.853 27.0905 454.875 27.1263 455.812 27.1523C456.75 27.1719 457.574 27.1816 458.283 27.1816C459.475 27.1816 460.48 27.1719 461.301 27.1523C462.128 27.1263 462.896 27.0905 463.605 27.0449C463.618 27.6113 463.645 28.1712 463.684 28.7246C463.723 29.2715 463.778 29.8249 463.85 30.3848L462.971 30.502C462.88 29.6882 462.609 29.138 462.16 28.8516C461.717 28.5651 460.826 28.4219 459.484 28.4219C459.243 28.4219 458.921 28.4284 458.518 28.4414C458.12 28.4479 457.632 28.4609 457.053 28.4805C457.04 29.3398 457.027 30.1634 457.014 30.9512C457.007 31.7389 456.997 32.4941 456.984 33.2168H457.268C457.645 33.2168 458.114 33.2201 458.674 33.2266C459.24 33.2331 459.618 33.2363 459.807 33.2363C460.705 33.2363 461.294 33.1484 461.574 32.9727C461.854 32.7969 462.004 32.4616 462.023 31.9668L462.746 32.0352C462.746 32.3607 462.736 32.7708 462.717 33.2656C462.697 33.7539 462.688 34.0859 462.688 34.2617C462.688 34.4375 462.691 34.6621 462.697 34.9355C462.71 35.209 462.727 35.5378 462.746 35.9219L461.926 35.9805V35.8633C461.926 35.3034 461.763 34.9258 461.438 34.7305C461.118 34.5352 460.36 34.4375 459.162 34.4375H457.707H456.965V35.5605C456.965 36.14 456.968 36.7357 456.975 37.3477C456.981 37.9531 456.991 38.6758 457.004 39.5156C457.297 39.5547 457.661 39.5872 458.098 39.6133C458.54 39.6328 459.022 39.6426 459.543 39.6426C461.099 39.6426 462.134 39.4798 462.648 39.1543C463.169 38.8288 463.589 38.2038 463.908 37.2793L464.807 37.5625C464.592 38.1875 464.406 38.7832 464.25 39.3496C464.1 39.916 463.973 40.4661 463.869 41C462.333 40.9479 461.109 40.9121 460.197 40.8926C459.286 40.873 458.475 40.8633 457.766 40.8633C456.965 40.8633 455.686 40.8926 453.928 40.9512C453.322 40.9707 452.863 40.987 452.551 41V40.1406C452.59 40.1471 452.632 40.1536 452.678 40.1602C452.73 40.1602 452.805 40.1602 452.902 40.1602C453.449 40.1602 453.82 39.9941 454.016 39.6621C454.211 39.3236 454.309 38.4414 454.309 37.0156V36.0391V35.1406L454.328 32.9629C454.328 32.8652 454.331 32.7188 454.338 32.5234C454.357 31.7227 454.367 31.1758 454.367 30.8828C454.367 30.5898 454.364 30.2839 454.357 29.9648C454.351 29.6458 454.348 29.4701 454.348 29.4375C454.348 28.8711 454.243 28.4772 454.035 28.2559C453.833 28.0345 453.479 27.9238 452.971 27.9238H452.746V27.0449ZM467.281 27.0645C467.835 27.097 468.355 27.123 468.844 27.1426C469.339 27.1556 469.778 27.1621 470.162 27.1621C470.559 27.1621 471.002 27.1556 471.49 27.1426C471.985 27.123 472.555 27.097 473.199 27.0645V27.9434C473.16 27.9434 473.105 27.9401 473.033 27.9336C472.962 27.9271 472.913 27.9238 472.887 27.9238C472.34 27.9238 471.969 28.0866 471.773 28.4121C471.578 28.7376 471.48 29.4733 471.48 30.6191C471.48 30.7884 471.484 31.0944 471.49 31.5371C471.497 31.9798 471.5 32.3411 471.5 32.6211L471.52 39.4766L471.578 39.4863C472.418 39.5384 473.053 39.5645 473.482 39.5645C475.117 39.5645 476.188 39.3952 476.695 39.0566C477.203 38.7181 477.62 38.0736 477.945 37.123L478.844 37.3965C478.642 37.9889 478.46 38.5846 478.297 39.1836C478.141 39.7826 478.004 40.388 477.887 41C476.734 40.9609 475.663 40.9316 474.674 40.9121C473.684 40.8926 472.779 40.8828 471.959 40.8828C471.145 40.8828 470.325 40.8926 469.498 40.9121C468.678 40.9316 467.861 40.9609 467.047 41V40.1406H467.32C467.672 40.1406 467.942 40.1048 468.131 40.0332C468.32 39.9616 468.456 39.8444 468.541 39.6816C468.723 39.3236 468.821 37.9857 468.834 35.668C468.84 35.3685 468.844 35.1406 468.844 34.9844L468.863 32.8555C468.863 32.569 468.867 32.1947 468.873 31.7324C468.88 31.2637 468.883 30.9382 468.883 30.7559C468.883 29.584 468.785 28.819 468.59 28.4609C468.401 28.1029 468.04 27.9238 467.506 27.9238H467.281V27.0645Z" fill="#6B2D2B"/>
<path d="M276.812 388.545H278.123L280.746 392.959H280.856L283.478 388.545H284.79L281.373 394.104V398H280.228V394.104L276.812 388.545ZM296.403 393.273C296.403 394.27 296.223 395.132 295.863 395.858C295.503 396.584 295.009 397.144 294.381 397.538C293.753 397.932 293.036 398.129 292.23 398.129C291.424 398.129 290.706 397.932 290.079 397.538C289.451 397.144 288.957 396.584 288.597 395.858C288.237 395.132 288.057 394.27 288.057 393.273C288.057 392.276 288.237 391.414 288.597 390.688C288.957 389.961 289.451 389.401 290.079 389.007C290.706 388.613 291.424 388.416 292.23 388.416C293.036 388.416 293.753 388.613 294.381 389.007C295.009 389.401 295.503 389.961 295.863 390.688C296.223 391.414 296.403 392.276 296.403 393.273ZM295.295 393.273C295.295 392.454 295.158 391.763 294.884 391.2C294.614 390.637 294.246 390.21 293.781 389.921C293.319 389.632 292.802 389.487 292.23 389.487C291.657 389.487 291.139 389.632 290.674 389.921C290.213 390.21 289.845 390.637 289.571 391.2C289.3 391.763 289.165 392.454 289.165 393.273C289.165 394.091 289.3 394.782 289.571 395.346C289.845 395.909 290.213 396.335 290.674 396.624C291.139 396.914 291.657 397.058 292.23 397.058C292.802 397.058 293.319 396.914 293.781 396.624C294.246 396.335 294.614 395.909 294.884 395.346C295.158 394.782 295.295 394.091 295.295 393.273ZM307.133 388.545H308.278V394.805C308.278 395.452 308.125 396.029 307.821 396.537C307.519 397.041 307.093 397.44 306.542 397.732C305.991 398.022 305.345 398.166 304.603 398.166C303.861 398.166 303.215 398.022 302.664 397.732C302.113 397.44 301.685 397.041 301.381 396.537C301.079 396.029 300.928 395.452 300.928 394.805V388.545H302.073V394.713C302.073 395.175 302.175 395.586 302.378 395.946C302.581 396.303 302.87 396.584 303.246 396.79C303.624 396.994 304.077 397.095 304.603 397.095C305.129 397.095 305.582 396.994 305.96 396.79C306.339 396.584 306.628 396.303 306.828 395.946C307.031 395.586 307.133 395.175 307.133 394.713V388.545ZM313.164 398V388.545H316.359C317.097 388.545 317.704 388.672 318.178 388.924C318.651 389.173 319.002 389.516 319.23 389.953C319.458 390.391 319.572 390.888 319.572 391.445C319.572 392.002 319.458 392.496 319.23 392.926C319.002 393.357 318.653 393.696 318.182 393.942C317.711 394.185 317.11 394.307 316.377 394.307H313.792V393.273H316.34C316.845 393.273 317.251 393.199 317.559 393.051C317.87 392.903 318.094 392.694 318.233 392.423C318.374 392.149 318.445 391.823 318.445 391.445C318.445 391.066 318.374 390.735 318.233 390.452C318.091 390.169 317.865 389.95 317.554 389.797C317.243 389.64 316.833 389.561 316.322 389.561H314.309V398H313.164ZM317.614 393.753L319.941 398H318.611L316.322 393.753H317.614ZM329.819 389.561V388.545H336.91V389.561H333.937V398H332.792V389.561H329.819ZM342.421 388.545V398H341.277V388.545H342.421ZM347.317 388.545H348.683L351.896 396.393H352.007L355.22 388.545H356.587V398H355.516V390.817H355.423L352.469 398H351.435L348.48 390.817H348.388V398H347.317V388.545ZM361.482 398V388.545H367.188V389.561H362.627V392.756H366.893V393.771H362.627V396.984H367.262V398H361.482ZM379.825 398L377.24 388.545H378.404L380.379 396.246H380.472L382.485 388.545H383.777L385.79 396.246H385.882L387.858 388.545H389.022L386.436 398H385.254L383.168 390.466H383.094L381.007 398H379.825ZM394.193 388.545V398H393.048V388.545H394.193ZM399.088 398V388.545H400.233V396.984H404.628V398H399.088ZM409.001 398V388.545H410.146V396.984H414.541V398H409.001ZM432.778 391.5H431.633C431.565 391.171 431.447 390.881 431.277 390.632C431.111 390.383 430.908 390.174 430.668 390.004C430.431 389.832 430.168 389.703 429.879 389.616C429.589 389.53 429.288 389.487 428.974 389.487C428.401 389.487 427.883 389.632 427.418 389.921C426.956 390.21 426.588 390.637 426.315 391.2C426.044 391.763 425.908 392.454 425.908 393.273C425.908 394.091 426.044 394.782 426.315 395.346C426.588 395.909 426.956 396.335 427.418 396.624C427.883 396.914 428.401 397.058 428.974 397.058C429.288 397.058 429.589 397.015 429.879 396.929C430.168 396.843 430.431 396.715 430.668 396.546C430.908 396.373 431.111 396.163 431.277 395.913C431.447 395.661 431.565 395.372 431.633 395.045H432.778C432.691 395.529 432.535 395.961 432.307 396.343C432.079 396.724 431.796 397.049 431.457 397.317C431.119 397.581 430.739 397.783 430.317 397.922C429.899 398.06 429.451 398.129 428.974 398.129C428.167 398.129 427.45 397.932 426.822 397.538C426.195 397.144 425.701 396.584 425.341 395.858C424.98 395.132 424.8 394.27 424.8 393.273C424.8 392.276 424.98 391.414 425.341 390.688C425.701 389.961 426.195 389.401 426.822 389.007C427.45 388.613 428.167 388.416 428.974 388.416C429.451 388.416 429.899 388.485 430.317 388.624C430.739 388.762 431.119 388.966 431.457 389.233C431.796 389.498 432.079 389.821 432.307 390.203C432.535 390.581 432.691 391.014 432.778 391.5ZM445.205 393.273C445.205 394.27 445.025 395.132 444.665 395.858C444.305 396.584 443.811 397.144 443.183 397.538C442.555 397.932 441.838 398.129 441.032 398.129C440.225 398.129 439.508 397.932 438.88 397.538C438.253 397.144 437.759 396.584 437.399 395.858C437.038 395.132 436.858 394.27 436.858 393.273C436.858 392.276 437.038 391.414 437.399 390.688C437.759 389.961 438.253 389.401 438.88 389.007C439.508 388.613 440.225 388.416 441.032 388.416C441.838 388.416 442.555 388.613 443.183 389.007C443.811 389.401 444.305 389.961 444.665 390.688C445.025 391.414 445.205 392.276 445.205 393.273ZM444.097 393.273C444.097 392.454 443.96 391.763 443.686 391.2C443.415 390.637 443.048 390.21 442.583 389.921C442.121 389.632 441.604 389.487 441.032 389.487C440.459 389.487 439.941 389.632 439.476 389.921C439.014 390.21 438.647 390.637 438.373 391.2C438.102 391.763 437.966 392.454 437.966 393.273C437.966 394.091 438.102 394.782 438.373 395.346C438.647 395.909 439.014 396.335 439.476 396.624C439.941 396.914 440.459 397.058 441.032 397.058C441.604 397.058 442.121 396.914 442.583 396.624C443.048 396.335 443.415 395.909 443.686 395.346C443.96 394.782 444.097 394.091 444.097 393.273ZM449.73 388.545H451.097L454.31 396.393H454.42L457.633 388.545H459V398H457.929V390.817H457.837L454.882 398H453.848L450.893 390.817H450.801V398H449.73V388.545ZM463.895 398V388.545H469.601V389.561H465.04V392.756H469.306V393.771H465.04V396.984H469.675V398H463.895Z" fill="#6B2D2B"/>
<path d="M185.5 17V50.1094H48.8193V380.5H159V410H16.75V17H185.5Z" fill="#6B2D2B"/>
<mask id="path-5-inside-1_66_1511" fill="white">
<rect x="25" y="388" width="23" height="13" rx="2"/>
</mask>
<rect x="25" y="388" width="23" height="13" rx="2" stroke="#C6684E" stroke-width="6" mask="url(#path-5-inside-1_66_1511)"/>
<mask id="path-6-inside-2_66_1511" fill="white">
<rect x="57" y="388" width="23" height="13" rx="2"/>
</mask>
<rect x="57" y="388" width="23" height="13" rx="2" stroke="#C6684E" stroke-width="6" mask="url(#path-6-inside-2_66_1511)"/>
<mask id="path-7-inside-3_66_1511" fill="white">
<rect x="89" y="388" width="23" height="13" rx="2"/>
</mask>
<rect x="89" y="388" width="23" height="13" rx="2" stroke="#C6684E" stroke-width="6" mask="url(#path-7-inside-3_66_1511)"/>
<mask id="path-8-inside-4_66_1511" fill="white">
<rect x="117" y="388" width="23" height="13" rx="2"/>
</mask>
<rect x="117" y="388" width="23" height="13" rx="2" stroke="#C6684E" stroke-width="6" mask="url(#path-8-inside-4_66_1511)"/>
<rect x="41" y="393" width="23" height="4" fill="#C6684E" stroke="#6B2D2B"/>
<rect x="73" y="393" width="23" height="4" fill="#C6684E" stroke="#6B2D2B"/>
<rect x="107" y="393" width="13" height="4" fill="#C6684E" stroke="#6B2D2B"/>
<rect x="136" y="393" width="13" height="4" fill="#C6684E" stroke="#6B2D2B"/>
<mask id="path-13-inside-5_66_1511" fill="white">
<rect x="23" y="26" width="23" height="13" rx="2"/>
</mask>
<rect x="23" y="26" width="23" height="13" rx="2" stroke="#C6684E" stroke-width="6" mask="url(#path-13-inside-5_66_1511)"/>
<mask id="path-14-inside-6_66_1511" fill="white">
<rect x="55" y="26" width="23" height="13" rx="2"/>
</mask>
<rect x="55" y="26" width="23" height="13" rx="2" stroke="#C6684E" stroke-width="6" mask="url(#path-14-inside-6_66_1511)"/>
<mask id="path-15-inside-7_66_1511" fill="white">
<rect x="87" y="26" width="23" height="13" rx="2"/>
</mask>
<rect x="87" y="26" width="23" height="13" rx="2" stroke="#C6684E" stroke-width="6" mask="url(#path-15-inside-7_66_1511)"/>
<mask id="path-16-inside-8_66_1511" fill="white">
<rect x="119" y="26" width="23" height="13" rx="2"/>
</mask>
<rect x="119" y="26" width="23" height="13" rx="2" stroke="#C6684E" stroke-width="6" mask="url(#path-16-inside-8_66_1511)"/>
<mask id="path-17-inside-9_66_1511" fill="white">
<rect x="151" y="26" width="23" height="13" rx="2"/>
</mask>
<rect x="151" y="26" width="23" height="13" rx="2" stroke="#C6684E" stroke-width="6" mask="url(#path-17-inside-9_66_1511)"/>
<rect x="39" y="31" width="23" height="4" fill="#C6684E" stroke="#6B2D2B"/>
<rect x="71" y="31" width="23" height="4" fill="#C6684E" stroke="#6B2D2B"/>
<rect x="103" y="31" width="23" height="4" fill="#C6684E" stroke="#6B2D2B"/>
<rect x="135" y="31" width="23" height="4" fill="#C6684E" stroke="#6B2D2B"/>
<rect x="167" y="31" width="18" height="4" fill="#C6684E" stroke="#6B2D2B"/>
<g clip-path="url(#clip0_66_1511)">
<path d="M43.3274 113.409C43.8269 114.218 44.5357 116.433 45.1641 119.163C45.7602 121.777 45.5185 122.831 44.4793 122.093C44.2941 121.964 43.6255 121.249 42.981 120.488C41.5068 118.765 39.9441 117.265 38.5505 116.245C37.4952 115.46 36.0774 114.593 35.876 114.593C35.7955 114.593 35.7713 114.98 35.7874 116.198L35.7876 116.216C35.7961 117.156 35.844 122.448 35.873 144.977C35.9939 159.438 35.7006 274.306 36.0631 279.603C36.5303 286.447 36.7075 290.982 36.7075 295.892C36.7075 301.494 36.4739 305.806 35.5797 317.103C35.0803 323.385 34.0814 333.767 33.7189 336.357C33.4369 338.408 32.1883 345.041 32.1158 344.912C32.0514 344.806 31.0767 339.638 30.7786 337.846C30.4161 335.654 29.9086 330.638 29.1433 321.732C28.4506 313.705 28.1686 309.709 27.7578 302.221C27.6208 299.877 27.6208 292.025 27.7578 289.213C27.9108 285.709 28.08 282.685 28.2894 279.428C28.6278 274.119 29.1225 157.164 29.2272 142.399C29.2705 121.788 29.3107 118.003 29.3349 116.796C29.3832 114.874 29.3671 114.593 29.2624 114.593C29.0369 114.593 27.321 115.659 26.3221 116.409C25.0091 117.405 23.551 118.835 22.1171 120.511C20.5866 122.316 20.0871 122.644 19.7407 122.093C19.4346 121.601 19.7166 119.784 20.5866 116.644C21.0216 115.05 21.4888 113.866 21.9157 113.245C22.2944 112.683 22.4394 112.577 24.5741 111.347C26.9666 109.952 27.8285 109.495 28.8032 109.085C29.1335 108.956 29.4477 108.816 29.5041 108.792C29.5685 108.757 29.5524 108.511 29.4477 107.89L28.9211 103.258C28.5828 97.8321 28.2605 95.0782 27.8014 93.7892C27.7128 93.5196 27.4872 93.0626 27.31 92.7696C26.875 92.0548 26.7703 91.6329 26.7703 90.6368C26.7703 89.1837 27.31 87.9415 28.2364 87.2501C30.0972 85.8673 33.3919 85.6329 35.9053 86.6993C37.1378 87.2149 37.9272 88.211 38.2172 89.629C38.483 90.8829 38.33 91.8556 37.7419 92.7931C37.5647 93.0743 37.3714 93.461 37.2989 93.6485C36.9605 94.6212 36.6303 96.8712 36.3967 99.7423L35.6182 108.183C35.5296 108.605 35.5296 108.757 35.5941 108.792C35.6505 108.816 36.0371 108.98 36.456 109.155C37.326 109.519 38.0913 109.929 40.6046 111.37C42.6185 112.53 42.9166 112.753 43.3274 113.409Z" fill="#C6684E"/>
</g>
<path d="M561 17V50.1094H697.681V380.5H587.5V410H729.75V17H561Z" fill="#6B2D2B"/>
<mask id="path-25-inside-10_66_1511" fill="white">
<rect width="23" height="13" rx="2" transform="matrix(-1 0 0 1 721.5 388)"/>
</mask>
<rect width="23" height="13" rx="2" transform="matrix(-1 0 0 1 721.5 388)" stroke="#C6684E" stroke-width="6" mask="url(#path-25-inside-10_66_1511)"/>
<mask id="path-26-inside-11_66_1511" fill="white">
<rect width="23" height="13" rx="2" transform="matrix(-1 0 0 1 689.5 388)"/>
</mask>
<rect width="23" height="13" rx="2" transform="matrix(-1 0 0 1 689.5 388)" stroke="#C6684E" stroke-width="6" mask="url(#path-26-inside-11_66_1511)"/>
<mask id="path-27-inside-12_66_1511" fill="white">
<rect width="23" height="13" rx="2" transform="matrix(-1 0 0 1 657.5 388)"/>
</mask>
<rect width="23" height="13" rx="2" transform="matrix(-1 0 0 1 657.5 388)" stroke="#C6684E" stroke-width="6" mask="url(#path-27-inside-12_66_1511)"/>
<mask id="path-28-inside-13_66_1511" fill="white">
<rect width="23" height="13" rx="2" transform="matrix(-1 0 0 1 629.5 388)"/>
</mask>
<rect width="23" height="13" rx="2" transform="matrix(-1 0 0 1 629.5 388)" stroke="#C6684E" stroke-width="6" mask="url(#path-28-inside-13_66_1511)"/>
<rect width="23" height="4" transform="matrix(-1 0 0 1 705.5 393)" fill="#C6684E" stroke="#6B2D2B"/>
<rect width="23" height="4" transform="matrix(-1 0 0 1 673.5 393)" fill="#C6684E" stroke="#6B2D2B"/>
<rect width="13" height="4" transform="matrix(-1 0 0 1 639.5 393)" fill="#C6684E" stroke="#6B2D2B"/>
<rect width="13" height="4" transform="matrix(-1 0 0 1 610.5 393)" fill="#C6684E" stroke="#6B2D2B"/>
<mask id="path-33-inside-14_66_1511" fill="white">
<rect width="23" height="13" rx="2" transform="matrix(-1 0 0 1 723.5 26)"/>
</mask>
<rect width="23" height="13" rx="2" transform="matrix(-1 0 0 1 723.5 26)" stroke="#C6684E" stroke-width="6" mask="url(#path-33-inside-14_66_1511)"/>
<mask id="path-34-inside-15_66_1511" fill="white">
<rect width="23" height="13" rx="2" transform="matrix(-1 0 0 1 691.5 26)"/>
</mask>
<rect width="23" height="13" rx="2" transform="matrix(-1 0 0 1 691.5 26)" stroke="#C6684E" stroke-width="6" mask="url(#path-34-inside-15_66_1511)"/>
<mask id="path-35-inside-16_66_1511" fill="white">
<rect width="23" height="13" rx="2" transform="matrix(-1 0 0 1 659.5 26)"/>
</mask>
<rect width="23" height="13" rx="2" transform="matrix(-1 0 0 1 659.5 26)" stroke="#C6684E" stroke-width="6" mask="url(#path-35-inside-16_66_1511)"/>
<mask id="path-36-inside-17_66_1511" fill="white">
<rect width="23" height="13" rx="2" transform="matrix(-1 0 0 1 627.5 26)"/>
</mask>
<rect width="23" height="13" rx="2" transform="matrix(-1 0 0 1 627.5 26)" stroke="#C6684E" stroke-width="6" mask="url(#path-36-inside-17_66_1511)"/>
<mask id="path-37-inside-18_66_1511" fill="white">
<rect width="23" height="13" rx="2" transform="matrix(-1 0 0 1 595.5 26)"/>
</mask>
<rect width="23" height="13" rx="2" transform="matrix(-1 0 0 1 595.5 26)" stroke="#C6684E" stroke-width="6" mask="url(#path-37-inside-18_66_1511)"/>
<rect width="23" height="4" transform="matrix(-1 0 0 1 707.5 31)" fill="#C6684E" stroke="#6B2D2B"/>
<rect width="23" height="4" transform="matrix(-1 0 0 1 675.5 31)" fill="#C6684E" stroke="#6B2D2B"/>
<rect width="23" height="4" transform="matrix(-1 0 0 1 643.5 31)" fill="#C6684E" stroke="#6B2D2B"/>
<rect width="23" height="4" transform="matrix(-1 0 0 1 611.5 31)" fill="#C6684E" stroke="#6B2D2B"/>
<rect width="18" height="4" transform="matrix(-1 0 0 1 579.5 31)" fill="#C6684E" stroke="#6B2D2B"/>
<g clip-path="url(#clip1_66_1511)">
<path d="M703.173 113.409C702.673 114.218 701.964 116.433 701.336 119.163C700.74 121.777 700.981 122.831 702.021 122.093C702.206 121.964 702.875 121.249 703.519 120.488C704.993 118.765 706.556 117.265 707.95 116.245C709.005 115.46 710.423 114.593 710.624 114.593C710.705 114.593 710.729 114.98 710.713 116.198L710.712 116.216C710.704 117.156 710.656 122.448 710.627 144.977C710.506 159.438 710.799 274.306 710.437 279.603C709.97 286.447 709.792 290.982 709.792 295.892C709.792 301.494 710.026 305.806 710.92 317.103C711.42 323.385 712.419 333.767 712.781 336.357C713.063 338.408 714.312 345.041 714.384 344.912C714.449 344.806 715.423 339.638 715.721 337.846C716.084 335.654 716.591 330.638 717.357 321.732C718.049 313.705 718.331 309.709 718.742 302.221C718.879 299.877 718.879 292.025 718.742 289.213C718.589 285.709 718.42 282.685 718.211 279.428C717.872 274.119 717.378 157.164 717.273 142.399C717.23 121.788 717.189 118.003 717.165 116.796C717.117 114.874 717.133 114.593 717.238 114.593C717.463 114.593 719.179 115.659 720.178 116.409C721.491 117.405 722.949 118.835 724.383 120.511C725.913 122.316 726.413 122.644 726.759 122.093C727.065 121.601 726.783 119.784 725.913 116.644C725.478 115.05 725.011 113.866 724.584 113.245C724.206 112.683 724.061 112.577 721.926 111.347C719.533 109.952 718.671 109.495 717.697 109.085C717.366 108.956 717.052 108.816 716.996 108.792C716.931 108.757 716.948 108.511 717.052 107.89L717.579 103.258C717.917 97.8321 718.239 95.0782 718.699 93.7892C718.787 93.5196 719.013 93.0626 719.19 92.7696C719.625 92.0548 719.73 91.6329 719.73 90.6368C719.73 89.1837 719.19 87.9415 718.264 87.2501C716.403 85.8673 713.108 85.6329 710.595 86.6993C709.362 87.2149 708.573 88.211 708.283 89.629C708.017 90.8829 708.17 91.8556 708.758 92.7931C708.935 93.0743 709.129 93.461 709.201 93.6485C709.539 94.6212 709.87 96.8712 710.103 99.7423L710.882 108.183C710.97 108.605 710.97 108.757 710.906 108.792C710.85 108.816 710.463 108.98 710.044 109.155C709.174 109.519 708.409 109.929 705.895 111.37C703.881 112.53 703.583 112.753 703.173 113.409Z" fill="#C6684E"/>
</g>
<rect x="58.5" y="58.5" width="631" height="314" stroke="#6B2D2B"/>
<rect x="10.5" y="10.5" width="726" height="406" stroke="#6B2D2B" stroke-width="3"/>
<defs>
<clipPath id="clip0_66_1511">
<rect width="264" height="58" fill="white" transform="translate(62 81) rotate(90)"/>
</clipPath>
<clipPath id="clip1_66_1511">
<rect width="264" height="58" fill="white" transform="matrix(4.37114e-08 1 1 -4.37114e-08 684.5 81)"/>
</clipPath>
</defs>
</svg>
