<svg width="632" height="257" viewBox="0 0 632 257" fill="none" xmlns="http://www.w3.org/2000/svg">
<rect width="632" height="257" fill="#C6684E"/>
<rect x="55.5" y="58.5" width="520" height="141" stroke="#6B2D2B"/>
<rect x="9.5" y="10.5" width="611" height="237" stroke="#6B2D2B" stroke-width="3"/>
<path d="M15.75 17H190.5V50.1092H47.8191V208.838H123V240H15.75V17Z" fill="#6B2D2B"/>
<path d="M613.25 17H437V50.1092H581.181V208.838H505V240H613.25V17Z" fill="#6B2D2B"/>
<mask id="path-6-inside-1_33_1126" fill="white">
<rect x="450" y="26" width="23" height="13" rx="2"/>
</mask>
<rect x="450" y="26" width="23" height="13" rx="2" stroke="#C6684E" stroke-width="6" mask="url(#path-6-inside-1_33_1126)"/>
<mask id="path-7-inside-2_33_1126" fill="white">
<rect x="482" y="26" width="23" height="13" rx="2"/>
</mask>
<rect x="482" y="26" width="23" height="13" rx="2" stroke="#C6684E" stroke-width="6" mask="url(#path-7-inside-2_33_1126)"/>
<mask id="path-8-inside-3_33_1126" fill="white">
<rect x="514" y="26" width="23" height="13" rx="2"/>
</mask>
<rect x="514" y="26" width="23" height="13" rx="2" stroke="#C6684E" stroke-width="6" mask="url(#path-8-inside-3_33_1126)"/>
<mask id="path-9-inside-4_33_1126" fill="white">
<rect x="546" y="26" width="23" height="13" rx="2"/>
</mask>
<rect x="546" y="26" width="23" height="13" rx="2" stroke="#C6684E" stroke-width="6" mask="url(#path-9-inside-4_33_1126)"/>
<mask id="path-10-inside-5_33_1126" fill="white">
<rect x="578" y="26" width="23" height="13" rx="2"/>
</mask>
<rect x="578" y="26" width="23" height="13" rx="2" stroke="#C6684E" stroke-width="6" mask="url(#path-10-inside-5_33_1126)"/>
<rect x="466" y="31" width="23" height="4" fill="#C6684E" stroke="#6B2D2B"/>
<rect x="438" y="31" width="19" height="4" fill="#C6684E" stroke="#6B2D2B"/>
<rect x="498" y="31" width="23" height="4" fill="#C6684E" stroke="#6B2D2B"/>
<rect x="530" y="31" width="23" height="4" fill="#C6684E" stroke="#6B2D2B"/>
<rect x="562" y="31" width="23" height="4" fill="#C6684E" stroke="#6B2D2B"/>
<mask id="path-16-inside-6_33_1126" fill="white">
<rect x="514" y="219" width="23" height="13" rx="2"/>
</mask>
<rect x="514" y="219" width="23" height="13" rx="2" stroke="#C6684E" stroke-width="6" mask="url(#path-16-inside-6_33_1126)"/>
<mask id="path-17-inside-7_33_1126" fill="white">
<rect x="546" y="219" width="23" height="13" rx="2"/>
</mask>
<rect x="546" y="219" width="23" height="13" rx="2" stroke="#C6684E" stroke-width="6" mask="url(#path-17-inside-7_33_1126)"/>
<mask id="path-18-inside-8_33_1126" fill="white">
<rect x="578" y="219" width="23" height="13" rx="2"/>
</mask>
<rect x="578" y="219" width="23" height="13" rx="2" stroke="#C6684E" stroke-width="6" mask="url(#path-18-inside-8_33_1126)"/>
<rect x="530" y="224" width="23" height="4" fill="#C6684E" stroke="#6B2D2B"/>
<rect x="506" y="224" width="12" height="4" fill="#C6684E" stroke="#6B2D2B"/>
<rect x="562" y="224" width="23" height="4" fill="#C6684E" stroke="#6B2D2B"/>
<path d="M226.614 38.52L232.446 39L231.39 42.36L224.094 41.712C223.438 39.808 223.11 37.488 223.11 34.752C223.11 33.6 223.27 32.224 223.59 30.624C224.054 29.744 224.734 28.792 225.63 27.768C226.542 26.728 227.382 25.952 228.15 25.44L232.542 26.016L231.15 29.472L227.742 28.944C227.182 29.28 226.902 30.216 226.902 31.752C226.902 33.304 227.19 35.048 227.766 36.984L226.614 38.52ZM240.274 36.816L239.938 38.544L244.378 38.832L243.466 42.168L238.042 41.856L236.194 39.24V28.944L234.442 28.56L235.954 25.44L240.274 26.376V36.816ZM247.849 34.872V30.528L251.713 25.44L256.633 26.136L258.913 30.072V38.784L260.425 39.192L258.913 42.312L254.833 41.352V36.816H251.929V42H247.849V36.816H246.409V34.872H247.849ZM251.929 34.872H254.833V29.472L250.897 28.728L251.929 30.312V34.872ZM268.099 42.36L262.915 41.76L263.779 38.16L268.579 38.784C268.723 38.064 268.731 37.256 268.603 36.36L263.227 33.888C263.115 32.032 263.243 30.44 263.611 29.112C263.995 28.552 264.515 27.912 265.171 27.192C265.843 26.472 266.507 25.888 267.163 25.44L271.891 26.04L270.499 29.544L266.683 28.92C266.507 29.48 266.475 30.168 266.587 30.984L271.747 33.264C272.019 34.976 271.963 36.776 271.579 38.664C270.571 40.2 269.411 41.432 268.099 42.36ZM279.963 42.36L274.779 41.76L275.643 38.16L280.443 38.784C280.587 38.064 280.595 37.256 280.467 36.36L275.091 33.888C274.979 32.032 275.107 30.44 275.475 29.112C275.859 28.552 276.379 27.912 277.035 27.192C277.707 26.472 278.371 25.888 279.027 25.44L283.755 26.04L282.363 29.544L278.547 28.92C278.371 29.48 278.339 30.168 278.451 30.984L283.611 33.264C283.883 34.976 283.827 36.776 283.443 38.664C282.435 40.2 281.275 41.432 279.963 42.36ZM287.723 25.44L292.043 26.376V42H287.963V28.944L286.211 28.56L287.723 25.44ZM300.444 42H296.364V30.168L299.652 25.44L305.412 26.232L304.26 29.568L299.46 28.776L300.444 30.264V32.472H304.02V35.208H300.444V42ZM308.568 25.44L312.888 26.376V42H308.808V28.944L307.056 28.56L308.568 25.44ZM319.081 41.832L317.209 39.216V30.192L320.449 25.44L326.473 26.208L325.177 29.4L320.257 28.752L321.289 30.264V32.4H324.577V35.136H321.289V38.64L326.425 38.952L325.417 42.168L319.081 41.832ZM328.997 38.208L330.509 38.376V28.872L328.277 28.536L329.909 25.44L334.469 26.208H339.101C340.829 27.824 341.693 30.056 341.693 32.904C341.693 34.696 341.285 36.4 340.469 38.016C339.653 39.616 338.565 41.064 337.205 42.36L328.037 41.352L328.997 38.208ZM334.589 30.792V38.856L337.229 39.168C337.805 37.984 338.093 36.432 338.093 34.512C338.093 32.24 337.509 30.472 336.341 29.208H333.029L334.589 30.792ZM351.173 25.44L355.493 26.376V42H351.413V28.944L349.661 28.56L351.173 25.44ZM371.742 26.136V38.832L373.494 39.24L371.982 42.36L367.662 41.4V30.744L368.214 28.8L366.15 28.464L364.662 30.84V42H360.582V28.944L358.83 28.56L360.342 25.44L364.662 26.376V28.248L363.942 29.976L364.11 30.048L367.062 25.44L371.742 26.136ZM378.124 42V29.016H374.908L375.724 25.92H385.636L384.82 29.016H381.268L382.204 30.648V42H378.124ZM389.68 41.832L387.808 39.216V30.192L391.048 25.44L397.072 26.208L395.776 29.4L390.856 28.752L391.888 30.264V32.4H395.176V35.136H391.888V38.64L397.024 38.952L396.016 42.168L389.68 41.832ZM404.684 36.816L404.348 38.544L408.788 38.832L407.876 42.168L402.452 41.856L400.604 39.24V28.944L398.852 28.56L400.364 25.44L404.684 26.376V36.816Z" fill="#6B2D2B"/>
<path d="M247.042 222.727H247.923V227.543C247.923 228.04 247.806 228.484 247.571 228.874C247.339 229.263 247.011 229.569 246.588 229.794C246.164 230.017 245.667 230.128 245.096 230.128C244.526 230.128 244.028 230.017 243.605 229.794C243.181 229.569 242.852 229.263 242.617 228.874C242.385 228.484 242.269 228.04 242.269 227.543V222.727H243.15V227.472C243.15 227.827 243.228 228.143 243.384 228.42C243.541 228.694 243.763 228.911 244.052 229.07C244.343 229.226 244.691 229.304 245.096 229.304C245.501 229.304 245.849 229.226 246.14 229.07C246.431 228.911 246.654 228.694 246.808 228.42C246.964 228.143 247.042 227.827 247.042 227.472V222.727ZM251.681 230V222.727H254.139C254.709 222.727 255.176 222.83 255.538 223.036C255.903 223.24 256.172 223.516 256.348 223.864C256.523 224.212 256.61 224.6 256.61 225.028C256.61 225.457 256.523 225.846 256.348 226.197C256.175 226.547 255.907 226.826 255.545 227.035C255.183 227.241 254.719 227.344 254.153 227.344H252.392V226.562H254.125C254.515 226.562 254.829 226.495 255.066 226.36C255.302 226.225 255.474 226.043 255.581 225.813C255.69 225.581 255.744 225.32 255.744 225.028C255.744 224.737 255.69 224.477 255.581 224.247C255.474 224.018 255.301 223.838 255.062 223.707C254.823 223.575 254.506 223.509 254.11 223.509H252.562V230H251.681ZM265.881 225H265.001C264.949 224.747 264.857 224.524 264.727 224.332C264.599 224.141 264.443 223.98 264.259 223.849C264.076 223.717 263.874 223.617 263.651 223.551C263.429 223.485 263.197 223.452 262.955 223.452C262.515 223.452 262.116 223.563 261.759 223.786C261.403 224.008 261.121 224.336 260.91 224.769C260.701 225.202 260.597 225.734 260.597 226.364C260.597 226.993 260.701 227.525 260.91 227.958C261.121 228.391 261.403 228.719 261.759 228.942C262.116 229.164 262.515 229.276 262.955 229.276C263.197 229.276 263.429 229.242 263.651 229.176C263.874 229.11 264.076 229.012 264.259 228.881C264.443 228.749 264.599 228.587 264.727 228.395C264.857 228.201 264.949 227.978 265.001 227.727H265.881C265.815 228.099 265.694 228.432 265.519 228.725C265.344 229.019 265.126 229.268 264.866 229.474C264.605 229.678 264.313 229.833 263.989 229.94C263.667 230.046 263.322 230.099 262.955 230.099C262.335 230.099 261.783 229.948 261.3 229.645C260.817 229.342 260.438 228.911 260.161 228.352C259.884 227.794 259.745 227.131 259.745 226.364C259.745 225.597 259.884 224.934 260.161 224.375C260.438 223.816 260.817 223.385 261.3 223.082C261.783 222.779 262.335 222.628 262.955 222.628C263.322 222.628 263.667 222.681 263.989 222.788C264.313 222.894 264.605 223.05 264.866 223.256C265.126 223.46 265.344 223.709 265.519 224.002C265.694 224.293 265.815 224.626 265.881 225ZM275.441 226.364C275.441 227.131 275.302 227.794 275.025 228.352C274.748 228.911 274.368 229.342 273.885 229.645C273.403 229.948 272.851 230.099 272.231 230.099C271.61 230.099 271.059 229.948 270.576 229.645C270.093 229.342 269.713 228.911 269.436 228.352C269.159 227.794 269.02 227.131 269.02 226.364C269.02 225.597 269.159 224.934 269.436 224.375C269.713 223.816 270.093 223.385 270.576 223.082C271.059 222.779 271.61 222.628 272.231 222.628C272.851 222.628 273.403 222.779 273.885 223.082C274.368 223.385 274.748 223.816 275.025 224.375C275.302 224.934 275.441 225.597 275.441 226.364ZM274.589 226.364C274.589 225.734 274.483 225.202 274.273 224.769C274.064 224.336 273.781 224.008 273.424 223.786C273.069 223.563 272.671 223.452 272.231 223.452C271.79 223.452 271.391 223.563 271.034 223.786C270.679 224.008 270.396 224.336 270.185 224.769C269.977 225.202 269.873 225.734 269.873 226.364C269.873 226.993 269.977 227.525 270.185 227.958C270.396 228.391 270.679 228.719 271.034 228.942C271.391 229.164 271.79 229.276 272.231 229.276C272.671 229.276 273.069 229.164 273.424 228.942C273.781 228.719 274.064 228.391 274.273 227.958C274.483 227.525 274.589 226.993 274.589 226.364ZM278.922 222.727H279.973L282.444 228.764H282.53L285.001 222.727H286.052V230H285.229V224.474H285.157L282.885 230H282.089L279.817 224.474H279.746V230H278.922V222.727ZM290.699 222.727V230H289.818V222.727H290.699ZM300.232 222.727V230H299.379L295.416 224.29H295.345V230H294.465V222.727H295.317L299.294 228.452H299.365V222.727H300.232ZM308.966 225C308.887 224.761 308.784 224.547 308.657 224.357C308.531 224.165 308.381 224.002 308.206 223.867C308.033 223.732 307.836 223.629 307.616 223.558C307.396 223.487 307.154 223.452 306.892 223.452C306.461 223.452 306.069 223.563 305.716 223.786C305.364 224.008 305.083 224.336 304.875 224.769C304.666 225.202 304.562 225.734 304.562 226.364C304.562 226.993 304.667 227.525 304.878 227.958C305.089 228.391 305.374 228.719 305.734 228.942C306.094 229.164 306.499 229.276 306.949 229.276C307.365 229.276 307.732 229.187 308.049 229.009C308.369 228.829 308.618 228.576 308.795 228.249C308.975 227.92 309.065 227.533 309.065 227.088L309.335 227.145H307.147V226.364H309.917V227.145C309.917 227.744 309.789 228.265 309.534 228.707C309.28 229.15 308.93 229.493 308.483 229.737C308.038 229.979 307.526 230.099 306.949 230.099C306.305 230.099 305.739 229.948 305.251 229.645C304.766 229.342 304.387 228.911 304.115 228.352C303.845 227.794 303.71 227.131 303.71 226.364C303.71 225.788 303.787 225.271 303.941 224.812C304.097 224.35 304.317 223.957 304.601 223.633C304.885 223.308 305.221 223.06 305.61 222.887C305.998 222.714 306.425 222.628 306.892 222.628C307.275 222.628 307.633 222.686 307.964 222.802C308.298 222.915 308.595 223.078 308.855 223.288C309.118 223.497 309.337 223.746 309.512 224.038C309.688 224.326 309.808 224.647 309.875 225H308.966ZM318.238 230V222.727H320.781C321.287 222.727 321.705 222.815 322.034 222.99C322.363 223.163 322.608 223.396 322.769 223.69C322.93 223.981 323.011 224.304 323.011 224.659C323.011 224.972 322.955 225.23 322.844 225.433C322.735 225.637 322.591 225.798 322.411 225.916C322.233 226.035 322.04 226.122 321.832 226.179V226.25C322.054 226.264 322.278 226.342 322.503 226.484C322.728 226.626 322.916 226.83 323.068 227.095C323.219 227.36 323.295 227.685 323.295 228.068C323.295 228.433 323.212 228.761 323.046 229.052C322.881 229.343 322.619 229.574 322.262 229.744C321.904 229.915 321.439 230 320.866 230H318.238ZM319.119 229.219H320.866C321.441 229.219 321.85 229.107 322.091 228.885C322.335 228.66 322.457 228.388 322.457 228.068C322.457 227.822 322.394 227.595 322.269 227.386C322.143 227.176 321.964 227.008 321.732 226.882C321.5 226.754 321.226 226.69 320.909 226.69H319.119V229.219ZM319.119 225.923H320.752C321.017 225.923 321.257 225.871 321.47 225.767C321.685 225.663 321.856 225.516 321.981 225.327C322.109 225.137 322.173 224.915 322.173 224.659C322.173 224.339 322.061 224.068 321.839 223.846C321.616 223.621 321.264 223.509 320.781 223.509H319.119V225.923ZM327.623 222.727V230H326.742V222.727H327.623ZM331.388 230V222.727H333.846C334.414 222.727 334.88 222.824 335.245 223.018C335.61 223.21 335.879 223.474 336.055 223.81C336.23 224.147 336.317 224.529 336.317 224.957C336.317 225.386 336.23 225.766 336.055 226.097C335.879 226.429 335.611 226.689 335.249 226.879C334.886 227.066 334.424 227.159 333.86 227.159H331.871V226.364H333.832C334.22 226.364 334.532 226.307 334.769 226.193C335.008 226.08 335.181 225.919 335.288 225.71C335.397 225.5 335.451 225.249 335.451 224.957C335.451 224.666 335.397 224.412 335.288 224.194C335.179 223.976 335.005 223.808 334.766 223.69C334.527 223.569 334.21 223.509 333.817 223.509H332.269V230H331.388ZM334.812 226.733L336.602 230H335.579L333.817 226.733H334.812ZM339.387 223.509V222.727H344.842V223.509H342.555V230H341.674V223.509H339.387ZM348.201 230V222.727H349.082V225.966H352.96V222.727H353.84V230H352.96V226.747H349.082V230H348.201ZM359.848 230H357.603V222.727H359.947C360.653 222.727 361.256 222.873 361.758 223.164C362.26 223.453 362.645 223.868 362.912 224.411C363.18 224.95 363.314 225.597 363.314 226.349C363.314 227.107 363.179 227.759 362.909 228.306C362.639 228.851 362.246 229.27 361.73 229.563C361.214 229.854 360.586 230 359.848 230ZM358.484 229.219H359.791C360.392 229.219 360.891 229.103 361.286 228.871C361.681 228.639 361.976 228.308 362.17 227.88C362.364 227.451 362.461 226.941 362.461 226.349C362.461 225.762 362.365 225.257 362.174 224.833C361.982 224.407 361.695 224.08 361.314 223.853C360.933 223.623 360.458 223.509 359.89 223.509H358.484V229.219ZM366.747 230H365.824L368.494 222.727H369.404L372.074 230H371.151L368.977 223.878H368.921L366.747 230ZM367.088 227.159H370.81V227.94H367.088V227.159ZM373.84 222.727H374.848L376.865 226.122H376.95L378.968 222.727H379.976L377.348 227.003V230H376.468V227.003L373.84 222.727ZM387.092 224.545C387.05 224.186 386.877 223.906 386.574 223.707C386.271 223.509 385.899 223.409 385.459 223.409C385.137 223.409 384.855 223.461 384.614 223.565C384.375 223.67 384.188 223.813 384.053 223.995C383.92 224.177 383.854 224.384 383.854 224.616C383.854 224.811 383.9 224.978 383.992 225.117C384.087 225.254 384.208 225.369 384.354 225.462C384.501 225.552 384.655 225.626 384.816 225.685C384.977 225.742 385.125 225.788 385.26 225.824L385.999 226.023C386.188 226.072 386.399 226.141 386.631 226.229C386.865 226.316 387.089 226.436 387.302 226.587C387.517 226.737 387.695 226.928 387.835 227.163C387.974 227.397 388.044 227.685 388.044 228.026C388.044 228.419 387.941 228.774 387.735 229.091C387.531 229.408 387.233 229.66 386.84 229.847C386.45 230.034 385.975 230.128 385.416 230.128C384.895 230.128 384.444 230.044 384.063 229.876C383.684 229.708 383.386 229.473 383.168 229.173C382.953 228.872 382.831 228.523 382.803 228.125H383.712C383.735 228.4 383.828 228.627 383.989 228.807C384.152 228.984 384.358 229.117 384.607 229.205C384.857 229.29 385.127 229.332 385.416 229.332C385.752 229.332 386.054 229.278 386.322 229.169C386.589 229.058 386.801 228.904 386.957 228.707C387.114 228.509 387.192 228.277 387.192 228.011C387.192 227.77 387.124 227.573 386.989 227.422C386.854 227.27 386.677 227.147 386.457 227.053C386.237 226.958 385.999 226.875 385.743 226.804L384.848 226.548C384.28 226.385 383.83 226.152 383.499 225.849C383.167 225.546 383.001 225.149 383.001 224.659C383.001 224.252 383.112 223.897 383.332 223.594C383.554 223.288 383.853 223.052 384.227 222.884C384.603 222.713 385.023 222.628 385.487 222.628C385.956 222.628 386.373 222.712 386.737 222.88C387.102 223.046 387.391 223.273 387.604 223.562C387.819 223.851 387.933 224.179 387.945 224.545H387.092Z" fill="#6B2D2B"/>
<g clip-path="url(#clip0_33_1126)">
<path d="M42.0322 78.96C42.5316 79.7686 43.2405 81.9835 43.8688 84.7139C44.4649 87.3272 44.2233 88.3819 43.1841 87.6436C42.9988 87.5147 42.3302 86.7999 41.6858 86.0381C40.2116 84.3155 38.6488 82.8155 37.2552 81.796C36.1999 81.0108 34.7822 80.1436 34.5808 80.1436C34.5002 80.1436 34.476 80.5303 34.4922 81.7491L34.4923 81.7666C34.5008 82.7068 34.5487 87.9989 34.5778 110.527C34.6986 124.988 34.7792 128.258 35.1417 133.555C35.6089 140.398 35.7861 144.934 35.7861 149.844C35.7861 155.445 35.5525 159.758 34.6583 171.055C34.1589 177.336 33.16 187.719 32.7975 190.309C32.5156 192.359 31.2669 198.992 31.1944 198.863C31.13 198.758 30.1553 193.59 29.8572 191.797C29.4947 189.605 28.9872 184.59 28.2219 175.684C27.5292 167.656 27.2472 163.66 26.8364 156.172C26.6995 153.828 26.6995 145.977 26.8364 143.164C26.9895 139.66 27.1586 136.637 27.3681 133.379C27.7064 128.07 27.8272 122.715 27.932 107.949C27.9752 87.3389 28.0155 83.5538 28.0397 82.3467C28.088 80.4249 28.0719 80.1436 27.9672 80.1436C27.7416 80.1436 26.0258 81.21 25.0269 81.96C23.7138 82.9561 22.2558 84.3858 20.8219 86.0616C19.2913 87.8663 18.7919 88.1944 18.4455 87.6436C18.1394 87.1514 18.4213 85.335 19.2913 82.1944C19.7263 80.6007 20.1935 79.4171 20.6205 78.796C20.9991 78.2335 21.1441 78.128 23.2788 76.8975C25.6713 75.503 26.5333 75.046 27.508 74.6358C27.8383 74.5069 28.1524 74.3663 28.2088 74.3428C28.2733 74.3077 28.2572 74.0616 28.1524 73.4405L27.6258 68.8086C27.2875 63.3828 26.9653 60.6289 26.5061 59.3398C26.4175 59.0703 26.192 58.6132 26.0147 58.3203C25.5797 57.6054 25.475 57.1836 25.475 56.1875C25.475 54.7343 26.0147 53.4921 26.9411 52.8007C28.802 51.4179 32.0967 51.1836 34.61 52.25C35.8425 52.7656 36.632 53.7617 36.922 55.1796C37.1878 56.4336 37.0347 57.4062 36.4467 58.3437C36.2695 58.625 36.0761 59.0117 36.0036 59.1992C35.6653 60.1718 35.335 62.4218 35.1014 65.2929L34.323 73.7335C34.2344 74.1553 34.2344 74.3077 34.2988 74.3428C34.3552 74.3663 34.7419 74.5303 35.1608 74.7061C36.0308 75.0694 36.796 75.4796 39.3094 76.921C41.3233 78.0811 41.6213 78.3038 42.0322 78.96Z" fill="#C6684E"/>
</g>
<g clip-path="url(#clip1_33_1126)">
<path d="M607.032 78.96C607.532 79.7686 608.24 81.9835 608.869 84.7139C609.465 87.3272 609.223 88.3819 608.184 87.6436C607.999 87.5147 607.33 86.7999 606.686 86.0381C605.212 84.3155 603.649 82.8155 602.255 81.796C601.2 81.0108 599.782 80.1436 599.581 80.1436C599.5 80.1436 599.476 80.5303 599.492 81.7491L599.492 81.7666C599.501 82.7068 599.549 87.9989 599.578 110.527C599.699 124.988 599.779 128.258 600.142 133.555C600.609 140.398 600.786 144.934 600.786 149.844C600.786 155.445 600.553 159.758 599.658 171.055C599.159 177.336 598.16 187.719 597.798 190.309C597.516 192.359 596.267 198.992 596.194 198.863C596.13 198.758 595.155 193.59 594.857 191.797C594.495 189.605 593.987 184.59 593.222 175.684C592.529 167.656 592.247 163.66 591.836 156.172C591.699 153.828 591.699 145.977 591.836 143.164C591.989 139.66 592.159 136.637 592.368 133.379C592.706 128.07 592.827 122.715 592.932 107.949C592.975 87.3389 593.015 83.5538 593.04 82.3467C593.088 80.4249 593.072 80.1436 592.967 80.1436C592.742 80.1436 591.026 81.21 590.027 81.96C588.714 82.9561 587.256 84.3858 585.822 86.0616C584.291 87.8663 583.792 88.1944 583.445 87.6436C583.139 87.1514 583.421 85.335 584.291 82.1944C584.726 80.6007 585.194 79.4171 585.62 78.796C585.999 78.2335 586.144 78.128 588.279 76.8975C590.671 75.503 591.533 75.046 592.508 74.6358C592.838 74.5069 593.152 74.3663 593.209 74.3428C593.273 74.3077 593.257 74.0616 593.152 73.4405L592.626 68.8086C592.288 63.3828 591.965 60.6289 591.506 59.3398C591.418 59.0703 591.192 58.6132 591.015 58.3203C590.58 57.6054 590.475 57.1836 590.475 56.1875C590.475 54.7343 591.015 53.4921 591.941 52.8007C593.802 51.4179 597.097 51.1836 599.61 52.25C600.843 52.7656 601.632 53.7617 601.922 55.1796C602.188 56.4336 602.035 57.4062 601.447 58.3437C601.269 58.625 601.076 59.0117 601.004 59.1992C600.665 60.1718 600.335 62.4218 600.101 65.2929L599.323 73.7335C599.234 74.1553 599.234 74.3077 599.299 74.3428C599.355 74.3663 599.742 74.5303 600.161 74.7061C601.031 75.0694 601.796 75.4796 604.309 76.921C606.323 78.0811 606.621 78.3038 607.032 78.96Z" fill="#C6684E"/>
</g>
<mask id="path-26-inside-9_33_1126" fill="white">
<rect x="27" y="26" width="23" height="13" rx="2"/>
</mask>
<rect x="27" y="26" width="23" height="13" rx="2" stroke="#C6684E" stroke-width="6" mask="url(#path-26-inside-9_33_1126)"/>
<mask id="path-27-inside-10_33_1126" fill="white">
<rect x="59" y="26" width="23" height="13" rx="2"/>
</mask>
<rect x="59" y="26" width="23" height="13" rx="2" stroke="#C6684E" stroke-width="6" mask="url(#path-27-inside-10_33_1126)"/>
<mask id="path-28-inside-11_33_1126" fill="white">
<rect x="91" y="26" width="23" height="13" rx="2"/>
</mask>
<rect x="91" y="26" width="23" height="13" rx="2" stroke="#C6684E" stroke-width="6" mask="url(#path-28-inside-11_33_1126)"/>
<mask id="path-29-inside-12_33_1126" fill="white">
<rect x="123" y="26" width="23" height="13" rx="2"/>
</mask>
<rect x="123" y="26" width="23" height="13" rx="2" stroke="#C6684E" stroke-width="6" mask="url(#path-29-inside-12_33_1126)"/>
<mask id="path-30-inside-13_33_1126" fill="white">
<rect x="155" y="26" width="23" height="13" rx="2"/>
</mask>
<rect x="155" y="26" width="23" height="13" rx="2" stroke="#C6684E" stroke-width="6" mask="url(#path-30-inside-13_33_1126)"/>
<rect x="43" y="31" width="23" height="4" fill="#C6684E" stroke="#6B2D2B"/>
<rect x="75" y="31" width="23" height="4" fill="#C6684E" stroke="#6B2D2B"/>
<rect x="107" y="31" width="23" height="4" fill="#C6684E" stroke="#6B2D2B"/>
<rect x="139" y="31" width="23" height="4" fill="#C6684E" stroke="#6B2D2B"/>
<rect x="171" y="31" width="18" height="4" fill="#C6684E" stroke="#6B2D2B"/>
<mask id="path-36-inside-14_33_1126" fill="white">
<rect x="27" y="219" width="23" height="13" rx="2"/>
</mask>
<rect x="27" y="219" width="23" height="13" rx="2" stroke="#C6684E" stroke-width="6" mask="url(#path-36-inside-14_33_1126)"/>
<mask id="path-37-inside-15_33_1126" fill="white">
<rect x="59" y="219" width="23" height="13" rx="2"/>
</mask>
<rect x="59" y="219" width="23" height="13" rx="2" stroke="#C6684E" stroke-width="6" mask="url(#path-37-inside-15_33_1126)"/>
<mask id="path-38-inside-16_33_1126" fill="white">
<rect x="91" y="219" width="23" height="13" rx="2"/>
</mask>
<rect x="91" y="219" width="23" height="13" rx="2" stroke="#C6684E" stroke-width="6" mask="url(#path-38-inside-16_33_1126)"/>
<rect x="43" y="224" width="23" height="4" fill="#C6684E" stroke="#6B2D2B"/>
<rect x="75" y="224" width="23" height="4" fill="#C6684E" stroke="#6B2D2B"/>
<rect x="109" y="224" width="13" height="4" fill="#C6684E" stroke="#6B2D2B"/>
<defs>
<clipPath id="clip0_33_1126">
<rect width="150" height="58" fill="white" transform="translate(61 50) rotate(90)"/>
</clipPath>
<clipPath id="clip1_33_1126">
<rect width="150" height="58" fill="white" transform="translate(626 50) rotate(90)"/>
</clipPath>
</defs>
</svg>
