<svg width="85" height="85" viewBox="0 0 85 85" fill="none" xmlns="http://www.w3.org/2000/svg">
<path d="M43 7C62.8823 7 79 23.1177 79 43C79 62.8823 62.8823 79 43 79C23.1177 79 7 62.8823 7 43C7 23.1177 23.1177 7 43 7ZM43.6035 16.5586C30.0808 16.5586 16.5586 23.32 16.5586 33.4619C16.5586 40.2233 21.6299 43.6038 21.6299 50.3652C21.6299 55.4363 19.9395 55.4367 19.9395 58.8174C19.9402 60.5074 25.3498 62.4233 30.0811 63.8877V70.6494H57.126V63.8877C57.126 63.8877 67.3324 60.737 67.2686 58.8164C67.1633 55.6674 65.5781 55.4359 65.5781 50.3652C65.5781 46.9845 70.721 40.0631 70.6484 33.4619C70.6484 23.3197 57.126 16.5586 43.6035 16.5586ZM43.6035 48.6748C45.2939 48.6748 48.6748 55.4366 48.6748 57.127C48.6748 60.5072 48.6746 60.5068 46.9844 60.5068H40.2227C38.5326 60.5068 38.5322 60.5071 38.5322 57.127C38.5322 55.4366 41.9132 48.675 43.6035 48.6748ZM33.4619 36.8428C37.1958 36.843 40.2224 39.8697 40.2227 43.6035C40.2227 47.3375 37.1959 50.365 33.4619 50.3652C29.7281 50.3651 26.7002 47.3376 26.7002 43.6035C26.7003 39.8695 29.7279 36.8428 33.4619 36.8428ZM53.7451 36.8428C57.4791 36.8428 60.5066 39.8696 60.5068 43.6035C60.5068 47.3376 57.4792 50.3652 53.7451 50.3652C50.0112 50.3651 46.9844 47.3375 46.9844 43.6035C46.9846 39.8697 50.0113 36.8429 53.7451 36.8428Z" fill="#C6684E"/>
</svg>
