<svg width="632" height="257" viewBox="0 0 632 257" fill="none" xmlns="http://www.w3.org/2000/svg">
<rect width="632" height="257" fill="#669FBD"/>
<rect x="111.5" y="58.5" width="408" height="141" stroke="#314566"/>
<rect x="9.5" y="10.5" width="611" height="237" stroke="#314566" stroke-width="3"/>
<rect x="16" y="17" width="50" height="223" fill="#314566"/>
<rect width="50" height="223" transform="matrix(-1 0 0 1 614 17)" fill="#314566"/>
<path d="M70.75 17H239.5V50.1092H102.819V208.838H169.964V240H70.75V17Z" fill="#314566"/>
<path d="M559 17H389V50.1092H526.931V208.838H459.786V240H559V17Z" fill="#314566"/>
<path d="M162 224H92" stroke="#669FBD"/>
<path d="M140.5 224C140.5 220 137.7 215.8 132.5 215C132.5 220 136.5 223.5 140.5 224Z" fill="#669FBD"/>
<path d="M131 224C131 220 128.2 215.8 123 215C123 220 127 223.5 131 224Z" fill="#669FBD"/>
<path d="M121.5 224C121.5 220 118.7 215.8 113.5 215C113.5 220 117.5 223.5 121.5 224Z" fill="#669FBD"/>
<path d="M112 224C112 220 109.2 215.8 104 215C104 220 108 223.5 112 224Z" fill="#669FBD"/>
<path d="M102.5 224C102.5 220 99.7002 215.8 94.5002 215C94.5002 220 98.5002 223.5 102.5 224Z" fill="#669FBD"/>
<path d="M93.0002 224C93.0002 220 90.2002 215.8 85.0002 215C85.0002 220 89.0002 223.5 93.0002 224Z" fill="#669FBD"/>
<path d="M93.5002 224C89.5101 220.465 82.3936 219.52 77.0002 224C82.0002 228.5 90.0002 227.5 93.5002 224Z" fill="#669FBD"/>
<path d="M140.5 224.5C140.5 228.5 137.7 232.7 132.5 233.5C132.5 228.5 136.5 225 140.5 224.5Z" fill="#669FBD"/>
<path d="M131 224.5C131 228.5 128.2 232.7 123 233.5C123 228.5 127 225 131 224.5Z" fill="#669FBD"/>
<path d="M121.5 224.5C121.5 228.5 118.7 232.7 113.5 233.5C113.5 228.5 117.5 225 121.5 224.5Z" fill="#669FBD"/>
<path d="M112 224.5C112 228.5 109.2 232.7 104 233.5C104 228.5 108 225 112 224.5Z" fill="#669FBD"/>
<path d="M102.5 224.5C102.5 228.5 99.7002 232.7 94.5002 233.5C94.5002 228.5 98.5002 225 102.5 224.5Z" fill="#669FBD"/>
<path d="M93.0002 224.5C93.0002 228.5 90.2002 232.7 85.0002 233.5C85.0002 228.5 89.0002 225 93.0002 224.5Z" fill="#669FBD"/>
<path d="M281 34H91.5002" stroke="#669FBD"/>
<path d="M226 34C226 30 223.2 25.8 218 25C218 30 222 33.5 226 34Z" fill="#669FBD"/>
<path d="M216.5 34C216.5 30 213.7 25.8 208.5 25C208.5 30 212.5 33.5 216.5 34Z" fill="#669FBD"/>
<path d="M207 34C207 30 204.2 25.8 199 25C199 30 203 33.5 207 34Z" fill="#669FBD"/>
<path d="M197.5 34C197.5 30 194.7 25.8 189.5 25C189.5 30 193.5 33.5 197.5 34Z" fill="#669FBD"/>
<path d="M188 34C188 30 185.2 25.8 180 25C180 30 184 33.5 188 34Z" fill="#669FBD"/>
<path d="M178.5 34C178.5 30 175.7 25.8 170.5 25C170.5 30 174.5 33.5 178.5 34Z" fill="#669FBD"/>
<path d="M169 34C169 30 166.2 25.8 161 25C161 30 165 33.5 169 34Z" fill="#669FBD"/>
<path d="M159.5 34C159.5 30 156.7 25.8 151.5 25C151.5 30 155.5 33.5 159.5 34Z" fill="#669FBD"/>
<path d="M150 34C150 30 147.2 25.8 142 25C142 30 146 33.5 150 34Z" fill="#669FBD"/>
<path d="M140.5 34C140.5 30 137.7 25.8 132.5 25C132.5 30 136.5 33.5 140.5 34Z" fill="#669FBD"/>
<path d="M131 34C131 30 128.2 25.8 123 25C123 30 127 33.5 131 34Z" fill="#669FBD"/>
<path d="M121.5 34C121.5 30 118.7 25.8 113.5 25C113.5 30 117.5 33.5 121.5 34Z" fill="#669FBD"/>
<path d="M112 34C112 30 109.2 25.8 104 25C104 30 108 33.5 112 34Z" fill="#669FBD"/>
<path d="M102.5 34C102.5 30 99.7002 25.8 94.5002 25C94.5002 30 98.5002 33.5 102.5 34Z" fill="#669FBD"/>
<path d="M93.0002 34C93.0002 30 90.2002 25.8 85.0002 25C85.0002 30 89.0002 33.5 93.0002 34Z" fill="#669FBD"/>
<path d="M93.5002 34C89.5101 30.4651 82.3936 29.5198 77.0002 34C82.0002 38.5 90.0002 37.5 93.5002 34Z" fill="#669FBD"/>
<path d="M226 34.5C226 38.5 223.2 42.7 218 43.5C218 38.5 222 35 226 34.5Z" fill="#669FBD"/>
<path d="M216.5 34.5C216.5 38.5 213.7 42.7 208.5 43.5C208.5 38.5 212.5 35 216.5 34.5Z" fill="#669FBD"/>
<path d="M207 34.5C207 38.5 204.2 42.7 199 43.5C199 38.5 203 35 207 34.5Z" fill="#669FBD"/>
<path d="M197.5 34.5C197.5 38.5 194.7 42.7 189.5 43.5C189.5 38.5 193.5 35 197.5 34.5Z" fill="#669FBD"/>
<path d="M188 34.5C188 38.5 185.2 42.7 180 43.5C180 38.5 184 35 188 34.5Z" fill="#669FBD"/>
<path d="M178.5 34.5C178.5 38.5 175.7 42.7 170.5 43.5C170.5 38.5 174.5 35 178.5 34.5Z" fill="#669FBD"/>
<path d="M169 34.5C169 38.5 166.2 42.7 161 43.5C161 38.5 165 35 169 34.5Z" fill="#669FBD"/>
<path d="M159.5 34.5C159.5 38.5 156.7 42.7 151.5 43.5C151.5 38.5 155.5 35 159.5 34.5Z" fill="#669FBD"/>
<path d="M150 34.5C150 38.5 147.2 42.7 142 43.5C142 38.5 146 35 150 34.5Z" fill="#669FBD"/>
<path d="M140.5 34.5C140.5 38.5 137.7 42.7 132.5 43.5C132.5 38.5 136.5 35 140.5 34.5Z" fill="#669FBD"/>
<path d="M131 34.5C131 38.5 128.2 42.7 123 43.5C123 38.5 127 35 131 34.5Z" fill="#669FBD"/>
<path d="M121.5 34.5C121.5 38.5 118.7 42.7 113.5 43.5C113.5 38.5 117.5 35 121.5 34.5Z" fill="#669FBD"/>
<path d="M112 34.5C112 38.5 109.2 42.7 104 43.5C104 38.5 108 35 112 34.5Z" fill="#669FBD"/>
<path d="M102.5 34.5C102.5 38.5 99.7002 42.7 94.5002 43.5C94.5002 38.5 98.5002 35 102.5 34.5Z" fill="#669FBD"/>
<path d="M93.0002 34.5C93.0002 38.5 90.2002 42.7 85.0002 43.5C85.0002 38.5 89.0002 35 93.0002 34.5Z" fill="#669FBD"/>
<path d="M466 224H536" stroke="#669FBD"/>
<path d="M487.5 224C487.5 220 490.3 215.8 495.5 215C495.5 220 491.5 223.5 487.5 224Z" fill="#669FBD"/>
<path d="M497 224C497 220 499.8 215.8 505 215C505 220 501 223.5 497 224Z" fill="#669FBD"/>
<path d="M506.5 224C506.5 220 509.3 215.8 514.5 215C514.5 220 510.5 223.5 506.5 224Z" fill="#669FBD"/>
<path d="M516 224C516 220 518.8 215.8 524 215C524 220 520 223.5 516 224Z" fill="#669FBD"/>
<path d="M525.5 224C525.5 220 528.3 215.8 533.5 215C533.5 220 529.5 223.5 525.5 224Z" fill="#669FBD"/>
<path d="M535 224C535 220 537.8 215.8 543 215C543 220 539 223.5 535 224Z" fill="#669FBD"/>
<path d="M534.5 224C538.49 220.465 545.606 219.52 551 224C546 228.5 538 227.5 534.5 224Z" fill="#669FBD"/>
<path d="M487.5 224.5C487.5 228.5 490.3 232.7 495.5 233.5C495.5 228.5 491.5 225 487.5 224.5Z" fill="#669FBD"/>
<path d="M497 224.5C497 228.5 499.8 232.7 505 233.5C505 228.5 501 225 497 224.5Z" fill="#669FBD"/>
<path d="M506.5 224.5C506.5 228.5 509.3 232.7 514.5 233.5C514.5 228.5 510.5 225 506.5 224.5Z" fill="#669FBD"/>
<path d="M516 224.5C516 228.5 518.8 232.7 524 233.5C524 228.5 520 225 516 224.5Z" fill="#669FBD"/>
<path d="M525.5 224.5C525.5 228.5 528.3 232.7 533.5 233.5C533.5 228.5 529.5 225 525.5 224.5Z" fill="#669FBD"/>
<path d="M535 224.5C535 228.5 537.8 232.7 543 233.5C543 228.5 539 225 535 224.5Z" fill="#669FBD"/>
<path d="M347 34H536.5" stroke="#669FBD"/>
<path d="M402 34C402 30 404.8 25.8 410 25C410 30 406 33.5 402 34Z" fill="#669FBD"/>
<path d="M411.5 34C411.5 30 414.3 25.8 419.5 25C419.5 30 415.5 33.5 411.5 34Z" fill="#669FBD"/>
<path d="M421 34C421 30 423.8 25.8 429 25C429 30 425 33.5 421 34Z" fill="#669FBD"/>
<path d="M430.5 34C430.5 30 433.3 25.8 438.5 25C438.5 30 434.5 33.5 430.5 34Z" fill="#669FBD"/>
<path d="M440 34C440 30 442.8 25.8 448 25C448 30 444 33.5 440 34Z" fill="#669FBD"/>
<path d="M449.5 34C449.5 30 452.3 25.8 457.5 25C457.5 30 453.5 33.5 449.5 34Z" fill="#669FBD"/>
<path d="M459 34C459 30 461.8 25.8 467 25C467 30 463 33.5 459 34Z" fill="#669FBD"/>
<path d="M468.5 34C468.5 30 471.3 25.8 476.5 25C476.5 30 472.5 33.5 468.5 34Z" fill="#669FBD"/>
<path d="M478 34C478 30 480.8 25.8 486 25C486 30 482 33.5 478 34Z" fill="#669FBD"/>
<path d="M487.5 34C487.5 30 490.3 25.8 495.5 25C495.5 30 491.5 33.5 487.5 34Z" fill="#669FBD"/>
<path d="M497 34C497 30 499.8 25.8 505 25C505 30 501 33.5 497 34Z" fill="#669FBD"/>
<path d="M506.5 34C506.5 30 509.3 25.8 514.5 25C514.5 30 510.5 33.5 506.5 34Z" fill="#669FBD"/>
<path d="M516 34C516 30 518.8 25.8 524 25C524 30 520 33.5 516 34Z" fill="#669FBD"/>
<path d="M525.5 34C525.5 30 528.3 25.8 533.5 25C533.5 30 529.5 33.5 525.5 34Z" fill="#669FBD"/>
<path d="M535 34C535 30 537.8 25.8 543 25C543 30 539 33.5 535 34Z" fill="#669FBD"/>
<path d="M534.5 34C538.49 30.4651 545.606 29.5198 551 34C546 38.5 538 37.5 534.5 34Z" fill="#669FBD"/>
<path d="M402 34.5C402 38.5 404.8 42.7 410 43.5C410 38.5 406 35 402 34.5Z" fill="#669FBD"/>
<path d="M411.5 34.5C411.5 38.5 414.3 42.7 419.5 43.5C419.5 38.5 415.5 35 411.5 34.5Z" fill="#669FBD"/>
<path d="M421 34.5C421 38.5 423.8 42.7 429 43.5C429 38.5 425 35 421 34.5Z" fill="#669FBD"/>
<path d="M430.5 34.5C430.5 38.5 433.3 42.7 438.5 43.5C438.5 38.5 434.5 35 430.5 34.5Z" fill="#669FBD"/>
<path d="M440 34.5C440 38.5 442.8 42.7 448 43.5C448 38.5 444 35 440 34.5Z" fill="#669FBD"/>
<path d="M449.5 34.5C449.5 38.5 452.3 42.7 457.5 43.5C457.5 38.5 453.5 35 449.5 34.5Z" fill="#669FBD"/>
<path d="M459 34.5C459 38.5 461.8 42.7 467 43.5C467 38.5 463 35 459 34.5Z" fill="#669FBD"/>
<path d="M468.5 34.5C468.5 38.5 471.3 42.7 476.5 43.5C476.5 38.5 472.5 35 468.5 34.5Z" fill="#669FBD"/>
<path d="M478 34.5C478 38.5 480.8 42.7 486 43.5C486 38.5 482 35 478 34.5Z" fill="#669FBD"/>
<path d="M487.5 34.5C487.5 38.5 490.3 42.7 495.5 43.5C495.5 38.5 491.5 35 487.5 34.5Z" fill="#669FBD"/>
<path d="M497 34.5C497 38.5 499.8 42.7 505 43.5C505 38.5 501 35 497 34.5Z" fill="#669FBD"/>
<path d="M506.5 34.5C506.5 38.5 509.3 42.7 514.5 43.5C514.5 38.5 510.5 35 506.5 34.5Z" fill="#669FBD"/>
<path d="M516 34.5C516 38.5 518.8 42.7 524 43.5C524 38.5 520 35 516 34.5Z" fill="#669FBD"/>
<path d="M525.5 34.5C525.5 38.5 528.3 42.7 533.5 43.5C533.5 38.5 529.5 35 525.5 34.5Z" fill="#669FBD"/>
<path d="M535 34.5C535 38.5 537.8 42.7 543 43.5C543 38.5 539 35 535 34.5Z" fill="#669FBD"/>
<path d="M39 229L23 222L43 214L58 222L39 229Z" fill="#669FBD" stroke="#314566"/>
<path d="M39 224L23 217L43 209L58 217L39 224Z" fill="#669FBD" stroke="#314566"/>
<path d="M39 219L23 212L43 204L58 212L39 219Z" fill="#669FBD" stroke="#314566"/>
<path d="M587 229L571 222L591 214L606 222L587 229Z" fill="#669FBD" stroke="#314566"/>
<path d="M587 224L571 217L591 209L606 217L587 224Z" fill="#669FBD" stroke="#314566"/>
<path d="M587 219L571 212L591 204L606 212L587 219Z" fill="#669FBD" stroke="#314566"/>
<path d="M39 29L23 36L43 44L58 36L39 29Z" fill="#669FBD" stroke="#314566"/>
<path d="M39 34L23 41L43 49L58 41L39 34Z" fill="#669FBD" stroke="#314566"/>
<path d="M39 39L23 46L43 54L58 46L39 39Z" fill="#669FBD" stroke="#314566"/>
<path d="M587 29L571 36L591 44L606 36L587 29Z" fill="#669FBD" stroke="#314566"/>
<path d="M587 34L571 41L591 49L606 41L587 34Z" fill="#669FBD" stroke="#314566"/>
<path d="M587 39L571 46L591 54L606 46L587 39Z" fill="#669FBD" stroke="#314566"/>
<path d="M36 85.4338L44.7273 85.4338L44.7273 88.3826C44.7273 89.0645 44.6108 89.6241 44.3778 90.0616C44.1477 90.4991 43.831 90.823 43.4276 91.0332C43.0241 91.2434 42.5653 91.3485 42.0511 91.3485C41.5369 91.3485 41.081 91.2434 40.6832 91.0332C40.2855 90.823 39.973 90.5005 39.7457 90.0659C39.5213 89.6312 39.4091 89.0758 39.4091 88.3997L39.4091 86.0133L40.3636 86.0133L40.3636 88.3656C40.3636 88.8315 40.4318 89.2065 40.5682 89.4906C40.7045 89.7775 40.8977 89.9849 41.1477 90.1127C41.4006 90.2434 41.7017 90.3088 42.0511 90.3088C42.4006 90.3088 42.706 90.2434 42.9673 90.1127C43.2287 89.9821 43.4304 89.7733 43.5724 89.4863C43.7173 89.1994 43.7898 88.8201 43.7898 88.3485L43.7898 86.4906L36 86.4906L36 85.4338ZM39.9205 89.5417L36 91.6895L36 90.4622L39.9205 88.3485L39.9205 89.5417ZM36 93.7096L44.7273 93.7096L44.7273 98.9766L43.7898 98.9766L43.7898 94.7664L40.8409 94.7664L40.8409 98.7039L39.9034 98.7039L39.9034 94.7664L36.9375 94.7664L36.9375 99.0448L36 99.0448L36 93.7096ZM36 101.481L44.7273 101.481L44.7273 106.714L43.7898 106.714L43.7898 102.538L40.8409 102.538L40.8409 106.322L39.9034 106.322L39.9034 102.538L36 102.538L36 101.481ZM36 109.124L44.7273 109.124L44.7273 110.181L36.9375 110.181L36.9375 114.238L36 114.238L36 109.124ZM36 116.474L44.7273 116.474L44.7273 121.741L43.7898 121.741L43.7898 117.531L40.8409 117.531L40.8409 121.469L39.9034 121.469L39.9034 117.531L36.9375 117.531L36.9375 121.81L36 121.81L36 116.474ZM42 131.269L42 130.212C42.304 130.15 42.571 130.04 42.8011 129.884C43.0312 129.731 43.2244 129.543 43.3807 129.322C43.5398 129.103 43.6591 128.86 43.7386 128.593C43.8182 128.326 43.858 128.047 43.858 127.758C43.858 127.229 43.7244 126.751 43.4574 126.322C43.1903 125.895 42.7969 125.556 42.277 125.303C41.7571 125.053 41.1193 124.928 40.3636 124.928C39.608 124.928 38.9702 125.053 38.4503 125.303C37.9304 125.556 37.5369 125.895 37.2699 126.322C37.0028 126.751 36.8693 127.229 36.8693 127.758C36.8693 128.047 36.9091 128.326 36.9886 128.593C37.0682 128.86 37.1861 129.103 37.3423 129.322C37.5014 129.543 37.696 129.731 37.9261 129.884C38.1591 130.04 38.4261 130.15 38.7273 130.212L38.7273 131.269C38.2812 131.189 37.8821 131.045 37.5298 130.834C37.1776 130.624 36.8778 130.363 36.6307 130.05C36.3864 129.738 36.2003 129.387 36.0724 128.998C35.9446 128.611 35.8807 128.198 35.8807 127.758C35.8807 127.013 36.0625 126.351 36.4261 125.772C36.7898 125.192 37.3068 124.736 37.9773 124.404C38.6477 124.072 39.4432 123.905 40.3636 123.905C41.2841 123.905 42.0795 124.072 42.75 124.404C43.4205 124.736 43.9375 125.192 44.3011 125.772C44.6648 126.351 44.8466 127.013 44.8466 127.758C44.8466 128.198 44.7827 128.611 44.6548 128.998C44.527 129.387 44.3395 129.738 44.0923 130.05C43.848 130.363 43.5497 130.624 43.1974 130.834C42.848 131.045 42.4489 131.189 42 131.269ZM43.7898 133.099L44.7273 133.099L44.7273 139.645L43.7898 139.645L43.7898 136.901L36 136.901L36 135.844L43.7898 135.844L43.7898 133.099ZM44.7273 142.933L36 142.933L36 141.876L44.7273 141.876L44.7273 142.933ZM40.3636 153.015C39.4432 153.015 38.6477 152.849 37.9773 152.517C37.3068 152.184 36.7898 151.728 36.4261 151.149C36.0625 150.569 35.8807 149.907 35.8807 149.163C35.8807 148.419 36.0625 147.757 36.4261 147.177C36.7898 146.598 37.3068 146.142 37.9773 145.809C38.6477 145.477 39.4432 145.311 40.3636 145.311C41.2841 145.311 42.0795 145.477 42.75 145.809C43.4205 146.142 43.9375 146.598 44.3011 147.177C44.6648 147.757 44.8466 148.419 44.8466 149.163C44.8466 149.907 44.6648 150.569 44.3011 151.149C43.9375 151.728 43.4205 152.184 42.75 152.517C42.0795 152.849 41.2841 153.015 40.3636 153.015ZM40.3636 151.993C41.1193 151.993 41.7571 151.866 42.277 151.613C42.7969 151.363 43.1903 151.024 43.4574 150.595C43.7244 150.169 43.858 149.692 43.858 149.163C43.858 148.635 43.7244 148.156 43.4574 147.727C43.1903 147.301 42.7969 146.961 42.277 146.709C41.7571 146.459 41.1193 146.334 40.3636 146.334C39.608 146.334 38.9702 146.459 38.4503 146.709C37.9304 146.961 37.5369 147.301 37.2699 147.727C37.0028 148.156 36.8693 148.635 36.8693 149.163C36.8693 149.692 37.0028 150.169 37.2699 150.595C37.5369 151.024 37.9304 151.363 38.4503 151.613C38.9702 151.866 39.608 151.993 40.3636 151.993ZM44.7273 162.313L36 162.313L36 161.29L42.8523 156.534L42.8523 156.449L36 156.449L36 155.392L44.7273 155.392L44.7273 156.415L37.858 161.188L37.858 161.273L44.7273 161.273L44.7273 162.313ZM42.5455 169.8C42.9773 169.749 43.3125 169.542 43.5511 169.178C43.7898 168.814 43.9091 168.368 43.9091 167.84C43.9091 167.454 43.8466 167.116 43.7216 166.826C43.5966 166.539 43.4247 166.314 43.206 166.153C42.9872 165.993 42.7386 165.914 42.4602 165.914C42.2273 165.914 42.027 165.969 41.8594 166.08C41.6946 166.194 41.5568 166.339 41.446 166.515C41.3381 166.691 41.2486 166.876 41.1776 167.069C41.1094 167.262 41.054 167.439 41.0114 167.601L40.7727 168.488C40.7131 168.715 40.6307 168.968 40.5256 169.246C40.4205 169.528 40.277 169.796 40.0952 170.052C39.9162 170.31 39.6861 170.523 39.4048 170.691C39.1236 170.858 38.7784 170.942 38.3693 170.942C37.8977 170.942 37.4716 170.819 37.0909 170.572C36.7102 170.327 36.4077 169.969 36.1832 169.498C35.9588 169.029 35.8466 168.459 35.8466 167.789C35.8466 167.164 35.9474 166.623 36.1491 166.165C36.3508 165.711 36.6321 165.353 36.9929 165.091C37.3537 164.833 37.7727 164.687 38.25 164.653L38.25 165.743C37.9205 165.772 37.6477 165.883 37.4318 166.076C37.2187 166.272 37.0597 166.519 36.9545 166.817C36.8523 167.118 36.8011 167.442 36.8011 167.789C36.8011 168.192 36.8665 168.555 36.9972 168.876C37.1307 169.197 37.3153 169.451 37.5511 169.638C37.7898 169.826 38.0682 169.92 38.3864 169.92C38.6761 169.92 38.9119 169.839 39.0937 169.677C39.2756 169.515 39.4233 169.302 39.5369 169.037C39.6506 168.773 39.75 168.488 39.8352 168.181L40.142 167.107C40.3381 166.425 40.6179 165.885 40.9815 165.488C41.3452 165.09 41.821 164.891 42.4091 164.891C42.8977 164.891 43.3239 165.023 43.6875 165.287C44.054 165.555 44.3381 165.912 44.5398 166.361C44.7443 166.813 44.8466 167.317 44.8466 167.874C44.8466 168.437 44.7457 168.937 44.544 169.374C44.3452 169.812 44.0724 170.158 43.7258 170.414C43.3793 170.672 42.9858 170.809 42.5455 170.823L42.5455 169.8Z" fill="#669FBD"/>
<path d="M593 159.662L584.273 159.662L584.273 154.394L585.21 154.394L585.21 158.605L588.159 158.605L588.159 154.667L589.097 154.667L589.097 158.605L592.062 158.605L592.062 154.326L593 154.326L593 159.662ZM586.455 147.117C586.023 147.168 585.687 147.375 585.449 147.739C585.21 148.103 585.091 148.549 585.091 149.077C585.091 149.464 585.153 149.802 585.278 150.091C585.403 150.378 585.575 150.603 585.794 150.765C586.013 150.924 586.261 151.003 586.54 151.003C586.773 151.003 586.973 150.948 587.141 150.837C587.305 150.723 587.443 150.579 587.554 150.402C587.662 150.226 587.751 150.042 587.822 149.848C587.891 149.655 587.946 149.478 587.989 149.316L588.227 148.429C588.287 148.202 588.369 147.949 588.474 147.671C588.58 147.39 588.723 147.121 588.905 146.866C589.084 146.607 589.314 146.394 589.595 146.226C589.876 146.059 590.222 145.975 590.631 145.975C591.102 145.975 591.528 146.098 591.909 146.346C592.29 146.59 592.592 146.948 592.817 147.419C593.041 147.888 593.153 148.458 593.153 149.128C593.153 149.753 593.053 150.294 592.851 150.752C592.649 151.206 592.368 151.564 592.007 151.826C591.646 152.084 591.227 152.231 590.75 152.265L590.75 151.174C591.08 151.145 591.352 151.035 591.568 150.841C591.781 150.645 591.94 150.398 592.045 150.1C592.148 149.799 592.199 149.475 592.199 149.128C592.199 148.725 592.134 148.363 592.003 148.042C591.869 147.721 591.685 147.466 591.449 147.279C591.21 147.091 590.932 146.998 590.614 146.998C590.324 146.998 590.088 147.079 589.906 147.241C589.724 147.402 589.577 147.616 589.463 147.88C589.349 148.144 589.25 148.429 589.165 148.736L588.858 149.81C588.662 150.492 588.382 151.032 588.018 151.429C587.655 151.827 587.179 152.026 586.591 152.026C586.102 152.026 585.676 151.894 585.312 151.63C584.946 151.363 584.662 151.005 584.46 150.556C584.256 150.104 584.153 149.6 584.153 149.043C584.153 148.481 584.254 147.981 584.456 147.543C584.655 147.106 584.928 146.759 585.274 146.503C585.621 146.245 586.014 146.108 586.455 146.094L586.455 147.117ZM585.21 144.115L584.273 144.115L584.273 137.569L585.21 137.569L585.21 140.313L593 140.313L593 141.37L585.21 141.37L585.21 144.115ZM593.068 135.152C593.068 135.362 592.993 135.542 592.842 135.693C592.692 135.843 592.511 135.919 592.301 135.919C592.091 135.919 591.911 135.843 591.76 135.693C591.609 135.542 591.534 135.362 591.534 135.152C591.534 134.941 591.609 134.761 591.76 134.61C591.911 134.46 592.091 134.385 592.301 134.385C592.44 134.385 592.568 134.42 592.685 134.491C592.801 134.559 592.895 134.652 592.966 134.768C593.034 134.882 593.068 135.01 593.068 135.152ZM593 128.022L592.233 128.022L589.08 125.141C588.71 124.803 588.389 124.525 588.116 124.306C587.841 124.087 587.582 123.925 587.341 123.82C587.097 123.712 586.841 123.658 586.574 123.658C586.267 123.658 586.001 123.732 585.777 123.88C585.553 124.025 585.379 124.224 585.257 124.477C585.135 124.729 585.074 125.013 585.074 125.329C585.074 125.664 585.143 125.957 585.283 126.207C585.419 126.454 585.611 126.646 585.858 126.782C586.105 126.915 586.395 126.982 586.727 126.982L586.727 127.988C586.216 127.988 585.767 127.87 585.381 127.634C584.994 127.398 584.693 127.077 584.477 126.671C584.261 126.262 584.153 125.803 584.153 125.295C584.153 124.783 584.261 124.33 584.477 123.935C584.693 123.54 584.984 123.231 585.351 123.006C585.717 122.782 586.125 122.67 586.574 122.67C586.895 122.67 587.209 122.728 587.516 122.844C587.82 122.958 588.159 123.157 588.534 123.441C588.906 123.722 589.361 124.113 589.898 124.613L591.994 126.573L592.062 126.573L592.062 122.516L593 122.516L593 128.022ZM593.119 117.31C593.119 117.952 592.945 118.499 592.595 118.95C592.243 119.402 591.733 119.747 591.065 119.986C590.395 120.225 589.585 120.344 588.636 120.344C587.693 120.344 586.888 120.225 586.22 119.986C585.55 119.744 585.038 119.398 584.686 118.946C584.331 118.492 584.153 117.946 584.153 117.31C584.153 116.673 584.331 116.129 584.686 115.678C585.038 115.223 585.55 114.877 586.22 114.638C586.888 114.396 587.693 114.276 588.636 114.276C589.585 114.276 590.395 114.395 591.065 114.634C591.733 114.872 592.243 115.217 592.595 115.669C592.945 116.121 593.119 116.668 593.119 117.31ZM592.182 117.31C592.182 116.673 591.875 116.179 591.261 115.827C590.648 115.475 589.773 115.298 588.636 115.298C587.881 115.298 587.237 115.379 586.706 115.541C586.175 115.7 585.77 115.931 585.491 116.232C585.213 116.53 585.074 116.889 585.074 117.31C585.074 117.94 585.385 118.433 586.007 118.788C586.626 119.144 587.503 119.321 588.636 119.321C589.392 119.321 590.034 119.242 590.562 119.082C591.091 118.923 591.493 118.695 591.768 118.396C592.044 118.095 592.182 117.733 592.182 117.31ZM593.119 109.21C593.119 109.852 592.945 110.399 592.595 110.85C592.243 111.302 591.733 111.647 591.065 111.886C590.395 112.125 589.585 112.244 588.636 112.244C587.693 112.244 586.888 112.125 586.22 111.886C585.55 111.644 585.038 111.298 584.686 110.846C584.331 110.392 584.153 109.846 584.153 109.21C584.153 108.573 584.331 108.029 584.686 107.578C585.038 107.123 585.55 106.777 586.22 106.538C586.888 106.296 587.693 106.176 588.636 106.176C589.585 106.176 590.395 106.295 591.065 106.534C591.733 106.772 592.243 107.117 592.595 107.569C592.945 108.021 593.119 108.568 593.119 109.21ZM592.182 109.21C592.182 108.573 591.875 108.079 591.261 107.727C590.648 107.375 589.773 107.198 588.636 107.198C587.881 107.198 587.237 107.279 586.706 107.441C586.175 107.6 585.77 107.831 585.491 108.132C585.213 108.43 585.074 108.789 585.074 109.21C585.074 109.84 585.385 110.333 586.007 110.688C586.626 111.044 587.503 111.221 588.636 111.221C589.392 111.221 590.034 111.142 590.562 110.982C591.091 110.823 591.493 110.595 591.768 110.296C592.044 109.995 592.182 109.633 592.182 109.21ZM584.273 100.888L593 100.888L593 101.945L585.381 101.945L585.381 101.996L586.795 104.127L585.722 104.127L584.273 101.945L584.273 100.888Z" fill="#669FBD"/>
<path d="M254.848 40.1211H255.209C255.645 40.1211 255.964 40.0755 256.166 39.9844C256.368 39.8867 256.518 39.7174 256.615 39.4766C256.68 39.2943 256.726 38.8516 256.752 38.1484C256.778 37.4453 256.791 36.1432 256.791 34.2422V28.6562H255.111C254.089 28.6562 253.389 28.7995 253.012 29.0859C252.634 29.3724 252.374 29.9225 252.23 30.7363L251.312 30.541C251.462 29.8965 251.576 29.2812 251.654 28.6953C251.739 28.1029 251.791 27.5202 251.811 26.9473C252.058 27.0319 252.406 27.0938 252.855 27.1328C253.305 27.1654 254.063 27.1816 255.131 27.1816H257.289H258.51H260.99C262.188 27.1816 263.021 27.1654 263.49 27.1328C263.965 27.0938 264.314 27.0286 264.535 26.9375V27.2402C264.535 27.748 264.555 28.2754 264.594 28.8223C264.639 29.3626 264.704 29.9355 264.789 30.541L263.91 30.6777C263.799 29.8835 263.575 29.3496 263.236 29.0762C262.898 28.7962 262.23 28.6562 261.234 28.6562H260.99H259.516C259.496 29.6979 259.483 30.7233 259.477 31.7324C259.47 32.7415 259.467 33.9167 259.467 35.2578V37.084C259.467 37.9434 259.486 38.5456 259.525 38.8906C259.564 39.2357 259.626 39.4928 259.711 39.6621C259.809 39.8249 259.962 39.9421 260.17 40.0137C260.378 40.0853 260.671 40.1211 261.049 40.1211H261.391V41C261.228 40.9935 260.987 40.9837 260.668 40.9707C259.392 40.9121 258.52 40.8828 258.051 40.8828C257.712 40.8828 257.276 40.8926 256.742 40.9121C256.215 40.9316 255.583 40.9609 254.848 41V40.1211ZM266.902 27.0645C267.091 27.071 267.365 27.084 267.723 27.1035C268.725 27.1556 269.406 27.1816 269.764 27.1816C270.213 27.1816 271.02 27.1523 272.186 27.0938C272.446 27.0807 272.645 27.071 272.781 27.0645V27.9434H272.557C271.997 27.9434 271.616 28.0801 271.414 28.3535C271.219 28.627 271.121 29.3561 271.121 30.541V30.9805V33.1191C271.668 33.1387 272.208 33.1549 272.742 33.168C273.276 33.1745 273.803 33.1777 274.324 33.1777C274.812 33.1777 275.363 33.1745 275.975 33.168C276.587 33.1549 277.26 33.1387 277.996 33.1191V30.541C277.996 29.3561 277.898 28.627 277.703 28.3535C277.508 28.0801 277.127 27.9434 276.561 27.9434H276.336V27.0645C276.961 27.1035 277.524 27.1328 278.025 27.1523C278.527 27.1719 278.973 27.1816 279.363 27.1816C279.721 27.1816 280.402 27.1556 281.404 27.1035C281.756 27.084 282.029 27.071 282.225 27.0645V27.9336C282.186 27.9336 282.14 27.9336 282.088 27.9336C282.042 27.9271 281.98 27.9238 281.902 27.9238C281.388 27.9238 281.04 28.0931 280.857 28.4316C280.675 28.7637 280.584 29.5059 280.584 30.6582C280.584 30.8535 280.587 31.2051 280.594 31.7129C280.6 32.2207 280.604 32.6374 280.604 32.9629V35.0234C280.604 35.4141 280.6 35.9056 280.594 36.498C280.587 37.084 280.584 37.4779 280.584 37.6797C280.584 38.7018 280.678 39.3691 280.867 39.6816C281.056 39.9876 281.414 40.1406 281.941 40.1406C282.039 40.1406 282.111 40.1406 282.156 40.1406C282.208 40.1341 282.254 40.1276 282.293 40.1211V41C282.072 40.987 281.759 40.9707 281.355 40.9512C280.346 40.9056 279.676 40.8828 279.344 40.8828C278.973 40.8828 278.527 40.8926 278.006 40.9121C277.485 40.9316 276.889 40.9609 276.219 41V40.1211C276.271 40.1211 276.336 40.1243 276.414 40.1309C276.492 40.1374 276.548 40.1406 276.58 40.1406C277.14 40.1406 277.514 39.9941 277.703 39.7012C277.898 39.4082 277.996 38.653 277.996 37.4355V36.7031V34.623C277.339 34.61 276.733 34.6003 276.18 34.5938C275.626 34.5872 275.079 34.584 274.539 34.584C273.615 34.584 272.915 34.5872 272.439 34.5938C271.971 34.6003 271.531 34.61 271.121 34.623V37.4355C271.121 38.653 271.215 39.4082 271.404 39.7012C271.6 39.9941 271.977 40.1406 272.537 40.1406C272.57 40.1406 272.625 40.1374 272.703 40.1309C272.788 40.1243 272.853 40.1211 272.898 40.1211V41C272.221 40.9609 271.622 40.9316 271.102 40.9121C270.581 40.8926 270.141 40.8828 269.783 40.8828C269.445 40.8828 268.774 40.9056 267.771 40.9512C267.368 40.9707 267.052 40.987 266.824 41V40.1211C266.87 40.1276 266.919 40.1341 266.971 40.1406C267.023 40.1406 267.101 40.1406 267.205 40.1406C267.726 40.1406 268.077 39.9714 268.26 39.6328C268.449 39.2878 268.543 38.5488 268.543 37.416C268.543 37.2207 268.54 36.8594 268.533 36.332C268.527 35.8047 268.523 35.375 268.523 35.043V32.9629C268.523 32.5983 268.527 32.1361 268.533 31.5762C268.54 31.0163 268.543 30.6387 268.543 30.4434C268.543 29.4017 268.449 28.7214 268.26 28.4023C268.071 28.0833 267.726 27.9238 267.225 27.9238C267.14 27.9238 267.075 27.9271 267.029 27.9336C266.984 27.9336 266.941 27.9336 266.902 27.9336V27.0645ZM284.895 27.0449C286.001 27.0905 287.023 27.1263 287.961 27.1523C288.898 27.1719 289.722 27.1816 290.432 27.1816C291.623 27.1816 292.629 27.1719 293.449 27.1523C294.276 27.1263 295.044 27.0905 295.754 27.0449C295.767 27.6113 295.793 28.1712 295.832 28.7246C295.871 29.2715 295.926 29.8249 295.998 30.3848L295.119 30.502C295.028 29.6882 294.758 29.138 294.309 28.8516C293.866 28.5651 292.974 28.4219 291.633 28.4219C291.392 28.4219 291.07 28.4284 290.666 28.4414C290.269 28.4479 289.781 28.4609 289.201 28.4805C289.188 29.3398 289.175 30.1634 289.162 30.9512C289.156 31.7389 289.146 32.4941 289.133 33.2168H289.416C289.794 33.2168 290.262 33.2201 290.822 33.2266C291.389 33.2331 291.766 33.2363 291.955 33.2363C292.854 33.2363 293.443 33.1484 293.723 32.9727C294.003 32.7969 294.152 32.4616 294.172 31.9668L294.895 32.0352C294.895 32.3607 294.885 32.7708 294.865 33.2656C294.846 33.7539 294.836 34.0859 294.836 34.2617C294.836 34.4375 294.839 34.6621 294.846 34.9355C294.859 35.209 294.875 35.5378 294.895 35.9219L294.074 35.9805V35.8633C294.074 35.3034 293.911 34.9258 293.586 34.7305C293.267 34.5352 292.508 34.4375 291.311 34.4375H289.855H289.113V35.5605C289.113 36.14 289.117 36.7357 289.123 37.3477C289.13 37.9531 289.139 38.6758 289.152 39.5156C289.445 39.5547 289.81 39.5872 290.246 39.6133C290.689 39.6328 291.171 39.6426 291.691 39.6426C293.247 39.6426 294.283 39.4798 294.797 39.1543C295.318 38.8288 295.738 38.2038 296.057 37.2793L296.955 37.5625C296.74 38.1875 296.555 38.7832 296.398 39.3496C296.249 39.916 296.122 40.4661 296.018 41C294.481 40.9479 293.257 40.9121 292.346 40.8926C291.434 40.873 290.624 40.8633 289.914 40.8633C289.113 40.8633 287.834 40.8926 286.076 40.9512C285.471 40.9707 285.012 40.987 284.699 41V40.1406C284.738 40.1471 284.781 40.1536 284.826 40.1602C284.878 40.1602 284.953 40.1602 285.051 40.1602C285.598 40.1602 285.969 39.9941 286.164 39.6621C286.359 39.3236 286.457 38.4414 286.457 37.0156V36.0391V35.1406L286.477 32.9629C286.477 32.8652 286.48 32.7188 286.486 32.5234C286.506 31.7227 286.516 31.1758 286.516 30.8828C286.516 30.5898 286.512 30.2839 286.506 29.9648C286.499 29.6458 286.496 29.4701 286.496 29.4375C286.496 28.8711 286.392 28.4772 286.184 28.2559C285.982 28.0345 285.627 27.9238 285.119 27.9238H284.895V27.0449ZM305.586 27.0645C305.807 27.071 306.117 27.084 306.514 27.1035C307.536 27.1556 308.219 27.1816 308.564 27.1816C309.02 27.1816 309.86 27.1523 311.084 27.0938C311.396 27.0807 311.637 27.071 311.807 27.0645V27.9141C311.195 27.9271 310.794 27.9922 310.605 28.1094C310.423 28.2266 310.332 28.4512 310.332 28.7832C310.332 28.9069 310.355 29.0632 310.4 29.252C310.446 29.4408 310.534 29.7305 310.664 30.1211L313.496 38.0703L313.555 37.9141C315.801 32.3151 316.924 29.252 316.924 28.7246C316.924 28.4186 316.829 28.207 316.641 28.0898C316.452 27.9727 316.068 27.9076 315.488 27.8945V27.0645C315.592 27.071 315.745 27.0775 315.947 27.084C316.943 27.1491 317.643 27.1816 318.047 27.1816C318.372 27.1816 319.004 27.1523 319.941 27.0938C320.228 27.0807 320.449 27.071 320.605 27.0645V27.9434C320.352 27.9434 320.127 27.9629 319.932 28.002C319.743 28.041 319.583 28.0996 319.453 28.1777C319.206 28.334 318.779 29.138 318.174 30.5898C317.92 31.1953 317.718 31.6706 317.568 32.0156C316.221 35.1667 315.26 37.4453 314.688 38.8516C314.115 40.2513 313.828 41.0195 313.828 41.1562H311.826C311.826 40.9935 311.452 39.8607 310.703 37.7578C309.961 35.6549 309.082 33.321 308.066 30.7559C308.014 30.6191 307.936 30.4238 307.832 30.1699C307.233 28.6465 306.566 27.8848 305.83 27.8848C305.804 27.8848 305.762 27.888 305.703 27.8945C305.651 27.901 305.612 27.9043 305.586 27.9043V27.0645ZM326.83 29.3398L324.701 34.7402C324.949 34.7467 325.209 34.7533 325.482 34.7598C325.762 34.7598 326.133 34.7598 326.596 34.7598C327.13 34.7598 327.546 34.7598 327.846 34.7598C328.145 34.7533 328.425 34.7467 328.686 34.7402L326.83 29.3398ZM326.293 26.9961H328.676C329.613 29.7435 330.505 32.2695 331.352 34.5742C332.204 36.8724 332.8 38.4023 333.139 39.1641C333.282 39.5091 333.461 39.7565 333.676 39.9062C333.897 40.0495 334.19 40.1211 334.555 40.1211H334.77V41C333.943 40.9609 333.308 40.9349 332.865 40.9219C332.423 40.9089 332.051 40.9023 331.752 40.9023C331.465 40.9023 331.094 40.9089 330.639 40.9219C330.183 40.9349 329.522 40.9609 328.656 41V40.1211H328.832C329.346 40.1211 329.695 40.0625 329.877 39.9453C330.059 39.8281 330.15 39.6198 330.15 39.3203C330.15 39.2292 330.137 39.1217 330.111 38.998C330.092 38.8743 330.046 38.7018 329.975 38.4805L329.174 36.1172C328.803 36.1107 328.314 36.1042 327.709 36.0977C327.104 36.0846 326.726 36.0781 326.576 36.0781C326.296 36.0781 325.733 36.0879 324.887 36.1074C324.581 36.1139 324.343 36.1172 324.174 36.1172L324.135 36.2148C323.497 37.7708 323.178 38.7539 323.178 39.1641C323.178 39.5026 323.272 39.7467 323.461 39.8965C323.656 40.0462 323.975 40.1211 324.418 40.1211H324.594V41C323.852 40.9609 323.275 40.9349 322.865 40.9219C322.455 40.9089 322.117 40.9023 321.85 40.9023C321.628 40.9023 321.335 40.9089 320.971 40.9219C320.613 40.9349 320.089 40.9609 319.398 41V40.1211C319.867 40.1211 320.242 40.0397 320.521 39.877C320.801 39.7142 321.039 39.4408 321.234 39.0566C321.514 38.5488 322.146 37.1296 323.129 34.7988C324.112 32.4681 325.167 29.8672 326.293 26.9961ZM341.863 27.0645V27.9434C341.824 27.9434 341.769 27.9401 341.697 27.9336C341.626 27.9271 341.574 27.9238 341.541 27.9238C340.988 27.9238 340.613 28.0866 340.418 28.4121C340.223 28.7311 340.125 29.5482 340.125 30.8633V31.6445V33.0996C340.125 34.4147 340.148 35.349 340.193 35.9023C340.239 36.4492 340.317 36.8822 340.428 37.2012C340.675 37.9759 341.111 38.5716 341.736 38.9883C342.361 39.3984 343.13 39.6035 344.041 39.6035C344.79 39.6035 345.428 39.4798 345.955 39.2324C346.482 38.9785 346.912 38.5944 347.244 38.0801C347.465 37.735 347.622 37.2858 347.713 36.7324C347.811 36.1725 347.859 35.3424 347.859 34.2422C347.859 34.0339 347.856 33.6888 347.85 33.207C347.843 32.7188 347.84 32.3379 347.84 32.0645V31.0391C347.84 29.6654 347.742 28.8027 347.547 28.4512C347.352 28.0996 346.977 27.9238 346.424 27.9238C346.339 27.9238 346.274 27.9271 346.229 27.9336C346.183 27.9336 346.141 27.9336 346.102 27.9336V27.0645C346.707 27.097 347.208 27.123 347.605 27.1426C348.009 27.1556 348.354 27.1621 348.641 27.1621C348.908 27.1621 349.23 27.1556 349.607 27.1426C349.992 27.123 350.49 27.097 351.102 27.0645V27.9434H350.945C350.555 27.9434 350.265 27.9889 350.076 28.0801C349.887 28.1647 349.751 28.3177 349.666 28.5391C349.542 28.8646 349.464 30.2806 349.432 32.7871C349.432 33.1452 349.428 33.4219 349.422 33.6172C349.422 33.7409 349.422 33.9199 349.422 34.1543C349.409 36.3809 349.168 37.9108 348.699 38.7441C348.23 39.5775 347.54 40.222 346.629 40.6777C345.717 41.1335 344.656 41.3613 343.445 41.3613C342.332 41.3613 341.342 41.179 340.477 40.8145C339.617 40.4434 338.94 39.9193 338.445 39.2422C338.074 38.7344 337.811 38.1484 337.654 37.4844C337.498 36.8203 337.42 35.8307 337.42 34.5156C337.42 34.1641 337.43 33.5391 337.449 32.6406C337.469 31.7422 337.479 31.0228 337.479 30.4824C337.479 29.3431 337.384 28.6367 337.195 28.3633C337.013 28.0833 336.648 27.9434 336.102 27.9434H335.867V27.0645C336.603 27.097 337.199 27.123 337.654 27.1426C338.117 27.1556 338.514 27.1621 338.846 27.1621C339.152 27.1621 339.536 27.1556 339.998 27.1426C340.46 27.123 341.082 27.097 341.863 27.0645ZM353.566 27.0645C354.12 27.097 354.641 27.123 355.129 27.1426C355.624 27.1556 356.063 27.1621 356.447 27.1621C356.844 27.1621 357.287 27.1556 357.775 27.1426C358.27 27.123 358.84 27.097 359.484 27.0645V27.9434C359.445 27.9434 359.39 27.9401 359.318 27.9336C359.247 27.9271 359.198 27.9238 359.172 27.9238C358.625 27.9238 358.254 28.0866 358.059 28.4121C357.863 28.7376 357.766 29.4733 357.766 30.6191C357.766 30.7884 357.769 31.0944 357.775 31.5371C357.782 31.9798 357.785 32.3411 357.785 32.6211L357.805 39.4766L357.863 39.4863C358.703 39.5384 359.338 39.5645 359.768 39.5645C361.402 39.5645 362.473 39.3952 362.98 39.0566C363.488 38.7181 363.905 38.0736 364.23 37.123L365.129 37.3965C364.927 37.9889 364.745 38.5846 364.582 39.1836C364.426 39.7826 364.289 40.388 364.172 41C363.02 40.9609 361.949 40.9316 360.959 40.9121C359.969 40.8926 359.064 40.8828 358.244 40.8828C357.43 40.8828 356.61 40.8926 355.783 40.9121C354.963 40.9316 354.146 40.9609 353.332 41V40.1406H353.605C353.957 40.1406 354.227 40.1048 354.416 40.0332C354.605 39.9616 354.742 39.8444 354.826 39.6816C355.008 39.3236 355.106 37.9857 355.119 35.668C355.126 35.3685 355.129 35.1406 355.129 34.9844L355.148 32.8555C355.148 32.569 355.152 32.1947 355.158 31.7324C355.165 31.2637 355.168 30.9382 355.168 30.7559C355.168 29.584 355.07 28.819 354.875 28.4609C354.686 28.1029 354.325 27.9238 353.791 27.9238H353.566V27.0645ZM368.355 40.1211H368.717C369.153 40.1211 369.472 40.0755 369.674 39.9844C369.876 39.8867 370.025 39.7174 370.123 39.4766C370.188 39.2943 370.234 38.8516 370.26 38.1484C370.286 37.4453 370.299 36.1432 370.299 34.2422V28.6562H368.619C367.597 28.6562 366.897 28.7995 366.52 29.0859C366.142 29.3724 365.882 29.9225 365.738 30.7363L364.82 30.541C364.97 29.8965 365.084 29.2812 365.162 28.6953C365.247 28.1029 365.299 27.5202 365.318 26.9473C365.566 27.0319 365.914 27.0938 366.363 27.1328C366.812 27.1654 367.571 27.1816 368.639 27.1816H370.797H372.018H374.498C375.696 27.1816 376.529 27.1654 376.998 27.1328C377.473 27.0938 377.822 27.0286 378.043 26.9375V27.2402C378.043 27.748 378.062 28.2754 378.102 28.8223C378.147 29.3626 378.212 29.9355 378.297 30.541L377.418 30.6777C377.307 29.8835 377.083 29.3496 376.744 29.0762C376.406 28.7962 375.738 28.6562 374.742 28.6562H374.498H373.023C373.004 29.6979 372.991 30.7233 372.984 31.7324C372.978 32.7415 372.975 33.9167 372.975 35.2578V37.084C372.975 37.9434 372.994 38.5456 373.033 38.8906C373.072 39.2357 373.134 39.4928 373.219 39.6621C373.316 39.8249 373.469 39.9421 373.678 40.0137C373.886 40.0853 374.179 40.1211 374.557 40.1211H374.898V41C374.736 40.9935 374.495 40.9837 374.176 40.9707C372.9 40.9121 372.027 40.8828 371.559 40.8828C371.22 40.8828 370.784 40.8926 370.25 40.9121C369.723 40.9316 369.091 40.9609 368.355 41V40.1211Z" fill="#314566"/>
<path d="M229.798 227.045H231.053L232.106 228.43L232.383 228.8L233.953 230.886H232.697L231.663 229.501L231.404 229.151L229.798 227.045ZM234.34 225.273C234.34 226.27 234.16 227.132 233.8 227.858C233.44 228.584 232.946 229.144 232.318 229.538C231.69 229.932 230.973 230.129 230.167 230.129C229.361 230.129 228.644 229.932 228.016 229.538C227.388 229.144 226.894 228.584 226.534 227.858C226.174 227.132 225.994 226.27 225.994 225.273C225.994 224.276 226.174 223.414 226.534 222.688C226.894 221.961 227.388 221.401 228.016 221.007C228.644 220.613 229.361 220.416 230.167 220.416C230.973 220.416 231.69 220.613 232.318 221.007C232.946 221.401 233.44 221.961 233.8 222.688C234.16 223.414 234.34 224.276 234.34 225.273ZM233.232 225.273C233.232 224.454 233.095 223.763 232.822 223.2C232.551 222.637 232.183 222.21 231.718 221.921C231.257 221.632 230.739 221.487 230.167 221.487C229.595 221.487 229.076 221.632 228.611 221.921C228.15 222.21 227.782 222.637 227.508 223.2C227.237 223.763 227.102 224.454 227.102 225.273C227.102 226.091 227.237 226.782 227.508 227.346C227.782 227.909 228.15 228.335 228.611 228.624C229.076 228.914 229.595 229.058 230.167 229.058C230.739 229.058 231.257 228.914 231.718 228.624C232.183 228.335 232.551 227.909 232.822 227.346C233.095 226.782 233.232 226.091 233.232 225.273ZM245.07 220.545H246.215V226.805C246.215 227.452 246.062 228.029 245.758 228.537C245.456 229.041 245.03 229.44 244.479 229.732C243.928 230.022 243.282 230.166 242.54 230.166C241.798 230.166 241.152 230.022 240.601 229.732C240.05 229.44 239.622 229.041 239.318 228.537C239.016 228.029 238.865 227.452 238.865 226.805V220.545H240.01V226.713C240.01 227.175 240.112 227.586 240.315 227.946C240.518 228.303 240.807 228.584 241.183 228.79C241.561 228.994 242.014 229.095 242.54 229.095C243.066 229.095 243.519 228.994 243.897 228.79C244.276 228.584 244.565 228.303 244.765 227.946C244.968 227.586 245.07 227.175 245.07 226.713V220.545ZM251.489 230H250.289L253.76 220.545H254.942L258.414 230H257.213L254.388 222.041H254.314L251.489 230ZM251.932 226.307H256.77V227.322H251.932V226.307ZM262.486 230V220.545H265.681C266.42 220.545 267.026 220.672 267.5 220.924C267.974 221.173 268.325 221.516 268.552 221.953C268.78 222.391 268.894 222.888 268.894 223.445C268.894 224.002 268.78 224.496 268.552 224.926C268.325 225.357 267.975 225.696 267.504 225.942C267.034 226.185 266.432 226.307 265.699 226.307H263.114V225.273H265.662C266.167 225.273 266.573 225.199 266.881 225.051C267.192 224.903 267.417 224.694 267.555 224.423C267.697 224.149 267.768 223.823 267.768 223.445C267.768 223.066 267.697 222.735 267.555 222.452C267.414 222.169 267.187 221.95 266.877 221.797C266.566 221.64 266.155 221.561 265.644 221.561H263.631V230H262.486ZM266.937 225.753L269.263 230H267.934L265.644 225.753H266.937ZM272.885 221.561V220.545H279.976V221.561H277.003V230H275.858V221.561H272.885ZM284.343 230V220.545H290.049V221.561H285.487V224.756H289.753V225.771H285.487V228.984H290.122V230H284.343ZM294.712 230V220.545H297.907C298.645 220.545 299.252 220.672 299.726 220.924C300.2 221.173 300.55 221.516 300.778 221.953C301.006 222.391 301.12 222.888 301.12 223.445C301.12 224.002 301.006 224.496 300.778 224.926C300.55 225.357 300.201 225.696 299.73 225.942C299.259 226.185 298.658 226.307 297.925 226.307H295.34V225.273H297.888C298.393 225.273 298.799 225.199 299.107 225.051C299.418 224.903 299.642 224.694 299.781 224.423C299.923 224.149 299.993 223.823 299.993 223.445C299.993 223.066 299.923 222.735 299.781 222.452C299.639 222.169 299.413 221.95 299.102 221.797C298.791 221.64 298.381 221.561 297.87 221.561H295.857V230H294.712ZM299.162 225.753L301.489 230H300.16L297.87 225.753H299.162ZM311.884 230V220.545H313.029V228.984H317.424V230H311.884ZM322.941 220.545V230H321.796V220.545H322.941ZM327.837 230V220.545H333.506V221.561H328.982V224.756H333.081V225.771H328.982V230H327.837ZM338.067 230V220.545H343.773V221.561H339.211V224.756H343.477V225.771H339.211V228.984H343.846V230H338.067ZM362.3 223.5H361.155C361.088 223.171 360.969 222.881 360.8 222.632C360.634 222.383 360.431 222.174 360.191 222.004C359.954 221.832 359.69 221.703 359.401 221.616C359.112 221.53 358.81 221.487 358.496 221.487C357.924 221.487 357.405 221.632 356.941 221.921C356.479 222.21 356.111 222.637 355.837 223.2C355.566 223.763 355.431 224.454 355.431 225.273C355.431 226.091 355.566 226.782 355.837 227.346C356.111 227.909 356.479 228.335 356.941 228.624C357.405 228.914 357.924 229.058 358.496 229.058C358.81 229.058 359.112 229.015 359.401 228.929C359.69 228.843 359.954 228.715 360.191 228.546C360.431 228.373 360.634 228.163 360.8 227.913C360.969 227.661 361.088 227.372 361.155 227.045H362.3C362.214 227.529 362.057 227.961 361.829 228.343C361.602 228.724 361.319 229.049 360.98 229.317C360.641 229.581 360.261 229.783 359.84 229.922C359.421 230.06 358.973 230.129 358.496 230.129C357.69 230.129 356.973 229.932 356.345 229.538C355.717 229.144 355.223 228.584 354.863 227.858C354.503 227.132 354.323 226.27 354.323 225.273C354.323 224.276 354.503 223.414 354.863 222.688C355.223 221.961 355.717 221.401 356.345 221.007C356.973 220.613 357.69 220.416 358.496 220.416C358.973 220.416 359.421 220.485 359.84 220.624C360.261 220.762 360.641 220.966 360.98 221.233C361.319 221.498 361.602 221.821 361.829 222.203C362.057 222.581 362.214 223.014 362.3 223.5ZM366.75 230V220.545H369.945C370.684 220.545 371.29 220.672 371.764 220.924C372.238 221.173 372.589 221.516 372.816 221.953C373.044 222.391 373.158 222.888 373.158 223.445C373.158 224.002 373.044 224.496 372.816 224.926C372.589 225.357 372.239 225.696 371.768 225.942C371.298 226.185 370.696 226.307 369.963 226.307H367.378V225.273H369.926C370.431 225.273 370.837 225.199 371.145 225.051C371.456 224.903 371.681 224.694 371.819 224.423C371.961 224.149 372.032 223.823 372.032 223.445C372.032 223.066 371.961 222.735 371.819 222.452C371.678 222.169 371.451 221.95 371.141 221.797C370.83 221.64 370.419 221.561 369.908 221.561H367.895V230H366.75ZM371.201 225.753L373.527 230H372.198L369.908 225.753H371.201ZM378.811 220.545V230H377.666V220.545H378.811ZM388.877 222.909C388.821 222.441 388.597 222.078 388.203 221.82C387.809 221.561 387.326 221.432 386.753 221.432C386.335 221.432 385.968 221.5 385.654 221.635C385.344 221.77 385.1 221.957 384.925 222.194C384.753 222.431 384.666 222.7 384.666 223.001C384.666 223.254 384.726 223.471 384.846 223.652C384.97 223.831 385.127 223.98 385.317 224.1C385.508 224.217 385.708 224.314 385.918 224.391C386.127 224.465 386.319 224.525 386.495 224.571L387.455 224.83C387.701 224.894 387.975 224.983 388.277 225.097C388.581 225.211 388.872 225.367 389.149 225.564C389.429 225.757 389.66 226.007 389.842 226.311C390.023 226.616 390.114 226.99 390.114 227.433C390.114 227.944 389.98 228.406 389.712 228.818C389.448 229.231 389.06 229.558 388.549 229.801C388.041 230.045 387.424 230.166 386.698 230.166C386.021 230.166 385.434 230.057 384.939 229.838C384.446 229.62 384.059 229.315 383.775 228.924C383.495 228.533 383.337 228.08 383.3 227.562H384.482C384.513 227.92 384.633 228.215 384.842 228.449C385.054 228.68 385.322 228.852 385.645 228.966C385.971 229.077 386.322 229.132 386.698 229.132C387.135 229.132 387.527 229.061 387.875 228.92C388.223 228.775 388.498 228.575 388.701 228.32C388.904 228.061 389.006 227.759 389.006 227.415C389.006 227.101 388.918 226.845 388.743 226.648C388.567 226.451 388.337 226.291 388.05 226.168C387.764 226.045 387.455 225.937 387.122 225.845L385.959 225.513C385.22 225.3 384.636 224.997 384.205 224.603C383.774 224.209 383.558 223.694 383.558 223.057C383.558 222.527 383.702 222.066 383.988 221.672C384.277 221.275 384.665 220.967 385.151 220.749C385.641 220.527 386.187 220.416 386.79 220.416C387.399 220.416 387.941 220.525 388.415 220.744C388.889 220.959 389.264 221.255 389.541 221.63C389.822 222.006 389.969 222.432 389.985 222.909H388.877ZM395.741 220.545V230H394.596V220.545H395.741ZM405.807 222.909C405.752 222.441 405.527 222.078 405.133 221.82C404.739 221.561 404.256 221.432 403.684 221.432C403.265 221.432 402.899 221.5 402.585 221.635C402.274 221.77 402.031 221.957 401.855 222.194C401.683 222.431 401.597 222.7 401.597 223.001C401.597 223.254 401.657 223.471 401.777 223.652C401.9 223.831 402.057 223.98 402.248 224.1C402.439 224.217 402.639 224.314 402.848 224.391C403.057 224.465 403.25 224.525 403.425 224.571L404.385 224.83C404.631 224.894 404.905 224.983 405.207 225.097C405.512 225.211 405.803 225.367 406.08 225.564C406.36 225.757 406.59 226.007 406.772 226.311C406.954 226.616 407.044 226.99 407.044 227.433C407.044 227.944 406.91 228.406 406.643 228.818C406.378 229.231 405.99 229.558 405.479 229.801C404.972 230.045 404.354 230.166 403.628 230.166C402.951 230.166 402.365 230.057 401.869 229.838C401.377 229.62 400.989 229.315 400.706 228.924C400.426 228.533 400.267 228.08 400.23 227.562H401.412C401.443 227.92 401.563 228.215 401.772 228.449C401.985 228.68 402.252 228.852 402.576 228.966C402.902 229.077 403.253 229.132 403.628 229.132C404.065 229.132 404.458 229.061 404.805 228.92C405.153 228.775 405.429 228.575 405.632 228.32C405.835 228.061 405.936 227.759 405.936 227.415C405.936 227.101 405.849 226.845 405.673 226.648C405.498 226.451 405.267 226.291 404.981 226.168C404.695 226.045 404.385 225.937 404.053 225.845L402.89 225.513C402.151 225.3 401.566 224.997 401.135 224.603C400.704 224.209 400.489 223.694 400.489 223.057C400.489 222.527 400.632 222.066 400.918 221.672C401.208 221.275 401.595 220.967 402.082 220.749C402.571 220.527 403.117 220.416 403.72 220.416C404.33 220.416 404.872 220.525 405.345 220.744C405.819 220.959 406.195 221.255 406.472 221.63C406.752 222.006 406.9 222.432 406.915 222.909H405.807Z" fill="#314566"/>
<rect x="79" y="65.1377" width="16" height="118.263" fill="#669FBD"/>
<rect x="76" y="50" width="22" height="5.67665" fill="#669FBD"/>
<rect x="76" y="202.323" width="22" height="5.67665" fill="#669FBD"/>
<rect x="77" y="57.5688" width="20" height="2.83832" fill="#669FBD"/>
<rect x="77" y="198.539" width="20" height="2.83832" fill="#669FBD"/>
<rect x="78" y="61.3533" width="18" height="1.89222" fill="#669FBD"/>
<rect x="78" y="195.701" width="18" height="1.89222" fill="#669FBD"/>
<rect x="79" y="190.024" width="16" height="4.73054" fill="#669FBD"/>
<rect x="78" y="184.347" width="18" height="1.89222" fill="#669FBD"/>
<rect x="76" y="187.186" width="22" height="1.89222" fill="#669FBD"/>
<path d="M81 73.6527V176.305" stroke="#314566"/>
<path d="M85 73.6527V176.305" stroke="#314566"/>
<path d="M89 73.6527V176.305" stroke="#314566"/>
<path d="M93 73.6527V176.305" stroke="#314566"/>
<rect x="536" y="65.1377" width="16" height="118.263" fill="#669FBD"/>
<rect x="533" y="50" width="22" height="5.67665" fill="#669FBD"/>
<rect x="533" y="202.323" width="22" height="5.67665" fill="#669FBD"/>
<rect x="534" y="57.5688" width="20" height="2.83832" fill="#669FBD"/>
<rect x="534" y="198.539" width="20" height="2.83832" fill="#669FBD"/>
<rect x="535" y="61.3533" width="18" height="1.89222" fill="#669FBD"/>
<rect x="535" y="195.701" width="18" height="1.89222" fill="#669FBD"/>
<rect x="536" y="190.024" width="16" height="4.73054" fill="#669FBD"/>
<rect x="535" y="184.347" width="18" height="1.89222" fill="#669FBD"/>
<rect x="533" y="187.186" width="22" height="1.89222" fill="#669FBD"/>
<path d="M538 73.6527V176.305" stroke="#314566"/>
<path d="M542 73.6527V176.305" stroke="#314566"/>
<path d="M546 73.6527V176.305" stroke="#314566"/>
<path d="M550 73.6527V176.305" stroke="#314566"/>
</svg>
