<svg width="747" height="428" viewBox="0 0 747 428" fill="none" xmlns="http://www.w3.org/2000/svg">
<rect width="747" height="428" fill="#669FBD"/>
<rect x="114.5" y="58.5" width="518" height="314" stroke="#314566"/>
<rect x="10.5" y="10.5" width="726" height="406" stroke="#314566" stroke-width="3"/>
<rect x="680" y="17" width="50" height="393" fill="#314566"/>
<path d="M703 403L687 396L707 388L722 396L703 403Z" fill="#669FBD" stroke="#314566"/>
<path d="M703 398L687 391L707 383L722 391L703 398Z" fill="#669FBD" stroke="#314566"/>
<path d="M703 393L687 386L707 378L722 386L703 393Z" fill="#669FBD" stroke="#314566"/>
<path d="M703 29L687 36L707 44L722 36L703 29Z" fill="#669FBD" stroke="#314566"/>
<path d="M703 34L687 41L707 49L722 41L703 34Z" fill="#669FBD" stroke="#314566"/>
<path d="M703 39L687 46L707 54L722 46L703 39Z" fill="#669FBD" stroke="#314566"/>
<path d="M709 243.662L700.273 243.662L700.273 238.394L701.21 238.394L701.21 242.605L704.159 242.605L704.159 238.667L705.097 238.667L705.097 242.605L708.063 242.605L708.063 238.326L709 238.326L709 243.662ZM702.455 231.117C702.023 231.168 701.688 231.375 701.449 231.739C701.21 232.103 701.091 232.549 701.091 233.077C701.091 233.464 701.153 233.802 701.278 234.091C701.403 234.378 701.575 234.603 701.794 234.765C702.013 234.924 702.261 235.003 702.54 235.003C702.773 235.003 702.973 234.948 703.141 234.837C703.305 234.723 703.443 234.579 703.554 234.402C703.662 234.226 703.751 234.042 703.822 233.848C703.891 233.655 703.946 233.478 703.989 233.316L704.227 232.429C704.287 232.202 704.369 231.949 704.474 231.671C704.58 231.39 704.723 231.121 704.905 230.866C705.084 230.607 705.314 230.394 705.595 230.226C705.876 230.059 706.222 229.975 706.631 229.975C707.102 229.975 707.528 230.098 707.909 230.346C708.29 230.59 708.592 230.948 708.817 231.419C709.041 231.888 709.153 232.458 709.153 233.128C709.153 233.753 709.053 234.294 708.851 234.752C708.649 235.206 708.368 235.564 708.007 235.826C707.646 236.084 707.227 236.231 706.75 236.265L706.75 235.174C707.08 235.145 707.352 235.035 707.568 234.841C707.781 234.645 707.94 234.398 708.045 234.1C708.148 233.799 708.199 233.475 708.199 233.128C708.199 232.725 708.134 232.363 708.003 232.042C707.869 231.721 707.685 231.466 707.449 231.279C707.21 231.091 706.932 230.998 706.614 230.998C706.324 230.998 706.088 231.079 705.906 231.241C705.724 231.402 705.577 231.616 705.463 231.88C705.349 232.144 705.25 232.429 705.165 232.736L704.858 233.81C704.662 234.492 704.382 235.032 704.018 235.429C703.655 235.827 703.179 236.026 702.591 236.026C702.102 236.026 701.676 235.894 701.313 235.63C700.946 235.363 700.662 235.005 700.46 234.556C700.256 234.104 700.153 233.6 700.153 233.043C700.153 232.481 700.254 231.981 700.456 231.543C700.655 231.106 700.928 230.759 701.274 230.503C701.621 230.245 702.014 230.108 702.455 230.094L702.455 231.117ZM701.21 228.115L700.273 228.115L700.273 221.569L701.21 221.569L701.21 224.313L709 224.313L709 225.37L701.21 225.37L701.21 228.115ZM709.068 219.152C709.068 219.362 708.993 219.542 708.842 219.693C708.692 219.843 708.511 219.919 708.301 219.919C708.091 219.919 707.911 219.843 707.76 219.693C707.609 219.542 707.534 219.362 707.534 219.152C707.534 218.941 707.609 218.761 707.76 218.61C707.911 218.46 708.091 218.385 708.301 218.385C708.44 218.385 708.568 218.42 708.685 218.491C708.801 218.559 708.895 218.652 708.966 218.768C709.034 218.882 709.068 219.01 709.068 219.152ZM709 212.022L708.233 212.022L705.08 209.141C704.71 208.803 704.389 208.525 704.116 208.306C703.841 208.087 703.582 207.925 703.341 207.82C703.097 207.712 702.841 207.658 702.574 207.658C702.267 207.658 702.001 207.732 701.777 207.88C701.553 208.025 701.379 208.224 701.257 208.477C701.135 208.729 701.074 209.013 701.074 209.329C701.074 209.664 701.143 209.957 701.283 210.207C701.419 210.454 701.611 210.646 701.858 210.782C702.105 210.915 702.395 210.982 702.727 210.982L702.727 211.988C702.216 211.988 701.767 211.87 701.381 211.634C700.994 211.398 700.693 211.077 700.477 210.671C700.261 210.262 700.153 209.803 700.153 209.295C700.153 208.783 700.261 208.33 700.477 207.935C700.693 207.54 700.984 207.231 701.351 207.006C701.717 206.782 702.125 206.67 702.574 206.67C702.895 206.67 703.209 206.728 703.516 206.844C703.82 206.958 704.159 207.157 704.534 207.441C704.906 207.722 705.361 208.113 705.898 208.613L707.994 210.573L708.063 210.573L708.063 206.516L709 206.516L709 212.022ZM709.119 201.31C709.119 201.952 708.945 202.499 708.595 202.95C708.243 203.402 707.733 203.747 707.065 203.986C706.395 204.225 705.585 204.344 704.636 204.344C703.693 204.344 702.888 204.225 702.22 203.986C701.55 203.744 701.038 203.398 700.686 202.946C700.331 202.492 700.153 201.946 700.153 201.31C700.153 200.673 700.331 200.129 700.686 199.678C701.038 199.223 701.55 198.877 702.22 198.638C702.888 198.396 703.693 198.276 704.636 198.276C705.585 198.276 706.395 198.395 707.065 198.634C707.733 198.872 708.243 199.217 708.595 199.669C708.945 200.121 709.119 200.668 709.119 201.31ZM708.182 201.31C708.182 200.673 707.875 200.179 707.261 199.827C706.648 199.475 705.773 199.298 704.636 199.298C703.881 199.298 703.237 199.379 702.706 199.541C702.175 199.7 701.77 199.931 701.491 200.232C701.213 200.53 701.074 200.889 701.074 201.31C701.074 201.94 701.385 202.433 702.007 202.788C702.626 203.144 703.503 203.321 704.636 203.321C705.392 203.321 706.034 203.242 706.563 203.082C707.091 202.923 707.493 202.695 707.768 202.396C708.044 202.095 708.182 201.733 708.182 201.31ZM709.119 193.21C709.119 193.852 708.945 194.399 708.595 194.85C708.243 195.302 707.733 195.647 707.065 195.886C706.395 196.125 705.585 196.244 704.636 196.244C703.693 196.244 702.888 196.125 702.22 195.886C701.55 195.644 701.038 195.298 700.686 194.846C700.331 194.392 700.153 193.846 700.153 193.21C700.153 192.573 700.331 192.029 700.686 191.578C701.038 191.123 701.55 190.777 702.22 190.538C702.888 190.296 703.693 190.176 704.636 190.176C705.585 190.176 706.395 190.295 707.065 190.534C707.733 190.772 708.243 191.117 708.595 191.569C708.945 192.021 709.119 192.568 709.119 193.21ZM708.182 193.21C708.182 192.573 707.875 192.079 707.261 191.727C706.648 191.375 705.773 191.198 704.636 191.198C703.881 191.198 703.237 191.279 702.706 191.441C702.175 191.6 701.77 191.831 701.491 192.132C701.213 192.43 701.074 192.789 701.074 193.21C701.074 193.84 701.385 194.333 702.007 194.688C702.626 195.044 703.503 195.221 704.636 195.221C705.392 195.221 706.034 195.142 706.563 194.982C707.091 194.823 707.493 194.595 707.768 194.296C708.044 193.995 708.182 193.633 708.182 193.21ZM700.273 184.888L709 184.888L709 185.945L701.381 185.945L701.381 185.996L702.795 188.127L701.722 188.127L700.273 185.945L700.273 184.888Z" fill="#669FBD"/>
<rect x="16" y="17" width="50" height="393" fill="#314566"/>
<path d="M39 403L23 396L43 388L58 396L39 403Z" fill="#669FBD" stroke="#314566"/>
<path d="M39 398L23 391L43 383L58 391L39 398Z" fill="#669FBD" stroke="#314566"/>
<path d="M39 393L23 386L43 378L58 386L39 393Z" fill="#669FBD" stroke="#314566"/>
<path d="M39 29L23 36L43 44L58 36L39 29Z" fill="#669FBD" stroke="#314566"/>
<path d="M39 34L23 41L43 49L58 41L39 34Z" fill="#669FBD" stroke="#314566"/>
<path d="M39 39L23 46L43 54L58 46L39 39Z" fill="#669FBD" stroke="#314566"/>
<path d="M36 171.434L44.7273 171.434L44.7273 174.383C44.7273 175.064 44.6108 175.624 44.3778 176.062C44.1477 176.499 43.831 176.823 43.4276 177.033C43.0241 177.243 42.5653 177.349 42.0511 177.349C41.5369 177.349 41.081 177.243 40.6832 177.033C40.2855 176.823 39.973 176.501 39.7457 176.066C39.5213 175.631 39.4091 175.076 39.4091 174.4L39.4091 172.013L40.3636 172.013L40.3636 174.366C40.3636 174.831 40.4318 175.206 40.5682 175.491C40.7045 175.778 40.8977 175.985 41.1477 176.113C41.4006 176.243 41.7017 176.309 42.0511 176.309C42.4006 176.309 42.706 176.243 42.9673 176.113C43.2287 175.982 43.4304 175.773 43.5724 175.486C43.7173 175.199 43.7898 174.82 43.7898 174.349L43.7898 172.491L36 172.491L36 171.434ZM39.9205 175.542L36 177.689L36 176.462L39.9205 174.349L39.9205 175.542ZM36 179.71L44.7273 179.71L44.7273 184.977L43.7898 184.977L43.7898 180.766L40.8409 180.766L40.8409 184.704L39.9034 184.704L39.9034 180.766L36.9375 180.766L36.9375 185.045L36 185.045L36 179.71ZM36 187.481L44.7273 187.481L44.7273 192.714L43.7898 192.714L43.7898 188.538L40.8409 188.538L40.8409 192.322L39.9034 192.322L39.9034 188.538L36 188.538L36 187.481ZM36 195.124L44.7273 195.124L44.7273 196.181L36.9375 196.181L36.9375 200.238L36 200.238L36 195.124ZM36 202.474L44.7273 202.474L44.7273 207.741L43.7898 207.741L43.7898 203.531L40.8409 203.531L40.8409 207.469L39.9034 207.469L39.9034 203.531L36.9375 203.531L36.9375 207.81L36 207.81L36 202.474ZM42 217.269L42 216.212C42.304 216.15 42.571 216.04 42.8011 215.884C43.0312 215.731 43.2244 215.543 43.3807 215.322C43.5398 215.103 43.6591 214.86 43.7386 214.593C43.8182 214.326 43.858 214.047 43.858 213.758C43.858 213.229 43.7244 212.751 43.4574 212.322C43.1903 211.895 42.7969 211.556 42.277 211.303C41.7571 211.053 41.1193 210.928 40.3636 210.928C39.608 210.928 38.9702 211.053 38.4503 211.303C37.9304 211.556 37.5369 211.895 37.2699 212.322C37.0028 212.751 36.8693 213.229 36.8693 213.758C36.8693 214.047 36.9091 214.326 36.9886 214.593C37.0682 214.86 37.1861 215.103 37.3423 215.322C37.5014 215.543 37.696 215.731 37.9261 215.884C38.1591 216.04 38.4261 216.15 38.7273 216.212L38.7273 217.269C38.2812 217.189 37.8821 217.045 37.5298 216.834C37.1776 216.624 36.8778 216.363 36.6307 216.05C36.3864 215.738 36.2003 215.387 36.0724 214.998C35.9446 214.611 35.8807 214.198 35.8807 213.758C35.8807 213.013 36.0625 212.351 36.4261 211.772C36.7898 211.192 37.3068 210.736 37.9773 210.404C38.6477 210.072 39.4432 209.905 40.3636 209.905C41.2841 209.905 42.0795 210.072 42.75 210.404C43.4205 210.736 43.9375 211.192 44.3011 211.772C44.6648 212.351 44.8466 213.013 44.8466 213.758C44.8466 214.198 44.7827 214.611 44.6548 214.998C44.527 215.387 44.3395 215.738 44.0923 216.05C43.848 216.363 43.5497 216.624 43.1974 216.834C42.848 217.045 42.4489 217.189 42 217.269ZM43.7898 219.099L44.7273 219.099L44.7273 225.645L43.7898 225.645L43.7898 222.901L36 222.901L36 221.844L43.7898 221.844L43.7898 219.099ZM44.7273 228.933L36 228.933L36 227.876L44.7273 227.876L44.7273 228.933ZM40.3636 239.015C39.4432 239.015 38.6477 238.849 37.9773 238.517C37.3068 238.184 36.7898 237.728 36.4261 237.149C36.0625 236.569 35.8807 235.907 35.8807 235.163C35.8807 234.419 36.0625 233.757 36.4261 233.177C36.7898 232.598 37.3068 232.142 37.9773 231.809C38.6477 231.477 39.4432 231.311 40.3636 231.311C41.2841 231.311 42.0795 231.477 42.75 231.809C43.4205 232.142 43.9375 232.598 44.3011 233.177C44.6648 233.757 44.8466 234.419 44.8466 235.163C44.8466 235.907 44.6648 236.569 44.3011 237.149C43.9375 237.728 43.4205 238.184 42.75 238.517C42.0795 238.849 41.2841 239.015 40.3636 239.015ZM40.3636 237.993C41.1193 237.993 41.7571 237.866 42.277 237.613C42.7969 237.363 43.1903 237.024 43.4574 236.595C43.7244 236.169 43.858 235.692 43.858 235.163C43.858 234.635 43.7244 234.156 43.4574 233.727C43.1903 233.301 42.7969 232.961 42.277 232.709C41.7571 232.459 41.1193 232.334 40.3636 232.334C39.608 232.334 38.9702 232.459 38.4503 232.709C37.9304 232.961 37.5369 233.301 37.2699 233.727C37.0028 234.156 36.8693 234.635 36.8693 235.163C36.8693 235.692 37.0028 236.169 37.2699 236.595C37.5369 237.024 37.9304 237.363 38.4503 237.613C38.9702 237.866 39.608 237.993 40.3636 237.993ZM44.7273 248.313L36 248.313L36 247.29L42.8523 242.534L42.8523 242.449L36 242.449L36 241.392L44.7273 241.392L44.7273 242.415L37.858 247.188L37.858 247.273L44.7273 247.273L44.7273 248.313ZM42.5455 255.8C42.9773 255.749 43.3125 255.542 43.5511 255.178C43.7898 254.814 43.9091 254.368 43.9091 253.84C43.9091 253.454 43.8466 253.116 43.7216 252.826C43.5966 252.539 43.4247 252.314 43.206 252.153C42.9872 251.993 42.7386 251.914 42.4602 251.914C42.2273 251.914 42.027 251.969 41.8594 252.08C41.6946 252.194 41.5568 252.339 41.446 252.515C41.3381 252.691 41.2486 252.876 41.1776 253.069C41.1094 253.262 41.054 253.439 41.0114 253.601L40.7727 254.488C40.7131 254.715 40.6307 254.968 40.5256 255.246C40.4205 255.528 40.277 255.796 40.0952 256.052C39.9162 256.31 39.6861 256.523 39.4048 256.691C39.1236 256.858 38.7784 256.942 38.3693 256.942C37.8977 256.942 37.4716 256.819 37.0909 256.572C36.7102 256.327 36.4077 255.969 36.1832 255.498C35.9588 255.029 35.8466 254.459 35.8466 253.789C35.8466 253.164 35.9474 252.623 36.1491 252.165C36.3508 251.711 36.6321 251.353 36.9929 251.091C37.3537 250.833 37.7727 250.687 38.25 250.653L38.25 251.743C37.9205 251.772 37.6477 251.883 37.4318 252.076C37.2187 252.272 37.0597 252.519 36.9545 252.817C36.8523 253.118 36.8011 253.442 36.8011 253.789C36.8011 254.192 36.8665 254.555 36.9972 254.876C37.1307 255.197 37.3153 255.451 37.5511 255.638C37.7898 255.826 38.0682 255.92 38.3864 255.92C38.6761 255.92 38.9119 255.839 39.0937 255.677C39.2756 255.515 39.4233 255.302 39.5369 255.037C39.6506 254.773 39.75 254.488 39.8352 254.181L40.142 253.107C40.3381 252.425 40.6179 251.885 40.9815 251.488C41.3452 251.09 41.821 250.891 42.4091 250.891C42.8977 250.891 43.3239 251.023 43.6875 251.287C44.054 251.555 44.3381 251.912 44.5398 252.361C44.7443 252.813 44.8466 253.317 44.8466 253.874C44.8466 254.437 44.7457 254.937 44.544 255.374C44.3452 255.812 44.0724 256.158 43.7258 256.414C43.3793 256.672 42.9858 256.809 42.5455 256.823L42.5455 255.8Z" fill="#669FBD"/>
<path d="M313.848 40.1211H314.209C314.645 40.1211 314.964 40.0755 315.166 39.9844C315.368 39.8867 315.518 39.7174 315.615 39.4766C315.68 39.2943 315.726 38.8516 315.752 38.1484C315.778 37.4453 315.791 36.1432 315.791 34.2422V28.6562H314.111C313.089 28.6562 312.389 28.7995 312.012 29.0859C311.634 29.3724 311.374 29.9225 311.23 30.7363L310.312 30.541C310.462 29.8965 310.576 29.2812 310.654 28.6953C310.739 28.1029 310.791 27.5202 310.811 26.9473C311.058 27.0319 311.406 27.0938 311.855 27.1328C312.305 27.1654 313.063 27.1816 314.131 27.1816H316.289H317.51H319.99C321.188 27.1816 322.021 27.1654 322.49 27.1328C322.965 27.0938 323.314 27.0286 323.535 26.9375V27.2402C323.535 27.748 323.555 28.2754 323.594 28.8223C323.639 29.3626 323.704 29.9355 323.789 30.541L322.91 30.6777C322.799 29.8835 322.575 29.3496 322.236 29.0762C321.898 28.7962 321.23 28.6562 320.234 28.6562H319.99H318.516C318.496 29.6979 318.483 30.7233 318.477 31.7324C318.47 32.7415 318.467 33.9167 318.467 35.2578V37.084C318.467 37.9434 318.486 38.5456 318.525 38.8906C318.564 39.2357 318.626 39.4928 318.711 39.6621C318.809 39.8249 318.962 39.9421 319.17 40.0137C319.378 40.0853 319.671 40.1211 320.049 40.1211H320.391V41C320.228 40.9935 319.987 40.9837 319.668 40.9707C318.392 40.9121 317.52 40.8828 317.051 40.8828C316.712 40.8828 316.276 40.8926 315.742 40.9121C315.215 40.9316 314.583 40.9609 313.848 41V40.1211ZM325.902 27.0645C326.091 27.071 326.365 27.084 326.723 27.1035C327.725 27.1556 328.406 27.1816 328.764 27.1816C329.213 27.1816 330.02 27.1523 331.186 27.0938C331.446 27.0807 331.645 27.071 331.781 27.0645V27.9434H331.557C330.997 27.9434 330.616 28.0801 330.414 28.3535C330.219 28.627 330.121 29.3561 330.121 30.541V30.9805V33.1191C330.668 33.1387 331.208 33.1549 331.742 33.168C332.276 33.1745 332.803 33.1777 333.324 33.1777C333.812 33.1777 334.363 33.1745 334.975 33.168C335.587 33.1549 336.26 33.1387 336.996 33.1191V30.541C336.996 29.3561 336.898 28.627 336.703 28.3535C336.508 28.0801 336.127 27.9434 335.561 27.9434H335.336V27.0645C335.961 27.1035 336.524 27.1328 337.025 27.1523C337.527 27.1719 337.973 27.1816 338.363 27.1816C338.721 27.1816 339.402 27.1556 340.404 27.1035C340.756 27.084 341.029 27.071 341.225 27.0645V27.9336C341.186 27.9336 341.14 27.9336 341.088 27.9336C341.042 27.9271 340.98 27.9238 340.902 27.9238C340.388 27.9238 340.04 28.0931 339.857 28.4316C339.675 28.7637 339.584 29.5059 339.584 30.6582C339.584 30.8535 339.587 31.2051 339.594 31.7129C339.6 32.2207 339.604 32.6374 339.604 32.9629V35.0234C339.604 35.4141 339.6 35.9056 339.594 36.498C339.587 37.084 339.584 37.4779 339.584 37.6797C339.584 38.7018 339.678 39.3691 339.867 39.6816C340.056 39.9876 340.414 40.1406 340.941 40.1406C341.039 40.1406 341.111 40.1406 341.156 40.1406C341.208 40.1341 341.254 40.1276 341.293 40.1211V41C341.072 40.987 340.759 40.9707 340.355 40.9512C339.346 40.9056 338.676 40.8828 338.344 40.8828C337.973 40.8828 337.527 40.8926 337.006 40.9121C336.485 40.9316 335.889 40.9609 335.219 41V40.1211C335.271 40.1211 335.336 40.1243 335.414 40.1309C335.492 40.1374 335.548 40.1406 335.58 40.1406C336.14 40.1406 336.514 39.9941 336.703 39.7012C336.898 39.4082 336.996 38.653 336.996 37.4355V36.7031V34.623C336.339 34.61 335.733 34.6003 335.18 34.5938C334.626 34.5872 334.079 34.584 333.539 34.584C332.615 34.584 331.915 34.5872 331.439 34.5938C330.971 34.6003 330.531 34.61 330.121 34.623V37.4355C330.121 38.653 330.215 39.4082 330.404 39.7012C330.6 39.9941 330.977 40.1406 331.537 40.1406C331.57 40.1406 331.625 40.1374 331.703 40.1309C331.788 40.1243 331.853 40.1211 331.898 40.1211V41C331.221 40.9609 330.622 40.9316 330.102 40.9121C329.581 40.8926 329.141 40.8828 328.783 40.8828C328.445 40.8828 327.774 40.9056 326.771 40.9512C326.368 40.9707 326.052 40.987 325.824 41V40.1211C325.87 40.1276 325.919 40.1341 325.971 40.1406C326.023 40.1406 326.101 40.1406 326.205 40.1406C326.726 40.1406 327.077 39.9714 327.26 39.6328C327.449 39.2878 327.543 38.5488 327.543 37.416C327.543 37.2207 327.54 36.8594 327.533 36.332C327.527 35.8047 327.523 35.375 327.523 35.043V32.9629C327.523 32.5983 327.527 32.1361 327.533 31.5762C327.54 31.0163 327.543 30.6387 327.543 30.4434C327.543 29.4017 327.449 28.7214 327.26 28.4023C327.071 28.0833 326.726 27.9238 326.225 27.9238C326.14 27.9238 326.075 27.9271 326.029 27.9336C325.984 27.9336 325.941 27.9336 325.902 27.9336V27.0645ZM343.895 27.0449C345.001 27.0905 346.023 27.1263 346.961 27.1523C347.898 27.1719 348.722 27.1816 349.432 27.1816C350.623 27.1816 351.629 27.1719 352.449 27.1523C353.276 27.1263 354.044 27.0905 354.754 27.0449C354.767 27.6113 354.793 28.1712 354.832 28.7246C354.871 29.2715 354.926 29.8249 354.998 30.3848L354.119 30.502C354.028 29.6882 353.758 29.138 353.309 28.8516C352.866 28.5651 351.974 28.4219 350.633 28.4219C350.392 28.4219 350.07 28.4284 349.666 28.4414C349.269 28.4479 348.781 28.4609 348.201 28.4805C348.188 29.3398 348.175 30.1634 348.162 30.9512C348.156 31.7389 348.146 32.4941 348.133 33.2168H348.416C348.794 33.2168 349.262 33.2201 349.822 33.2266C350.389 33.2331 350.766 33.2363 350.955 33.2363C351.854 33.2363 352.443 33.1484 352.723 32.9727C353.003 32.7969 353.152 32.4616 353.172 31.9668L353.895 32.0352C353.895 32.3607 353.885 32.7708 353.865 33.2656C353.846 33.7539 353.836 34.0859 353.836 34.2617C353.836 34.4375 353.839 34.6621 353.846 34.9355C353.859 35.209 353.875 35.5378 353.895 35.9219L353.074 35.9805V35.8633C353.074 35.3034 352.911 34.9258 352.586 34.7305C352.267 34.5352 351.508 34.4375 350.311 34.4375H348.855H348.113V35.5605C348.113 36.14 348.117 36.7357 348.123 37.3477C348.13 37.9531 348.139 38.6758 348.152 39.5156C348.445 39.5547 348.81 39.5872 349.246 39.6133C349.689 39.6328 350.171 39.6426 350.691 39.6426C352.247 39.6426 353.283 39.4798 353.797 39.1543C354.318 38.8288 354.738 38.2038 355.057 37.2793L355.955 37.5625C355.74 38.1875 355.555 38.7832 355.398 39.3496C355.249 39.916 355.122 40.4661 355.018 41C353.481 40.9479 352.257 40.9121 351.346 40.8926C350.434 40.873 349.624 40.8633 348.914 40.8633C348.113 40.8633 346.834 40.8926 345.076 40.9512C344.471 40.9707 344.012 40.987 343.699 41V40.1406C343.738 40.1471 343.781 40.1536 343.826 40.1602C343.878 40.1602 343.953 40.1602 344.051 40.1602C344.598 40.1602 344.969 39.9941 345.164 39.6621C345.359 39.3236 345.457 38.4414 345.457 37.0156V36.0391V35.1406L345.477 32.9629C345.477 32.8652 345.48 32.7188 345.486 32.5234C345.506 31.7227 345.516 31.1758 345.516 30.8828C345.516 30.5898 345.512 30.2839 345.506 29.9648C345.499 29.6458 345.496 29.4701 345.496 29.4375C345.496 28.8711 345.392 28.4772 345.184 28.2559C344.982 28.0345 344.627 27.9238 344.119 27.9238H343.895V27.0449ZM364.586 27.0645C364.807 27.071 365.117 27.084 365.514 27.1035C366.536 27.1556 367.219 27.1816 367.564 27.1816C368.02 27.1816 368.86 27.1523 370.084 27.0938C370.396 27.0807 370.637 27.071 370.807 27.0645V27.9141C370.195 27.9271 369.794 27.9922 369.605 28.1094C369.423 28.2266 369.332 28.4512 369.332 28.7832C369.332 28.9069 369.355 29.0632 369.4 29.252C369.446 29.4408 369.534 29.7305 369.664 30.1211L372.496 38.0703L372.555 37.9141C374.801 32.3151 375.924 29.252 375.924 28.7246C375.924 28.4186 375.829 28.207 375.641 28.0898C375.452 27.9727 375.068 27.9076 374.488 27.8945V27.0645C374.592 27.071 374.745 27.0775 374.947 27.084C375.943 27.1491 376.643 27.1816 377.047 27.1816C377.372 27.1816 378.004 27.1523 378.941 27.0938C379.228 27.0807 379.449 27.071 379.605 27.0645V27.9434C379.352 27.9434 379.127 27.9629 378.932 28.002C378.743 28.041 378.583 28.0996 378.453 28.1777C378.206 28.334 377.779 29.138 377.174 30.5898C376.92 31.1953 376.718 31.6706 376.568 32.0156C375.221 35.1667 374.26 37.4453 373.688 38.8516C373.115 40.2513 372.828 41.0195 372.828 41.1562H370.826C370.826 40.9935 370.452 39.8607 369.703 37.7578C368.961 35.6549 368.082 33.321 367.066 30.7559C367.014 30.6191 366.936 30.4238 366.832 30.1699C366.233 28.6465 365.566 27.8848 364.83 27.8848C364.804 27.8848 364.762 27.888 364.703 27.8945C364.651 27.901 364.612 27.9043 364.586 27.9043V27.0645ZM385.83 29.3398L383.701 34.7402C383.949 34.7467 384.209 34.7533 384.482 34.7598C384.762 34.7598 385.133 34.7598 385.596 34.7598C386.13 34.7598 386.546 34.7598 386.846 34.7598C387.145 34.7533 387.425 34.7467 387.686 34.7402L385.83 29.3398ZM385.293 26.9961H387.676C388.613 29.7435 389.505 32.2695 390.352 34.5742C391.204 36.8724 391.8 38.4023 392.139 39.1641C392.282 39.5091 392.461 39.7565 392.676 39.9062C392.897 40.0495 393.19 40.1211 393.555 40.1211H393.77V41C392.943 40.9609 392.308 40.9349 391.865 40.9219C391.423 40.9089 391.051 40.9023 390.752 40.9023C390.465 40.9023 390.094 40.9089 389.639 40.9219C389.183 40.9349 388.522 40.9609 387.656 41V40.1211H387.832C388.346 40.1211 388.695 40.0625 388.877 39.9453C389.059 39.8281 389.15 39.6198 389.15 39.3203C389.15 39.2292 389.137 39.1217 389.111 38.998C389.092 38.8743 389.046 38.7018 388.975 38.4805L388.174 36.1172C387.803 36.1107 387.314 36.1042 386.709 36.0977C386.104 36.0846 385.726 36.0781 385.576 36.0781C385.296 36.0781 384.733 36.0879 383.887 36.1074C383.581 36.1139 383.343 36.1172 383.174 36.1172L383.135 36.2148C382.497 37.7708 382.178 38.7539 382.178 39.1641C382.178 39.5026 382.272 39.7467 382.461 39.8965C382.656 40.0462 382.975 40.1211 383.418 40.1211H383.594V41C382.852 40.9609 382.275 40.9349 381.865 40.9219C381.455 40.9089 381.117 40.9023 380.85 40.9023C380.628 40.9023 380.335 40.9089 379.971 40.9219C379.613 40.9349 379.089 40.9609 378.398 41V40.1211C378.867 40.1211 379.242 40.0397 379.521 39.877C379.801 39.7142 380.039 39.4408 380.234 39.0566C380.514 38.5488 381.146 37.1296 382.129 34.7988C383.112 32.4681 384.167 29.8672 385.293 26.9961ZM400.863 27.0645V27.9434C400.824 27.9434 400.769 27.9401 400.697 27.9336C400.626 27.9271 400.574 27.9238 400.541 27.9238C399.988 27.9238 399.613 28.0866 399.418 28.4121C399.223 28.7311 399.125 29.5482 399.125 30.8633V31.6445V33.0996C399.125 34.4147 399.148 35.349 399.193 35.9023C399.239 36.4492 399.317 36.8822 399.428 37.2012C399.675 37.9759 400.111 38.5716 400.736 38.9883C401.361 39.3984 402.13 39.6035 403.041 39.6035C403.79 39.6035 404.428 39.4798 404.955 39.2324C405.482 38.9785 405.912 38.5944 406.244 38.0801C406.465 37.735 406.622 37.2858 406.713 36.7324C406.811 36.1725 406.859 35.3424 406.859 34.2422C406.859 34.0339 406.856 33.6888 406.85 33.207C406.843 32.7188 406.84 32.3379 406.84 32.0645V31.0391C406.84 29.6654 406.742 28.8027 406.547 28.4512C406.352 28.0996 405.977 27.9238 405.424 27.9238C405.339 27.9238 405.274 27.9271 405.229 27.9336C405.183 27.9336 405.141 27.9336 405.102 27.9336V27.0645C405.707 27.097 406.208 27.123 406.605 27.1426C407.009 27.1556 407.354 27.1621 407.641 27.1621C407.908 27.1621 408.23 27.1556 408.607 27.1426C408.992 27.123 409.49 27.097 410.102 27.0645V27.9434H409.945C409.555 27.9434 409.265 27.9889 409.076 28.0801C408.887 28.1647 408.751 28.3177 408.666 28.5391C408.542 28.8646 408.464 30.2806 408.432 32.7871C408.432 33.1452 408.428 33.4219 408.422 33.6172C408.422 33.7409 408.422 33.9199 408.422 34.1543C408.409 36.3809 408.168 37.9108 407.699 38.7441C407.23 39.5775 406.54 40.222 405.629 40.6777C404.717 41.1335 403.656 41.3613 402.445 41.3613C401.332 41.3613 400.342 41.179 399.477 40.8145C398.617 40.4434 397.94 39.9193 397.445 39.2422C397.074 38.7344 396.811 38.1484 396.654 37.4844C396.498 36.8203 396.42 35.8307 396.42 34.5156C396.42 34.1641 396.43 33.5391 396.449 32.6406C396.469 31.7422 396.479 31.0228 396.479 30.4824C396.479 29.3431 396.384 28.6367 396.195 28.3633C396.013 28.0833 395.648 27.9434 395.102 27.9434H394.867V27.0645C395.603 27.097 396.199 27.123 396.654 27.1426C397.117 27.1556 397.514 27.1621 397.846 27.1621C398.152 27.1621 398.536 27.1556 398.998 27.1426C399.46 27.123 400.082 27.097 400.863 27.0645ZM412.566 27.0645C413.12 27.097 413.641 27.123 414.129 27.1426C414.624 27.1556 415.063 27.1621 415.447 27.1621C415.844 27.1621 416.287 27.1556 416.775 27.1426C417.27 27.123 417.84 27.097 418.484 27.0645V27.9434C418.445 27.9434 418.39 27.9401 418.318 27.9336C418.247 27.9271 418.198 27.9238 418.172 27.9238C417.625 27.9238 417.254 28.0866 417.059 28.4121C416.863 28.7376 416.766 29.4733 416.766 30.6191C416.766 30.7884 416.769 31.0944 416.775 31.5371C416.782 31.9798 416.785 32.3411 416.785 32.6211L416.805 39.4766L416.863 39.4863C417.703 39.5384 418.338 39.5645 418.768 39.5645C420.402 39.5645 421.473 39.3952 421.98 39.0566C422.488 38.7181 422.905 38.0736 423.23 37.123L424.129 37.3965C423.927 37.9889 423.745 38.5846 423.582 39.1836C423.426 39.7826 423.289 40.388 423.172 41C422.02 40.9609 420.949 40.9316 419.959 40.9121C418.969 40.8926 418.064 40.8828 417.244 40.8828C416.43 40.8828 415.61 40.8926 414.783 40.9121C413.963 40.9316 413.146 40.9609 412.332 41V40.1406H412.605C412.957 40.1406 413.227 40.1048 413.416 40.0332C413.605 39.9616 413.742 39.8444 413.826 39.6816C414.008 39.3236 414.106 37.9857 414.119 35.668C414.126 35.3685 414.129 35.1406 414.129 34.9844L414.148 32.8555C414.148 32.569 414.152 32.1947 414.158 31.7324C414.165 31.2637 414.168 30.9382 414.168 30.7559C414.168 29.584 414.07 28.819 413.875 28.4609C413.686 28.1029 413.325 27.9238 412.791 27.9238H412.566V27.0645ZM427.355 40.1211H427.717C428.153 40.1211 428.472 40.0755 428.674 39.9844C428.876 39.8867 429.025 39.7174 429.123 39.4766C429.188 39.2943 429.234 38.8516 429.26 38.1484C429.286 37.4453 429.299 36.1432 429.299 34.2422V28.6562H427.619C426.597 28.6562 425.897 28.7995 425.52 29.0859C425.142 29.3724 424.882 29.9225 424.738 30.7363L423.82 30.541C423.97 29.8965 424.084 29.2812 424.162 28.6953C424.247 28.1029 424.299 27.5202 424.318 26.9473C424.566 27.0319 424.914 27.0938 425.363 27.1328C425.812 27.1654 426.571 27.1816 427.639 27.1816H429.797H431.018H433.498C434.696 27.1816 435.529 27.1654 435.998 27.1328C436.473 27.0938 436.822 27.0286 437.043 26.9375V27.2402C437.043 27.748 437.062 28.2754 437.102 28.8223C437.147 29.3626 437.212 29.9355 437.297 30.541L436.418 30.6777C436.307 29.8835 436.083 29.3496 435.744 29.0762C435.406 28.7962 434.738 28.6562 433.742 28.6562H433.498H432.023C432.004 29.6979 431.991 30.7233 431.984 31.7324C431.978 32.7415 431.975 33.9167 431.975 35.2578V37.084C431.975 37.9434 431.994 38.5456 432.033 38.8906C432.072 39.2357 432.134 39.4928 432.219 39.6621C432.316 39.8249 432.469 39.9421 432.678 40.0137C432.886 40.0853 433.179 40.1211 433.557 40.1211H433.898V41C433.736 40.9935 433.495 40.9837 433.176 40.9707C431.9 40.9121 431.027 40.8828 430.559 40.8828C430.22 40.8828 429.784 40.8926 429.25 40.9121C428.723 40.9316 428.091 40.9609 427.355 41V40.1211Z" fill="#314566"/>
<path d="M286.798 395.045H288.053L289.106 396.43L289.383 396.8L290.953 398.886H289.697L288.663 397.501L288.404 397.151L286.798 395.045ZM291.34 393.273C291.34 394.27 291.16 395.132 290.8 395.858C290.44 396.584 289.946 397.144 289.318 397.538C288.69 397.932 287.973 398.129 287.167 398.129C286.361 398.129 285.644 397.932 285.016 397.538C284.388 397.144 283.894 396.584 283.534 395.858C283.174 395.132 282.994 394.27 282.994 393.273C282.994 392.276 283.174 391.414 283.534 390.688C283.894 389.961 284.388 389.401 285.016 389.007C285.644 388.613 286.361 388.416 287.167 388.416C287.973 388.416 288.69 388.613 289.318 389.007C289.946 389.401 290.44 389.961 290.8 390.688C291.16 391.414 291.34 392.276 291.34 393.273ZM290.232 393.273C290.232 392.454 290.095 391.763 289.822 391.2C289.551 390.637 289.183 390.21 288.718 389.921C288.257 389.632 287.739 389.487 287.167 389.487C286.595 389.487 286.076 389.632 285.611 389.921C285.15 390.21 284.782 390.637 284.508 391.2C284.237 391.763 284.102 392.454 284.102 393.273C284.102 394.091 284.237 394.782 284.508 395.346C284.782 395.909 285.15 396.335 285.611 396.624C286.076 396.914 286.595 397.058 287.167 397.058C287.739 397.058 288.257 396.914 288.718 396.624C289.183 396.335 289.551 395.909 289.822 395.346C290.095 394.782 290.232 394.091 290.232 393.273ZM302.07 388.545H303.215V394.805C303.215 395.452 303.062 396.029 302.758 396.537C302.456 397.041 302.03 397.44 301.479 397.732C300.928 398.022 300.282 398.166 299.54 398.166C298.798 398.166 298.152 398.022 297.601 397.732C297.05 397.44 296.622 397.041 296.318 396.537C296.016 396.029 295.865 395.452 295.865 394.805V388.545H297.01V394.713C297.01 395.175 297.112 395.586 297.315 395.946C297.518 396.303 297.807 396.584 298.183 396.79C298.561 396.994 299.014 397.095 299.54 397.095C300.066 397.095 300.519 396.994 300.897 396.79C301.276 396.584 301.565 396.303 301.765 395.946C301.968 395.586 302.07 395.175 302.07 394.713V388.545ZM308.489 398H307.289L310.76 388.545H311.942L315.414 398H314.213L311.388 390.041H311.314L308.489 398ZM308.932 394.307H313.77V395.322H308.932V394.307ZM319.486 398V388.545H322.681C323.42 388.545 324.026 388.672 324.5 388.924C324.974 389.173 325.325 389.516 325.552 389.953C325.78 390.391 325.894 390.888 325.894 391.445C325.894 392.002 325.78 392.496 325.552 392.926C325.325 393.357 324.975 393.696 324.504 393.942C324.034 394.185 323.432 394.307 322.699 394.307H320.114V393.273H322.662C323.167 393.273 323.573 393.199 323.881 393.051C324.192 392.903 324.417 392.694 324.555 392.423C324.697 392.149 324.768 391.823 324.768 391.445C324.768 391.066 324.697 390.735 324.555 390.452C324.414 390.169 324.187 389.95 323.877 389.797C323.566 389.64 323.155 389.561 322.644 389.561H320.631V398H319.486ZM323.937 393.753L326.263 398H324.934L322.644 393.753H323.937ZM329.885 389.561V388.545H336.976V389.561H334.003V398H332.858V389.561H329.885ZM341.343 398V388.545H347.049V389.561H342.487V392.756H346.753V393.771H342.487V396.984H347.122V398H341.343ZM351.712 398V388.545H354.907C355.645 388.545 356.252 388.672 356.726 388.924C357.2 389.173 357.55 389.516 357.778 389.953C358.006 390.391 358.12 390.888 358.12 391.445C358.12 392.002 358.006 392.496 357.778 392.926C357.55 393.357 357.201 393.696 356.73 393.942C356.259 394.185 355.658 394.307 354.925 394.307H352.34V393.273H354.888C355.393 393.273 355.799 393.199 356.107 393.051C356.418 392.903 356.642 392.694 356.781 392.423C356.923 392.149 356.993 391.823 356.993 391.445C356.993 391.066 356.923 390.735 356.781 390.452C356.639 390.169 356.413 389.95 356.102 389.797C355.791 389.64 355.381 389.561 354.87 389.561H352.857V398H351.712ZM356.162 393.753L358.489 398H357.16L354.87 393.753H356.162ZM368.884 398V388.545H370.029V396.984H374.424V398H368.884ZM379.941 388.545V398H378.796V388.545H379.941ZM384.837 398V388.545H390.506V389.561H385.982V392.756H390.081V393.771H385.982V398H384.837ZM395.067 398V388.545H400.773V389.561H396.211V392.756H400.477V393.771H396.211V396.984H400.846V398H395.067ZM419.3 391.5H418.155C418.088 391.171 417.969 390.881 417.8 390.632C417.634 390.383 417.431 390.174 417.191 390.004C416.954 389.832 416.69 389.703 416.401 389.616C416.112 389.53 415.81 389.487 415.496 389.487C414.924 389.487 414.405 389.632 413.941 389.921C413.479 390.21 413.111 390.637 412.837 391.2C412.566 391.763 412.431 392.454 412.431 393.273C412.431 394.091 412.566 394.782 412.837 395.346C413.111 395.909 413.479 396.335 413.941 396.624C414.405 396.914 414.924 397.058 415.496 397.058C415.81 397.058 416.112 397.015 416.401 396.929C416.69 396.843 416.954 396.715 417.191 396.546C417.431 396.373 417.634 396.163 417.8 395.913C417.969 395.661 418.088 395.372 418.155 395.045H419.3C419.214 395.529 419.057 395.961 418.829 396.343C418.602 396.724 418.319 397.049 417.98 397.317C417.641 397.581 417.261 397.783 416.84 397.922C416.421 398.06 415.973 398.129 415.496 398.129C414.69 398.129 413.973 397.932 413.345 397.538C412.717 397.144 412.223 396.584 411.863 395.858C411.503 395.132 411.323 394.27 411.323 393.273C411.323 392.276 411.503 391.414 411.863 390.688C412.223 389.961 412.717 389.401 413.345 389.007C413.973 388.613 414.69 388.416 415.496 388.416C415.973 388.416 416.421 388.485 416.84 388.624C417.261 388.762 417.641 388.966 417.98 389.233C418.319 389.498 418.602 389.821 418.829 390.203C419.057 390.581 419.214 391.014 419.3 391.5ZM423.75 398V388.545H426.945C427.684 388.545 428.29 388.672 428.764 388.924C429.238 389.173 429.589 389.516 429.816 389.953C430.044 390.391 430.158 390.888 430.158 391.445C430.158 392.002 430.044 392.496 429.816 392.926C429.589 393.357 429.239 393.696 428.768 393.942C428.298 394.185 427.696 394.307 426.963 394.307H424.378V393.273H426.926C427.431 393.273 427.837 393.199 428.145 393.051C428.456 392.903 428.681 392.694 428.819 392.423C428.961 392.149 429.032 391.823 429.032 391.445C429.032 391.066 428.961 390.735 428.819 390.452C428.678 390.169 428.451 389.95 428.141 389.797C427.83 389.64 427.419 389.561 426.908 389.561H424.895V398H423.75ZM428.201 393.753L430.527 398H429.198L426.908 393.753H428.201ZM435.811 388.545V398H434.666V388.545H435.811ZM445.877 390.909C445.821 390.441 445.597 390.078 445.203 389.82C444.809 389.561 444.326 389.432 443.753 389.432C443.335 389.432 442.968 389.5 442.654 389.635C442.344 389.77 442.1 389.957 441.925 390.194C441.753 390.431 441.666 390.7 441.666 391.001C441.666 391.254 441.726 391.471 441.846 391.652C441.97 391.831 442.127 391.98 442.317 392.1C442.508 392.217 442.708 392.314 442.918 392.391C443.127 392.465 443.319 392.525 443.495 392.571L444.455 392.83C444.701 392.894 444.975 392.983 445.277 393.097C445.581 393.211 445.872 393.367 446.149 393.564C446.429 393.757 446.66 394.007 446.842 394.311C447.023 394.616 447.114 394.99 447.114 395.433C447.114 395.944 446.98 396.406 446.712 396.818C446.448 397.231 446.06 397.558 445.549 397.801C445.041 398.045 444.424 398.166 443.698 398.166C443.021 398.166 442.434 398.057 441.939 397.838C441.446 397.62 441.059 397.315 440.775 396.924C440.495 396.533 440.337 396.08 440.3 395.562H441.482C441.513 395.92 441.633 396.215 441.842 396.449C442.054 396.68 442.322 396.852 442.645 396.966C442.971 397.077 443.322 397.132 443.698 397.132C444.135 397.132 444.527 397.061 444.875 396.92C445.223 396.775 445.498 396.575 445.701 396.32C445.904 396.061 446.006 395.759 446.006 395.415C446.006 395.101 445.918 394.845 445.743 394.648C445.567 394.451 445.337 394.291 445.05 394.168C444.764 394.045 444.455 393.937 444.122 393.845L442.959 393.513C442.22 393.3 441.636 392.997 441.205 392.603C440.774 392.209 440.558 391.694 440.558 391.057C440.558 390.527 440.702 390.066 440.988 389.672C441.277 389.275 441.665 388.967 442.151 388.749C442.641 388.527 443.187 388.416 443.79 388.416C444.399 388.416 444.941 388.525 445.415 388.744C445.889 388.959 446.264 389.255 446.541 389.63C446.822 390.006 446.969 390.432 446.985 390.909H445.877ZM452.741 388.545V398H451.596V388.545H452.741ZM462.807 390.909C462.752 390.441 462.527 390.078 462.133 389.82C461.739 389.561 461.256 389.432 460.684 389.432C460.265 389.432 459.899 389.5 459.585 389.635C459.274 389.77 459.031 389.957 458.855 390.194C458.683 390.431 458.597 390.7 458.597 391.001C458.597 391.254 458.657 391.471 458.777 391.652C458.9 391.831 459.057 391.98 459.248 392.1C459.439 392.217 459.639 392.314 459.848 392.391C460.057 392.465 460.25 392.525 460.425 392.571L461.385 392.83C461.631 392.894 461.905 392.983 462.207 393.097C462.512 393.211 462.803 393.367 463.08 393.564C463.36 393.757 463.59 394.007 463.772 394.311C463.954 394.616 464.044 394.99 464.044 395.433C464.044 395.944 463.91 396.406 463.643 396.818C463.378 397.231 462.99 397.558 462.479 397.801C461.972 398.045 461.354 398.166 460.628 398.166C459.951 398.166 459.365 398.057 458.869 397.838C458.377 397.62 457.989 397.315 457.706 396.924C457.426 396.533 457.267 396.08 457.23 395.562H458.412C458.443 395.92 458.563 396.215 458.772 396.449C458.985 396.68 459.252 396.852 459.576 396.966C459.902 397.077 460.253 397.132 460.628 397.132C461.065 397.132 461.458 397.061 461.805 396.92C462.153 396.775 462.429 396.575 462.632 396.32C462.835 396.061 462.936 395.759 462.936 395.415C462.936 395.101 462.849 394.845 462.673 394.648C462.498 394.451 462.267 394.291 461.981 394.168C461.695 394.045 461.385 393.937 461.053 393.845L459.89 393.513C459.151 393.3 458.566 392.997 458.135 392.603C457.704 392.209 457.489 391.694 457.489 391.057C457.489 390.527 457.632 390.066 457.918 389.672C458.208 389.275 458.595 388.967 459.082 388.749C459.571 388.527 460.117 388.416 460.72 388.416C461.33 388.416 461.872 388.525 462.345 388.744C462.819 388.959 463.195 389.255 463.472 389.63C463.752 390.006 463.9 390.432 463.915 390.909H462.807Z" fill="#314566"/>
<path d="M239.5 17V50.1094H102.819V380.5H169.964V410H70.75V17H239.5Z" fill="#314566"/>
<path d="M162 395H92" stroke="#669FBD"/>
<path d="M140.5 395C140.5 391 137.7 386.8 132.5 386C132.5 391 136.5 394.5 140.5 395Z" fill="#669FBD"/>
<path d="M131 395C131 391 128.2 386.8 123 386C123 391 127 394.5 131 395Z" fill="#669FBD"/>
<path d="M121.5 395C121.5 391 118.7 386.8 113.5 386C113.5 391 117.5 394.5 121.5 395Z" fill="#669FBD"/>
<path d="M112 395C112 391 109.2 386.8 104 386C104 391 108 394.5 112 395Z" fill="#669FBD"/>
<path d="M102.5 395C102.5 391 99.7002 386.8 94.5002 386C94.5002 391 98.5002 394.5 102.5 395Z" fill="#669FBD"/>
<path d="M93.0002 395C93.0002 391 90.2002 386.8 85.0002 386C85.0002 391 89.0002 394.5 93.0002 395Z" fill="#669FBD"/>
<path d="M93.5002 395C89.5101 391.465 82.3936 390.52 77.0002 395C82.0002 399.5 90.0002 398.5 93.5002 395Z" fill="#669FBD"/>
<path d="M140.5 395.5C140.5 399.5 137.7 403.7 132.5 404.5C132.5 399.5 136.5 396 140.5 395.5Z" fill="#669FBD"/>
<path d="M131 395.5C131 399.5 128.2 403.7 123 404.5C123 399.5 127 396 131 395.5Z" fill="#669FBD"/>
<path d="M121.5 395.5C121.5 399.5 118.7 403.7 113.5 404.5C113.5 399.5 117.5 396 121.5 395.5Z" fill="#669FBD"/>
<path d="M112 395.5C112 399.5 109.2 403.7 104 404.5C104 399.5 108 396 112 395.5Z" fill="#669FBD"/>
<path d="M102.5 395.5C102.5 399.5 99.7002 403.7 94.5002 404.5C94.5002 399.5 98.5002 396 102.5 395.5Z" fill="#669FBD"/>
<path d="M93.0002 395.5C93.0002 399.5 90.2002 403.7 85.0002 404.5C85.0002 399.5 89.0002 396 93.0002 395.5Z" fill="#669FBD"/>
<path d="M281 34H91.5002" stroke="#669FBD"/>
<path d="M226 34C226 30 223.2 25.8 218 25C218 30 222 33.5 226 34Z" fill="#669FBD"/>
<path d="M216.5 34C216.5 30 213.7 25.8 208.5 25C208.5 30 212.5 33.5 216.5 34Z" fill="#669FBD"/>
<path d="M207 34C207 30 204.2 25.8 199 25C199 30 203 33.5 207 34Z" fill="#669FBD"/>
<path d="M197.5 34C197.5 30 194.7 25.8 189.5 25C189.5 30 193.5 33.5 197.5 34Z" fill="#669FBD"/>
<path d="M188 34C188 30 185.2 25.8 180 25C180 30 184 33.5 188 34Z" fill="#669FBD"/>
<path d="M178.5 34C178.5 30 175.7 25.8 170.5 25C170.5 30 174.5 33.5 178.5 34Z" fill="#669FBD"/>
<path d="M169 34C169 30 166.2 25.8 161 25C161 30 165 33.5 169 34Z" fill="#669FBD"/>
<path d="M159.5 34C159.5 30 156.7 25.8 151.5 25C151.5 30 155.5 33.5 159.5 34Z" fill="#669FBD"/>
<path d="M150 34C150 30 147.2 25.8 142 25C142 30 146 33.5 150 34Z" fill="#669FBD"/>
<path d="M140.5 34C140.5 30 137.7 25.8 132.5 25C132.5 30 136.5 33.5 140.5 34Z" fill="#669FBD"/>
<path d="M131 34C131 30 128.2 25.8 123 25C123 30 127 33.5 131 34Z" fill="#669FBD"/>
<path d="M121.5 34C121.5 30 118.7 25.8 113.5 25C113.5 30 117.5 33.5 121.5 34Z" fill="#669FBD"/>
<path d="M112 34C112 30 109.2 25.8 104 25C104 30 108 33.5 112 34Z" fill="#669FBD"/>
<path d="M102.5 34C102.5 30 99.7002 25.8 94.5002 25C94.5002 30 98.5002 33.5 102.5 34Z" fill="#669FBD"/>
<path d="M93.0002 34C93.0002 30 90.2002 25.8 85.0002 25C85.0002 30 89.0002 33.5 93.0002 34Z" fill="#669FBD"/>
<path d="M93.5002 34C89.5101 30.4651 82.3936 29.5198 77.0002 34C82.0002 38.5 90.0002 37.5 93.5002 34Z" fill="#669FBD"/>
<path d="M226 34.5C226 38.5 223.2 42.7 218 43.5C218 38.5 222 35 226 34.5Z" fill="#669FBD"/>
<path d="M216.5 34.5C216.5 38.5 213.7 42.7 208.5 43.5C208.5 38.5 212.5 35 216.5 34.5Z" fill="#669FBD"/>
<path d="M207 34.5C207 38.5 204.2 42.7 199 43.5C199 38.5 203 35 207 34.5Z" fill="#669FBD"/>
<path d="M197.5 34.5C197.5 38.5 194.7 42.7 189.5 43.5C189.5 38.5 193.5 35 197.5 34.5Z" fill="#669FBD"/>
<path d="M188 34.5C188 38.5 185.2 42.7 180 43.5C180 38.5 184 35 188 34.5Z" fill="#669FBD"/>
<path d="M178.5 34.5C178.5 38.5 175.7 42.7 170.5 43.5C170.5 38.5 174.5 35 178.5 34.5Z" fill="#669FBD"/>
<path d="M169 34.5C169 38.5 166.2 42.7 161 43.5C161 38.5 165 35 169 34.5Z" fill="#669FBD"/>
<path d="M159.5 34.5C159.5 38.5 156.7 42.7 151.5 43.5C151.5 38.5 155.5 35 159.5 34.5Z" fill="#669FBD"/>
<path d="M150 34.5C150 38.5 147.2 42.7 142 43.5C142 38.5 146 35 150 34.5Z" fill="#669FBD"/>
<path d="M140.5 34.5C140.5 38.5 137.7 42.7 132.5 43.5C132.5 38.5 136.5 35 140.5 34.5Z" fill="#669FBD"/>
<path d="M131 34.5C131 38.5 128.2 42.7 123 43.5C123 38.5 127 35 131 34.5Z" fill="#669FBD"/>
<path d="M121.5 34.5C121.5 38.5 118.7 42.7 113.5 43.5C113.5 38.5 117.5 35 121.5 34.5Z" fill="#669FBD"/>
<path d="M112 34.5C112 38.5 109.2 42.7 104 43.5C104 38.5 108 35 112 34.5Z" fill="#669FBD"/>
<path d="M102.5 34.5C102.5 38.5 99.7002 42.7 94.5002 43.5C94.5002 38.5 98.5002 35 102.5 34.5Z" fill="#669FBD"/>
<path d="M93.0002 34.5C93.0002 38.5 90.2002 42.7 85.0002 43.5C85.0002 38.5 89.0002 35 93.0002 34.5Z" fill="#669FBD"/>
<rect x="79" y="89.6047" width="16" height="231.287" fill="#669FBD"/>
<rect x="76" y="60" width="22" height="11.1018" fill="#669FBD"/>
<rect x="76" y="357.898" width="22" height="11.1018" fill="#669FBD"/>
<rect x="77" y="74.8022" width="20" height="5.5509" fill="#669FBD"/>
<rect x="77" y="350.497" width="20" height="5.5509" fill="#669FBD"/>
<rect x="78" y="82.2035" width="18" height="3.7006" fill="#669FBD"/>
<rect x="78" y="344.946" width="18" height="3.7006" fill="#669FBD"/>
<rect x="79" y="333.844" width="16" height="9.2515" fill="#669FBD"/>
<rect x="78" y="322.742" width="18" height="3.7006" fill="#669FBD"/>
<rect x="76" y="328.293" width="22" height="3.7006" fill="#669FBD"/>
<path d="M81 106.257V307.015" stroke="#314566"/>
<path d="M85 106.257V307.015" stroke="#314566"/>
<path d="M89 106.257V307.015" stroke="#314566"/>
<path d="M93 106.257V307.015" stroke="#314566"/>
<path d="M506.5 17V50.1094H643.181V380.5H576.036V410H675.25V17H506.5Z" fill="#314566"/>
<path d="M584 395H654" stroke="#669FBD"/>
<path d="M605.5 395C605.5 391 608.3 386.8 613.5 386C613.5 391 609.5 394.5 605.5 395Z" fill="#669FBD"/>
<path d="M615 395C615 391 617.8 386.8 623 386C623 391 619 394.5 615 395Z" fill="#669FBD"/>
<path d="M624.5 395C624.5 391 627.3 386.8 632.5 386C632.5 391 628.5 394.5 624.5 395Z" fill="#669FBD"/>
<path d="M634 395C634 391 636.8 386.8 642 386C642 391 638 394.5 634 395Z" fill="#669FBD"/>
<path d="M643.5 395C643.5 391 646.3 386.8 651.5 386C651.5 391 647.5 394.5 643.5 395Z" fill="#669FBD"/>
<path d="M653 395C653 391 655.8 386.8 661 386C661 391 657 394.5 653 395Z" fill="#669FBD"/>
<path d="M652.5 395C656.49 391.465 663.607 390.52 669 395C664 399.5 656 398.5 652.5 395Z" fill="#669FBD"/>
<path d="M605.5 395.5C605.5 399.5 608.3 403.7 613.5 404.5C613.5 399.5 609.5 396 605.5 395.5Z" fill="#669FBD"/>
<path d="M615 395.5C615 399.5 617.8 403.7 623 404.5C623 399.5 619 396 615 395.5Z" fill="#669FBD"/>
<path d="M624.5 395.5C624.5 399.5 627.3 403.7 632.5 404.5C632.5 399.5 628.5 396 624.5 395.5Z" fill="#669FBD"/>
<path d="M634 395.5C634 399.5 636.8 403.7 642 404.5C642 399.5 638 396 634 395.5Z" fill="#669FBD"/>
<path d="M643.5 395.5C643.5 399.5 646.3 403.7 651.5 404.5C651.5 399.5 647.5 396 643.5 395.5Z" fill="#669FBD"/>
<path d="M653 395.5C653 399.5 655.8 403.7 661 404.5C661 399.5 657 396 653 395.5Z" fill="#669FBD"/>
<path d="M465 34H654.5" stroke="#669FBD"/>
<path d="M520 34C520 30 522.8 25.8 528 25C528 30 524 33.5 520 34Z" fill="#669FBD"/>
<path d="M529.5 34C529.5 30 532.3 25.8 537.5 25C537.5 30 533.5 33.5 529.5 34Z" fill="#669FBD"/>
<path d="M539 34C539 30 541.8 25.8 547 25C547 30 543 33.5 539 34Z" fill="#669FBD"/>
<path d="M548.5 34C548.5 30 551.3 25.8 556.5 25C556.5 30 552.5 33.5 548.5 34Z" fill="#669FBD"/>
<path d="M558 34C558 30 560.8 25.8 566 25C566 30 562 33.5 558 34Z" fill="#669FBD"/>
<path d="M567.5 34C567.5 30 570.3 25.8 575.5 25C575.5 30 571.5 33.5 567.5 34Z" fill="#669FBD"/>
<path d="M577 34C577 30 579.8 25.8 585 25C585 30 581 33.5 577 34Z" fill="#669FBD"/>
<path d="M586.5 34C586.5 30 589.3 25.8 594.5 25C594.5 30 590.5 33.5 586.5 34Z" fill="#669FBD"/>
<path d="M596 34C596 30 598.8 25.8 604 25C604 30 600 33.5 596 34Z" fill="#669FBD"/>
<path d="M605.5 34C605.5 30 608.3 25.8 613.5 25C613.5 30 609.5 33.5 605.5 34Z" fill="#669FBD"/>
<path d="M615 34C615 30 617.8 25.8 623 25C623 30 619 33.5 615 34Z" fill="#669FBD"/>
<path d="M624.5 34C624.5 30 627.3 25.8 632.5 25C632.5 30 628.5 33.5 624.5 34Z" fill="#669FBD"/>
<path d="M634 34C634 30 636.8 25.8 642 25C642 30 638 33.5 634 34Z" fill="#669FBD"/>
<path d="M643.5 34C643.5 30 646.3 25.8 651.5 25C651.5 30 647.5 33.5 643.5 34Z" fill="#669FBD"/>
<path d="M653 34C653 30 655.8 25.8 661 25C661 30 657 33.5 653 34Z" fill="#669FBD"/>
<path d="M652.5 34C656.49 30.4651 663.607 29.5198 669 34C664 38.5 656 37.5 652.5 34Z" fill="#669FBD"/>
<path d="M520 34.5C520 38.5 522.8 42.7 528 43.5C528 38.5 524 35 520 34.5Z" fill="#669FBD"/>
<path d="M529.5 34.5C529.5 38.5 532.3 42.7 537.5 43.5C537.5 38.5 533.5 35 529.5 34.5Z" fill="#669FBD"/>
<path d="M539 34.5C539 38.5 541.8 42.7 547 43.5C547 38.5 543 35 539 34.5Z" fill="#669FBD"/>
<path d="M548.5 34.5C548.5 38.5 551.3 42.7 556.5 43.5C556.5 38.5 552.5 35 548.5 34.5Z" fill="#669FBD"/>
<path d="M558 34.5C558 38.5 560.8 42.7 566 43.5C566 38.5 562 35 558 34.5Z" fill="#669FBD"/>
<path d="M567.5 34.5C567.5 38.5 570.3 42.7 575.5 43.5C575.5 38.5 571.5 35 567.5 34.5Z" fill="#669FBD"/>
<path d="M577 34.5C577 38.5 579.8 42.7 585 43.5C585 38.5 581 35 577 34.5Z" fill="#669FBD"/>
<path d="M586.5 34.5C586.5 38.5 589.3 42.7 594.5 43.5C594.5 38.5 590.5 35 586.5 34.5Z" fill="#669FBD"/>
<path d="M596 34.5C596 38.5 598.8 42.7 604 43.5C604 38.5 600 35 596 34.5Z" fill="#669FBD"/>
<path d="M605.5 34.5C605.5 38.5 608.3 42.7 613.5 43.5C613.5 38.5 609.5 35 605.5 34.5Z" fill="#669FBD"/>
<path d="M615 34.5C615 38.5 617.8 42.7 623 43.5C623 38.5 619 35 615 34.5Z" fill="#669FBD"/>
<path d="M624.5 34.5C624.5 38.5 627.3 42.7 632.5 43.5C632.5 38.5 628.5 35 624.5 34.5Z" fill="#669FBD"/>
<path d="M634 34.5C634 38.5 636.8 42.7 642 43.5C642 38.5 638 35 634 34.5Z" fill="#669FBD"/>
<path d="M643.5 34.5C643.5 38.5 646.3 42.7 651.5 43.5C651.5 38.5 647.5 35 643.5 34.5Z" fill="#669FBD"/>
<path d="M653 34.5C653 38.5 655.8 42.7 661 43.5C661 38.5 657 35 653 34.5Z" fill="#669FBD"/>
<rect width="16" height="231.287" transform="matrix(-1 0 0 1 667 89.6047)" fill="#669FBD"/>
<rect width="22" height="11.1018" transform="matrix(-1 0 0 1 670 60)" fill="#669FBD"/>
<rect width="22" height="11.1018" transform="matrix(-1 0 0 1 670 357.898)" fill="#669FBD"/>
<rect width="20" height="5.5509" transform="matrix(-1 0 0 1 669 74.8022)" fill="#669FBD"/>
<rect width="20" height="5.5509" transform="matrix(-1 0 0 1 669 350.497)" fill="#669FBD"/>
<rect width="18" height="3.7006" transform="matrix(-1 0 0 1 668 82.2035)" fill="#669FBD"/>
<rect width="18" height="3.7006" transform="matrix(-1 0 0 1 668 344.946)" fill="#669FBD"/>
<rect width="16" height="9.2515" transform="matrix(-1 0 0 1 667 333.844)" fill="#669FBD"/>
<rect width="18" height="3.7006" transform="matrix(-1 0 0 1 668 322.742)" fill="#669FBD"/>
<rect width="22" height="3.7006" transform="matrix(-1 0 0 1 670 328.293)" fill="#669FBD"/>
<path d="M665 106.257V307.015" stroke="#314566"/>
<path d="M661 106.257V307.015" stroke="#314566"/>
<path d="M657 106.257V307.015" stroke="#314566"/>
<path d="M653 106.257V307.015" stroke="#314566"/>
</svg>
