<svg width="747" height="428" viewBox="0 0 747 428" fill="none" xmlns="http://www.w3.org/2000/svg">
<rect width="747" height="428" fill="#669FBD"/>
<rect x="114.5" y="58.5" width="518" height="314" stroke="#314566"/>
<rect x="10.5" y="10.5" width="726" height="406" stroke="#314566" stroke-width="3"/>
<rect x="680" y="17" width="50" height="393" fill="#314566"/>
<path d="M703 403L687 396L707 388L722 396L703 403Z" fill="#669FBD" stroke="#314566"/>
<path d="M703 398L687 391L707 383L722 391L703 398Z" fill="#669FBD" stroke="#314566"/>
<path d="M703 393L687 386L707 378L722 386L703 393Z" fill="#669FBD" stroke="#314566"/>
<path d="M703 29L687 36L707 44L722 36L703 29Z" fill="#669FBD" stroke="#314566"/>
<path d="M703 34L687 41L707 49L722 41L703 34Z" fill="#669FBD" stroke="#314566"/>
<path d="M703 39L687 46L707 54L722 46L703 39Z" fill="#669FBD" stroke="#314566"/>
<path d="M709 243.662L700.273 243.662L700.273 238.394L701.21 238.394L701.21 242.605L704.159 242.605L704.159 238.667L705.097 238.667L705.097 242.605L708.063 242.605L708.063 238.326L709 238.326L709 243.662ZM702.455 231.117C702.023 231.168 701.688 231.375 701.449 231.739C701.21 232.103 701.091 232.549 701.091 233.077C701.091 233.464 701.153 233.802 701.278 234.091C701.403 234.378 701.575 234.603 701.794 234.765C702.013 234.924 702.261 235.003 702.54 235.003C702.773 235.003 702.973 234.948 703.141 234.837C703.305 234.723 703.443 234.579 703.554 234.402C703.662 234.226 703.751 234.042 703.822 233.848C703.891 233.655 703.946 233.478 703.989 233.316L704.227 232.429C704.287 232.202 704.369 231.949 704.474 231.671C704.58 231.39 704.723 231.121 704.905 230.866C705.084 230.607 705.314 230.394 705.595 230.226C705.876 230.059 706.222 229.975 706.631 229.975C707.102 229.975 707.528 230.098 707.909 230.346C708.29 230.59 708.592 230.948 708.817 231.419C709.041 231.888 709.153 232.458 709.153 233.128C709.153 233.753 709.053 234.294 708.851 234.752C708.649 235.206 708.368 235.564 708.007 235.826C707.646 236.084 707.227 236.231 706.75 236.265L706.75 235.174C707.08 235.145 707.352 235.035 707.568 234.841C707.781 234.645 707.94 234.398 708.045 234.1C708.148 233.799 708.199 233.475 708.199 233.128C708.199 232.725 708.134 232.363 708.003 232.042C707.869 231.721 707.685 231.466 707.449 231.279C707.21 231.091 706.932 230.998 706.614 230.998C706.324 230.998 706.088 231.079 705.906 231.241C705.724 231.402 705.577 231.616 705.463 231.88C705.349 232.144 705.25 232.429 705.165 232.736L704.858 233.81C704.662 234.492 704.382 235.032 704.018 235.429C703.655 235.827 703.179 236.026 702.591 236.026C702.102 236.026 701.676 235.894 701.313 235.63C700.946 235.363 700.662 235.005 700.46 234.556C700.256 234.104 700.153 233.6 700.153 233.043C700.153 232.481 700.254 231.981 700.456 231.543C700.655 231.106 700.928 230.759 701.274 230.503C701.621 230.245 702.014 230.108 702.455 230.094L702.455 231.117ZM701.21 228.115L700.273 228.115L700.273 221.569L701.21 221.569L701.21 224.313L709 224.313L709 225.37L701.21 225.37L701.21 228.115ZM709.068 219.152C709.068 219.362 708.993 219.542 708.842 219.693C708.692 219.843 708.511 219.919 708.301 219.919C708.091 219.919 707.911 219.843 707.76 219.693C707.609 219.542 707.534 219.362 707.534 219.152C707.534 218.941 707.609 218.761 707.76 218.61C707.911 218.46 708.091 218.385 708.301 218.385C708.44 218.385 708.568 218.42 708.685 218.491C708.801 218.559 708.895 218.652 708.966 218.768C709.034 218.882 709.068 219.01 709.068 219.152ZM709 212.022L708.233 212.022L705.08 209.141C704.71 208.803 704.389 208.525 704.116 208.306C703.841 208.087 703.582 207.925 703.341 207.82C703.097 207.712 702.841 207.658 702.574 207.658C702.267 207.658 702.001 207.732 701.777 207.88C701.553 208.025 701.379 208.224 701.257 208.477C701.135 208.729 701.074 209.013 701.074 209.329C701.074 209.664 701.143 209.957 701.283 210.207C701.419 210.454 701.611 210.646 701.858 210.782C702.105 210.915 702.395 210.982 702.727 210.982L702.727 211.988C702.216 211.988 701.767 211.87 701.381 211.634C700.994 211.398 700.693 211.077 700.477 210.671C700.261 210.262 700.153 209.803 700.153 209.295C700.153 208.783 700.261 208.33 700.477 207.935C700.693 207.54 700.984 207.231 701.351 207.006C701.717 206.782 702.125 206.67 702.574 206.67C702.895 206.67 703.209 206.728 703.516 206.844C703.82 206.958 704.159 207.157 704.534 207.441C704.906 207.722 705.361 208.113 705.898 208.613L707.994 210.573L708.063 210.573L708.063 206.516L709 206.516L709 212.022ZM709.119 201.31C709.119 201.952 708.945 202.499 708.595 202.95C708.243 203.402 707.733 203.747 707.065 203.986C706.395 204.225 705.585 204.344 704.636 204.344C703.693 204.344 702.888 204.225 702.22 203.986C701.55 203.744 701.038 203.398 700.686 202.946C700.331 202.492 700.153 201.946 700.153 201.31C700.153 200.673 700.331 200.129 700.686 199.678C701.038 199.223 701.55 198.877 702.22 198.638C702.888 198.396 703.693 198.276 704.636 198.276C705.585 198.276 706.395 198.395 707.065 198.634C707.733 198.872 708.243 199.217 708.595 199.669C708.945 200.121 709.119 200.668 709.119 201.31ZM708.182 201.31C708.182 200.673 707.875 200.179 707.261 199.827C706.648 199.475 705.773 199.298 704.636 199.298C703.881 199.298 703.237 199.379 702.706 199.541C702.175 199.7 701.77 199.931 701.491 200.232C701.213 200.53 701.074 200.889 701.074 201.31C701.074 201.94 701.385 202.433 702.007 202.788C702.626 203.144 703.503 203.321 704.636 203.321C705.392 203.321 706.034 203.242 706.563 203.082C707.091 202.923 707.493 202.695 707.768 202.396C708.044 202.095 708.182 201.733 708.182 201.31ZM709.119 193.21C709.119 193.852 708.945 194.399 708.595 194.85C708.243 195.302 707.733 195.647 707.065 195.886C706.395 196.125 705.585 196.244 704.636 196.244C703.693 196.244 702.888 196.125 702.22 195.886C701.55 195.644 701.038 195.298 700.686 194.846C700.331 194.392 700.153 193.846 700.153 193.21C700.153 192.573 700.331 192.029 700.686 191.578C701.038 191.123 701.55 190.777 702.22 190.538C702.888 190.296 703.693 190.176 704.636 190.176C705.585 190.176 706.395 190.295 707.065 190.534C707.733 190.772 708.243 191.117 708.595 191.569C708.945 192.021 709.119 192.568 709.119 193.21ZM708.182 193.21C708.182 192.573 707.875 192.079 707.261 191.727C706.648 191.375 705.773 191.198 704.636 191.198C703.881 191.198 703.237 191.279 702.706 191.441C702.175 191.6 701.77 191.831 701.491 192.132C701.213 192.43 701.074 192.789 701.074 193.21C701.074 193.84 701.385 194.333 702.007 194.688C702.626 195.044 703.503 195.221 704.636 195.221C705.392 195.221 706.034 195.142 706.563 194.982C707.091 194.823 707.493 194.595 707.768 194.296C708.044 193.995 708.182 193.633 708.182 193.21ZM700.273 184.888L709 184.888L709 185.945L701.381 185.945L701.381 185.996L702.795 188.127L701.722 188.127L700.273 185.945L700.273 184.888Z" fill="#669FBD"/>
<rect x="16" y="17" width="50" height="393" fill="#314566"/>
<path d="M39 403L23 396L43 388L58 396L39 403Z" fill="#669FBD" stroke="#314566"/>
<path d="M39 398L23 391L43 383L58 391L39 398Z" fill="#669FBD" stroke="#314566"/>
<path d="M39 393L23 386L43 378L58 386L39 393Z" fill="#669FBD" stroke="#314566"/>
<path d="M39 29L23 36L43 44L58 36L39 29Z" fill="#669FBD" stroke="#314566"/>
<path d="M39 34L23 41L43 49L58 41L39 34Z" fill="#669FBD" stroke="#314566"/>
<path d="M39 39L23 46L43 54L58 46L39 39Z" fill="#669FBD" stroke="#314566"/>
<path d="M36 171.434L44.7273 171.434L44.7273 174.383C44.7273 175.064 44.6108 175.624 44.3778 176.062C44.1477 176.499 43.831 176.823 43.4276 177.033C43.0241 177.243 42.5653 177.349 42.0511 177.349C41.5369 177.349 41.081 177.243 40.6832 177.033C40.2855 176.823 39.973 176.501 39.7457 176.066C39.5213 175.631 39.4091 175.076 39.4091 174.4L39.4091 172.013L40.3636 172.013L40.3636 174.366C40.3636 174.831 40.4318 175.206 40.5682 175.491C40.7045 175.778 40.8977 175.985 41.1477 176.113C41.4006 176.243 41.7017 176.309 42.0511 176.309C42.4006 176.309 42.706 176.243 42.9673 176.113C43.2287 175.982 43.4304 175.773 43.5724 175.486C43.7173 175.199 43.7898 174.82 43.7898 174.349L43.7898 172.491L36 172.491L36 171.434ZM39.9205 175.542L36 177.689L36 176.462L39.9205 174.349L39.9205 175.542ZM36 179.71L44.7273 179.71L44.7273 184.977L43.7898 184.977L43.7898 180.766L40.8409 180.766L40.8409 184.704L39.9034 184.704L39.9034 180.766L36.9375 180.766L36.9375 185.045L36 185.045L36 179.71ZM36 187.481L44.7273 187.481L44.7273 192.714L43.7898 192.714L43.7898 188.538L40.8409 188.538L40.8409 192.322L39.9034 192.322L39.9034 188.538L36 188.538L36 187.481ZM36 195.124L44.7273 195.124L44.7273 196.181L36.9375 196.181L36.9375 200.238L36 200.238L36 195.124ZM36 202.474L44.7273 202.474L44.7273 207.741L43.7898 207.741L43.7898 203.531L40.8409 203.531L40.8409 207.469L39.9034 207.469L39.9034 203.531L36.9375 203.531L36.9375 207.81L36 207.81L36 202.474ZM42 217.269L42 216.212C42.304 216.15 42.571 216.04 42.8011 215.884C43.0312 215.731 43.2244 215.543 43.3807 215.322C43.5398 215.103 43.6591 214.86 43.7386 214.593C43.8182 214.326 43.858 214.047 43.858 213.758C43.858 213.229 43.7244 212.751 43.4574 212.322C43.1903 211.895 42.7969 211.556 42.277 211.303C41.7571 211.053 41.1193 210.928 40.3636 210.928C39.608 210.928 38.9702 211.053 38.4503 211.303C37.9304 211.556 37.5369 211.895 37.2699 212.322C37.0028 212.751 36.8693 213.229 36.8693 213.758C36.8693 214.047 36.9091 214.326 36.9886 214.593C37.0682 214.86 37.1861 215.103 37.3423 215.322C37.5014 215.543 37.696 215.731 37.9261 215.884C38.1591 216.04 38.4261 216.15 38.7273 216.212L38.7273 217.269C38.2812 217.189 37.8821 217.045 37.5298 216.834C37.1776 216.624 36.8778 216.363 36.6307 216.05C36.3864 215.738 36.2003 215.387 36.0724 214.998C35.9446 214.611 35.8807 214.198 35.8807 213.758C35.8807 213.013 36.0625 212.351 36.4261 211.772C36.7898 211.192 37.3068 210.736 37.9773 210.404C38.6477 210.072 39.4432 209.905 40.3636 209.905C41.2841 209.905 42.0795 210.072 42.75 210.404C43.4205 210.736 43.9375 211.192 44.3011 211.772C44.6648 212.351 44.8466 213.013 44.8466 213.758C44.8466 214.198 44.7827 214.611 44.6548 214.998C44.527 215.387 44.3395 215.738 44.0923 216.05C43.848 216.363 43.5497 216.624 43.1974 216.834C42.848 217.045 42.4489 217.189 42 217.269ZM43.7898 219.099L44.7273 219.099L44.7273 225.645L43.7898 225.645L43.7898 222.901L36 222.901L36 221.844L43.7898 221.844L43.7898 219.099ZM44.7273 228.933L36 228.933L36 227.876L44.7273 227.876L44.7273 228.933ZM40.3636 239.015C39.4432 239.015 38.6477 238.849 37.9773 238.517C37.3068 238.184 36.7898 237.728 36.4261 237.149C36.0625 236.569 35.8807 235.907 35.8807 235.163C35.8807 234.419 36.0625 233.757 36.4261 233.177C36.7898 232.598 37.3068 232.142 37.9773 231.809C38.6477 231.477 39.4432 231.311 40.3636 231.311C41.2841 231.311 42.0795 231.477 42.75 231.809C43.4205 232.142 43.9375 232.598 44.3011 233.177C44.6648 233.757 44.8466 234.419 44.8466 235.163C44.8466 235.907 44.6648 236.569 44.3011 237.149C43.9375 237.728 43.4205 238.184 42.75 238.517C42.0795 238.849 41.2841 239.015 40.3636 239.015ZM40.3636 237.993C41.1193 237.993 41.7571 237.866 42.277 237.613C42.7969 237.363 43.1903 237.024 43.4574 236.595C43.7244 236.169 43.858 235.692 43.858 235.163C43.858 234.635 43.7244 234.156 43.4574 233.727C43.1903 233.301 42.7969 232.961 42.277 232.709C41.7571 232.459 41.1193 232.334 40.3636 232.334C39.608 232.334 38.9702 232.459 38.4503 232.709C37.9304 232.961 37.5369 233.301 37.2699 233.727C37.0028 234.156 36.8693 234.635 36.8693 235.163C36.8693 235.692 37.0028 236.169 37.2699 236.595C37.5369 237.024 37.9304 237.363 38.4503 237.613C38.9702 237.866 39.608 237.993 40.3636 237.993ZM44.7273 248.313L36 248.313L36 247.29L42.8523 242.534L42.8523 242.449L36 242.449L36 241.392L44.7273 241.392L44.7273 242.415L37.858 247.188L37.858 247.273L44.7273 247.273L44.7273 248.313ZM42.5455 255.8C42.9773 255.749 43.3125 255.542 43.5511 255.178C43.7898 254.814 43.9091 254.368 43.9091 253.84C43.9091 253.454 43.8466 253.116 43.7216 252.826C43.5966 252.539 43.4247 252.314 43.206 252.153C42.9872 251.993 42.7386 251.914 42.4602 251.914C42.2273 251.914 42.027 251.969 41.8594 252.08C41.6946 252.194 41.5568 252.339 41.446 252.515C41.3381 252.691 41.2486 252.876 41.1776 253.069C41.1094 253.262 41.054 253.439 41.0114 253.601L40.7727 254.488C40.7131 254.715 40.6307 254.968 40.5256 255.246C40.4205 255.528 40.277 255.796 40.0952 256.052C39.9162 256.31 39.6861 256.523 39.4048 256.691C39.1236 256.858 38.7784 256.942 38.3693 256.942C37.8977 256.942 37.4716 256.819 37.0909 256.572C36.7102 256.327 36.4077 255.969 36.1832 255.498C35.9588 255.029 35.8466 254.459 35.8466 253.789C35.8466 253.164 35.9474 252.623 36.1491 252.165C36.3508 251.711 36.6321 251.353 36.9929 251.091C37.3537 250.833 37.7727 250.687 38.25 250.653L38.25 251.743C37.9205 251.772 37.6477 251.883 37.4318 252.076C37.2187 252.272 37.0597 252.519 36.9545 252.817C36.8523 253.118 36.8011 253.442 36.8011 253.789C36.8011 254.192 36.8665 254.555 36.9972 254.876C37.1307 255.197 37.3153 255.451 37.5511 255.638C37.7898 255.826 38.0682 255.92 38.3864 255.92C38.6761 255.92 38.9119 255.839 39.0937 255.677C39.2756 255.515 39.4233 255.302 39.5369 255.037C39.6506 254.773 39.75 254.488 39.8352 254.181L40.142 253.107C40.3381 252.425 40.6179 251.885 40.9815 251.488C41.3452 251.09 41.821 250.891 42.4091 250.891C42.8977 250.891 43.3239 251.023 43.6875 251.287C44.054 251.555 44.3381 251.912 44.5398 252.361C44.7443 252.813 44.8466 253.317 44.8466 253.874C44.8466 254.437 44.7457 254.937 44.544 255.374C44.3452 255.812 44.0724 256.158 43.7258 256.414C43.3793 256.672 42.9858 256.809 42.5455 256.823L42.5455 255.8Z" fill="#669FBD"/>
<path d="M302.564 46V28.688H298.276L299.364 24.56H312.58L311.492 28.688H306.756L308.004 30.864V46H302.564ZM327.205 34.128V24.56H332.645V41.776L334.981 42.32L332.965 46.48L327.205 45.2V36.72H322.565V46H317.125V28.592L314.789 28.08L316.805 23.92L322.565 25.168V34.128H327.205ZM341.29 45.776L338.794 42.288V30.256L343.114 23.92L351.146 24.944L349.418 29.2L342.858 28.336L344.234 30.352V33.2H348.618V36.848H344.234V41.52L351.082 41.936L349.738 46.224L341.29 45.776ZM362.694 23.92L367.558 24.944L370.982 41.52L371.526 41.616L374.726 28.784L371.11 28.08L373.126 23.92L377.606 24.752L371.686 46.352L366.566 45.808L362.566 28.464L360.582 28.08L362.694 23.92ZM381.277 36.496V30.704L386.429 23.92L392.989 24.848L396.029 30.096V41.712L398.045 42.256L396.029 46.416L390.589 45.136V39.088H386.717V46H381.277V39.088H379.357V36.496H381.277ZM386.717 36.496H390.589V29.296L385.341 28.304L386.717 30.416V36.496ZM402.965 45.52L403.157 28.592L400.789 28.08L402.805 23.92L408.597 25.168L408.405 39.376L407.669 41.968L410.293 42.448L412.277 39.376V24.56H417.717V41.808L420.053 42.32L418.037 46.48L412.277 45.2V42.736L413.237 40.432L413.013 40.336L409.077 46.48L402.965 45.52ZM430.321 39.088L429.873 41.392L435.793 41.776L434.577 46.224L427.345 45.808L424.881 42.32V28.592L422.545 28.08L424.561 23.92L430.321 25.168V39.088ZM440.707 46V28.688H436.419L437.507 24.56H450.723L449.635 28.688H444.899L446.147 30.864V46H440.707Z" fill="#314566"/>
<path d="M306.806 396.727H307.772L308.581 397.793L308.795 398.077L310.002 399.682H309.036L308.241 398.616L308.042 398.347L306.806 396.727ZM310.3 395.364C310.3 396.131 310.162 396.794 309.885 397.352C309.608 397.911 309.228 398.342 308.745 398.645C308.262 398.948 307.71 399.099 307.09 399.099C306.47 399.099 305.918 398.948 305.435 398.645C304.952 398.342 304.572 397.911 304.295 397.352C304.018 396.794 303.88 396.131 303.88 395.364C303.88 394.597 304.018 393.934 304.295 393.375C304.572 392.816 304.952 392.385 305.435 392.082C305.918 391.779 306.47 391.628 307.09 391.628C307.71 391.628 308.262 391.779 308.745 392.082C309.228 392.385 309.608 392.816 309.885 393.375C310.162 393.934 310.3 394.597 310.3 395.364ZM309.448 395.364C309.448 394.734 309.343 394.202 309.132 393.769C308.924 393.336 308.641 393.008 308.283 392.786C307.928 392.563 307.53 392.452 307.09 392.452C306.65 392.452 306.251 392.563 305.893 392.786C305.538 393.008 305.255 393.336 305.045 393.769C304.836 394.202 304.732 394.734 304.732 395.364C304.732 395.993 304.836 396.525 305.045 396.958C305.255 397.391 305.538 397.719 305.893 397.942C306.251 398.164 306.65 398.276 307.09 398.276C307.53 398.276 307.928 398.164 308.283 397.942C308.641 397.719 308.924 397.391 309.132 396.958C309.343 396.525 309.448 395.993 309.448 395.364ZM318.554 391.727H319.434V396.543C319.434 397.04 319.317 397.484 319.083 397.874C318.851 398.263 318.523 398.569 318.099 398.794C317.675 399.017 317.178 399.128 316.608 399.128C316.037 399.128 315.54 399.017 315.116 398.794C314.693 398.569 314.363 398.263 314.129 397.874C313.897 397.484 313.781 397.04 313.781 396.543V391.727H314.662V396.472C314.662 396.827 314.74 397.143 314.896 397.42C315.052 397.694 315.275 397.911 315.564 398.07C315.855 398.226 316.203 398.304 316.608 398.304C317.013 398.304 317.361 398.226 317.652 398.07C317.943 397.911 318.166 397.694 318.319 397.42C318.476 397.143 318.554 396.827 318.554 396.472V391.727ZM323.491 399H322.568L325.239 391.727H326.148L328.818 399H327.895L325.722 392.878H325.665L323.491 399ZM323.832 396.159H327.554V396.94H323.832V396.159ZM331.951 399V391.727H334.408C334.977 391.727 335.443 391.824 335.808 392.018C336.172 392.21 336.442 392.474 336.617 392.81C336.792 393.147 336.88 393.529 336.88 393.957C336.88 394.386 336.792 394.766 336.617 395.097C336.442 395.429 336.173 395.689 335.811 395.879C335.449 396.066 334.986 396.159 334.423 396.159H332.434V395.364H334.394C334.782 395.364 335.095 395.307 335.332 395.193C335.571 395.08 335.744 394.919 335.85 394.71C335.959 394.5 336.013 394.249 336.013 393.957C336.013 393.666 335.959 393.412 335.85 393.194C335.741 392.976 335.567 392.808 335.328 392.69C335.089 392.569 334.773 392.509 334.38 392.509H332.832V399H331.951ZM335.374 395.733L337.164 399H336.141L334.38 395.733H335.374ZM339.95 392.509V391.727H345.404V392.509H343.117V399H342.237V392.509H339.95ZM348.763 399V391.727H353.153V392.509H349.644V394.966H352.925V395.747H349.644V398.219H353.21V399H348.763ZM356.74 399V391.727H359.197C359.766 391.727 360.232 391.824 360.597 392.018C360.961 392.21 361.231 392.474 361.406 392.81C361.581 393.147 361.669 393.529 361.669 393.957C361.669 394.386 361.581 394.766 361.406 395.097C361.231 395.429 360.962 395.689 360.6 395.879C360.238 396.066 359.775 396.159 359.212 396.159H357.223V395.364H359.183C359.571 395.364 359.884 395.307 360.121 395.193C360.36 395.08 360.533 394.919 360.639 394.71C360.748 394.5 360.803 394.249 360.803 393.957C360.803 393.666 360.748 393.412 360.639 393.194C360.53 392.976 360.356 392.808 360.117 392.69C359.878 392.569 359.562 392.509 359.169 392.509H357.621V399H356.74ZM360.163 395.733L361.953 399H360.93L359.169 395.733H360.163ZM369.949 399V391.727H370.83V398.219H374.21V399H369.949ZM378.455 391.727V399H377.574V391.727H378.455ZM382.221 399V391.727H386.581V392.509H383.101V394.966H386.255V395.747H383.101V399H382.221ZM390.09 399V391.727H394.479V392.509H390.97V394.966H394.252V395.747H390.97V398.219H394.536V399H390.09ZM408.731 394H407.85C407.798 393.747 407.707 393.524 407.577 393.332C407.449 393.141 407.293 392.98 407.108 392.849C406.926 392.717 406.723 392.617 406.501 392.551C406.278 392.485 406.046 392.452 405.805 392.452C405.365 392.452 404.966 392.563 404.608 392.786C404.253 393.008 403.97 393.336 403.759 393.769C403.551 394.202 403.447 394.734 403.447 395.364C403.447 395.993 403.551 396.525 403.759 396.958C403.97 397.391 404.253 397.719 404.608 397.942C404.966 398.164 405.365 398.276 405.805 398.276C406.046 398.276 406.278 398.242 406.501 398.176C406.723 398.11 406.926 398.012 407.108 397.881C407.293 397.749 407.449 397.587 407.577 397.395C407.707 397.201 407.798 396.978 407.85 396.727H408.731C408.665 397.099 408.544 397.432 408.369 397.725C408.194 398.019 407.976 398.268 407.715 398.474C407.455 398.678 407.163 398.833 406.838 398.94C406.516 399.046 406.172 399.099 405.805 399.099C405.185 399.099 404.633 398.948 404.15 398.645C403.667 398.342 403.287 397.911 403.01 397.352C402.733 396.794 402.595 396.131 402.595 395.364C402.595 394.597 402.733 393.934 403.01 393.375C403.287 392.816 403.667 392.385 404.15 392.082C404.633 391.779 405.185 391.628 405.805 391.628C406.172 391.628 406.516 391.681 406.838 391.788C407.163 391.894 407.455 392.05 407.715 392.256C407.976 392.46 408.194 392.709 408.369 393.002C408.544 393.293 408.665 393.626 408.731 394ZM412.154 399V391.727H414.612C415.18 391.727 415.646 391.824 416.011 392.018C416.375 392.21 416.645 392.474 416.82 392.81C416.996 393.147 417.083 393.529 417.083 393.957C417.083 394.386 416.996 394.766 416.82 395.097C416.645 395.429 416.376 395.689 416.014 395.879C415.652 396.066 415.189 396.159 414.626 396.159H412.637V395.364H414.597C414.986 395.364 415.298 395.307 415.535 395.193C415.774 395.08 415.947 394.919 416.053 394.71C416.162 394.5 416.217 394.249 416.217 393.957C416.217 393.666 416.162 393.412 416.053 393.194C415.944 392.976 415.77 392.808 415.531 392.69C415.292 392.569 414.976 392.509 414.583 392.509H413.035V399H412.154ZM415.577 395.733L417.367 399H416.344L414.583 395.733H415.577ZM421.431 391.727V399H420.551V391.727H421.431ZM429.174 393.545C429.132 393.186 428.959 392.906 428.656 392.707C428.353 392.509 427.981 392.409 427.541 392.409C427.219 392.409 426.937 392.461 426.696 392.565C426.457 392.67 426.27 392.813 426.135 392.995C426.002 393.177 425.936 393.384 425.936 393.616C425.936 393.811 425.982 393.978 426.074 394.117C426.169 394.254 426.29 394.369 426.436 394.462C426.583 394.552 426.737 394.626 426.898 394.685C427.059 394.742 427.207 394.788 427.342 394.824L428.081 395.023C428.27 395.072 428.481 395.141 428.713 395.229C428.947 395.316 429.171 395.436 429.384 395.587C429.599 395.737 429.777 395.928 429.917 396.163C430.056 396.397 430.126 396.685 430.126 397.026C430.126 397.419 430.023 397.774 429.817 398.091C429.614 398.408 429.315 398.66 428.922 398.847C428.532 399.034 428.057 399.128 427.498 399.128C426.977 399.128 426.526 399.044 426.145 398.876C425.766 398.708 425.468 398.473 425.25 398.173C425.035 397.872 424.913 397.523 424.885 397.125H425.794C425.817 397.4 425.91 397.627 426.071 397.807C426.234 397.984 426.44 398.117 426.689 398.205C426.94 398.29 427.209 398.332 427.498 398.332C427.834 398.332 428.136 398.278 428.404 398.169C428.671 398.058 428.883 397.904 429.039 397.707C429.196 397.509 429.274 397.277 429.274 397.011C429.274 396.77 429.206 396.573 429.071 396.422C428.936 396.27 428.759 396.147 428.539 396.053C428.319 395.958 428.081 395.875 427.825 395.804L426.93 395.548C426.362 395.385 425.912 395.152 425.581 394.849C425.249 394.546 425.083 394.149 425.083 393.659C425.083 393.252 425.194 392.897 425.414 392.594C425.636 392.288 425.935 392.052 426.309 391.884C426.685 391.713 427.105 391.628 427.569 391.628C428.038 391.628 428.455 391.712 428.819 391.88C429.184 392.046 429.473 392.273 429.686 392.562C429.901 392.851 430.015 393.179 430.027 393.545H429.174ZM434.455 391.727V399H433.574V391.727H434.455ZM442.198 393.545C442.155 393.186 441.982 392.906 441.679 392.707C441.376 392.509 441.005 392.409 440.564 392.409C440.242 392.409 439.961 392.461 439.719 392.565C439.48 392.67 439.293 392.813 439.158 392.995C439.025 393.177 438.959 393.384 438.959 393.616C438.959 393.811 439.005 393.978 439.098 394.117C439.192 394.254 439.313 394.369 439.46 394.462C439.607 394.552 439.761 394.626 439.922 394.685C440.083 394.742 440.23 394.788 440.365 394.824L441.104 395.023C441.293 395.072 441.504 395.141 441.736 395.229C441.971 395.316 442.194 395.436 442.407 395.587C442.623 395.737 442.8 395.928 442.94 396.163C443.08 396.397 443.15 396.685 443.15 397.026C443.15 397.419 443.047 397.774 442.841 398.091C442.637 398.408 442.339 398.66 441.946 398.847C441.555 399.034 441.08 399.128 440.522 399.128C440.001 399.128 439.55 399.044 439.169 398.876C438.79 398.708 438.492 398.473 438.274 398.173C438.058 397.872 437.936 397.523 437.908 397.125H438.817C438.841 397.4 438.933 397.627 439.094 397.807C439.257 397.984 439.463 398.117 439.712 398.205C439.963 398.29 440.233 398.332 440.522 398.332C440.858 398.332 441.16 398.278 441.427 398.169C441.695 398.058 441.907 397.904 442.063 397.707C442.219 397.509 442.297 397.277 442.297 397.011C442.297 396.77 442.23 396.573 442.095 396.422C441.96 396.27 441.782 396.147 441.562 396.053C441.342 395.958 441.104 395.875 440.848 395.804L439.953 395.548C439.385 395.385 438.935 395.152 438.604 394.849C438.273 394.546 438.107 394.149 438.107 393.659C438.107 393.252 438.217 392.897 438.437 392.594C438.66 392.288 438.958 392.052 439.332 391.884C439.708 391.713 440.129 391.628 440.593 391.628C441.061 391.628 441.478 391.712 441.843 391.88C442.207 392.046 442.496 392.273 442.709 392.562C442.925 392.851 443.038 393.179 443.05 393.545H442.198Z" fill="#314566"/>
<path d="M239.5 17V50.1094H102.819V380.5H169.964V410H70.75V17H239.5Z" fill="#314566"/>
<path d="M162 395H92" stroke="#669FBD"/>
<path d="M140.5 395C140.5 391 137.7 386.8 132.5 386C132.5 391 136.5 394.5 140.5 395Z" fill="#669FBD"/>
<path d="M131 395C131 391 128.2 386.8 123 386C123 391 127 394.5 131 395Z" fill="#669FBD"/>
<path d="M121.5 395C121.5 391 118.7 386.8 113.5 386C113.5 391 117.5 394.5 121.5 395Z" fill="#669FBD"/>
<path d="M112 395C112 391 109.2 386.8 104 386C104 391 108 394.5 112 395Z" fill="#669FBD"/>
<path d="M102.5 395C102.5 391 99.7002 386.8 94.5002 386C94.5002 391 98.5002 394.5 102.5 395Z" fill="#669FBD"/>
<path d="M93.0002 395C93.0002 391 90.2002 386.8 85.0002 386C85.0002 391 89.0002 394.5 93.0002 395Z" fill="#669FBD"/>
<path d="M93.5002 395C89.5101 391.465 82.3936 390.52 77.0002 395C82.0002 399.5 90.0002 398.5 93.5002 395Z" fill="#669FBD"/>
<path d="M140.5 395.5C140.5 399.5 137.7 403.7 132.5 404.5C132.5 399.5 136.5 396 140.5 395.5Z" fill="#669FBD"/>
<path d="M131 395.5C131 399.5 128.2 403.7 123 404.5C123 399.5 127 396 131 395.5Z" fill="#669FBD"/>
<path d="M121.5 395.5C121.5 399.5 118.7 403.7 113.5 404.5C113.5 399.5 117.5 396 121.5 395.5Z" fill="#669FBD"/>
<path d="M112 395.5C112 399.5 109.2 403.7 104 404.5C104 399.5 108 396 112 395.5Z" fill="#669FBD"/>
<path d="M102.5 395.5C102.5 399.5 99.7002 403.7 94.5002 404.5C94.5002 399.5 98.5002 396 102.5 395.5Z" fill="#669FBD"/>
<path d="M93.0002 395.5C93.0002 399.5 90.2002 403.7 85.0002 404.5C85.0002 399.5 89.0002 396 93.0002 395.5Z" fill="#669FBD"/>
<path d="M281 34H91.5002" stroke="#669FBD"/>
<path d="M226 34C226 30 223.2 25.8 218 25C218 30 222 33.5 226 34Z" fill="#669FBD"/>
<path d="M216.5 34C216.5 30 213.7 25.8 208.5 25C208.5 30 212.5 33.5 216.5 34Z" fill="#669FBD"/>
<path d="M207 34C207 30 204.2 25.8 199 25C199 30 203 33.5 207 34Z" fill="#669FBD"/>
<path d="M197.5 34C197.5 30 194.7 25.8 189.5 25C189.5 30 193.5 33.5 197.5 34Z" fill="#669FBD"/>
<path d="M188 34C188 30 185.2 25.8 180 25C180 30 184 33.5 188 34Z" fill="#669FBD"/>
<path d="M178.5 34C178.5 30 175.7 25.8 170.5 25C170.5 30 174.5 33.5 178.5 34Z" fill="#669FBD"/>
<path d="M169 34C169 30 166.2 25.8 161 25C161 30 165 33.5 169 34Z" fill="#669FBD"/>
<path d="M159.5 34C159.5 30 156.7 25.8 151.5 25C151.5 30 155.5 33.5 159.5 34Z" fill="#669FBD"/>
<path d="M150 34C150 30 147.2 25.8 142 25C142 30 146 33.5 150 34Z" fill="#669FBD"/>
<path d="M140.5 34C140.5 30 137.7 25.8 132.5 25C132.5 30 136.5 33.5 140.5 34Z" fill="#669FBD"/>
<path d="M131 34C131 30 128.2 25.8 123 25C123 30 127 33.5 131 34Z" fill="#669FBD"/>
<path d="M121.5 34C121.5 30 118.7 25.8 113.5 25C113.5 30 117.5 33.5 121.5 34Z" fill="#669FBD"/>
<path d="M112 34C112 30 109.2 25.8 104 25C104 30 108 33.5 112 34Z" fill="#669FBD"/>
<path d="M102.5 34C102.5 30 99.7002 25.8 94.5002 25C94.5002 30 98.5002 33.5 102.5 34Z" fill="#669FBD"/>
<path d="M93.0002 34C93.0002 30 90.2002 25.8 85.0002 25C85.0002 30 89.0002 33.5 93.0002 34Z" fill="#669FBD"/>
<path d="M93.5002 34C89.5101 30.4651 82.3936 29.5198 77.0002 34C82.0002 38.5 90.0002 37.5 93.5002 34Z" fill="#669FBD"/>
<path d="M226 34.5C226 38.5 223.2 42.7 218 43.5C218 38.5 222 35 226 34.5Z" fill="#669FBD"/>
<path d="M216.5 34.5C216.5 38.5 213.7 42.7 208.5 43.5C208.5 38.5 212.5 35 216.5 34.5Z" fill="#669FBD"/>
<path d="M207 34.5C207 38.5 204.2 42.7 199 43.5C199 38.5 203 35 207 34.5Z" fill="#669FBD"/>
<path d="M197.5 34.5C197.5 38.5 194.7 42.7 189.5 43.5C189.5 38.5 193.5 35 197.5 34.5Z" fill="#669FBD"/>
<path d="M188 34.5C188 38.5 185.2 42.7 180 43.5C180 38.5 184 35 188 34.5Z" fill="#669FBD"/>
<path d="M178.5 34.5C178.5 38.5 175.7 42.7 170.5 43.5C170.5 38.5 174.5 35 178.5 34.5Z" fill="#669FBD"/>
<path d="M169 34.5C169 38.5 166.2 42.7 161 43.5C161 38.5 165 35 169 34.5Z" fill="#669FBD"/>
<path d="M159.5 34.5C159.5 38.5 156.7 42.7 151.5 43.5C151.5 38.5 155.5 35 159.5 34.5Z" fill="#669FBD"/>
<path d="M150 34.5C150 38.5 147.2 42.7 142 43.5C142 38.5 146 35 150 34.5Z" fill="#669FBD"/>
<path d="M140.5 34.5C140.5 38.5 137.7 42.7 132.5 43.5C132.5 38.5 136.5 35 140.5 34.5Z" fill="#669FBD"/>
<path d="M131 34.5C131 38.5 128.2 42.7 123 43.5C123 38.5 127 35 131 34.5Z" fill="#669FBD"/>
<path d="M121.5 34.5C121.5 38.5 118.7 42.7 113.5 43.5C113.5 38.5 117.5 35 121.5 34.5Z" fill="#669FBD"/>
<path d="M112 34.5C112 38.5 109.2 42.7 104 43.5C104 38.5 108 35 112 34.5Z" fill="#669FBD"/>
<path d="M102.5 34.5C102.5 38.5 99.7002 42.7 94.5002 43.5C94.5002 38.5 98.5002 35 102.5 34.5Z" fill="#669FBD"/>
<path d="M93.0002 34.5C93.0002 38.5 90.2002 42.7 85.0002 43.5C85.0002 38.5 89.0002 35 93.0002 34.5Z" fill="#669FBD"/>
<rect x="79" y="89.6047" width="16" height="231.287" fill="#669FBD"/>
<rect x="76" y="60" width="22" height="11.1018" fill="#669FBD"/>
<rect x="76" y="357.898" width="22" height="11.1018" fill="#669FBD"/>
<rect x="77" y="74.8022" width="20" height="5.5509" fill="#669FBD"/>
<rect x="77" y="350.497" width="20" height="5.5509" fill="#669FBD"/>
<rect x="78" y="82.2035" width="18" height="3.7006" fill="#669FBD"/>
<rect x="78" y="344.946" width="18" height="3.7006" fill="#669FBD"/>
<rect x="79" y="333.844" width="16" height="9.2515" fill="#669FBD"/>
<rect x="78" y="322.742" width="18" height="3.7006" fill="#669FBD"/>
<rect x="76" y="328.293" width="22" height="3.7006" fill="#669FBD"/>
<path d="M81 106.257V307.015" stroke="#314566"/>
<path d="M85 106.257V307.015" stroke="#314566"/>
<path d="M89 106.257V307.015" stroke="#314566"/>
<path d="M93 106.257V307.015" stroke="#314566"/>
<path d="M506.5 17V50.1094H643.181V380.5H576.036V410H675.25V17H506.5Z" fill="#314566"/>
<path d="M584 395H654" stroke="#669FBD"/>
<path d="M605.5 395C605.5 391 608.3 386.8 613.5 386C613.5 391 609.5 394.5 605.5 395Z" fill="#669FBD"/>
<path d="M615 395C615 391 617.8 386.8 623 386C623 391 619 394.5 615 395Z" fill="#669FBD"/>
<path d="M624.5 395C624.5 391 627.3 386.8 632.5 386C632.5 391 628.5 394.5 624.5 395Z" fill="#669FBD"/>
<path d="M634 395C634 391 636.8 386.8 642 386C642 391 638 394.5 634 395Z" fill="#669FBD"/>
<path d="M643.5 395C643.5 391 646.3 386.8 651.5 386C651.5 391 647.5 394.5 643.5 395Z" fill="#669FBD"/>
<path d="M653 395C653 391 655.8 386.8 661 386C661 391 657 394.5 653 395Z" fill="#669FBD"/>
<path d="M652.5 395C656.49 391.465 663.607 390.52 669 395C664 399.5 656 398.5 652.5 395Z" fill="#669FBD"/>
<path d="M605.5 395.5C605.5 399.5 608.3 403.7 613.5 404.5C613.5 399.5 609.5 396 605.5 395.5Z" fill="#669FBD"/>
<path d="M615 395.5C615 399.5 617.8 403.7 623 404.5C623 399.5 619 396 615 395.5Z" fill="#669FBD"/>
<path d="M624.5 395.5C624.5 399.5 627.3 403.7 632.5 404.5C632.5 399.5 628.5 396 624.5 395.5Z" fill="#669FBD"/>
<path d="M634 395.5C634 399.5 636.8 403.7 642 404.5C642 399.5 638 396 634 395.5Z" fill="#669FBD"/>
<path d="M643.5 395.5C643.5 399.5 646.3 403.7 651.5 404.5C651.5 399.5 647.5 396 643.5 395.5Z" fill="#669FBD"/>
<path d="M653 395.5C653 399.5 655.8 403.7 661 404.5C661 399.5 657 396 653 395.5Z" fill="#669FBD"/>
<path d="M465 34H654.5" stroke="#669FBD"/>
<path d="M520 34C520 30 522.8 25.8 528 25C528 30 524 33.5 520 34Z" fill="#669FBD"/>
<path d="M529.5 34C529.5 30 532.3 25.8 537.5 25C537.5 30 533.5 33.5 529.5 34Z" fill="#669FBD"/>
<path d="M539 34C539 30 541.8 25.8 547 25C547 30 543 33.5 539 34Z" fill="#669FBD"/>
<path d="M548.5 34C548.5 30 551.3 25.8 556.5 25C556.5 30 552.5 33.5 548.5 34Z" fill="#669FBD"/>
<path d="M558 34C558 30 560.8 25.8 566 25C566 30 562 33.5 558 34Z" fill="#669FBD"/>
<path d="M567.5 34C567.5 30 570.3 25.8 575.5 25C575.5 30 571.5 33.5 567.5 34Z" fill="#669FBD"/>
<path d="M577 34C577 30 579.8 25.8 585 25C585 30 581 33.5 577 34Z" fill="#669FBD"/>
<path d="M586.5 34C586.5 30 589.3 25.8 594.5 25C594.5 30 590.5 33.5 586.5 34Z" fill="#669FBD"/>
<path d="M596 34C596 30 598.8 25.8 604 25C604 30 600 33.5 596 34Z" fill="#669FBD"/>
<path d="M605.5 34C605.5 30 608.3 25.8 613.5 25C613.5 30 609.5 33.5 605.5 34Z" fill="#669FBD"/>
<path d="M615 34C615 30 617.8 25.8 623 25C623 30 619 33.5 615 34Z" fill="#669FBD"/>
<path d="M624.5 34C624.5 30 627.3 25.8 632.5 25C632.5 30 628.5 33.5 624.5 34Z" fill="#669FBD"/>
<path d="M634 34C634 30 636.8 25.8 642 25C642 30 638 33.5 634 34Z" fill="#669FBD"/>
<path d="M643.5 34C643.5 30 646.3 25.8 651.5 25C651.5 30 647.5 33.5 643.5 34Z" fill="#669FBD"/>
<path d="M653 34C653 30 655.8 25.8 661 25C661 30 657 33.5 653 34Z" fill="#669FBD"/>
<path d="M652.5 34C656.49 30.4651 663.607 29.5198 669 34C664 38.5 656 37.5 652.5 34Z" fill="#669FBD"/>
<path d="M520 34.5C520 38.5 522.8 42.7 528 43.5C528 38.5 524 35 520 34.5Z" fill="#669FBD"/>
<path d="M529.5 34.5C529.5 38.5 532.3 42.7 537.5 43.5C537.5 38.5 533.5 35 529.5 34.5Z" fill="#669FBD"/>
<path d="M539 34.5C539 38.5 541.8 42.7 547 43.5C547 38.5 543 35 539 34.5Z" fill="#669FBD"/>
<path d="M548.5 34.5C548.5 38.5 551.3 42.7 556.5 43.5C556.5 38.5 552.5 35 548.5 34.5Z" fill="#669FBD"/>
<path d="M558 34.5C558 38.5 560.8 42.7 566 43.5C566 38.5 562 35 558 34.5Z" fill="#669FBD"/>
<path d="M567.5 34.5C567.5 38.5 570.3 42.7 575.5 43.5C575.5 38.5 571.5 35 567.5 34.5Z" fill="#669FBD"/>
<path d="M577 34.5C577 38.5 579.8 42.7 585 43.5C585 38.5 581 35 577 34.5Z" fill="#669FBD"/>
<path d="M586.5 34.5C586.5 38.5 589.3 42.7 594.5 43.5C594.5 38.5 590.5 35 586.5 34.5Z" fill="#669FBD"/>
<path d="M596 34.5C596 38.5 598.8 42.7 604 43.5C604 38.5 600 35 596 34.5Z" fill="#669FBD"/>
<path d="M605.5 34.5C605.5 38.5 608.3 42.7 613.5 43.5C613.5 38.5 609.5 35 605.5 34.5Z" fill="#669FBD"/>
<path d="M615 34.5C615 38.5 617.8 42.7 623 43.5C623 38.5 619 35 615 34.5Z" fill="#669FBD"/>
<path d="M624.5 34.5C624.5 38.5 627.3 42.7 632.5 43.5C632.5 38.5 628.5 35 624.5 34.5Z" fill="#669FBD"/>
<path d="M634 34.5C634 38.5 636.8 42.7 642 43.5C642 38.5 638 35 634 34.5Z" fill="#669FBD"/>
<path d="M643.5 34.5C643.5 38.5 646.3 42.7 651.5 43.5C651.5 38.5 647.5 35 643.5 34.5Z" fill="#669FBD"/>
<path d="M653 34.5C653 38.5 655.8 42.7 661 43.5C661 38.5 657 35 653 34.5Z" fill="#669FBD"/>
<rect width="16" height="231.287" transform="matrix(-1 0 0 1 667 89.6047)" fill="#669FBD"/>
<rect width="22" height="11.1018" transform="matrix(-1 0 0 1 670 60)" fill="#669FBD"/>
<rect width="22" height="11.1018" transform="matrix(-1 0 0 1 670 357.898)" fill="#669FBD"/>
<rect width="20" height="5.5509" transform="matrix(-1 0 0 1 669 74.8022)" fill="#669FBD"/>
<rect width="20" height="5.5509" transform="matrix(-1 0 0 1 669 350.497)" fill="#669FBD"/>
<rect width="18" height="3.7006" transform="matrix(-1 0 0 1 668 82.2035)" fill="#669FBD"/>
<rect width="18" height="3.7006" transform="matrix(-1 0 0 1 668 344.946)" fill="#669FBD"/>
<rect width="16" height="9.2515" transform="matrix(-1 0 0 1 667 333.844)" fill="#669FBD"/>
<rect width="18" height="3.7006" transform="matrix(-1 0 0 1 668 322.742)" fill="#669FBD"/>
<rect width="22" height="3.7006" transform="matrix(-1 0 0 1 670 328.293)" fill="#669FBD"/>
<path d="M665 106.257V307.015" stroke="#314566"/>
<path d="M661 106.257V307.015" stroke="#314566"/>
<path d="M657 106.257V307.015" stroke="#314566"/>
<path d="M653 106.257V307.015" stroke="#314566"/>
</svg>
