<svg width="85" height="85" viewBox="0 0 85 85" fill="none" xmlns="http://www.w3.org/2000/svg">
<path d="M31.6592 10.3975C30.4473 13.7609 29.2852 18.2616 28.5547 22.7108C28.0235 26.0146 27.6748 29.3017 27.6084 32.1571C32.6553 36.4569 38.1172 39.5614 44.1768 39.8437C38.6651 31.1278 33.7178 19.9218 31.6592 10.3975ZM9.43303 16.9667C9.94436 29.4843 14.7505 46.6337 27.8076 55.6815L28.7207 56.3124L28.3887 57.3583C27.8574 59.0351 27.0938 60.5126 25.8985 61.6415C24.6865 62.7704 23.0928 63.5009 21.1338 63.8495C17.3985 64.5136 12.1457 63.9823 4.21848 62.5712C2.62473 66.5722 2.84221 70.9716 4.28987 74.5409C5.73753 78.0771 8.32239 80.6171 11.2791 81.2812C15.4046 76.0019 21.6153 69.5937 30.1319 69.9755C38.7647 70.3573 48.6426 67.9667 54.5195 62.0731C56.5947 60.0145 58.3711 55.0507 59.4004 50.6845C60.4297 46.3183 60.8447 42.5497 60.8447 42.5497L60.9444 41.537L61.9404 41.2714C65.5264 40.3417 69.8428 39.495 74.6738 37.0546C73.2461 36.0917 71.5693 34.9628 69.627 33.8007C66.6553 32.0409 63.3848 30.5136 61.7744 30.331C59.0186 30.0487 57.458 30.5468 56.3789 31.3437C55.3164 32.1405 54.6192 33.369 54.0049 34.8466C53.4072 36.3241 52.9424 38.0009 52.1123 39.5116C51.2656 41.039 49.7881 42.4667 47.6631 42.6991C38.3662 43.7782 30.4307 38.8974 23.7735 32.7216C18.2949 27.6415 13.5502 21.6317 9.43303 16.9667Z" fill="#669FBD"/>
</svg>
