<svg width="632" height="257" viewBox="0 0 632 257" fill="none" xmlns="http://www.w3.org/2000/svg">
<rect width="632" height="257" fill="#669FBD"/>
<rect x="111.5" y="58.5" width="408" height="141" stroke="#314566"/>
<rect x="9.5" y="10.5" width="611" height="237" stroke="#314566" stroke-width="3"/>
<rect x="16" y="17" width="50" height="223" fill="#314566"/>
<rect width="50" height="223" transform="matrix(-1 0 0 1 614 17)" fill="#314566"/>
<path d="M70.75 17H239.5V50.1092H102.819V208.838H169.964V240H70.75V17Z" fill="#314566"/>
<path d="M559 17H389V50.1092H526.931V208.838H459.786V240H559V17Z" fill="#314566"/>
<path d="M162 224H92" stroke="#669FBD"/>
<path d="M140.5 224C140.5 220 137.7 215.8 132.5 215C132.5 220 136.5 223.5 140.5 224Z" fill="#669FBD"/>
<path d="M131 224C131 220 128.2 215.8 123 215C123 220 127 223.5 131 224Z" fill="#669FBD"/>
<path d="M121.5 224C121.5 220 118.7 215.8 113.5 215C113.5 220 117.5 223.5 121.5 224Z" fill="#669FBD"/>
<path d="M112 224C112 220 109.2 215.8 104 215C104 220 108 223.5 112 224Z" fill="#669FBD"/>
<path d="M102.5 224C102.5 220 99.7002 215.8 94.5002 215C94.5002 220 98.5002 223.5 102.5 224Z" fill="#669FBD"/>
<path d="M93.0002 224C93.0002 220 90.2002 215.8 85.0002 215C85.0002 220 89.0002 223.5 93.0002 224Z" fill="#669FBD"/>
<path d="M93.5002 224C89.5101 220.465 82.3936 219.52 77.0002 224C82.0002 228.5 90.0002 227.5 93.5002 224Z" fill="#669FBD"/>
<path d="M140.5 224.5C140.5 228.5 137.7 232.7 132.5 233.5C132.5 228.5 136.5 225 140.5 224.5Z" fill="#669FBD"/>
<path d="M131 224.5C131 228.5 128.2 232.7 123 233.5C123 228.5 127 225 131 224.5Z" fill="#669FBD"/>
<path d="M121.5 224.5C121.5 228.5 118.7 232.7 113.5 233.5C113.5 228.5 117.5 225 121.5 224.5Z" fill="#669FBD"/>
<path d="M112 224.5C112 228.5 109.2 232.7 104 233.5C104 228.5 108 225 112 224.5Z" fill="#669FBD"/>
<path d="M102.5 224.5C102.5 228.5 99.7002 232.7 94.5002 233.5C94.5002 228.5 98.5002 225 102.5 224.5Z" fill="#669FBD"/>
<path d="M93.0002 224.5C93.0002 228.5 90.2002 232.7 85.0002 233.5C85.0002 228.5 89.0002 225 93.0002 224.5Z" fill="#669FBD"/>
<path d="M281 34H91.5002" stroke="#669FBD"/>
<path d="M226 34C226 30 223.2 25.8 218 25C218 30 222 33.5 226 34Z" fill="#669FBD"/>
<path d="M216.5 34C216.5 30 213.7 25.8 208.5 25C208.5 30 212.5 33.5 216.5 34Z" fill="#669FBD"/>
<path d="M207 34C207 30 204.2 25.8 199 25C199 30 203 33.5 207 34Z" fill="#669FBD"/>
<path d="M197.5 34C197.5 30 194.7 25.8 189.5 25C189.5 30 193.5 33.5 197.5 34Z" fill="#669FBD"/>
<path d="M188 34C188 30 185.2 25.8 180 25C180 30 184 33.5 188 34Z" fill="#669FBD"/>
<path d="M178.5 34C178.5 30 175.7 25.8 170.5 25C170.5 30 174.5 33.5 178.5 34Z" fill="#669FBD"/>
<path d="M169 34C169 30 166.2 25.8 161 25C161 30 165 33.5 169 34Z" fill="#669FBD"/>
<path d="M159.5 34C159.5 30 156.7 25.8 151.5 25C151.5 30 155.5 33.5 159.5 34Z" fill="#669FBD"/>
<path d="M150 34C150 30 147.2 25.8 142 25C142 30 146 33.5 150 34Z" fill="#669FBD"/>
<path d="M140.5 34C140.5 30 137.7 25.8 132.5 25C132.5 30 136.5 33.5 140.5 34Z" fill="#669FBD"/>
<path d="M131 34C131 30 128.2 25.8 123 25C123 30 127 33.5 131 34Z" fill="#669FBD"/>
<path d="M121.5 34C121.5 30 118.7 25.8 113.5 25C113.5 30 117.5 33.5 121.5 34Z" fill="#669FBD"/>
<path d="M112 34C112 30 109.2 25.8 104 25C104 30 108 33.5 112 34Z" fill="#669FBD"/>
<path d="M102.5 34C102.5 30 99.7002 25.8 94.5002 25C94.5002 30 98.5002 33.5 102.5 34Z" fill="#669FBD"/>
<path d="M93.0002 34C93.0002 30 90.2002 25.8 85.0002 25C85.0002 30 89.0002 33.5 93.0002 34Z" fill="#669FBD"/>
<path d="M93.5002 34C89.5101 30.4651 82.3936 29.5198 77.0002 34C82.0002 38.5 90.0002 37.5 93.5002 34Z" fill="#669FBD"/>
<path d="M226 34.5C226 38.5 223.2 42.7 218 43.5C218 38.5 222 35 226 34.5Z" fill="#669FBD"/>
<path d="M216.5 34.5C216.5 38.5 213.7 42.7 208.5 43.5C208.5 38.5 212.5 35 216.5 34.5Z" fill="#669FBD"/>
<path d="M207 34.5C207 38.5 204.2 42.7 199 43.5C199 38.5 203 35 207 34.5Z" fill="#669FBD"/>
<path d="M197.5 34.5C197.5 38.5 194.7 42.7 189.5 43.5C189.5 38.5 193.5 35 197.5 34.5Z" fill="#669FBD"/>
<path d="M188 34.5C188 38.5 185.2 42.7 180 43.5C180 38.5 184 35 188 34.5Z" fill="#669FBD"/>
<path d="M178.5 34.5C178.5 38.5 175.7 42.7 170.5 43.5C170.5 38.5 174.5 35 178.5 34.5Z" fill="#669FBD"/>
<path d="M169 34.5C169 38.5 166.2 42.7 161 43.5C161 38.5 165 35 169 34.5Z" fill="#669FBD"/>
<path d="M159.5 34.5C159.5 38.5 156.7 42.7 151.5 43.5C151.5 38.5 155.5 35 159.5 34.5Z" fill="#669FBD"/>
<path d="M150 34.5C150 38.5 147.2 42.7 142 43.5C142 38.5 146 35 150 34.5Z" fill="#669FBD"/>
<path d="M140.5 34.5C140.5 38.5 137.7 42.7 132.5 43.5C132.5 38.5 136.5 35 140.5 34.5Z" fill="#669FBD"/>
<path d="M131 34.5C131 38.5 128.2 42.7 123 43.5C123 38.5 127 35 131 34.5Z" fill="#669FBD"/>
<path d="M121.5 34.5C121.5 38.5 118.7 42.7 113.5 43.5C113.5 38.5 117.5 35 121.5 34.5Z" fill="#669FBD"/>
<path d="M112 34.5C112 38.5 109.2 42.7 104 43.5C104 38.5 108 35 112 34.5Z" fill="#669FBD"/>
<path d="M102.5 34.5C102.5 38.5 99.7002 42.7 94.5002 43.5C94.5002 38.5 98.5002 35 102.5 34.5Z" fill="#669FBD"/>
<path d="M93.0002 34.5C93.0002 38.5 90.2002 42.7 85.0002 43.5C85.0002 38.5 89.0002 35 93.0002 34.5Z" fill="#669FBD"/>
<path d="M466 224H536" stroke="#669FBD"/>
<path d="M487.5 224C487.5 220 490.3 215.8 495.5 215C495.5 220 491.5 223.5 487.5 224Z" fill="#669FBD"/>
<path d="M497 224C497 220 499.8 215.8 505 215C505 220 501 223.5 497 224Z" fill="#669FBD"/>
<path d="M506.5 224C506.5 220 509.3 215.8 514.5 215C514.5 220 510.5 223.5 506.5 224Z" fill="#669FBD"/>
<path d="M516 224C516 220 518.8 215.8 524 215C524 220 520 223.5 516 224Z" fill="#669FBD"/>
<path d="M525.5 224C525.5 220 528.3 215.8 533.5 215C533.5 220 529.5 223.5 525.5 224Z" fill="#669FBD"/>
<path d="M535 224C535 220 537.8 215.8 543 215C543 220 539 223.5 535 224Z" fill="#669FBD"/>
<path d="M534.5 224C538.49 220.465 545.606 219.52 551 224C546 228.5 538 227.5 534.5 224Z" fill="#669FBD"/>
<path d="M487.5 224.5C487.5 228.5 490.3 232.7 495.5 233.5C495.5 228.5 491.5 225 487.5 224.5Z" fill="#669FBD"/>
<path d="M497 224.5C497 228.5 499.8 232.7 505 233.5C505 228.5 501 225 497 224.5Z" fill="#669FBD"/>
<path d="M506.5 224.5C506.5 228.5 509.3 232.7 514.5 233.5C514.5 228.5 510.5 225 506.5 224.5Z" fill="#669FBD"/>
<path d="M516 224.5C516 228.5 518.8 232.7 524 233.5C524 228.5 520 225 516 224.5Z" fill="#669FBD"/>
<path d="M525.5 224.5C525.5 228.5 528.3 232.7 533.5 233.5C533.5 228.5 529.5 225 525.5 224.5Z" fill="#669FBD"/>
<path d="M535 224.5C535 228.5 537.8 232.7 543 233.5C543 228.5 539 225 535 224.5Z" fill="#669FBD"/>
<path d="M347 34H536.5" stroke="#669FBD"/>
<path d="M402 34C402 30 404.8 25.8 410 25C410 30 406 33.5 402 34Z" fill="#669FBD"/>
<path d="M411.5 34C411.5 30 414.3 25.8 419.5 25C419.5 30 415.5 33.5 411.5 34Z" fill="#669FBD"/>
<path d="M421 34C421 30 423.8 25.8 429 25C429 30 425 33.5 421 34Z" fill="#669FBD"/>
<path d="M430.5 34C430.5 30 433.3 25.8 438.5 25C438.5 30 434.5 33.5 430.5 34Z" fill="#669FBD"/>
<path d="M440 34C440 30 442.8 25.8 448 25C448 30 444 33.5 440 34Z" fill="#669FBD"/>
<path d="M449.5 34C449.5 30 452.3 25.8 457.5 25C457.5 30 453.5 33.5 449.5 34Z" fill="#669FBD"/>
<path d="M459 34C459 30 461.8 25.8 467 25C467 30 463 33.5 459 34Z" fill="#669FBD"/>
<path d="M468.5 34C468.5 30 471.3 25.8 476.5 25C476.5 30 472.5 33.5 468.5 34Z" fill="#669FBD"/>
<path d="M478 34C478 30 480.8 25.8 486 25C486 30 482 33.5 478 34Z" fill="#669FBD"/>
<path d="M487.5 34C487.5 30 490.3 25.8 495.5 25C495.5 30 491.5 33.5 487.5 34Z" fill="#669FBD"/>
<path d="M497 34C497 30 499.8 25.8 505 25C505 30 501 33.5 497 34Z" fill="#669FBD"/>
<path d="M506.5 34C506.5 30 509.3 25.8 514.5 25C514.5 30 510.5 33.5 506.5 34Z" fill="#669FBD"/>
<path d="M516 34C516 30 518.8 25.8 524 25C524 30 520 33.5 516 34Z" fill="#669FBD"/>
<path d="M525.5 34C525.5 30 528.3 25.8 533.5 25C533.5 30 529.5 33.5 525.5 34Z" fill="#669FBD"/>
<path d="M535 34C535 30 537.8 25.8 543 25C543 30 539 33.5 535 34Z" fill="#669FBD"/>
<path d="M534.5 34C538.49 30.4651 545.606 29.5198 551 34C546 38.5 538 37.5 534.5 34Z" fill="#669FBD"/>
<path d="M402 34.5C402 38.5 404.8 42.7 410 43.5C410 38.5 406 35 402 34.5Z" fill="#669FBD"/>
<path d="M411.5 34.5C411.5 38.5 414.3 42.7 419.5 43.5C419.5 38.5 415.5 35 411.5 34.5Z" fill="#669FBD"/>
<path d="M421 34.5C421 38.5 423.8 42.7 429 43.5C429 38.5 425 35 421 34.5Z" fill="#669FBD"/>
<path d="M430.5 34.5C430.5 38.5 433.3 42.7 438.5 43.5C438.5 38.5 434.5 35 430.5 34.5Z" fill="#669FBD"/>
<path d="M440 34.5C440 38.5 442.8 42.7 448 43.5C448 38.5 444 35 440 34.5Z" fill="#669FBD"/>
<path d="M449.5 34.5C449.5 38.5 452.3 42.7 457.5 43.5C457.5 38.5 453.5 35 449.5 34.5Z" fill="#669FBD"/>
<path d="M459 34.5C459 38.5 461.8 42.7 467 43.5C467 38.5 463 35 459 34.5Z" fill="#669FBD"/>
<path d="M468.5 34.5C468.5 38.5 471.3 42.7 476.5 43.5C476.5 38.5 472.5 35 468.5 34.5Z" fill="#669FBD"/>
<path d="M478 34.5C478 38.5 480.8 42.7 486 43.5C486 38.5 482 35 478 34.5Z" fill="#669FBD"/>
<path d="M487.5 34.5C487.5 38.5 490.3 42.7 495.5 43.5C495.5 38.5 491.5 35 487.5 34.5Z" fill="#669FBD"/>
<path d="M497 34.5C497 38.5 499.8 42.7 505 43.5C505 38.5 501 35 497 34.5Z" fill="#669FBD"/>
<path d="M506.5 34.5C506.5 38.5 509.3 42.7 514.5 43.5C514.5 38.5 510.5 35 506.5 34.5Z" fill="#669FBD"/>
<path d="M516 34.5C516 38.5 518.8 42.7 524 43.5C524 38.5 520 35 516 34.5Z" fill="#669FBD"/>
<path d="M525.5 34.5C525.5 38.5 528.3 42.7 533.5 43.5C533.5 38.5 529.5 35 525.5 34.5Z" fill="#669FBD"/>
<path d="M535 34.5C535 38.5 537.8 42.7 543 43.5C543 38.5 539 35 535 34.5Z" fill="#669FBD"/>
<path d="M39 229L23 222L43 214L58 222L39 229Z" fill="#669FBD" stroke="#314566"/>
<path d="M39 224L23 217L43 209L58 217L39 224Z" fill="#669FBD" stroke="#314566"/>
<path d="M39 219L23 212L43 204L58 212L39 219Z" fill="#669FBD" stroke="#314566"/>
<path d="M587 229L571 222L591 214L606 222L587 229Z" fill="#669FBD" stroke="#314566"/>
<path d="M587 224L571 217L591 209L606 217L587 224Z" fill="#669FBD" stroke="#314566"/>
<path d="M587 219L571 212L591 204L606 212L587 219Z" fill="#669FBD" stroke="#314566"/>
<path d="M39 29L23 36L43 44L58 36L39 29Z" fill="#669FBD" stroke="#314566"/>
<path d="M39 34L23 41L43 49L58 41L39 34Z" fill="#669FBD" stroke="#314566"/>
<path d="M39 39L23 46L43 54L58 46L39 39Z" fill="#669FBD" stroke="#314566"/>
<path d="M587 29L571 36L591 44L606 36L587 29Z" fill="#669FBD" stroke="#314566"/>
<path d="M587 34L571 41L591 49L606 41L587 34Z" fill="#669FBD" stroke="#314566"/>
<path d="M587 39L571 46L591 54L606 46L587 39Z" fill="#669FBD" stroke="#314566"/>
<path d="M36 85.4338L44.7273 85.4338L44.7273 88.3826C44.7273 89.0645 44.6108 89.6241 44.3778 90.0616C44.1477 90.4991 43.831 90.823 43.4276 91.0332C43.0241 91.2434 42.5653 91.3485 42.0511 91.3485C41.5369 91.3485 41.081 91.2434 40.6832 91.0332C40.2855 90.823 39.973 90.5005 39.7457 90.0659C39.5213 89.6312 39.4091 89.0758 39.4091 88.3997L39.4091 86.0133L40.3636 86.0133L40.3636 88.3656C40.3636 88.8315 40.4318 89.2065 40.5682 89.4906C40.7045 89.7775 40.8977 89.9849 41.1477 90.1127C41.4006 90.2434 41.7017 90.3088 42.0511 90.3088C42.4006 90.3088 42.706 90.2434 42.9673 90.1127C43.2287 89.9821 43.4304 89.7733 43.5724 89.4863C43.7173 89.1994 43.7898 88.8201 43.7898 88.3485L43.7898 86.4906L36 86.4906L36 85.4338ZM39.9205 89.5417L36 91.6895L36 90.4622L39.9205 88.3485L39.9205 89.5417ZM36 93.7096L44.7273 93.7096L44.7273 98.9766L43.7898 98.9766L43.7898 94.7664L40.8409 94.7664L40.8409 98.7039L39.9034 98.7039L39.9034 94.7664L36.9375 94.7664L36.9375 99.0448L36 99.0448L36 93.7096ZM36 101.481L44.7273 101.481L44.7273 106.714L43.7898 106.714L43.7898 102.538L40.8409 102.538L40.8409 106.322L39.9034 106.322L39.9034 102.538L36 102.538L36 101.481ZM36 109.124L44.7273 109.124L44.7273 110.181L36.9375 110.181L36.9375 114.238L36 114.238L36 109.124ZM36 116.474L44.7273 116.474L44.7273 121.741L43.7898 121.741L43.7898 117.531L40.8409 117.531L40.8409 121.469L39.9034 121.469L39.9034 117.531L36.9375 117.531L36.9375 121.81L36 121.81L36 116.474ZM42 131.269L42 130.212C42.304 130.15 42.571 130.04 42.8011 129.884C43.0312 129.731 43.2244 129.543 43.3807 129.322C43.5398 129.103 43.6591 128.86 43.7386 128.593C43.8182 128.326 43.858 128.047 43.858 127.758C43.858 127.229 43.7244 126.751 43.4574 126.322C43.1903 125.895 42.7969 125.556 42.277 125.303C41.7571 125.053 41.1193 124.928 40.3636 124.928C39.608 124.928 38.9702 125.053 38.4503 125.303C37.9304 125.556 37.5369 125.895 37.2699 126.322C37.0028 126.751 36.8693 127.229 36.8693 127.758C36.8693 128.047 36.9091 128.326 36.9886 128.593C37.0682 128.86 37.1861 129.103 37.3423 129.322C37.5014 129.543 37.696 129.731 37.9261 129.884C38.1591 130.04 38.4261 130.15 38.7273 130.212L38.7273 131.269C38.2812 131.189 37.8821 131.045 37.5298 130.834C37.1776 130.624 36.8778 130.363 36.6307 130.05C36.3864 129.738 36.2003 129.387 36.0724 128.998C35.9446 128.611 35.8807 128.198 35.8807 127.758C35.8807 127.013 36.0625 126.351 36.4261 125.772C36.7898 125.192 37.3068 124.736 37.9773 124.404C38.6477 124.072 39.4432 123.905 40.3636 123.905C41.2841 123.905 42.0795 124.072 42.75 124.404C43.4205 124.736 43.9375 125.192 44.3011 125.772C44.6648 126.351 44.8466 127.013 44.8466 127.758C44.8466 128.198 44.7827 128.611 44.6548 128.998C44.527 129.387 44.3395 129.738 44.0923 130.05C43.848 130.363 43.5497 130.624 43.1974 130.834C42.848 131.045 42.4489 131.189 42 131.269ZM43.7898 133.099L44.7273 133.099L44.7273 139.645L43.7898 139.645L43.7898 136.901L36 136.901L36 135.844L43.7898 135.844L43.7898 133.099ZM44.7273 142.933L36 142.933L36 141.876L44.7273 141.876L44.7273 142.933ZM40.3636 153.015C39.4432 153.015 38.6477 152.849 37.9773 152.517C37.3068 152.184 36.7898 151.728 36.4261 151.149C36.0625 150.569 35.8807 149.907 35.8807 149.163C35.8807 148.419 36.0625 147.757 36.4261 147.177C36.7898 146.598 37.3068 146.142 37.9773 145.809C38.6477 145.477 39.4432 145.311 40.3636 145.311C41.2841 145.311 42.0795 145.477 42.75 145.809C43.4205 146.142 43.9375 146.598 44.3011 147.177C44.6648 147.757 44.8466 148.419 44.8466 149.163C44.8466 149.907 44.6648 150.569 44.3011 151.149C43.9375 151.728 43.4205 152.184 42.75 152.517C42.0795 152.849 41.2841 153.015 40.3636 153.015ZM40.3636 151.993C41.1193 151.993 41.7571 151.866 42.277 151.613C42.7969 151.363 43.1903 151.024 43.4574 150.595C43.7244 150.169 43.858 149.692 43.858 149.163C43.858 148.635 43.7244 148.156 43.4574 147.727C43.1903 147.301 42.7969 146.961 42.277 146.709C41.7571 146.459 41.1193 146.334 40.3636 146.334C39.608 146.334 38.9702 146.459 38.4503 146.709C37.9304 146.961 37.5369 147.301 37.2699 147.727C37.0028 148.156 36.8693 148.635 36.8693 149.163C36.8693 149.692 37.0028 150.169 37.2699 150.595C37.5369 151.024 37.9304 151.363 38.4503 151.613C38.9702 151.866 39.608 151.993 40.3636 151.993ZM44.7273 162.313L36 162.313L36 161.29L42.8523 156.534L42.8523 156.449L36 156.449L36 155.392L44.7273 155.392L44.7273 156.415L37.858 161.188L37.858 161.273L44.7273 161.273L44.7273 162.313ZM42.5455 169.8C42.9773 169.749 43.3125 169.542 43.5511 169.178C43.7898 168.814 43.9091 168.368 43.9091 167.84C43.9091 167.454 43.8466 167.116 43.7216 166.826C43.5966 166.539 43.4247 166.314 43.206 166.153C42.9872 165.993 42.7386 165.914 42.4602 165.914C42.2273 165.914 42.027 165.969 41.8594 166.08C41.6946 166.194 41.5568 166.339 41.446 166.515C41.3381 166.691 41.2486 166.876 41.1776 167.069C41.1094 167.262 41.054 167.439 41.0114 167.601L40.7727 168.488C40.7131 168.715 40.6307 168.968 40.5256 169.246C40.4205 169.528 40.277 169.796 40.0952 170.052C39.9162 170.31 39.6861 170.523 39.4048 170.691C39.1236 170.858 38.7784 170.942 38.3693 170.942C37.8977 170.942 37.4716 170.819 37.0909 170.572C36.7102 170.327 36.4077 169.969 36.1832 169.498C35.9588 169.029 35.8466 168.459 35.8466 167.789C35.8466 167.164 35.9474 166.623 36.1491 166.165C36.3508 165.711 36.6321 165.353 36.9929 165.091C37.3537 164.833 37.7727 164.687 38.25 164.653L38.25 165.743C37.9205 165.772 37.6477 165.883 37.4318 166.076C37.2187 166.272 37.0597 166.519 36.9545 166.817C36.8523 167.118 36.8011 167.442 36.8011 167.789C36.8011 168.192 36.8665 168.555 36.9972 168.876C37.1307 169.197 37.3153 169.451 37.5511 169.638C37.7898 169.826 38.0682 169.92 38.3864 169.92C38.6761 169.92 38.9119 169.839 39.0937 169.677C39.2756 169.515 39.4233 169.302 39.5369 169.037C39.6506 168.773 39.75 168.488 39.8352 168.181L40.142 167.107C40.3381 166.425 40.6179 165.885 40.9815 165.488C41.3452 165.09 41.821 164.891 42.4091 164.891C42.8977 164.891 43.3239 165.023 43.6875 165.287C44.054 165.555 44.3381 165.912 44.5398 166.361C44.7443 166.813 44.8466 167.317 44.8466 167.874C44.8466 168.437 44.7457 168.937 44.544 169.374C44.3452 169.812 44.0724 170.158 43.7258 170.414C43.3793 170.672 42.9858 170.809 42.5455 170.823L42.5455 169.8Z" fill="#669FBD"/>
<path d="M593 159.662L584.273 159.662L584.273 154.394L585.21 154.394L585.21 158.605L588.159 158.605L588.159 154.667L589.097 154.667L589.097 158.605L592.062 158.605L592.062 154.326L593 154.326L593 159.662ZM586.455 147.117C586.023 147.168 585.687 147.375 585.449 147.739C585.21 148.103 585.091 148.549 585.091 149.077C585.091 149.464 585.153 149.802 585.278 150.091C585.403 150.378 585.575 150.603 585.794 150.765C586.013 150.924 586.261 151.003 586.54 151.003C586.773 151.003 586.973 150.948 587.141 150.837C587.305 150.723 587.443 150.579 587.554 150.402C587.662 150.226 587.751 150.042 587.822 149.848C587.891 149.655 587.946 149.478 587.989 149.316L588.227 148.429C588.287 148.202 588.369 147.949 588.474 147.671C588.58 147.39 588.723 147.121 588.905 146.866C589.084 146.607 589.314 146.394 589.595 146.226C589.876 146.059 590.222 145.975 590.631 145.975C591.102 145.975 591.528 146.098 591.909 146.346C592.29 146.59 592.592 146.948 592.817 147.419C593.041 147.888 593.153 148.458 593.153 149.128C593.153 149.753 593.053 150.294 592.851 150.752C592.649 151.206 592.368 151.564 592.007 151.826C591.646 152.084 591.227 152.231 590.75 152.265L590.75 151.174C591.08 151.145 591.352 151.035 591.568 150.841C591.781 150.645 591.94 150.398 592.045 150.1C592.148 149.799 592.199 149.475 592.199 149.128C592.199 148.725 592.134 148.363 592.003 148.042C591.869 147.721 591.685 147.466 591.449 147.279C591.21 147.091 590.932 146.998 590.614 146.998C590.324 146.998 590.088 147.079 589.906 147.241C589.724 147.402 589.577 147.616 589.463 147.88C589.349 148.144 589.25 148.429 589.165 148.736L588.858 149.81C588.662 150.492 588.382 151.032 588.018 151.429C587.655 151.827 587.179 152.026 586.591 152.026C586.102 152.026 585.676 151.894 585.312 151.63C584.946 151.363 584.662 151.005 584.46 150.556C584.256 150.104 584.153 149.6 584.153 149.043C584.153 148.481 584.254 147.981 584.456 147.543C584.655 147.106 584.928 146.759 585.274 146.503C585.621 146.245 586.014 146.108 586.455 146.094L586.455 147.117ZM585.21 144.115L584.273 144.115L584.273 137.569L585.21 137.569L585.21 140.313L593 140.313L593 141.37L585.21 141.37L585.21 144.115ZM593.068 135.152C593.068 135.362 592.993 135.542 592.842 135.693C592.692 135.843 592.511 135.919 592.301 135.919C592.091 135.919 591.911 135.843 591.76 135.693C591.609 135.542 591.534 135.362 591.534 135.152C591.534 134.941 591.609 134.761 591.76 134.61C591.911 134.46 592.091 134.385 592.301 134.385C592.44 134.385 592.568 134.42 592.685 134.491C592.801 134.559 592.895 134.652 592.966 134.768C593.034 134.882 593.068 135.01 593.068 135.152ZM593 128.022L592.233 128.022L589.08 125.141C588.71 124.803 588.389 124.525 588.116 124.306C587.841 124.087 587.582 123.925 587.341 123.82C587.097 123.712 586.841 123.658 586.574 123.658C586.267 123.658 586.001 123.732 585.777 123.88C585.553 124.025 585.379 124.224 585.257 124.477C585.135 124.729 585.074 125.013 585.074 125.329C585.074 125.664 585.143 125.957 585.283 126.207C585.419 126.454 585.611 126.646 585.858 126.782C586.105 126.915 586.395 126.982 586.727 126.982L586.727 127.988C586.216 127.988 585.767 127.87 585.381 127.634C584.994 127.398 584.693 127.077 584.477 126.671C584.261 126.262 584.153 125.803 584.153 125.295C584.153 124.783 584.261 124.33 584.477 123.935C584.693 123.54 584.984 123.231 585.351 123.006C585.717 122.782 586.125 122.67 586.574 122.67C586.895 122.67 587.209 122.728 587.516 122.844C587.82 122.958 588.159 123.157 588.534 123.441C588.906 123.722 589.361 124.113 589.898 124.613L591.994 126.573L592.062 126.573L592.062 122.516L593 122.516L593 128.022ZM593.119 117.31C593.119 117.952 592.945 118.499 592.595 118.95C592.243 119.402 591.733 119.747 591.065 119.986C590.395 120.225 589.585 120.344 588.636 120.344C587.693 120.344 586.888 120.225 586.22 119.986C585.55 119.744 585.038 119.398 584.686 118.946C584.331 118.492 584.153 117.946 584.153 117.31C584.153 116.673 584.331 116.129 584.686 115.678C585.038 115.223 585.55 114.877 586.22 114.638C586.888 114.396 587.693 114.276 588.636 114.276C589.585 114.276 590.395 114.395 591.065 114.634C591.733 114.872 592.243 115.217 592.595 115.669C592.945 116.121 593.119 116.668 593.119 117.31ZM592.182 117.31C592.182 116.673 591.875 116.179 591.261 115.827C590.648 115.475 589.773 115.298 588.636 115.298C587.881 115.298 587.237 115.379 586.706 115.541C586.175 115.7 585.77 115.931 585.491 116.232C585.213 116.53 585.074 116.889 585.074 117.31C585.074 117.94 585.385 118.433 586.007 118.788C586.626 119.144 587.503 119.321 588.636 119.321C589.392 119.321 590.034 119.242 590.562 119.082C591.091 118.923 591.493 118.695 591.768 118.396C592.044 118.095 592.182 117.733 592.182 117.31ZM593.119 109.21C593.119 109.852 592.945 110.399 592.595 110.85C592.243 111.302 591.733 111.647 591.065 111.886C590.395 112.125 589.585 112.244 588.636 112.244C587.693 112.244 586.888 112.125 586.22 111.886C585.55 111.644 585.038 111.298 584.686 110.846C584.331 110.392 584.153 109.846 584.153 109.21C584.153 108.573 584.331 108.029 584.686 107.578C585.038 107.123 585.55 106.777 586.22 106.538C586.888 106.296 587.693 106.176 588.636 106.176C589.585 106.176 590.395 106.295 591.065 106.534C591.733 106.772 592.243 107.117 592.595 107.569C592.945 108.021 593.119 108.568 593.119 109.21ZM592.182 109.21C592.182 108.573 591.875 108.079 591.261 107.727C590.648 107.375 589.773 107.198 588.636 107.198C587.881 107.198 587.237 107.279 586.706 107.441C586.175 107.6 585.77 107.831 585.491 108.132C585.213 108.43 585.074 108.789 585.074 109.21C585.074 109.84 585.385 110.333 586.007 110.688C586.626 111.044 587.503 111.221 588.636 111.221C589.392 111.221 590.034 111.142 590.562 110.982C591.091 110.823 591.493 110.595 591.768 110.296C592.044 109.995 592.182 109.633 592.182 109.21ZM584.273 100.888L593 100.888L593 101.945L585.381 101.945L585.381 101.996L586.795 104.127L585.722 104.127L584.273 101.945L584.273 100.888Z" fill="#669FBD"/>
<path d="M250.425 25.2773C251.089 25.3164 251.714 25.3477 252.3 25.3711C252.894 25.3867 253.421 25.3945 253.882 25.3945C254.359 25.3945 254.89 25.3867 255.476 25.3711C256.07 25.3477 256.753 25.3164 257.527 25.2773V26.332C257.48 26.332 257.413 26.3281 257.327 26.3203C257.241 26.3125 257.183 26.3086 257.152 26.3086C256.495 26.3086 256.05 26.5039 255.816 26.8945C255.581 27.2852 255.464 28.168 255.464 29.543C255.464 29.7461 255.468 30.1133 255.476 30.6445C255.484 31.1758 255.488 31.6094 255.488 31.9453L255.511 40.1719L255.581 40.1836C256.589 40.2461 257.351 40.2773 257.866 40.2773C259.827 40.2773 261.113 40.0742 261.722 39.668C262.331 39.2617 262.831 38.4883 263.222 37.3477L264.3 37.6758C264.058 38.3867 263.839 39.1016 263.644 39.8203C263.456 40.5391 263.292 41.2656 263.152 42C261.769 41.9531 260.484 41.918 259.296 41.8945C258.109 41.8711 257.023 41.8594 256.038 41.8594C255.062 41.8594 254.077 41.8711 253.085 41.8945C252.101 41.918 251.12 41.9531 250.144 42V40.9688H250.472C250.894 40.9688 251.218 40.9258 251.445 40.8398C251.671 40.7539 251.835 40.6133 251.937 40.418C252.155 39.9883 252.273 38.3828 252.288 35.6016C252.296 35.2422 252.3 34.9688 252.3 34.7812L252.323 32.2266C252.323 31.8828 252.327 31.4336 252.335 30.8789C252.343 30.3164 252.347 29.9258 252.347 29.707C252.347 28.3008 252.23 27.3828 251.995 26.9531C251.769 26.5234 251.335 26.3086 250.695 26.3086H250.425V25.2773ZM266.367 25.2773C267.133 25.3242 267.832 25.3594 268.465 25.3828C269.105 25.4062 269.676 25.418 270.176 25.418C270.668 25.418 271.219 25.4062 271.828 25.3828C272.445 25.3594 273.129 25.3242 273.879 25.2773V26.332H273.633C273.094 26.332 272.707 26.3867 272.473 26.4961C272.246 26.6055 272.082 26.8047 271.98 27.0938C271.895 27.3359 271.832 27.8125 271.793 28.5234C271.754 29.2344 271.734 30.5117 271.734 32.3555V37.1719C271.734 38.2734 271.754 39.0391 271.793 39.4688C271.84 39.8906 271.918 40.1992 272.027 40.3945C272.137 40.5898 272.32 40.7305 272.578 40.8164C272.836 40.9023 273.219 40.9453 273.727 40.9453H274.02V42C273.16 41.9531 272.406 41.918 271.758 41.8945C271.109 41.8711 270.559 41.8594 270.105 41.8594C269.691 41.8594 269.156 41.8711 268.5 41.8945C267.844 41.918 267.082 41.9531 266.215 42V40.9453H266.508C267.031 40.9453 267.422 40.9023 267.68 40.8164C267.938 40.7305 268.113 40.5898 268.207 40.3945C268.324 40.1758 268.406 39.8203 268.453 39.3281C268.5 38.8281 268.523 37.9258 268.523 36.6211V34.8516V29.7656C268.523 28.7969 268.5 28.1211 268.453 27.7383C268.414 27.3477 268.34 27.0586 268.23 26.8711C268.129 26.6836 267.949 26.5469 267.691 26.4609C267.441 26.375 267.078 26.332 266.602 26.332H266.367V25.2773ZM281.934 32.6367C282.075 32.6445 282.227 32.6523 282.391 32.6602C282.555 32.6602 282.802 32.6602 283.13 32.6602C283.575 32.6602 283.989 32.6523 284.372 32.6367C284.755 32.6211 285.11 32.5977 285.438 32.5664C285.97 32.1914 286.368 31.7695 286.634 31.3008C286.907 30.8242 287.044 30.3125 287.044 29.7656C287.044 28.8438 286.751 28.1211 286.165 27.5977C285.579 27.0742 284.77 26.8125 283.739 26.8125C283.466 26.8125 283.18 26.8281 282.884 26.8594C282.587 26.8828 282.286 26.9219 281.981 26.9766C281.973 27.6641 281.966 28.6562 281.958 29.9531C281.95 31.2422 281.942 32.1367 281.934 32.6367ZM281.934 40.1484C282.403 40.2734 282.825 40.3672 283.2 40.4297C283.575 40.4844 283.93 40.5117 284.266 40.5117C285.423 40.5117 286.329 40.2227 286.985 39.6445C287.649 39.0664 287.981 38.2773 287.981 37.2773C287.981 36.1992 287.614 35.3867 286.88 34.8398C286.145 34.2852 285.055 34.0078 283.61 34.0078C283.243 34.0078 282.93 34.0117 282.673 34.0195C282.415 34.0273 282.161 34.0391 281.911 34.0547V36.1172C281.911 37.3594 281.911 38.2461 281.911 38.7773C281.919 39.3008 281.927 39.7578 281.934 40.1484ZM276.731 40.9688C276.778 40.9766 276.829 40.9844 276.884 40.9922C276.946 40.9922 277.028 40.9922 277.13 40.9922C278.208 40.9922 278.751 39.6523 278.759 36.9727C278.759 36.1992 278.763 35.5859 278.77 35.1328V28.8281C278.77 27.6797 278.653 26.9766 278.419 26.7188C278.192 26.4609 277.755 26.332 277.106 26.332H276.942V25.2422C277.559 25.2969 278.138 25.3359 278.677 25.3594C279.216 25.3828 279.727 25.3945 280.212 25.3945C280.923 25.3945 281.7 25.375 282.544 25.3359C283.395 25.2969 283.888 25.2773 284.02 25.2773C284.028 25.2773 284.044 25.2734 284.067 25.2656C284.177 25.2578 284.282 25.25 284.384 25.2422C286.212 25.2422 287.641 25.6055 288.673 26.332C289.704 27.0508 290.22 28.0352 290.22 29.2852C290.22 30.1055 289.95 30.8359 289.411 31.4766C288.872 32.1094 288.044 32.6719 286.927 33.1641C288.356 33.3906 289.446 33.8477 290.196 34.5352C290.946 35.2227 291.321 36.1094 291.321 37.1953C291.321 38.6328 290.688 39.8008 289.423 40.6992C288.165 41.5977 286.493 42.0469 284.407 42.0469C284.087 42.0469 283.384 42.0234 282.298 41.9766C281.22 41.9297 280.298 41.9062 279.532 41.9062C279.321 41.9062 278.981 41.918 278.513 41.9414C278.044 41.9648 277.45 42 276.731 42.0469V40.9688ZM294.455 25.2539C295.783 25.3086 297.009 25.3516 298.134 25.3828C299.259 25.4062 300.248 25.418 301.099 25.418C302.529 25.418 303.736 25.4062 304.72 25.3828C305.713 25.3516 306.634 25.3086 307.486 25.2539C307.502 25.9336 307.533 26.6055 307.58 27.2695C307.627 27.9258 307.693 28.5898 307.779 29.2617L306.724 29.4023C306.615 28.4258 306.291 27.7656 305.752 27.4219C305.22 27.0781 304.15 26.9062 302.541 26.9062C302.252 26.9062 301.865 26.9141 301.38 26.9297C300.904 26.9375 300.318 26.9531 299.623 26.9766C299.607 28.0078 299.591 28.9961 299.576 29.9414C299.568 30.8867 299.556 31.793 299.541 32.6602H299.88C300.334 32.6602 300.896 32.6641 301.568 32.6719C302.248 32.6797 302.701 32.6836 302.927 32.6836C304.005 32.6836 304.713 32.5781 305.048 32.3672C305.384 32.1562 305.564 31.7539 305.588 31.1602L306.455 31.2422C306.455 31.6328 306.443 32.125 306.42 32.7188C306.396 33.3047 306.384 33.7031 306.384 33.9141C306.384 34.125 306.388 34.3945 306.396 34.7227C306.412 35.0508 306.431 35.4453 306.455 35.9062L305.47 35.9766V35.8359C305.47 35.1641 305.275 34.7109 304.884 34.4766C304.502 34.2422 303.591 34.125 302.154 34.125H300.408H299.517V35.4727C299.517 36.168 299.521 36.8828 299.529 37.6172C299.537 38.3438 299.548 39.2109 299.564 40.2188C299.916 40.2656 300.353 40.3047 300.877 40.3359C301.408 40.3594 301.986 40.3711 302.611 40.3711C304.478 40.3711 305.72 40.1758 306.338 39.7852C306.963 39.3945 307.466 38.6445 307.849 37.5352L308.927 37.875C308.67 38.625 308.447 39.3398 308.259 40.0195C308.08 40.6992 307.927 41.3594 307.802 42C305.959 41.9375 304.49 41.8945 303.396 41.8711C302.302 41.8477 301.33 41.8359 300.478 41.8359C299.517 41.8359 297.982 41.8711 295.873 41.9414C295.146 41.9648 294.595 41.9844 294.22 42V40.9688C294.267 40.9766 294.318 40.9844 294.373 40.9922C294.435 40.9922 294.525 40.9922 294.642 40.9922C295.298 40.9922 295.744 40.793 295.978 40.3945C296.213 39.9883 296.33 38.9297 296.33 37.2188V36.0469V34.9688L296.353 32.3555C296.353 32.2383 296.357 32.0625 296.365 31.8281C296.388 30.8672 296.4 30.2109 296.4 29.8594C296.4 29.5078 296.396 29.1406 296.388 28.7578C296.38 28.375 296.377 28.1641 296.377 28.125C296.377 27.4453 296.252 26.9727 296.002 26.707C295.759 26.4414 295.334 26.3086 294.724 26.3086H294.455V25.2539ZM316.913 33.5742C317.327 33.5977 317.678 33.6172 317.967 33.6328C318.256 33.6406 318.498 33.6445 318.694 33.6445C318.936 33.6445 319.194 33.6406 319.467 33.6328C319.741 33.6172 320.026 33.5977 320.323 33.5742C321.002 33.1367 321.498 32.6406 321.811 32.0859C322.131 31.5234 322.291 30.8672 322.291 30.1172C322.291 29.1406 321.959 28.3516 321.295 27.75C320.639 27.1406 319.764 26.8359 318.67 26.8359C318.334 26.8359 318.026 26.8477 317.745 26.8711C317.471 26.8945 317.202 26.9297 316.936 26.9766C316.928 27.8281 316.92 28.7188 316.913 29.6484C316.913 30.5781 316.913 31.8867 316.913 33.5742ZM311.663 40.9688C311.725 40.9766 311.784 40.9844 311.838 40.9922C311.901 40.9922 311.995 40.9922 312.12 40.9922C312.76 40.9922 313.19 40.7812 313.409 40.3594C313.635 39.9375 313.748 38.8203 313.748 37.0078V36.1406V35.332V34.8984L313.795 32.2734C313.803 31.7188 313.807 31.168 313.807 30.6211C313.815 30.0742 313.819 29.418 313.819 28.6523C313.819 27.668 313.698 27.0312 313.455 26.7422C313.221 26.4531 312.776 26.3086 312.12 26.3086H311.873V25.2773C312.709 25.3164 313.401 25.3477 313.948 25.3711C314.495 25.3867 314.971 25.3945 315.377 25.3945C315.955 25.3945 316.674 25.375 317.534 25.3359C318.393 25.2969 318.971 25.2773 319.268 25.2773C321.205 25.2773 322.733 25.6797 323.85 26.4844C324.967 27.2891 325.526 28.3828 325.526 29.7656C325.526 30.6875 325.245 31.5 324.682 32.2031C324.127 32.9062 323.291 33.5078 322.174 34.0078L324.471 37.2422C325.565 38.9453 326.362 40.0156 326.862 40.4531C327.37 40.8906 327.909 41.1094 328.479 41.1094C328.51 41.1094 328.553 41.1055 328.608 41.0977C328.67 41.0898 328.717 41.0859 328.748 41.0859V42.0703C328.272 42.1094 327.858 42.1367 327.506 42.1523C327.155 42.1758 326.846 42.1875 326.58 42.1875C325.627 42.1875 324.881 42.082 324.342 41.8711C323.803 41.6602 323.319 41.2969 322.889 40.7812C322.686 40.5391 322.186 39.7617 321.389 38.4492C320.592 37.1289 319.893 36 319.291 35.0625C318.807 35.0781 318.377 35.0898 318.002 35.0977C317.627 35.1055 317.264 35.1094 316.913 35.1094V38.2266C316.913 39.4219 317.03 40.1758 317.264 40.4883C317.498 40.793 317.959 40.9453 318.647 40.9453H318.975V42C318.334 41.9609 317.694 41.9336 317.053 41.918C316.413 41.8945 315.756 41.8828 315.084 41.8828C314.866 41.8828 314.541 41.8906 314.112 41.9062C313.69 41.9141 312.873 41.9453 311.663 42V40.9688ZM338.866 28.0078L336.312 34.4883C336.609 34.4961 336.921 34.5039 337.249 34.5117C337.585 34.5117 338.03 34.5117 338.585 34.5117C339.226 34.5117 339.726 34.5117 340.085 34.5117C340.445 34.5039 340.78 34.4961 341.093 34.4883L338.866 28.0078ZM338.222 25.1953H341.081C342.206 28.4922 343.277 31.5234 344.292 34.2891C345.316 37.0469 346.03 38.8828 346.437 39.7969C346.609 40.2109 346.823 40.5078 347.081 40.6875C347.347 40.8594 347.698 40.9453 348.136 40.9453H348.394V42C347.402 41.9531 346.64 41.9219 346.109 41.9062C345.577 41.8906 345.132 41.8828 344.773 41.8828C344.429 41.8828 343.984 41.8906 343.437 41.9062C342.89 41.9219 342.097 41.9531 341.058 42V40.9453H341.269C341.886 40.9453 342.304 40.875 342.523 40.7344C342.741 40.5938 342.851 40.3438 342.851 39.9844C342.851 39.875 342.835 39.7461 342.804 39.5977C342.78 39.4492 342.726 39.2422 342.64 38.9766L341.679 36.1406C341.234 36.1328 340.648 36.125 339.921 36.1172C339.195 36.1016 338.741 36.0938 338.562 36.0938C338.226 36.0938 337.55 36.1055 336.534 36.1289C336.167 36.1367 335.882 36.1406 335.679 36.1406L335.632 36.2578C334.866 38.125 334.484 39.3047 334.484 39.7969C334.484 40.2031 334.597 40.4961 334.823 40.6758C335.058 40.8555 335.441 40.9453 335.972 40.9453H336.183V42C335.292 41.9531 334.601 41.9219 334.109 41.9062C333.616 41.8906 333.21 41.8828 332.89 41.8828C332.624 41.8828 332.273 41.8906 331.835 41.9062C331.405 41.9219 330.777 41.9531 329.948 42V40.9453C330.511 40.9453 330.96 40.8477 331.296 40.6523C331.632 40.457 331.917 40.1289 332.152 39.668C332.488 39.0586 333.245 37.3555 334.425 34.5586C335.605 31.7617 336.87 28.6406 338.222 25.1953ZM351.047 25.2773C351.711 25.3164 352.336 25.3477 352.922 25.3711C353.516 25.3867 354.043 25.3945 354.504 25.3945C354.98 25.3945 355.512 25.3867 356.098 25.3711C356.691 25.3477 357.375 25.3164 358.148 25.2773V26.332C358.102 26.332 358.035 26.3281 357.949 26.3203C357.863 26.3125 357.805 26.3086 357.773 26.3086C357.117 26.3086 356.672 26.5039 356.438 26.8945C356.203 27.2852 356.086 28.168 356.086 29.543C356.086 29.7461 356.09 30.1133 356.098 30.6445C356.105 31.1758 356.109 31.6094 356.109 31.9453L356.133 40.1719L356.203 40.1836C357.211 40.2461 357.973 40.2773 358.488 40.2773C360.449 40.2773 361.734 40.0742 362.344 39.668C362.953 39.2617 363.453 38.4883 363.844 37.3477L364.922 37.6758C364.68 38.3867 364.461 39.1016 364.266 39.8203C364.078 40.5391 363.914 41.2656 363.773 42C362.391 41.9531 361.105 41.918 359.918 41.8945C358.73 41.8711 357.645 41.8594 356.66 41.8594C355.684 41.8594 354.699 41.8711 353.707 41.8945C352.723 41.918 351.742 41.9531 350.766 42V40.9688H351.094C351.516 40.9688 351.84 40.9258 352.066 40.8398C352.293 40.7539 352.457 40.6133 352.559 40.418C352.777 39.9883 352.895 38.3828 352.91 35.6016C352.918 35.2422 352.922 34.9688 352.922 34.7812L352.945 32.2266C352.945 31.8828 352.949 31.4336 352.957 30.8789C352.965 30.3164 352.969 29.9258 352.969 29.707C352.969 28.3008 352.852 27.3828 352.617 26.9531C352.391 26.5234 351.957 26.3086 351.316 26.3086H351.047V25.2773ZM378.485 25.7812V26.0391C378.485 26.6094 378.516 27.1953 378.579 27.7969C378.649 28.3906 378.751 29.0039 378.884 29.6367L377.665 29.8359C377.532 28.8203 377.153 28.0547 376.528 27.5391C375.911 27.0234 375.059 26.7656 373.973 26.7656C372.966 26.7656 372.177 26.9648 371.606 27.3633C371.036 27.7617 370.751 28.3125 370.751 29.0156C370.751 29.4844 370.868 29.8906 371.102 30.2344C371.337 30.5703 371.7 30.8672 372.192 31.125C372.575 31.3281 373.235 31.5859 374.173 31.8984C375.118 32.2109 375.817 32.457 376.27 32.6367C377.294 33.0586 378.059 33.6094 378.567 34.2891C379.083 34.9688 379.341 35.7773 379.341 36.7148C379.341 38.418 378.688 39.7773 377.384 40.793C376.079 41.8086 374.309 42.3164 372.075 42.3164C371.341 42.3164 370.598 42.2422 369.848 42.0938C369.098 41.9531 368.368 41.7461 367.657 41.4727C367.657 41.3867 367.661 41.2734 367.669 41.1328C367.677 40.9844 367.68 40.875 367.68 40.8047C367.68 40.2031 367.641 39.5898 367.563 38.9648C367.493 38.3398 367.38 37.6953 367.223 37.0312L368.501 36.7148C368.798 38.1523 369.274 39.1562 369.93 39.7266C370.595 40.2969 371.579 40.582 372.884 40.582C373.938 40.582 374.77 40.3477 375.38 39.8789C375.989 39.4102 376.294 38.7812 376.294 37.9922C376.294 36.8672 375.22 35.9258 373.071 35.168C372.595 35.0039 372.231 34.875 371.981 34.7812C370.497 34.2266 369.43 33.582 368.782 32.8477C368.141 32.1133 367.821 31.1953 367.821 30.0938C367.821 28.5781 368.407 27.3555 369.579 26.4258C370.751 25.4961 372.302 25.0312 374.231 25.0312C374.903 25.0312 375.583 25.0938 376.27 25.2188C376.966 25.3359 377.704 25.5234 378.485 25.7812Z" fill="#314566"/>
<path d="M229.798 227.045H231.053L232.106 228.43L232.383 228.8L233.953 230.886H232.697L231.663 229.501L231.404 229.151L229.798 227.045ZM234.34 225.273C234.34 226.27 234.16 227.132 233.8 227.858C233.44 228.584 232.946 229.144 232.318 229.538C231.69 229.932 230.973 230.129 230.167 230.129C229.361 230.129 228.644 229.932 228.016 229.538C227.388 229.144 226.894 228.584 226.534 227.858C226.174 227.132 225.994 226.27 225.994 225.273C225.994 224.276 226.174 223.414 226.534 222.688C226.894 221.961 227.388 221.401 228.016 221.007C228.644 220.613 229.361 220.416 230.167 220.416C230.973 220.416 231.69 220.613 232.318 221.007C232.946 221.401 233.44 221.961 233.8 222.688C234.16 223.414 234.34 224.276 234.34 225.273ZM233.232 225.273C233.232 224.454 233.095 223.763 232.822 223.2C232.551 222.637 232.183 222.21 231.718 221.921C231.257 221.632 230.739 221.487 230.167 221.487C229.595 221.487 229.076 221.632 228.611 221.921C228.15 222.21 227.782 222.637 227.508 223.2C227.237 223.763 227.102 224.454 227.102 225.273C227.102 226.091 227.237 226.782 227.508 227.346C227.782 227.909 228.15 228.335 228.611 228.624C229.076 228.914 229.595 229.058 230.167 229.058C230.739 229.058 231.257 228.914 231.718 228.624C232.183 228.335 232.551 227.909 232.822 227.346C233.095 226.782 233.232 226.091 233.232 225.273ZM245.07 220.545H246.215V226.805C246.215 227.452 246.062 228.029 245.758 228.537C245.456 229.041 245.03 229.44 244.479 229.732C243.928 230.022 243.282 230.166 242.54 230.166C241.798 230.166 241.152 230.022 240.601 229.732C240.05 229.44 239.622 229.041 239.318 228.537C239.016 228.029 238.865 227.452 238.865 226.805V220.545H240.01V226.713C240.01 227.175 240.112 227.586 240.315 227.946C240.518 228.303 240.807 228.584 241.183 228.79C241.561 228.994 242.014 229.095 242.54 229.095C243.066 229.095 243.519 228.994 243.897 228.79C244.276 228.584 244.565 228.303 244.765 227.946C244.968 227.586 245.07 227.175 245.07 226.713V220.545ZM251.489 230H250.289L253.76 220.545H254.942L258.414 230H257.213L254.388 222.041H254.314L251.489 230ZM251.932 226.307H256.77V227.322H251.932V226.307ZM262.486 230V220.545H265.681C266.42 220.545 267.026 220.672 267.5 220.924C267.974 221.173 268.325 221.516 268.552 221.953C268.78 222.391 268.894 222.888 268.894 223.445C268.894 224.002 268.78 224.496 268.552 224.926C268.325 225.357 267.975 225.696 267.504 225.942C267.034 226.185 266.432 226.307 265.699 226.307H263.114V225.273H265.662C266.167 225.273 266.573 225.199 266.881 225.051C267.192 224.903 267.417 224.694 267.555 224.423C267.697 224.149 267.768 223.823 267.768 223.445C267.768 223.066 267.697 222.735 267.555 222.452C267.414 222.169 267.187 221.95 266.877 221.797C266.566 221.64 266.155 221.561 265.644 221.561H263.631V230H262.486ZM266.937 225.753L269.263 230H267.934L265.644 225.753H266.937ZM272.885 221.561V220.545H279.976V221.561H277.003V230H275.858V221.561H272.885ZM284.343 230V220.545H290.049V221.561H285.487V224.756H289.753V225.771H285.487V228.984H290.122V230H284.343ZM294.712 230V220.545H297.907C298.645 220.545 299.252 220.672 299.726 220.924C300.2 221.173 300.55 221.516 300.778 221.953C301.006 222.391 301.12 222.888 301.12 223.445C301.12 224.002 301.006 224.496 300.778 224.926C300.55 225.357 300.201 225.696 299.73 225.942C299.259 226.185 298.658 226.307 297.925 226.307H295.34V225.273H297.888C298.393 225.273 298.799 225.199 299.107 225.051C299.418 224.903 299.642 224.694 299.781 224.423C299.923 224.149 299.993 223.823 299.993 223.445C299.993 223.066 299.923 222.735 299.781 222.452C299.639 222.169 299.413 221.95 299.102 221.797C298.791 221.64 298.381 221.561 297.87 221.561H295.857V230H294.712ZM299.162 225.753L301.489 230H300.16L297.87 225.753H299.162ZM311.884 230V220.545H313.029V228.984H317.424V230H311.884ZM322.941 220.545V230H321.796V220.545H322.941ZM327.837 230V220.545H333.506V221.561H328.982V224.756H333.081V225.771H328.982V230H327.837ZM338.067 230V220.545H343.773V221.561H339.211V224.756H343.477V225.771H339.211V228.984H343.846V230H338.067ZM362.3 223.5H361.155C361.088 223.171 360.969 222.881 360.8 222.632C360.634 222.383 360.431 222.174 360.191 222.004C359.954 221.832 359.69 221.703 359.401 221.616C359.112 221.53 358.81 221.487 358.496 221.487C357.924 221.487 357.405 221.632 356.941 221.921C356.479 222.21 356.111 222.637 355.837 223.2C355.566 223.763 355.431 224.454 355.431 225.273C355.431 226.091 355.566 226.782 355.837 227.346C356.111 227.909 356.479 228.335 356.941 228.624C357.405 228.914 357.924 229.058 358.496 229.058C358.81 229.058 359.112 229.015 359.401 228.929C359.69 228.843 359.954 228.715 360.191 228.546C360.431 228.373 360.634 228.163 360.8 227.913C360.969 227.661 361.088 227.372 361.155 227.045H362.3C362.214 227.529 362.057 227.961 361.829 228.343C361.602 228.724 361.319 229.049 360.98 229.317C360.641 229.581 360.261 229.783 359.84 229.922C359.421 230.06 358.973 230.129 358.496 230.129C357.69 230.129 356.973 229.932 356.345 229.538C355.717 229.144 355.223 228.584 354.863 227.858C354.503 227.132 354.323 226.27 354.323 225.273C354.323 224.276 354.503 223.414 354.863 222.688C355.223 221.961 355.717 221.401 356.345 221.007C356.973 220.613 357.69 220.416 358.496 220.416C358.973 220.416 359.421 220.485 359.84 220.624C360.261 220.762 360.641 220.966 360.98 221.233C361.319 221.498 361.602 221.821 361.829 222.203C362.057 222.581 362.214 223.014 362.3 223.5ZM366.75 230V220.545H369.945C370.684 220.545 371.29 220.672 371.764 220.924C372.238 221.173 372.589 221.516 372.816 221.953C373.044 222.391 373.158 222.888 373.158 223.445C373.158 224.002 373.044 224.496 372.816 224.926C372.589 225.357 372.239 225.696 371.768 225.942C371.298 226.185 370.696 226.307 369.963 226.307H367.378V225.273H369.926C370.431 225.273 370.837 225.199 371.145 225.051C371.456 224.903 371.681 224.694 371.819 224.423C371.961 224.149 372.032 223.823 372.032 223.445C372.032 223.066 371.961 222.735 371.819 222.452C371.678 222.169 371.451 221.95 371.141 221.797C370.83 221.64 370.419 221.561 369.908 221.561H367.895V230H366.75ZM371.201 225.753L373.527 230H372.198L369.908 225.753H371.201ZM378.811 220.545V230H377.666V220.545H378.811ZM388.877 222.909C388.821 222.441 388.597 222.078 388.203 221.82C387.809 221.561 387.326 221.432 386.753 221.432C386.335 221.432 385.968 221.5 385.654 221.635C385.344 221.77 385.1 221.957 384.925 222.194C384.753 222.431 384.666 222.7 384.666 223.001C384.666 223.254 384.726 223.471 384.846 223.652C384.97 223.831 385.127 223.98 385.317 224.1C385.508 224.217 385.708 224.314 385.918 224.391C386.127 224.465 386.319 224.525 386.495 224.571L387.455 224.83C387.701 224.894 387.975 224.983 388.277 225.097C388.581 225.211 388.872 225.367 389.149 225.564C389.429 225.757 389.66 226.007 389.842 226.311C390.023 226.616 390.114 226.99 390.114 227.433C390.114 227.944 389.98 228.406 389.712 228.818C389.448 229.231 389.06 229.558 388.549 229.801C388.041 230.045 387.424 230.166 386.698 230.166C386.021 230.166 385.434 230.057 384.939 229.838C384.446 229.62 384.059 229.315 383.775 228.924C383.495 228.533 383.337 228.08 383.3 227.562H384.482C384.513 227.92 384.633 228.215 384.842 228.449C385.054 228.68 385.322 228.852 385.645 228.966C385.971 229.077 386.322 229.132 386.698 229.132C387.135 229.132 387.527 229.061 387.875 228.92C388.223 228.775 388.498 228.575 388.701 228.32C388.904 228.061 389.006 227.759 389.006 227.415C389.006 227.101 388.918 226.845 388.743 226.648C388.567 226.451 388.337 226.291 388.05 226.168C387.764 226.045 387.455 225.937 387.122 225.845L385.959 225.513C385.22 225.3 384.636 224.997 384.205 224.603C383.774 224.209 383.558 223.694 383.558 223.057C383.558 222.527 383.702 222.066 383.988 221.672C384.277 221.275 384.665 220.967 385.151 220.749C385.641 220.527 386.187 220.416 386.79 220.416C387.399 220.416 387.941 220.525 388.415 220.744C388.889 220.959 389.264 221.255 389.541 221.63C389.822 222.006 389.969 222.432 389.985 222.909H388.877ZM395.741 220.545V230H394.596V220.545H395.741ZM405.807 222.909C405.752 222.441 405.527 222.078 405.133 221.82C404.739 221.561 404.256 221.432 403.684 221.432C403.265 221.432 402.899 221.5 402.585 221.635C402.274 221.77 402.031 221.957 401.855 222.194C401.683 222.431 401.597 222.7 401.597 223.001C401.597 223.254 401.657 223.471 401.777 223.652C401.9 223.831 402.057 223.98 402.248 224.1C402.439 224.217 402.639 224.314 402.848 224.391C403.057 224.465 403.25 224.525 403.425 224.571L404.385 224.83C404.631 224.894 404.905 224.983 405.207 225.097C405.512 225.211 405.803 225.367 406.08 225.564C406.36 225.757 406.59 226.007 406.772 226.311C406.954 226.616 407.044 226.99 407.044 227.433C407.044 227.944 406.91 228.406 406.643 228.818C406.378 229.231 405.99 229.558 405.479 229.801C404.972 230.045 404.354 230.166 403.628 230.166C402.951 230.166 402.365 230.057 401.869 229.838C401.377 229.62 400.989 229.315 400.706 228.924C400.426 228.533 400.267 228.08 400.23 227.562H401.412C401.443 227.92 401.563 228.215 401.772 228.449C401.985 228.68 402.252 228.852 402.576 228.966C402.902 229.077 403.253 229.132 403.628 229.132C404.065 229.132 404.458 229.061 404.805 228.92C405.153 228.775 405.429 228.575 405.632 228.32C405.835 228.061 405.936 227.759 405.936 227.415C405.936 227.101 405.849 226.845 405.673 226.648C405.498 226.451 405.267 226.291 404.981 226.168C404.695 226.045 404.385 225.937 404.053 225.845L402.89 225.513C402.151 225.3 401.566 224.997 401.135 224.603C400.704 224.209 400.489 223.694 400.489 223.057C400.489 222.527 400.632 222.066 400.918 221.672C401.208 221.275 401.595 220.967 402.082 220.749C402.571 220.527 403.117 220.416 403.72 220.416C404.33 220.416 404.872 220.525 405.345 220.744C405.819 220.959 406.195 221.255 406.472 221.63C406.752 222.006 406.9 222.432 406.915 222.909H405.807Z" fill="#314566"/>
<path d="M215.5 62V195.5" stroke="#314566"/>
<path d="M315 62V195.5" stroke="#314566"/>
<path d="M414.5 62V195.5" stroke="#314566"/>
<rect x="79" y="65.1377" width="16" height="118.263" fill="#669FBD"/>
<rect x="76" y="50" width="22" height="5.67665" fill="#669FBD"/>
<rect x="76" y="202.323" width="22" height="5.67665" fill="#669FBD"/>
<rect x="77" y="57.5688" width="20" height="2.83832" fill="#669FBD"/>
<rect x="77" y="198.539" width="20" height="2.83832" fill="#669FBD"/>
<rect x="78" y="61.3533" width="18" height="1.89222" fill="#669FBD"/>
<rect x="78" y="195.701" width="18" height="1.89222" fill="#669FBD"/>
<rect x="79" y="190.024" width="16" height="4.73054" fill="#669FBD"/>
<rect x="78" y="184.347" width="18" height="1.89222" fill="#669FBD"/>
<rect x="76" y="187.186" width="22" height="1.89222" fill="#669FBD"/>
<path d="M81 73.6527V176.305" stroke="#314566"/>
<path d="M85 73.6527V176.305" stroke="#314566"/>
<path d="M89 73.6527V176.305" stroke="#314566"/>
<path d="M93 73.6527V176.305" stroke="#314566"/>
<rect x="536" y="65.1377" width="16" height="118.263" fill="#669FBD"/>
<rect x="533" y="50" width="22" height="5.67665" fill="#669FBD"/>
<rect x="533" y="202.323" width="22" height="5.67665" fill="#669FBD"/>
<rect x="534" y="57.5688" width="20" height="2.83832" fill="#669FBD"/>
<rect x="534" y="198.539" width="20" height="2.83832" fill="#669FBD"/>
<rect x="535" y="61.3533" width="18" height="1.89222" fill="#669FBD"/>
<rect x="535" y="195.701" width="18" height="1.89222" fill="#669FBD"/>
<rect x="536" y="190.024" width="16" height="4.73054" fill="#669FBD"/>
<rect x="535" y="184.347" width="18" height="1.89222" fill="#669FBD"/>
<rect x="533" y="187.186" width="22" height="1.89222" fill="#669FBD"/>
<path d="M538 73.6527V176.305" stroke="#314566"/>
<path d="M542 73.6527V176.305" stroke="#314566"/>
<path d="M546 73.6527V176.305" stroke="#314566"/>
<path d="M550 73.6527V176.305" stroke="#314566"/>
</svg>
