<svg width="632" height="257" viewBox="0 0 632 257" fill="none" xmlns="http://www.w3.org/2000/svg">
<rect width="632" height="257" fill="#669FBD"/>
<rect x="112.5" y="58.5" width="408" height="141" stroke="#314566"/>
<rect x="10.5" y="10.5" width="611" height="237" stroke="#314566" stroke-width="3"/>
<rect x="16" y="17" width="50" height="223" fill="#314566"/>
<rect width="50" height="223" transform="matrix(-1 0 0 1 614 17)" fill="#314566"/>
<path d="M70.75 17H239.5V50.1092H102.819V208.838H169.964V240H70.75V17Z" fill="#314566"/>
<path d="M559 17H389V50.1092H526.931V208.838H459.786V240H559V17Z" fill="#314566"/>
<path d="M162 224H92" stroke="#669FBD"/>
<path d="M140.5 224C140.5 220 137.7 215.8 132.5 215C132.5 220 136.5 223.5 140.5 224Z" fill="#669FBD"/>
<path d="M131 224C131 220 128.2 215.8 123 215C123 220 127 223.5 131 224Z" fill="#669FBD"/>
<path d="M121.5 224C121.5 220 118.7 215.8 113.5 215C113.5 220 117.5 223.5 121.5 224Z" fill="#669FBD"/>
<path d="M112 224C112 220 109.2 215.8 104 215C104 220 108 223.5 112 224Z" fill="#669FBD"/>
<path d="M102.5 224C102.5 220 99.7002 215.8 94.5002 215C94.5002 220 98.5002 223.5 102.5 224Z" fill="#669FBD"/>
<path d="M93.0002 224C93.0002 220 90.2002 215.8 85.0002 215C85.0002 220 89.0002 223.5 93.0002 224Z" fill="#669FBD"/>
<path d="M93.5002 224C89.5101 220.465 82.3936 219.52 77.0002 224C82.0002 228.5 90.0002 227.5 93.5002 224Z" fill="#669FBD"/>
<path d="M140.5 224.5C140.5 228.5 137.7 232.7 132.5 233.5C132.5 228.5 136.5 225 140.5 224.5Z" fill="#669FBD"/>
<path d="M131 224.5C131 228.5 128.2 232.7 123 233.5C123 228.5 127 225 131 224.5Z" fill="#669FBD"/>
<path d="M121.5 224.5C121.5 228.5 118.7 232.7 113.5 233.5C113.5 228.5 117.5 225 121.5 224.5Z" fill="#669FBD"/>
<path d="M112 224.5C112 228.5 109.2 232.7 104 233.5C104 228.5 108 225 112 224.5Z" fill="#669FBD"/>
<path d="M102.5 224.5C102.5 228.5 99.7002 232.7 94.5002 233.5C94.5002 228.5 98.5002 225 102.5 224.5Z" fill="#669FBD"/>
<path d="M93.0002 224.5C93.0002 228.5 90.2002 232.7 85.0002 233.5C85.0002 228.5 89.0002 225 93.0002 224.5Z" fill="#669FBD"/>
<path d="M281 34H91.5002" stroke="#669FBD"/>
<path d="M226 34C226 30 223.2 25.8 218 25C218 30 222 33.5 226 34Z" fill="#669FBD"/>
<path d="M216.5 34C216.5 30 213.7 25.8 208.5 25C208.5 30 212.5 33.5 216.5 34Z" fill="#669FBD"/>
<path d="M207 34C207 30 204.2 25.8 199 25C199 30 203 33.5 207 34Z" fill="#669FBD"/>
<path d="M197.5 34C197.5 30 194.7 25.8 189.5 25C189.5 30 193.5 33.5 197.5 34Z" fill="#669FBD"/>
<path d="M188 34C188 30 185.2 25.8 180 25C180 30 184 33.5 188 34Z" fill="#669FBD"/>
<path d="M178.5 34C178.5 30 175.7 25.8 170.5 25C170.5 30 174.5 33.5 178.5 34Z" fill="#669FBD"/>
<path d="M169 34C169 30 166.2 25.8 161 25C161 30 165 33.5 169 34Z" fill="#669FBD"/>
<path d="M159.5 34C159.5 30 156.7 25.8 151.5 25C151.5 30 155.5 33.5 159.5 34Z" fill="#669FBD"/>
<path d="M150 34C150 30 147.2 25.8 142 25C142 30 146 33.5 150 34Z" fill="#669FBD"/>
<path d="M140.5 34C140.5 30 137.7 25.8 132.5 25C132.5 30 136.5 33.5 140.5 34Z" fill="#669FBD"/>
<path d="M131 34C131 30 128.2 25.8 123 25C123 30 127 33.5 131 34Z" fill="#669FBD"/>
<path d="M121.5 34C121.5 30 118.7 25.8 113.5 25C113.5 30 117.5 33.5 121.5 34Z" fill="#669FBD"/>
<path d="M112 34C112 30 109.2 25.8 104 25C104 30 108 33.5 112 34Z" fill="#669FBD"/>
<path d="M102.5 34C102.5 30 99.7002 25.8 94.5002 25C94.5002 30 98.5002 33.5 102.5 34Z" fill="#669FBD"/>
<path d="M93.0002 34C93.0002 30 90.2002 25.8 85.0002 25C85.0002 30 89.0002 33.5 93.0002 34Z" fill="#669FBD"/>
<path d="M93.5002 34C89.5101 30.4651 82.3936 29.5198 77.0002 34C82.0002 38.5 90.0002 37.5 93.5002 34Z" fill="#669FBD"/>
<path d="M226 34.5C226 38.5 223.2 42.7 218 43.5C218 38.5 222 35 226 34.5Z" fill="#669FBD"/>
<path d="M216.5 34.5C216.5 38.5 213.7 42.7 208.5 43.5C208.5 38.5 212.5 35 216.5 34.5Z" fill="#669FBD"/>
<path d="M207 34.5C207 38.5 204.2 42.7 199 43.5C199 38.5 203 35 207 34.5Z" fill="#669FBD"/>
<path d="M197.5 34.5C197.5 38.5 194.7 42.7 189.5 43.5C189.5 38.5 193.5 35 197.5 34.5Z" fill="#669FBD"/>
<path d="M188 34.5C188 38.5 185.2 42.7 180 43.5C180 38.5 184 35 188 34.5Z" fill="#669FBD"/>
<path d="M178.5 34.5C178.5 38.5 175.7 42.7 170.5 43.5C170.5 38.5 174.5 35 178.5 34.5Z" fill="#669FBD"/>
<path d="M169 34.5C169 38.5 166.2 42.7 161 43.5C161 38.5 165 35 169 34.5Z" fill="#669FBD"/>
<path d="M159.5 34.5C159.5 38.5 156.7 42.7 151.5 43.5C151.5 38.5 155.5 35 159.5 34.5Z" fill="#669FBD"/>
<path d="M150 34.5C150 38.5 147.2 42.7 142 43.5C142 38.5 146 35 150 34.5Z" fill="#669FBD"/>
<path d="M140.5 34.5C140.5 38.5 137.7 42.7 132.5 43.5C132.5 38.5 136.5 35 140.5 34.5Z" fill="#669FBD"/>
<path d="M131 34.5C131 38.5 128.2 42.7 123 43.5C123 38.5 127 35 131 34.5Z" fill="#669FBD"/>
<path d="M121.5 34.5C121.5 38.5 118.7 42.7 113.5 43.5C113.5 38.5 117.5 35 121.5 34.5Z" fill="#669FBD"/>
<path d="M112 34.5C112 38.5 109.2 42.7 104 43.5C104 38.5 108 35 112 34.5Z" fill="#669FBD"/>
<path d="M102.5 34.5C102.5 38.5 99.7002 42.7 94.5002 43.5C94.5002 38.5 98.5002 35 102.5 34.5Z" fill="#669FBD"/>
<path d="M93.0002 34.5C93.0002 38.5 90.2002 42.7 85.0002 43.5C85.0002 38.5 89.0002 35 93.0002 34.5Z" fill="#669FBD"/>
<path d="M466 224H536" stroke="#669FBD"/>
<path d="M487.5 224C487.5 220 490.3 215.8 495.5 215C495.5 220 491.5 223.5 487.5 224Z" fill="#669FBD"/>
<path d="M497 224C497 220 499.8 215.8 505 215C505 220 501 223.5 497 224Z" fill="#669FBD"/>
<path d="M506.5 224C506.5 220 509.3 215.8 514.5 215C514.5 220 510.5 223.5 506.5 224Z" fill="#669FBD"/>
<path d="M516 224C516 220 518.8 215.8 524 215C524 220 520 223.5 516 224Z" fill="#669FBD"/>
<path d="M525.5 224C525.5 220 528.3 215.8 533.5 215C533.5 220 529.5 223.5 525.5 224Z" fill="#669FBD"/>
<path d="M535 224C535 220 537.8 215.8 543 215C543 220 539 223.5 535 224Z" fill="#669FBD"/>
<path d="M534.5 224C538.49 220.465 545.606 219.52 551 224C546 228.5 538 227.5 534.5 224Z" fill="#669FBD"/>
<path d="M487.5 224.5C487.5 228.5 490.3 232.7 495.5 233.5C495.5 228.5 491.5 225 487.5 224.5Z" fill="#669FBD"/>
<path d="M497 224.5C497 228.5 499.8 232.7 505 233.5C505 228.5 501 225 497 224.5Z" fill="#669FBD"/>
<path d="M506.5 224.5C506.5 228.5 509.3 232.7 514.5 233.5C514.5 228.5 510.5 225 506.5 224.5Z" fill="#669FBD"/>
<path d="M516 224.5C516 228.5 518.8 232.7 524 233.5C524 228.5 520 225 516 224.5Z" fill="#669FBD"/>
<path d="M525.5 224.5C525.5 228.5 528.3 232.7 533.5 233.5C533.5 228.5 529.5 225 525.5 224.5Z" fill="#669FBD"/>
<path d="M535 224.5C535 228.5 537.8 232.7 543 233.5C543 228.5 539 225 535 224.5Z" fill="#669FBD"/>
<path d="M347 34H536.5" stroke="#669FBD"/>
<path d="M402 34C402 30 404.8 25.8 410 25C410 30 406 33.5 402 34Z" fill="#669FBD"/>
<path d="M411.5 34C411.5 30 414.3 25.8 419.5 25C419.5 30 415.5 33.5 411.5 34Z" fill="#669FBD"/>
<path d="M421 34C421 30 423.8 25.8 429 25C429 30 425 33.5 421 34Z" fill="#669FBD"/>
<path d="M430.5 34C430.5 30 433.3 25.8 438.5 25C438.5 30 434.5 33.5 430.5 34Z" fill="#669FBD"/>
<path d="M440 34C440 30 442.8 25.8 448 25C448 30 444 33.5 440 34Z" fill="#669FBD"/>
<path d="M449.5 34C449.5 30 452.3 25.8 457.5 25C457.5 30 453.5 33.5 449.5 34Z" fill="#669FBD"/>
<path d="M459 34C459 30 461.8 25.8 467 25C467 30 463 33.5 459 34Z" fill="#669FBD"/>
<path d="M468.5 34C468.5 30 471.3 25.8 476.5 25C476.5 30 472.5 33.5 468.5 34Z" fill="#669FBD"/>
<path d="M478 34C478 30 480.8 25.8 486 25C486 30 482 33.5 478 34Z" fill="#669FBD"/>
<path d="M487.5 34C487.5 30 490.3 25.8 495.5 25C495.5 30 491.5 33.5 487.5 34Z" fill="#669FBD"/>
<path d="M497 34C497 30 499.8 25.8 505 25C505 30 501 33.5 497 34Z" fill="#669FBD"/>
<path d="M506.5 34C506.5 30 509.3 25.8 514.5 25C514.5 30 510.5 33.5 506.5 34Z" fill="#669FBD"/>
<path d="M516 34C516 30 518.8 25.8 524 25C524 30 520 33.5 516 34Z" fill="#669FBD"/>
<path d="M525.5 34C525.5 30 528.3 25.8 533.5 25C533.5 30 529.5 33.5 525.5 34Z" fill="#669FBD"/>
<path d="M535 34C535 30 537.8 25.8 543 25C543 30 539 33.5 535 34Z" fill="#669FBD"/>
<path d="M534.5 34C538.49 30.4651 545.606 29.5198 551 34C546 38.5 538 37.5 534.5 34Z" fill="#669FBD"/>
<path d="M402 34.5C402 38.5 404.8 42.7 410 43.5C410 38.5 406 35 402 34.5Z" fill="#669FBD"/>
<path d="M411.5 34.5C411.5 38.5 414.3 42.7 419.5 43.5C419.5 38.5 415.5 35 411.5 34.5Z" fill="#669FBD"/>
<path d="M421 34.5C421 38.5 423.8 42.7 429 43.5C429 38.5 425 35 421 34.5Z" fill="#669FBD"/>
<path d="M430.5 34.5C430.5 38.5 433.3 42.7 438.5 43.5C438.5 38.5 434.5 35 430.5 34.5Z" fill="#669FBD"/>
<path d="M440 34.5C440 38.5 442.8 42.7 448 43.5C448 38.5 444 35 440 34.5Z" fill="#669FBD"/>
<path d="M449.5 34.5C449.5 38.5 452.3 42.7 457.5 43.5C457.5 38.5 453.5 35 449.5 34.5Z" fill="#669FBD"/>
<path d="M459 34.5C459 38.5 461.8 42.7 467 43.5C467 38.5 463 35 459 34.5Z" fill="#669FBD"/>
<path d="M468.5 34.5C468.5 38.5 471.3 42.7 476.5 43.5C476.5 38.5 472.5 35 468.5 34.5Z" fill="#669FBD"/>
<path d="M478 34.5C478 38.5 480.8 42.7 486 43.5C486 38.5 482 35 478 34.5Z" fill="#669FBD"/>
<path d="M487.5 34.5C487.5 38.5 490.3 42.7 495.5 43.5C495.5 38.5 491.5 35 487.5 34.5Z" fill="#669FBD"/>
<path d="M497 34.5C497 38.5 499.8 42.7 505 43.5C505 38.5 501 35 497 34.5Z" fill="#669FBD"/>
<path d="M506.5 34.5C506.5 38.5 509.3 42.7 514.5 43.5C514.5 38.5 510.5 35 506.5 34.5Z" fill="#669FBD"/>
<path d="M516 34.5C516 38.5 518.8 42.7 524 43.5C524 38.5 520 35 516 34.5Z" fill="#669FBD"/>
<path d="M525.5 34.5C525.5 38.5 528.3 42.7 533.5 43.5C533.5 38.5 529.5 35 525.5 34.5Z" fill="#669FBD"/>
<path d="M535 34.5C535 38.5 537.8 42.7 543 43.5C543 38.5 539 35 535 34.5Z" fill="#669FBD"/>
<path d="M39 229L23 222L43 214L58 222L39 229Z" fill="#669FBD" stroke="#314566"/>
<path d="M39 224L23 217L43 209L58 217L39 224Z" fill="#669FBD" stroke="#314566"/>
<path d="M39 219L23 212L43 204L58 212L39 219Z" fill="#669FBD" stroke="#314566"/>
<path d="M587 229L571 222L591 214L606 222L587 229Z" fill="#669FBD" stroke="#314566"/>
<path d="M587 224L571 217L591 209L606 217L587 224Z" fill="#669FBD" stroke="#314566"/>
<path d="M587 219L571 212L591 204L606 212L587 219Z" fill="#669FBD" stroke="#314566"/>
<path d="M39 29L23 36L43 44L58 36L39 29Z" fill="#669FBD" stroke="#314566"/>
<path d="M39 34L23 41L43 49L58 41L39 34Z" fill="#669FBD" stroke="#314566"/>
<path d="M39 39L23 46L43 54L58 46L39 39Z" fill="#669FBD" stroke="#314566"/>
<path d="M587 29L571 36L591 44L606 36L587 29Z" fill="#669FBD" stroke="#314566"/>
<path d="M587 34L571 41L591 49L606 41L587 34Z" fill="#669FBD" stroke="#314566"/>
<path d="M587 39L571 46L591 54L606 46L587 39Z" fill="#669FBD" stroke="#314566"/>
<path d="M36 85.4338L44.7273 85.4338L44.7273 88.3826C44.7273 89.0645 44.6108 89.6241 44.3778 90.0616C44.1477 90.4991 43.831 90.823 43.4276 91.0332C43.0241 91.2434 42.5653 91.3485 42.0511 91.3485C41.5369 91.3485 41.081 91.2434 40.6832 91.0332C40.2855 90.823 39.973 90.5005 39.7457 90.0659C39.5213 89.6312 39.4091 89.0758 39.4091 88.3997L39.4091 86.0133L40.3636 86.0133L40.3636 88.3656C40.3636 88.8315 40.4318 89.2065 40.5682 89.4906C40.7045 89.7775 40.8977 89.9849 41.1477 90.1127C41.4006 90.2434 41.7017 90.3088 42.0511 90.3088C42.4006 90.3088 42.706 90.2434 42.9673 90.1127C43.2287 89.9821 43.4304 89.7733 43.5724 89.4863C43.7173 89.1994 43.7898 88.8201 43.7898 88.3485L43.7898 86.4906L36 86.4906L36 85.4338ZM39.9205 89.5417L36 91.6895L36 90.4622L39.9205 88.3485L39.9205 89.5417ZM36 93.7096L44.7273 93.7096L44.7273 98.9766L43.7898 98.9766L43.7898 94.7664L40.8409 94.7664L40.8409 98.7039L39.9034 98.7039L39.9034 94.7664L36.9375 94.7664L36.9375 99.0448L36 99.0448L36 93.7096ZM36 101.481L44.7273 101.481L44.7273 106.714L43.7898 106.714L43.7898 102.538L40.8409 102.538L40.8409 106.322L39.9034 106.322L39.9034 102.538L36 102.538L36 101.481ZM36 109.124L44.7273 109.124L44.7273 110.181L36.9375 110.181L36.9375 114.238L36 114.238L36 109.124ZM36 116.474L44.7273 116.474L44.7273 121.741L43.7898 121.741L43.7898 117.531L40.8409 117.531L40.8409 121.469L39.9034 121.469L39.9034 117.531L36.9375 117.531L36.9375 121.81L36 121.81L36 116.474ZM42 131.269L42 130.212C42.304 130.15 42.571 130.04 42.8011 129.884C43.0312 129.731 43.2244 129.543 43.3807 129.322C43.5398 129.103 43.6591 128.86 43.7386 128.593C43.8182 128.326 43.858 128.047 43.858 127.758C43.858 127.229 43.7244 126.751 43.4574 126.322C43.1903 125.895 42.7969 125.556 42.277 125.303C41.7571 125.053 41.1193 124.928 40.3636 124.928C39.608 124.928 38.9702 125.053 38.4503 125.303C37.9304 125.556 37.5369 125.895 37.2699 126.322C37.0028 126.751 36.8693 127.229 36.8693 127.758C36.8693 128.047 36.9091 128.326 36.9886 128.593C37.0682 128.86 37.1861 129.103 37.3423 129.322C37.5014 129.543 37.696 129.731 37.9261 129.884C38.1591 130.04 38.4261 130.15 38.7273 130.212L38.7273 131.269C38.2812 131.189 37.8821 131.045 37.5298 130.834C37.1776 130.624 36.8778 130.363 36.6307 130.05C36.3864 129.738 36.2003 129.387 36.0724 128.998C35.9446 128.611 35.8807 128.198 35.8807 127.758C35.8807 127.013 36.0625 126.351 36.4261 125.772C36.7898 125.192 37.3068 124.736 37.9773 124.404C38.6477 124.072 39.4432 123.905 40.3636 123.905C41.2841 123.905 42.0795 124.072 42.75 124.404C43.4205 124.736 43.9375 125.192 44.3011 125.772C44.6648 126.351 44.8466 127.013 44.8466 127.758C44.8466 128.198 44.7827 128.611 44.6548 128.998C44.527 129.387 44.3395 129.738 44.0923 130.05C43.848 130.363 43.5497 130.624 43.1974 130.834C42.848 131.045 42.4489 131.189 42 131.269ZM43.7898 133.099L44.7273 133.099L44.7273 139.645L43.7898 139.645L43.7898 136.901L36 136.901L36 135.844L43.7898 135.844L43.7898 133.099ZM44.7273 142.933L36 142.933L36 141.876L44.7273 141.876L44.7273 142.933ZM40.3636 153.015C39.4432 153.015 38.6477 152.849 37.9773 152.517C37.3068 152.184 36.7898 151.728 36.4261 151.149C36.0625 150.569 35.8807 149.907 35.8807 149.163C35.8807 148.419 36.0625 147.757 36.4261 147.177C36.7898 146.598 37.3068 146.142 37.9773 145.809C38.6477 145.477 39.4432 145.311 40.3636 145.311C41.2841 145.311 42.0795 145.477 42.75 145.809C43.4205 146.142 43.9375 146.598 44.3011 147.177C44.6648 147.757 44.8466 148.419 44.8466 149.163C44.8466 149.907 44.6648 150.569 44.3011 151.149C43.9375 151.728 43.4205 152.184 42.75 152.517C42.0795 152.849 41.2841 153.015 40.3636 153.015ZM40.3636 151.993C41.1193 151.993 41.7571 151.866 42.277 151.613C42.7969 151.363 43.1903 151.024 43.4574 150.595C43.7244 150.169 43.858 149.692 43.858 149.163C43.858 148.635 43.7244 148.156 43.4574 147.727C43.1903 147.301 42.7969 146.961 42.277 146.709C41.7571 146.459 41.1193 146.334 40.3636 146.334C39.608 146.334 38.9702 146.459 38.4503 146.709C37.9304 146.961 37.5369 147.301 37.2699 147.727C37.0028 148.156 36.8693 148.635 36.8693 149.163C36.8693 149.692 37.0028 150.169 37.2699 150.595C37.5369 151.024 37.9304 151.363 38.4503 151.613C38.9702 151.866 39.608 151.993 40.3636 151.993ZM44.7273 162.313L36 162.313L36 161.29L42.8523 156.534L42.8523 156.449L36 156.449L36 155.392L44.7273 155.392L44.7273 156.415L37.858 161.188L37.858 161.273L44.7273 161.273L44.7273 162.313ZM42.5455 169.8C42.9773 169.749 43.3125 169.542 43.5511 169.178C43.7898 168.814 43.9091 168.368 43.9091 167.84C43.9091 167.454 43.8466 167.116 43.7216 166.826C43.5966 166.539 43.4247 166.314 43.206 166.153C42.9872 165.993 42.7386 165.914 42.4602 165.914C42.2273 165.914 42.027 165.969 41.8594 166.08C41.6946 166.194 41.5568 166.339 41.446 166.515C41.3381 166.691 41.2486 166.876 41.1776 167.069C41.1094 167.262 41.054 167.439 41.0114 167.601L40.7727 168.488C40.7131 168.715 40.6307 168.968 40.5256 169.246C40.4205 169.528 40.277 169.796 40.0952 170.052C39.9162 170.31 39.6861 170.523 39.4048 170.691C39.1236 170.858 38.7784 170.942 38.3693 170.942C37.8977 170.942 37.4716 170.819 37.0909 170.572C36.7102 170.327 36.4077 169.969 36.1832 169.498C35.9588 169.029 35.8466 168.459 35.8466 167.789C35.8466 167.164 35.9474 166.623 36.1491 166.165C36.3508 165.711 36.6321 165.353 36.9929 165.091C37.3537 164.833 37.7727 164.687 38.25 164.653L38.25 165.743C37.9205 165.772 37.6477 165.883 37.4318 166.076C37.2187 166.272 37.0597 166.519 36.9545 166.817C36.8523 167.118 36.8011 167.442 36.8011 167.789C36.8011 168.192 36.8665 168.555 36.9972 168.876C37.1307 169.197 37.3153 169.451 37.5511 169.638C37.7898 169.826 38.0682 169.92 38.3864 169.92C38.6761 169.92 38.9119 169.839 39.0937 169.677C39.2756 169.515 39.4233 169.302 39.5369 169.037C39.6506 168.773 39.75 168.488 39.8352 168.181L40.142 167.107C40.3381 166.425 40.6179 165.885 40.9815 165.488C41.3452 165.09 41.821 164.891 42.4091 164.891C42.8977 164.891 43.3239 165.023 43.6875 165.287C44.054 165.555 44.3381 165.912 44.5398 166.361C44.7443 166.813 44.8466 167.317 44.8466 167.874C44.8466 168.437 44.7457 168.937 44.544 169.374C44.3452 169.812 44.0724 170.158 43.7258 170.414C43.3793 170.672 42.9858 170.809 42.5455 170.823L42.5455 169.8Z" fill="#669FBD"/>
<path d="M593 159.662L584.273 159.662L584.273 154.394L585.21 154.394L585.21 158.605L588.159 158.605L588.159 154.667L589.097 154.667L589.097 158.605L592.062 158.605L592.062 154.326L593 154.326L593 159.662ZM586.455 147.117C586.023 147.168 585.687 147.375 585.449 147.739C585.21 148.103 585.091 148.549 585.091 149.077C585.091 149.464 585.153 149.802 585.278 150.091C585.403 150.378 585.575 150.603 585.794 150.765C586.013 150.924 586.261 151.003 586.54 151.003C586.773 151.003 586.973 150.948 587.141 150.837C587.305 150.723 587.443 150.579 587.554 150.402C587.662 150.226 587.751 150.042 587.822 149.848C587.891 149.655 587.946 149.478 587.989 149.316L588.227 148.429C588.287 148.202 588.369 147.949 588.474 147.671C588.58 147.39 588.723 147.121 588.905 146.866C589.084 146.607 589.314 146.394 589.595 146.226C589.876 146.059 590.222 145.975 590.631 145.975C591.102 145.975 591.528 146.098 591.909 146.346C592.29 146.59 592.592 146.948 592.817 147.419C593.041 147.888 593.153 148.458 593.153 149.128C593.153 149.753 593.053 150.294 592.851 150.752C592.649 151.206 592.368 151.564 592.007 151.826C591.646 152.084 591.227 152.231 590.75 152.265L590.75 151.174C591.08 151.145 591.352 151.035 591.568 150.841C591.781 150.645 591.94 150.398 592.045 150.1C592.148 149.799 592.199 149.475 592.199 149.128C592.199 148.725 592.134 148.363 592.003 148.042C591.869 147.721 591.685 147.466 591.449 147.279C591.21 147.091 590.932 146.998 590.614 146.998C590.324 146.998 590.088 147.079 589.906 147.241C589.724 147.402 589.577 147.616 589.463 147.88C589.349 148.144 589.25 148.429 589.165 148.736L588.858 149.81C588.662 150.492 588.382 151.032 588.018 151.429C587.655 151.827 587.179 152.026 586.591 152.026C586.102 152.026 585.676 151.894 585.312 151.63C584.946 151.363 584.662 151.005 584.46 150.556C584.256 150.104 584.153 149.6 584.153 149.043C584.153 148.481 584.254 147.981 584.456 147.543C584.655 147.106 584.928 146.759 585.274 146.503C585.621 146.245 586.014 146.108 586.455 146.094L586.455 147.117ZM585.21 144.115L584.273 144.115L584.273 137.569L585.21 137.569L585.21 140.313L593 140.313L593 141.37L585.21 141.37L585.21 144.115ZM593.068 135.152C593.068 135.362 592.993 135.542 592.842 135.693C592.692 135.843 592.511 135.919 592.301 135.919C592.091 135.919 591.911 135.843 591.76 135.693C591.609 135.542 591.534 135.362 591.534 135.152C591.534 134.941 591.609 134.761 591.76 134.61C591.911 134.46 592.091 134.385 592.301 134.385C592.44 134.385 592.568 134.42 592.685 134.491C592.801 134.559 592.895 134.652 592.966 134.768C593.034 134.882 593.068 135.01 593.068 135.152ZM593 128.022L592.233 128.022L589.08 125.141C588.71 124.803 588.389 124.525 588.116 124.306C587.841 124.087 587.582 123.925 587.341 123.82C587.097 123.712 586.841 123.658 586.574 123.658C586.267 123.658 586.001 123.732 585.777 123.88C585.553 124.025 585.379 124.224 585.257 124.477C585.135 124.729 585.074 125.013 585.074 125.329C585.074 125.664 585.143 125.957 585.283 126.207C585.419 126.454 585.611 126.646 585.858 126.782C586.105 126.915 586.395 126.982 586.727 126.982L586.727 127.988C586.216 127.988 585.767 127.87 585.381 127.634C584.994 127.398 584.693 127.077 584.477 126.671C584.261 126.262 584.153 125.803 584.153 125.295C584.153 124.783 584.261 124.33 584.477 123.935C584.693 123.54 584.984 123.231 585.351 123.006C585.717 122.782 586.125 122.67 586.574 122.67C586.895 122.67 587.209 122.728 587.516 122.844C587.82 122.958 588.159 123.157 588.534 123.441C588.906 123.722 589.361 124.113 589.898 124.613L591.994 126.573L592.062 126.573L592.062 122.516L593 122.516L593 128.022ZM593.119 117.31C593.119 117.952 592.945 118.499 592.595 118.95C592.243 119.402 591.733 119.747 591.065 119.986C590.395 120.225 589.585 120.344 588.636 120.344C587.693 120.344 586.888 120.225 586.22 119.986C585.55 119.744 585.038 119.398 584.686 118.946C584.331 118.492 584.153 117.946 584.153 117.31C584.153 116.673 584.331 116.129 584.686 115.678C585.038 115.223 585.55 114.877 586.22 114.638C586.888 114.396 587.693 114.276 588.636 114.276C589.585 114.276 590.395 114.395 591.065 114.634C591.733 114.872 592.243 115.217 592.595 115.669C592.945 116.121 593.119 116.668 593.119 117.31ZM592.182 117.31C592.182 116.673 591.875 116.179 591.261 115.827C590.648 115.475 589.773 115.298 588.636 115.298C587.881 115.298 587.237 115.379 586.706 115.541C586.175 115.7 585.77 115.931 585.491 116.232C585.213 116.53 585.074 116.889 585.074 117.31C585.074 117.94 585.385 118.433 586.007 118.788C586.626 119.144 587.503 119.321 588.636 119.321C589.392 119.321 590.034 119.242 590.562 119.082C591.091 118.923 591.493 118.695 591.768 118.396C592.044 118.095 592.182 117.733 592.182 117.31ZM593.119 109.21C593.119 109.852 592.945 110.399 592.595 110.85C592.243 111.302 591.733 111.647 591.065 111.886C590.395 112.125 589.585 112.244 588.636 112.244C587.693 112.244 586.888 112.125 586.22 111.886C585.55 111.644 585.038 111.298 584.686 110.846C584.331 110.392 584.153 109.846 584.153 109.21C584.153 108.573 584.331 108.029 584.686 107.578C585.038 107.123 585.55 106.777 586.22 106.538C586.888 106.296 587.693 106.176 588.636 106.176C589.585 106.176 590.395 106.295 591.065 106.534C591.733 106.772 592.243 107.117 592.595 107.569C592.945 108.021 593.119 108.568 593.119 109.21ZM592.182 109.21C592.182 108.573 591.875 108.079 591.261 107.727C590.648 107.375 589.773 107.198 588.636 107.198C587.881 107.198 587.237 107.279 586.706 107.441C586.175 107.6 585.77 107.831 585.491 108.132C585.213 108.43 585.074 108.789 585.074 109.21C585.074 109.84 585.385 110.333 586.007 110.688C586.626 111.044 587.503 111.221 588.636 111.221C589.392 111.221 590.034 111.142 590.562 110.982C591.091 110.823 591.493 110.595 591.768 110.296C592.044 109.995 592.182 109.633 592.182 109.21ZM584.273 100.888L593 100.888L593 101.945L585.381 101.945L585.381 101.996L586.795 104.127L585.722 104.127L584.273 101.945L584.273 100.888Z" fill="#669FBD"/>
<path d="M261.548 43V30.016H258.332L259.148 26.92H269.06L268.244 30.016H264.692L265.628 31.648V43H261.548ZM280.028 34.096V26.92H284.108V39.832L285.86 40.24L284.348 43.36L280.028 42.4V36.04H276.548V43H272.468V29.944L270.716 29.56L272.228 26.44L276.548 27.376V34.096H280.028ZM290.593 42.832L288.721 40.216V31.192L291.961 26.44L297.985 27.208L296.689 30.4L291.769 29.752L292.801 31.264V33.4H296.089V36.136H292.801V39.64L297.937 39.952L296.929 43.168L290.593 42.832ZM306.645 26.44L310.293 27.208L312.861 39.64L313.269 39.712L315.669 30.088L312.957 29.56L314.469 26.44L317.829 27.064L313.389 43.264L309.549 42.856L306.549 29.848L305.061 29.56L306.645 26.44ZM320.583 35.872V31.528L324.447 26.44L329.367 27.136L331.647 31.072V39.784L333.159 40.192L331.647 43.312L327.567 42.352V37.816H324.663V43H320.583V37.816H319.143V35.872H320.583ZM324.663 35.872H327.567V30.472L323.631 29.728L324.663 31.312V35.872ZM336.848 42.64L336.992 29.944L335.216 29.56L336.728 26.44L341.072 27.376L340.928 38.032L340.376 39.976L342.344 40.336L343.832 38.032V26.92H347.912V39.856L349.664 40.24L348.152 43.36L343.832 42.4V40.552L344.552 38.824L344.384 38.752L341.432 43.36L336.848 42.64ZM357.366 37.816L357.03 39.544L361.47 39.832L360.558 43.168L355.134 42.856L353.286 40.24V29.944L351.534 29.56L353.046 26.44L357.366 27.376V37.816ZM365.156 43V30.016H361.94L362.756 26.92H372.668L371.852 30.016H368.3L369.236 31.648V43H365.156Z" fill="#314566"/>
<path d="M249.806 226.727H250.772L251.581 227.793L251.795 228.077L253.002 229.682H252.036L251.241 228.616L251.042 228.347L249.806 226.727ZM253.3 225.364C253.3 226.131 253.162 226.794 252.885 227.352C252.608 227.911 252.228 228.342 251.745 228.645C251.262 228.948 250.71 229.099 250.09 229.099C249.47 229.099 248.918 228.948 248.435 228.645C247.952 228.342 247.572 227.911 247.295 227.352C247.018 226.794 246.88 226.131 246.88 225.364C246.88 224.597 247.018 223.934 247.295 223.375C247.572 222.816 247.952 222.385 248.435 222.082C248.918 221.779 249.47 221.628 250.09 221.628C250.71 221.628 251.262 221.779 251.745 222.082C252.228 222.385 252.608 222.816 252.885 223.375C253.162 223.934 253.3 224.597 253.3 225.364ZM252.448 225.364C252.448 224.734 252.343 224.202 252.132 223.769C251.924 223.336 251.641 223.008 251.283 222.786C250.928 222.563 250.53 222.452 250.09 222.452C249.65 222.452 249.251 222.563 248.893 222.786C248.538 223.008 248.255 223.336 248.045 223.769C247.836 224.202 247.732 224.734 247.732 225.364C247.732 225.993 247.836 226.525 248.045 226.958C248.255 227.391 248.538 227.719 248.893 227.942C249.251 228.164 249.65 228.276 250.09 228.276C250.53 228.276 250.928 228.164 251.283 227.942C251.641 227.719 251.924 227.391 252.132 226.958C252.343 226.525 252.448 225.993 252.448 225.364ZM261.554 221.727H262.434V226.543C262.434 227.04 262.317 227.484 262.083 227.874C261.851 228.263 261.523 228.569 261.099 228.794C260.675 229.017 260.178 229.128 259.608 229.128C259.037 229.128 258.54 229.017 258.116 228.794C257.693 228.569 257.363 228.263 257.129 227.874C256.897 227.484 256.781 227.04 256.781 226.543V221.727H257.662V226.472C257.662 226.827 257.74 227.143 257.896 227.42C258.052 227.694 258.275 227.911 258.564 228.07C258.855 228.226 259.203 228.304 259.608 228.304C260.013 228.304 260.361 228.226 260.652 228.07C260.943 227.911 261.166 227.694 261.319 227.42C261.476 227.143 261.554 226.827 261.554 226.472V221.727ZM266.491 229H265.568L268.239 221.727H269.148L271.818 229H270.895L268.722 222.878H268.665L266.491 229ZM266.832 226.159H270.554V226.94H266.832V226.159ZM274.951 229V221.727H277.408C277.977 221.727 278.443 221.824 278.808 222.018C279.172 222.21 279.442 222.474 279.617 222.81C279.792 223.147 279.88 223.529 279.88 223.957C279.88 224.386 279.792 224.766 279.617 225.097C279.442 225.429 279.173 225.689 278.811 225.879C278.449 226.066 277.986 226.159 277.423 226.159H275.434V225.364H277.394C277.782 225.364 278.095 225.307 278.332 225.193C278.571 225.08 278.744 224.919 278.85 224.71C278.959 224.5 279.013 224.249 279.013 223.957C279.013 223.666 278.959 223.412 278.85 223.194C278.741 222.976 278.567 222.808 278.328 222.69C278.089 222.569 277.773 222.509 277.38 222.509H275.832V229H274.951ZM278.374 225.733L280.164 229H279.141L277.38 225.733H278.374ZM282.95 222.509V221.727H288.404V222.509H286.117V229H285.237V222.509H282.95ZM291.763 229V221.727H296.153V222.509H292.644V224.966H295.925V225.747H292.644V228.219H296.21V229H291.763ZM299.74 229V221.727H302.197C302.766 221.727 303.232 221.824 303.597 222.018C303.961 222.21 304.231 222.474 304.406 222.81C304.581 223.147 304.669 223.529 304.669 223.957C304.669 224.386 304.581 224.766 304.406 225.097C304.231 225.429 303.962 225.689 303.6 225.879C303.238 226.066 302.775 226.159 302.212 226.159H300.223V225.364H302.183C302.571 225.364 302.884 225.307 303.121 225.193C303.36 225.08 303.533 224.919 303.639 224.71C303.748 224.5 303.803 224.249 303.803 223.957C303.803 223.666 303.748 223.412 303.639 223.194C303.53 222.976 303.356 222.808 303.117 222.69C302.878 222.569 302.562 222.509 302.169 222.509H300.621V229H299.74ZM303.163 225.733L304.953 229H303.93L302.169 225.733H303.163ZM312.949 229V221.727H313.83V228.219H317.21V229H312.949ZM321.455 221.727V229H320.574V221.727H321.455ZM325.221 229V221.727H329.581V222.509H326.101V224.966H329.255V225.747H326.101V229H325.221ZM333.09 229V221.727H337.479V222.509H333.97V224.966H337.252V225.747H333.97V228.219H337.536V229H333.09ZM351.731 224H350.85C350.798 223.747 350.707 223.524 350.577 223.332C350.449 223.141 350.293 222.98 350.108 222.849C349.926 222.717 349.723 222.617 349.501 222.551C349.278 222.485 349.046 222.452 348.805 222.452C348.365 222.452 347.966 222.563 347.608 222.786C347.253 223.008 346.97 223.336 346.759 223.769C346.551 224.202 346.447 224.734 346.447 225.364C346.447 225.993 346.551 226.525 346.759 226.958C346.97 227.391 347.253 227.719 347.608 227.942C347.966 228.164 348.365 228.276 348.805 228.276C349.046 228.276 349.278 228.242 349.501 228.176C349.723 228.11 349.926 228.012 350.108 227.881C350.293 227.749 350.449 227.587 350.577 227.395C350.707 227.201 350.798 226.978 350.85 226.727H351.731C351.665 227.099 351.544 227.432 351.369 227.725C351.194 228.019 350.976 228.268 350.715 228.474C350.455 228.678 350.163 228.833 349.838 228.94C349.516 229.046 349.172 229.099 348.805 229.099C348.185 229.099 347.633 228.948 347.15 228.645C346.667 228.342 346.287 227.911 346.01 227.352C345.733 226.794 345.595 226.131 345.595 225.364C345.595 224.597 345.733 223.934 346.01 223.375C346.287 222.816 346.667 222.385 347.15 222.082C347.633 221.779 348.185 221.628 348.805 221.628C349.172 221.628 349.516 221.681 349.838 221.788C350.163 221.894 350.455 222.05 350.715 222.256C350.976 222.46 351.194 222.709 351.369 223.002C351.544 223.293 351.665 223.626 351.731 224ZM355.154 229V221.727H357.612C358.18 221.727 358.646 221.824 359.011 222.018C359.375 222.21 359.645 222.474 359.82 222.81C359.996 223.147 360.083 223.529 360.083 223.957C360.083 224.386 359.996 224.766 359.82 225.097C359.645 225.429 359.376 225.689 359.014 225.879C358.652 226.066 358.189 226.159 357.626 226.159H355.637V225.364H357.597C357.986 225.364 358.298 225.307 358.535 225.193C358.774 225.08 358.947 224.919 359.053 224.71C359.162 224.5 359.217 224.249 359.217 223.957C359.217 223.666 359.162 223.412 359.053 223.194C358.944 222.976 358.77 222.808 358.531 222.69C358.292 222.569 357.976 222.509 357.583 222.509H356.035V229H355.154ZM358.577 225.733L360.367 229H359.344L357.583 225.733H358.577ZM364.431 221.727V229H363.551V221.727H364.431ZM372.174 223.545C372.132 223.186 371.959 222.906 371.656 222.707C371.353 222.509 370.981 222.409 370.541 222.409C370.219 222.409 369.937 222.461 369.696 222.565C369.457 222.67 369.27 222.813 369.135 222.995C369.002 223.177 368.936 223.384 368.936 223.616C368.936 223.811 368.982 223.978 369.074 224.117C369.169 224.254 369.29 224.369 369.436 224.462C369.583 224.552 369.737 224.626 369.898 224.685C370.059 224.742 370.207 224.788 370.342 224.824L371.081 225.023C371.27 225.072 371.481 225.141 371.713 225.229C371.947 225.316 372.171 225.436 372.384 225.587C372.599 225.737 372.777 225.928 372.917 226.163C373.056 226.397 373.126 226.685 373.126 227.026C373.126 227.419 373.023 227.774 372.817 228.091C372.614 228.408 372.315 228.66 371.922 228.847C371.532 229.034 371.057 229.128 370.498 229.128C369.977 229.128 369.526 229.044 369.145 228.876C368.766 228.708 368.468 228.473 368.25 228.173C368.035 227.872 367.913 227.523 367.885 227.125H368.794C368.817 227.4 368.91 227.627 369.071 227.807C369.234 227.984 369.44 228.117 369.689 228.205C369.94 228.29 370.209 228.332 370.498 228.332C370.834 228.332 371.136 228.278 371.404 228.169C371.671 228.058 371.883 227.904 372.039 227.707C372.196 227.509 372.274 227.277 372.274 227.011C372.274 226.77 372.206 226.573 372.071 226.422C371.936 226.27 371.759 226.147 371.539 226.053C371.319 225.958 371.081 225.875 370.825 225.804L369.93 225.548C369.362 225.385 368.912 225.152 368.581 224.849C368.249 224.546 368.083 224.149 368.083 223.659C368.083 223.252 368.194 222.897 368.414 222.594C368.636 222.288 368.935 222.052 369.309 221.884C369.685 221.713 370.105 221.628 370.569 221.628C371.038 221.628 371.455 221.712 371.819 221.88C372.184 222.046 372.473 222.273 372.686 222.562C372.901 222.851 373.015 223.179 373.027 223.545H372.174ZM377.455 221.727V229H376.574V221.727H377.455ZM385.198 223.545C385.155 223.186 384.982 222.906 384.679 222.707C384.376 222.509 384.005 222.409 383.564 222.409C383.242 222.409 382.961 222.461 382.719 222.565C382.48 222.67 382.293 222.813 382.158 222.995C382.025 223.177 381.959 223.384 381.959 223.616C381.959 223.811 382.005 223.978 382.098 224.117C382.192 224.254 382.313 224.369 382.46 224.462C382.607 224.552 382.761 224.626 382.922 224.685C383.083 224.742 383.23 224.788 383.365 224.824L384.104 225.023C384.293 225.072 384.504 225.141 384.736 225.229C384.971 225.316 385.194 225.436 385.407 225.587C385.623 225.737 385.8 225.928 385.94 226.163C386.08 226.397 386.15 226.685 386.15 227.026C386.15 227.419 386.047 227.774 385.841 228.091C385.637 228.408 385.339 228.66 384.946 228.847C384.555 229.034 384.08 229.128 383.522 229.128C383.001 229.128 382.55 229.044 382.169 228.876C381.79 228.708 381.492 228.473 381.274 228.173C381.058 227.872 380.936 227.523 380.908 227.125H381.817C381.841 227.4 381.933 227.627 382.094 227.807C382.257 227.984 382.463 228.117 382.712 228.205C382.963 228.29 383.233 228.332 383.522 228.332C383.858 228.332 384.16 228.278 384.427 228.169C384.695 228.058 384.907 227.904 385.063 227.707C385.219 227.509 385.297 227.277 385.297 227.011C385.297 226.77 385.23 226.573 385.095 226.422C384.96 226.27 384.782 226.147 384.562 226.053C384.342 225.958 384.104 225.875 383.848 225.804L382.953 225.548C382.385 225.385 381.935 225.152 381.604 224.849C381.273 224.546 381.107 224.149 381.107 223.659C381.107 223.252 381.217 222.897 381.437 222.594C381.66 222.288 381.958 222.052 382.332 221.884C382.708 221.713 383.129 221.628 383.593 221.628C384.061 221.628 384.478 221.712 384.843 221.88C385.207 222.046 385.496 222.273 385.709 222.562C385.925 222.851 386.038 223.179 386.05 223.545H385.198Z" fill="#314566"/>
<rect x="79" y="65.1377" width="16" height="118.263" fill="#669FBD"/>
<rect x="76" y="50" width="22" height="5.67665" fill="#669FBD"/>
<rect x="76" y="202.323" width="22" height="5.67665" fill="#669FBD"/>
<rect x="77" y="57.5688" width="20" height="2.83832" fill="#669FBD"/>
<rect x="77" y="198.539" width="20" height="2.83832" fill="#669FBD"/>
<rect x="78" y="61.3533" width="18" height="1.89222" fill="#669FBD"/>
<rect x="78" y="195.701" width="18" height="1.89222" fill="#669FBD"/>
<rect x="79" y="190.024" width="16" height="4.73054" fill="#669FBD"/>
<rect x="78" y="184.347" width="18" height="1.89222" fill="#669FBD"/>
<rect x="76" y="187.186" width="22" height="1.89222" fill="#669FBD"/>
<path d="M81 73.6527V176.305" stroke="#314566"/>
<path d="M85 73.6527V176.305" stroke="#314566"/>
<path d="M89 73.6527V176.305" stroke="#314566"/>
<path d="M93 73.6527V176.305" stroke="#314566"/>
<rect x="536" y="65.1377" width="16" height="118.263" fill="#669FBD"/>
<rect x="533" y="50" width="22" height="5.67665" fill="#669FBD"/>
<rect x="533" y="202.323" width="22" height="5.67665" fill="#669FBD"/>
<rect x="534" y="57.5688" width="20" height="2.83832" fill="#669FBD"/>
<rect x="534" y="198.539" width="20" height="2.83832" fill="#669FBD"/>
<rect x="535" y="61.3533" width="18" height="1.89222" fill="#669FBD"/>
<rect x="535" y="195.701" width="18" height="1.89222" fill="#669FBD"/>
<rect x="536" y="190.024" width="16" height="4.73054" fill="#669FBD"/>
<rect x="535" y="184.347" width="18" height="1.89222" fill="#669FBD"/>
<rect x="533" y="187.186" width="22" height="1.89222" fill="#669FBD"/>
<path d="M538 73.6527V176.305" stroke="#314566"/>
<path d="M542 73.6527V176.305" stroke="#314566"/>
<path d="M546 73.6527V176.305" stroke="#314566"/>
<path d="M550 73.6527V176.305" stroke="#314566"/>
</svg>
